# File exported by Houdini 15.0.459 (www.sidefx.com)
# 24 points
# 132 vertices
# 44 primitives
# Bounds: [-0.5, -0.5, -0.49999994] to [0.5, 0.5, 0.5]
g 
v -0.48999998 -0.5 -0.48999998
v -0.5 -0.48999998 -0.48999998
v -0.48999998 -0.48999998 -0.49999994
v 0.5 -0.48999998 -0.48999998
v 0.48999998 -0.5 -0.48999998
v 0.48999998 -0.48999998 -0.49999994
v 0.48999998 -0.5 0.490000039
v 0.5 -0.48999998 0.490000039
v 0.48999998 -0.48999998 0.5
v -0.48999998 -0.48999998 0.5
v -0.5 -0.48999998 0.490000039
v -0.48999998 -0.5 0.490000039
v -0.48999998 0.48999998 -0.49999994
v -0.5 0.48999998 -0.48999998
v -0.48999998 0.5 -0.48999998
v 0.48999998 0.5 -0.48999998
v 0.5 0.48999998 -0.48999998
v 0.48999998 0.48999998 -0.49999994
v 0.5 0.48999998 0.490000039
v 0.48999998 0.5 0.490000039
v 0.48999998 0.48999998 0.5
v -0.48999998 0.5 0.490000039
v -0.5 0.48999998 0.490000039
v -0.48999998 0.48999998 0.5
vn 0 0.00999999978 0
vn 0 0.00999999978 0
vn 0 0.00999999978 0
vn 0 0.00999999978 0
vn 0 0.00999999978 0
vn 0 0.00999999978 0
vn 0 -0.00999999978 0
vn 0 -0.00999999978 0
vn 0 -0.00999999978 0
vn 0 -0.00999999978 0
vn 0 -0.00999999978 0
vn 0 -0.00999999978 0
vn 0.00999999978 0 0
vn 0.00999999978 0 0
vn 0.00999999978 0 0
vn 0.00999999978 0 0
vn 0.00999999978 0 0
vn 0.00999999978 0 0
vn -0.00999999978 0 0
vn -0.00999999978 0 0
vn -0.00999999978 0 0
vn -0.00999999978 0 0
vn -0.00999999978 0 0
vn -0.00999999978 0 0
vn 0 0 0.00999999978
vn 0 0 0.00999999978
vn 0 0 0.00999999978
vn 0 0 0.00999999978
vn 0 0 0.00999999978
vn 0 0 0.00999999978
vn 0 0 -0.00999999978
vn 0 0 -0.00999999978
vn 0 0 -0.00999999978
vn 0 0 -0.00999999978
vn 0 0 -0.00999999978
vn 0 0 -0.00999999978
vn 0.00673886389 0.003029051 -0.00673888391
vn 0.00673886389 -0.003029051 -0.00673888391
vn 0.00673886389 0.003029051 -0.00673888391
vn 0.00673886389 -0.003029051 -0.00673888391
vn 0.00673886389 -0.003029051 -0.00673888391
vn 0.00673886389 0.003029051 -0.00673888391
vn -0.003029051 -0.00673886389 -0.00673888391
vn 0.003029051 -0.00673886389 -0.00673888391
vn -0.003029051 -0.00673886389 -0.00673888391
vn 0.003029051 -0.00673886389 -0.00673888391
vn 0.003029051 -0.00673886389 -0.00673888391
vn -0.003029051 -0.00673886389 -0.00673888391
vn -0.00673886389 -0.003029051 -0.00673888391
vn -0.00673886389 0.003029051 -0.00673888391
vn -0.00673886389 -0.003029051 -0.00673888391
vn -0.00673886389 0.003029051 -0.00673888391
vn -0.00673886389 0.003029051 -0.00673888391
vn -0.00673886389 -0.003029051 -0.00673888391
vn 0.003029051 0.00673886389 -0.00673888391
vn -0.003029051 0.00673886389 -0.00673888391
vn 0.003029051 0.00673886389 -0.00673888391
vn -0.003029051 0.00673886389 -0.00673888391
vn -0.003029051 0.00673886389 -0.00673888391
vn 0.003029051 0.00673886389 -0.00673888391
vn 0.00673886389 -0.003029051 0.00673888391
vn 0.00673886389 0.003029051 0.00673888391
vn 0.00673886389 -0.003029051 0.00673888391
vn 0.00673886389 0.003029051 0.00673888391
vn 0.00673886389 0.003029051 0.00673888391
vn 0.00673886389 -0.003029051 0.00673888391
vn -0.003029051 0.00673886389 0.00673888391
vn 0.003029051 0.00673886389 0.00673888391
vn -0.003029051 0.00673886389 0.00673888391
vn 0.003029051 0.00673886389 0.00673888391
vn 0.003029051 0.00673886389 0.00673888391
vn -0.003029051 0.00673886389 0.00673888391
vn -0.00673886389 0.003029051 0.00673888391
vn -0.00673886389 -0.003029051 0.00673888391
vn -0.00673886389 0.003029051 0.00673888391
vn -0.00673886389 -0.003029051 0.00673888391
vn -0.00673886389 -0.003029051 0.00673888391
vn -0.00673886389 0.003029051 0.00673888391
vn 0.003029051 -0.00673886389 0.00673888391
vn -0.003029051 -0.00673886389 0.00673888391
vn 0.003029051 -0.00673886389 0.00673888391
vn -0.003029051 -0.00673886389 0.00673888391
vn -0.003029051 -0.00673886389 0.00673888391
vn 0.003029051 -0.00673886389 0.00673888391
vn -0.0067388718 0.0067388718 0.00302906125
vn -0.0067388718 0.0067388718 -0.00302906125
vn -0.0067388718 0.0067388718 0.00302906125
vn -0.0067388718 0.0067388718 -0.00302906125
vn -0.0067388718 0.0067388718 -0.00302906125
vn -0.0067388718 0.0067388718 0.00302906125
vn -0.0067388718 -0.0067388718 -0.00302906125
vn -0.0067388718 -0.0067388718 0.00302906125
vn -0.0067388718 -0.0067388718 -0.00302906125
vn -0.0067388718 -0.0067388718 0.00302906125
vn -0.0067388718 -0.0067388718 0.00302906125
vn -0.0067388718 -0.0067388718 -0.00302906125
vn 0.0067388718 0.0067388718 -0.00302906125
vn 0.0067388718 0.0067388718 0.00302906125
vn 0.0067388718 0.0067388718 -0.00302906125
vn 0.0067388718 0.0067388718 0.00302906125
vn 0.0067388718 0.0067388718 0.00302906125
vn 0.0067388718 0.0067388718 -0.00302906125
vn 0.0067388718 -0.0067388718 0.00302906125
vn 0.0067388718 -0.0067388718 -0.00302906125
vn 0.0067388718 -0.0067388718 0.00302906125
vn 0.0067388718 -0.0067388718 -0.00302906125
vn 0.0067388718 -0.0067388718 -0.00302906125
vn 0.0067388718 -0.0067388718 0.00302906125
vn -0.00476510171 -0.00738833612 -0.00476511149
vn -0.00738833612 -0.00476510171 -0.00476511149
vn -0.00476509565 -0.00476509565 -0.00738835102
vn 0.00738833612 -0.00476510171 -0.00476511149
vn 0.00476510171 -0.00738833612 -0.00476511149
vn 0.00476509565 -0.00476509565 -0.00738835102
vn 0.00476510171 -0.00738833612 0.00476511149
vn 0.00738833612 -0.00476510171 0.00476511149
vn 0.00476509565 -0.00476509565 0.00738835102
vn -0.00476509565 -0.00476509565 0.00738835102
vn -0.00738833612 -0.00476510171 0.00476511149
vn -0.00476510171 -0.00738833612 0.00476511149
vn -0.00476509565 0.00476509565 -0.00738835102
vn -0.00738833612 0.00476510171 -0.00476511149
vn -0.00476510171 0.00738833612 -0.00476511149
vn 0.00476510171 0.00738833612 -0.00476511149
vn 0.00738833612 0.00476510171 -0.00476511149
vn 0.00476509565 0.00476509565 -0.00738835102
vn 0.00738833612 0.00476510171 0.00476511149
vn 0.00476510171 0.00738833612 0.00476511149
vn 0.00476509565 0.00476509565 0.00738835102
vn -0.00476510171 0.00738833612 0.00476511149
vn -0.00738833612 0.00476510171 0.00476511149
vn -0.00476509565 0.00476509565 0.00738835102
g 
f 22//1 20//2 15//3
f 20//4 16//5 15//6
f 7//7 12//8 5//9
f 12//10 1//11 5//12
f 17//13 19//14 4//15
f 19//16 8//17 4//18
f 14//19 2//20 23//21
f 2//22 11//23 23//24
f 21//25 24//26 9//27
f 24//28 10//29 9//30
f 6//31 3//32 18//33
f 3//34 13//35 18//36
f 17//37 4//38 18//39
f 4//40 6//41 18//42
f 3//43 6//44 1//45
f 6//46 5//47 1//48
f 2//49 14//50 3//51
f 14//52 13//53 3//54
f 18//55 13//56 16//57
f 13//58 15//59 16//60
f 8//61 19//62 9//63
f 19//64 21//65 9//66
f 24//67 21//68 22//69
f 21//70 20//71 22//72
f 23//73 11//74 24//75
f 11//76 10//77 24//78
f 9//79 10//80 7//81
f 10//82 12//83 7//84
f 22//85 15//86 23//87
f 15//88 14//89 23//90
f 1//91 12//92 2//93
f 12//94 11//95 2//96
f 16//97 20//98 17//99
f 20//100 19//101 17//102
f 7//103 5//104 8//105
f 5//106 4//107 8//108
f 1//109 2//110 3//111
f 4//112 5//113 6//114
f 7//115 8//116 9//117
f 10//118 11//119 12//120
f 13//121 14//122 15//123
f 16//124 17//125 18//126
f 19//127 20//128 21//129
f 22//130 23//131 24//132
