# WaveFront *.obj file (generated by CINEMA 4D)

v 0.00025970267598 0 0
v -0.00268215243705 0.24374976754189 0
v 0.04926166683435 0.31555858254433 0.00928495079279
v 0.04926166683435 0.31555858254433 -0.00928495079279
v 0.0857787951827 0 -0.06213325634599
v 0.0857787951827 0.02988005056977 -0.06213325634599
v 0.03400848433375 0.32393181324005 0.01506505534053
v 0.03400848433375 0.32393181324005 -0.01506505534053
v -0.03240568190813 0 -0.10053372383118
v -0.03240568190813 0.02988005056977 -0.10053372383118
v -0.00441261660308 0.15449413657188 -0.01526686083525
v 0.02462527155876 0.32908269762993 -0
v -0.10544770956039 0 -0
v -0.10544770956039 0.02988005056977 -0
v 0.08962685614824 0.38921707868576 0.00921337306499
v 0.08962685614824 0.38921707868576 -0.00921337306499
v -0.03240568190813 0 0.10053372383118
v -0.03240568190813 0.02988005056977 0.10053372383118
v 0.07593947649002 0.39973706007004 0.0149481492117
v 0.07593947649002 0.39973706007004 -0.0149481492117
v 0.0857787951827 0 0.06213325634599
v 0.0857787951827 0.02988005056977 0.06213325634599
v -0.01523635815829 0.15596713125706 0
v 0.01324646826833 0.06827656924725 -0.00943543855101
v 0.06751902401447 0.4062088727951 -0
v -0.00470080133528 0.06827904284 -0.01526686083525
v 0.14076416194439 0.45584911108017 0.00914183352143
v -0.01579282432795 0.06828057020903 0
v 0.14076416194439 0.45584911108017 -0.00914183352143
v -0.00470080133528 0.06827904284 0.01526686083525
v 0.12906163930893 0.46835291385651 0.01483098417521
v 0.01324646826833 0.06827656924725 0.00943543855101
v 0.01310056541115 0.15211080014706 0.00943543855101
v 0.12906163930893 0.46835291385651 -0.01483098417521
v 0.12186153978109 0.4760459959507 -0
v 0.20204670727253 0.51328891515732 0.00907028466463
v 0.20204670727253 0.51328891515732 -0.00907028466463
v 0.1926236897707 0.5274246931076 0.01471379678696
v 0.1926236897707 0.5274246931076 -0.01471379678696
v 0.18682543933392 0.53612273931503 -0
v 0.27190348505974 0.5599222779274 0.00899872463197
v 0.27190348505974 0.5599222779274 -0.00899872463197
v 0.26530796289444 0.57542932033539 0.01459661126137
v -0.00441261660308 0.15449413657188 0.01526686083525
v 0.26530796289444 0.57542932033539 -0.01459661126137
v 0.26124909520149 0.58497226238251 -0
v 0.01310056541115 0.15211080014706 -0.00943543855101
v 0.34915140271187 0.59291887283325 0.00892715435475
v 0.34915140271187 0.59291887283325 -0.00892715435475
v 0.34260961413383 0.60829961299896 0.01447942666709
v 0.34260961413383 0.60829961299896 -0.01447942666709
v 0.33858335018158 0.6177659034729 -0
v 0.0243713837117 0.23534266650677 0.00935709849
v 0.0243713837117 0.23534266650677 -0.00935709849
v 0.00762389414012 0.24054709076881 0.01517930440605
v 0.00762389414012 0.24054709076881 -0.01517930440605
v 0.38366320729256 0.61908543109894 -0
v 0.37290808558464 0.57283306121826 0.02943657711148
v 0.37290808558464 0.57283306121826 -0.02943657711148
v 0.35134759545326 0.62352502346039 -0.04766057059169
v 0.35134759545326 0.62352502346039 0.04766057059169
v 0.33802324533463 0.65485233068466 -0
v 0.39359253644943 0.59574013948441 0.01872840709984
v 0.37985244393349 0.62804514169693 -0.03050431236625
v 0.39359253644943 0.59574013948441 -0.01872840709984
v 0.37985244393349 0.62804514169693 0.03050431236625
v 0.37146061658859 0.64777547121048 -0
# 67 vertices

vn 0 -1 0
vn 0 0 0
vn 1 0 0
vn -0.12161408364773 0.91923695802689 0.37445083260536
vn -0.12155627459288 0.91923606395721 0.374471783638
vn 0.26131889224052 0.91507661342621 0.30715987086296
vn 0.30901703238487 0 -0.95105648040771
vn 0.30901703238487 0 -0.95105648040771
vn -0.39193698763847 0.9150795340538 -0.09494664520025
vn -0.03079837374389 0.91508519649506 -0.40208268165588
vn -0.21134416759014 0.91507804393768 -0.34346145391464
vn 0.31853306293488 0.91923010349274 -0.23141452670097
vn 0.31849819421768 0.91924524307251 -0.23140245676041
vn 0.37284860014915 0.91509538888931 0.15357185900211
vn -0.80901700258255 0 -0.58778524398804
vn 0.30901703238487 0 0.95105648040771
vn 0.99999850988388 0.00174038182013 0
vn 0.99602591991425 -0.08906368911266 0
vn 0.99904644489288 -0.0436598546803 0
vn 0.31250441074371 -0.00024149782257 -0.94991630315781
vn 0.31434524059296 -0.02795945294201 -0.94889688491821
vn 0.31187474727631 -0.0143154412508 -0.95001536607742
vn -0.3919141292572 0.91509389877319 0.09490270167589
vn -0.80901700258255 0 0.58778524398804
vn -0.80901700258255 0 0.58778524398804
vn 0.31240606307983 -0.00025888293749 0.94994860887527
vn 0.31420782208443 -0.02849359996617 0.94892650842667
vn 0.31186375021935 -0.01389745157212 0.95002520084381
vn -0.81228673458099 0.00393990194425 0.58324497938156
vn -0.81145775318146 0.07820098102093 0.57915538549423
vn -0.81105452775955 0.04042702913284 0.5835719704628
vn -0.81234300136566 0.00393028976396 -0.58316671848297
vn -0.81158345937729 0.07738541066647 -0.57908880710602
vn -0.81104183197021 0.04105669260025 -0.58354562520981
vn 0.97001516819 -0.24304430186749 0
vn 0.98201102018356 -0.18882372975349 0
vn 0.30796101689339 -0.07718598842621 0.94826281070709
vn 0.30936548113823 -0.05901912599802 0.94910997152328
vn 0.3081741631031 -0.07677238434553 -0.94822710752487
vn 0.30930548906326 -0.05944550409913 -0.9491029381752
vn -0.79104536771774 0.20457528531551 0.5765380859375
vn -0.79910010099411 0.15889431536198 0.57982033491135
vn -0.79126137495041 0.20395438373089 -0.5764616727829
vn -0.79899221658707 0.15950603783131 -0.57980108261108
vn 0.90703988075256 -0.42104467749596 0
vn 0.93319815397263 -0.35936218500137 0
vn 0.28769040107727 -0.1332446038723 0.94840925931931
vn 0.29492908716202 -0.11306143552065 0.94880658388138
vn 0.28794494271278 -0.1328497081995 -0.94838738441467
vn 0.29489171504974 -0.11330197751522 -0.94878953695297
vn -0.73853451013565 0.34864827990532 0.57707124948502
vn -0.75918650627136 0.29814374446869 0.57857251167297
vn -0.73883974552155 0.34807667136192 -0.57702547311783
vn -0.75908374786377 0.29848039150238 -0.57853382825851
vn 0.82333427667618 -0.56755673885345 0
vn 0.85129082202911 -0.5246941447258 0
vn 0.26111578941345 -0.17962810397148 0.94844728708267
vn 0.26903274655342 -0.1651107519865 0.94887292385101
vn 0.26131343841553 -0.17943958938122 -0.94842857122421
vn 0.26889476180077 -0.16535288095474 -0.94886988401413
vn -0.66956341266632 0.46749195456505 0.57717943191528
vn -0.69190126657486 0.43161061406136 0.57877880334854
vn -0.66980046033859 0.46720179915428 -0.57713937759399
vn -0.69169425964355 0.43195298314095 -0.57877087593079
vn 0.72247779369354 -0.69139415025711 0
vn 0.75906646251678 -0.65101319551468 0
vn 0.22922743856907 -0.21896374225616 0.94842481613159
vn 0.24002610146999 -0.20508953928947 0.94885498285294
vn 0.2294762134552 -0.2187886685133 -0.94840508699417
vn 0.23985587060452 -0.2053104788065 -0.94885021448135
vn -0.58656197786331 0.5682492852211 0.5770942568779
vn -0.61605226993561 0.53439253568649 0.57870906591415
vn -0.58687287569046 0.56797099113464 -0.57705217599869
vn -0.61579525470734 0.53470122814178 -0.57869744300842
vn 0.5998962521553 -0.80007779598236 0
vn 0.64290827512741 -0.76594316959381 0
vn 0.19053415954113 -0.25378856062889 0.94830805063248
vn 0.20342272520065 -0.24144458770752 0.94885390996933
vn 0.1908223181963 -0.25366961956024 -0.94828188419342
vn 0.20315819978714 -0.24167661368847 -0.94885146617889
vn -0.48569348454475 0.65694063901901 0.57665491104126
vn -0.5206463932991 0.62771284580231 0.57870888710022
vn -0.48605480790138 0.65672224760056 -0.57659912109375
vn -0.52025991678238 0.62803941965103 -0.57870209217072
vn 0.44865149259567 -0.89370679855347 0
vn 0.50298994779587 -0.86429226398468 0
vn 0.14228118956089 -0.2819941341877 0.94880735874176
vn 0.15933009982109 -0.27271082997322 0.94881123304367
vn 0.14262619614601 -0.28184473514557 -0.94879990816116
vn 0.1593719124794 -0.27275824546814 -0.94879055023193
vn -0.3629487156868 0.73048430681229 0.57849878072739
vn -0.40651440620422 0.70715916156769 0.57850843667984
vn -0.36342123150826 0.73026096820831 -0.57848417758942
vn -0.40653815865517 0.70718276500702 -0.57846283912659
vn 0.39281615614891 -0.91961705684662 0
vn 0.39281612634659 -0.91961705684662 0
vn 0.92022335529327 0.3913936316967 -0.00000000152183
vn 0.92022323608398 0.39139395952225 0
vn 0.92022335529327 0.39139360189438 0.00000065645389
vn 0.12458000332117 -0.28959429264069 -0.94900733232498
vn 0.12458030879498 -0.2895947098732 -0.94900721311569
vn -0.31825762987137 0.75051766633987 0.57916778326035
vn -0.31825760006905 0.75051724910736 0.57916831970215
vn -0.31825795769691 0.75051754713058 -0.57916778326035
vn -0.31825762987137 0.75051724910736 -0.57916831970215
vn 0.92022335529327 0.39139360189438 -0.00000066025848
vn 0.92022341489792 0.39139354228973 0.0000002739279
vn 0.92022341489792 0.39139354228973 -0.00000027773245
vn 0.12458020448685 -0.28959423303604 0.94900733232498
vn 0.12458029389381 -0.2895947098732 0.94900721311569
vn -0.92959439754486 -0.17497958242893 -0.32440158724785
vn -0.86199098825455 -0.33488047122955 -0.38056087493896
vn -0.99590545892715 -0.01485334709287 -0.08917232602835
vn -0.99584877490997 -0.01442080643028 0.08987382054329
vn -0.92963618040085 -0.17436656355858 0.32461184263229
vn -0.70885181427002 -0.69027942419052 0.14506343007088
vn -0.75145560503006 -0.59244245290756 0.29039019346237
vn -0.70891463756561 -0.69017893075943 -0.14523458480835
vn -0.75134700536728 -0.59247648715973 -0.29060158133507
vn -0.86229538917542 -0.33447608351707 0.38022685050964
vn 0.17330329120159 0.84629207849503 -0.50374162197113
vn 0.16789083182812 0.84817063808441 -0.50241339206696
vn 0.1754037886858 0.84622031450272 0.50313484668732
vn 0.17943622171879 0.84781682491302 0.49900832772255
vn 0.74219632148743 -0.6701825261116 0
vn 0.52623623609543 -0.08255482465029 -0.84632152318954
vn 0.52899825572968 -0.08286824077368 -0.84456717967987
vn 0.52528828382492 -0.08315589278936 0.8468514084816
vn 0.52375143766403 -0.08616951853037 0.84750175476074
vn 0.99999850988388 0.00174038182013 0
vn 0.30901673436165 -0.00103293219581 -0.9510560631752
vn -0.80901700258255 0 0.58778524398804
vn 0.30901706218719 0.00053780974122 0.95105636119843
vn -0.80901390314102 0.00270423525944 0.58778327703476
vn -0.80900609493256 0.00513402186334 -0.58777779340744
vn 0.1787097454071 0.84438425302506 -0.50505250692368
vn 0.17136506736279 0.84459352493286 0.50724333524704
vn 0.52346855401993 -0.08224051445723 -0.84806674718857
vn 0.52681881189346 -0.08014126867056 0.84619104862213
# 139 normals

o antenna
usemtl default
f 5//1 21//1 1//1
f 6//3 22//3 21//3
f 32//6 30//5 18//4
f 9//1 5//1 1//1
f 10//7 6//8 5//7
f 21//1 17//1 1//1
f 26//11 10//10 14//9
f 22//14 6//13 24//12
f 10//10 26//11 24//12
f 13//1 9//1 1//1
f 14//15 10//15 9//15
f 22//16 18//16 17//16
f 47//19 33//18 32//17
f 11//22 47//21 24//20
f 28//23 14//9 18//4
f 17//1 13//1 1//1
f 18//24 14//25 13//24
f 33//28 44//27 30//26
f 44//31 23//30 28//29
f 23//34 11//33 26//32
f 54//36 53//35 33//18
f 53//38 55//37 44//27
f 56//40 54//39 47//21
f 55//42 2//41 23//30
f 2//44 56//43 11//33
f 4//46 3//45 53//35
f 3//48 7//47 55//37
f 8//50 4//49 54//39
f 7//52 12//51 2//41
f 12//54 8//53 56//43
f 16//56 15//55 3//45
f 15//58 19//57 7//47
f 20//60 16//59 4//49
f 19//62 25//61 12//51
f 25//64 20//63 8//53
f 29//66 27//65 15//55
f 27//68 31//67 19//57
f 34//70 29//69 16//59
f 31//72 35//71 25//61
f 35//74 34//73 20//63
f 37//76 36//75 27//65
f 36//78 38//77 31//67
f 39//80 37//79 29//69
f 38//82 40//81 35//71
f 40//84 39//83 34//73
f 42//86 41//85 36//75
f 41//88 43//87 38//77
f 45//90 42//89 37//79
f 43//92 46//91 40//81
f 46//94 45//93 39//83
f 49//96 48//95 41//85
f 64//99 67//98 57//97
f 51//101 49//100 42//89
f 50//103 52//102 46//91
f 52//105 51//104 45//93
f 66//106 57//97 67//98
f 63//108 65//107 57//97
f 64//99 57//97 65//107
f 48//110 50//109 43//87
f 66//106 63//108 57//97
f 62//113 60//112 51//111
f 61//115 62//113 52//114
f 59//118 58//117 48//116
f 60//112 59//118 49//119
f 58//117 61//115 50//120
f 67//121 64//122 60//121
f 66//123 67//124 62//123
f 65//125 63//125 58//125
f 64//126 65//127 59//126
f 63//128 66//129 61//128
f 5//3 6//3 21//3
f 22//14 32//6 18//4
f 9//7 10//7 5//7
f 28//23 26//11 14//9
f 32//6 22//14 24//12
f 6//13 10//10 24//12
f 13//15 14//15 9//15
f 21//16 22//16 17//16
f 24//130 47//19 32//17
f 26//131 11//22 24//20
f 30//5 28//23 18//4
f 17//132 18//24 13//24
f 32//133 33//28 30//26
f 30//134 44//31 28//29
f 28//135 23//34 26//32
f 47//19 54//36 33//18
f 33//28 53//38 44//27
f 11//22 56//40 47//21
f 44//31 55//42 23//30
f 23//34 2//44 11//33
f 54//36 4//46 53//35
f 53//38 3//48 55//37
f 56//40 8//50 54//39
f 55//42 7//52 2//41
f 2//44 12//54 56//43
f 4//46 16//56 3//45
f 3//48 15//58 7//47
f 8//50 20//60 4//49
f 7//52 19//62 12//51
f 12//54 25//64 8//53
f 16//56 29//66 15//55
f 15//58 27//68 19//57
f 20//60 34//70 16//59
f 19//62 31//72 25//61
f 25//64 35//74 20//63
f 29//66 37//76 27//65
f 27//68 36//78 31//67
f 34//70 39//80 29//69
f 31//72 38//82 35//71
f 35//74 40//84 34//73
f 37//76 42//86 36//75
f 36//78 41//88 38//77
f 39//80 45//90 37//79
f 38//82 43//92 40//81
f 40//84 46//94 39//83
f 42//86 49//96 41//85
f 45//90 51//101 42//89
f 43//92 50//103 46//91
f 46//94 52//105 45//93
f 41//88 48//110 43//87
f 52//114 62//113 51//111
f 50//120 61//115 52//114
f 49//119 59//118 48//116
f 51//111 60//112 49//119
f 48//116 58//117 50//120
f 62//136 67//121 60//121
f 61//137 66//123 62//123
f 59//125 65//125 58//125
f 60//138 64//126 59//126
f 58//139 63//128 61//128

