# WaveFront *.obj file (generated by CINEMA 4D)

v 0 0.00249999994412 0
v 0 0.37250000238419 0
v 0.24125908315182 0.00249999994412 -0.042540486902
v 0.24720071256161 0.00664294464514 0
v 0.23020674288273 0.00249999994412 -0.08378840237856
v 0.24498090147972 0.00249999994412 0
v 0.24344517290592 0.00664294464514 -0.04292595386505
v 0.24344517290592 0.00664294464514 0.04292595386505
v 0.21217621862888 0.00249999994412 -0.12250000238419
v 0.23229268193245 0.00664294464514 -0.08454762399197
v 0.18768088519573 0.00249999994412 -0.15748296678066
v 0.21408209204674 0.00664294464514 -0.1236003562808
v 0.15748296678066 0.00249999994412 -0.18768088519573
v 0.1893667280674 0.00664294464514 -0.15889754891396
v 0.12250000238419 0.00249999994412 -0.21217621862888
v 0.15889754891396 0.00664294464514 -0.1893667280674
v 0.08378840237856 0.00249999994412 -0.23020674288273
v 0.1236003562808 0.00664294464514 -0.21408209204674
v 0.042540486902 0.00249999994412 -0.24125908315182
v 0.08454762399197 0.00664294464514 -0.23229268193245
v 0.04292595386505 0.00664294464514 -0.24344517290592
v 0 0.00249999994412 -0.24498090147972
v 0 0.00664294464514 -0.24720071256161
v -0.04254380241036 0.00249999994412 -0.24127790331841
v -0.04292595386505 0.00664294464514 -0.24344517290592
v -0.08379493653774 0.00249999994412 -0.23022469878197
v -0.08454762399197 0.00664294464514 -0.23229268193245
v -0.12250000238419 0.00249999994412 -0.21217621862888
v -0.1236003562808 0.00664294464514 -0.21408209204674
v -0.15747068822384 0.00249999994412 -0.18766625225544
v -0.15889754891396 0.00664294464514 -0.1893667280674
v -0.18766625225544 0.00249999994412 -0.15747068822384
v -0.1893667280674 0.00664294464514 -0.15889754891396
v -0.21215967833996 0.00249999994412 -0.12249045073986
v -0.21408209204674 0.00664294464514 -0.1236003562808
v -0.23020674288273 0.00249999994412 -0.08378840237856
v -0.24498090147972 0.00249999994412 -0
v -0.24344517290592 0.00664294464514 -0.04292595386505
v -0.24125908315182 0.00249999994412 -0.042540486902
v -0.23229268193245 0.00664294464514 -0.08454762399197
v -0.23020674288273 0.00249999994412 0.08378840237856
v -0.24344517290592 0.00664294464514 0.04292595386505
v -0.24125908315182 0.00249999994412 0.042540486902
v -0.24720071256161 0.00664294464514 -0
v -0.23229268193245 0.00664294464514 0.08454762399197
v -0.21215967833996 0.00249999994412 0.12249045073986
v -0.21408209204674 0.00664294464514 0.1236003562808
v -0.18766625225544 0.00249999994412 0.15747068822384
v -0.1893667280674 0.00664294464514 0.15889754891396
v -0.15747068822384 0.00249999994412 0.18766625225544
v -0.15889754891396 0.00664294464514 0.1893667280674
v -0.12250000238419 0.00249999994412 0.21217621862888
v -0.1236003562808 0.00664294464514 0.21408209204674
v -0.08379493653774 0.00249999994412 0.23022469878197
v -0.08454762399197 0.00664294464514 0.23229268193245
v -0.042540486902 0.00249999994412 0.24125908315182
v -0.04292595386505 0.00664294464514 0.24344517290592
v -0 0.00249999994412 0.24498090147972
v -0 0.00664294464514 0.24720071256161
v 0.042540486902 0.00249999994412 0.24125908315182
v 0.04292595386505 0.00664294464514 0.24344517290592
v 0.08378840237856 0.00249999994412 0.23020674288273
v 0.08454762399197 0.00664294464514 0.23229268193245
v 0.12249045073986 0.00249999994412 0.21215967833996
v 0.1236003562808 0.00664294464514 0.21408209204674
v 0.15747068822384 0.00249999994412 0.18766625225544
v 0.15889754891396 0.00664294464514 0.1893667280674
v 0.18768088519573 0.00249999994412 0.15748296678066
v 0.1893667280674 0.00664294464514 0.15889754891396
v 0.21217621862888 0.00249999994412 0.12250000238419
v 0.21408209204674 0.00664294464514 0.1236003562808
v 0.23020674288273 0.00249999994412 0.08378840237856
v 0.23229268193245 0.00664294464514 0.08454762399197
v 0.24127790331841 0.00249999994412 0.04254380241036
# 74 vertices

vn 0 -1 0
vn 0 0 0
vn 0.82858896255493 0.55985736846924 0
vn 0.00000000889528 1 0.00000000296509
vn 0.81600087881088 0.55985736846924 -0.14388300478458
vn 0.77861893177032 0.55985742807388 -0.28339409828186
vn 0.71757906675339 0.55985742807388 -0.41429454088211
vn 0.6347359418869 0.55985742807388 -0.53260678052902
vn 0.53260678052902 0.55985742807388 -0.6347359418869
vn 0.41429454088211 0.55985742807388 -0.71757906675339
vn 0.28339409828186 0.55985742807388 -0.77861893177032
vn 0.14388300478458 0.55985736846924 -0.81600087881088
vn 0 0.55985736846924 -0.82858896255493
vn -0.14388300478458 0.55985736846924 -0.81600087881088
vn -0.28339409828186 0.55985742807388 -0.77861893177032
vn -0.41429454088211 0.55985742807388 -0.71757906675339
vn -0.53260678052902 0.55985742807388 -0.6347359418869
vn -0.6347359418869 0.55985742807388 -0.53260678052902
vn -0.71757906675339 0.55985742807388 -0.41429454088211
vn -0.77861893177032 0.55985742807388 -0.28339409828186
vn -0.81600087881088 0.55985736846924 -0.14388300478458
vn -0.82858896255493 0.55985736846924 0
vn -0.81600087881088 0.55985736846924 0.14388300478458
vn -0.77861893177032 0.55985742807388 0.28339409828186
vn -0.71757906675339 0.55985742807388 0.41429454088211
vn -0.6347359418869 0.55985742807388 0.53260678052902
vn -0.53260678052902 0.55985742807388 0.6347359418869
vn -0.41429454088211 0.55985742807388 0.71757906675339
vn -0.28339409828186 0.55985742807388 0.77861893177032
vn -0.14388300478458 0.55985736846924 0.81600087881088
vn 0 0.55985736846924 0.82858896255493
vn 0.14388300478458 0.55985736846924 0.81600087881088
vn 0.28339409828186 0.55985742807388 0.77861893177032
vn 0.41429454088211 0.55985742807388 0.71757906675339
vn 0.53260678052902 0.55985742807388 0.6347359418869
vn 0.6347359418869 0.55985742807388 0.53260678052902
vn 0.71757906675339 0.55985742807388 0.41429454088211
vn 0.77861893177032 0.55985742807388 0.28339409828186
vn 0.81600087881088 0.55985736846924 0.14388300478458
vn 0.88115227222443 -0.47212669253349 -0.02582787536085
vn 0.88172155618668 -0.47107431292534 0.02561483345926
vn 0.87223070859909 -0.47212836146355 -0.12770442664623
vn 0.86330622434616 -0.47212836146355 -0.17831766605377
vn 0.83680403232574 -0.47212821245193 -0.27722555398941
vn 0.81979095935822 -0.47106510400772 -0.32563844323158
vn 0.776990711689 -0.47001695632935 -0.41877135634422
vn 0.75175935029984 -0.46896356344223 -0.4636065363884
vn 0.69284641742706 -0.46896171569824 -0.54775792360306
vn 0.659747838974 -0.4689613878727 -0.58720350265503
vn 0.58720350265503 -0.4689613878727 -0.659747838974
vn 0.54775792360306 -0.4689616560936 -0.69284647703171
vn 0.46371844410896 -0.46896198391914 -0.75169134140015
vn 0.41876938939095 -0.47002655267715 -0.77698600292206
vn 0.32563653588295 -0.47107473015785 -0.81978625059128
vn 0.27710163593292 -0.47212669253349 -0.83684593439102
vn 0.17831760644913 -0.47212836146355 -0.86330622434616
vn 0.12770441174507 -0.47212842106819 -0.87223064899445
vn 0.02569707855582 -0.47212821245193 -0.88115525245666
vn -0.02561500482261 -0.47106471657753 -0.88172668218613
vn -0.12776990234852 -0.47001618146896 -0.87336111068726
vn -0.17853076756001 -0.46896243095398 -0.86498612165451
vn -0.27775672078133 -0.46896085143089 -0.8384073972702
vn -0.32614380121231 -0.46896126866341 -0.82079565525055
vn -0.41912472248077 -0.46896180510521 -0.77743762731552
vn -0.46350508928299 -0.47002649307251 -0.75115782022476
vn -0.54713755846024 -0.47107440233231 -0.69190269708633
vn -0.58617919683456 -0.4721260368824 -0.65840029716492
vn -0.65848660469055 -0.47212761640549 -0.58608102798462
vn -0.69152200222015 -0.47212779521942 -0.54671078920364
vn -0.7502543926239 -0.472128033638 -0.46283203363419
vn -0.77595138549805 -0.47212812304497 -0.41832342743874
vn -0.81922626495361 -0.472128033638 -0.32552021741867
vn -0.83680403232574 -0.47212818264961 -0.27722555398941
vn -0.86330622434616 -0.47212836146355 -0.17831762135029
vn -0.87223064899445 -0.47212839126587 -0.12770441174507
vn -0.88115525245666 -0.47212821245193 -0.02569707855582
vn -0.88115525245666 -0.47212818264961 0.02569706179202
vn -0.87223070859909 -0.47212836146355 0.12770442664623
vn -0.86330622434616 -0.47212836146355 0.17831766605377
vn -0.83680403232574 -0.47212821245193 0.27722555398941
vn -0.81922626495361 -0.472128033638 0.32552021741867
vn -0.77595138549805 -0.47212815284729 0.41832345724106
vn -0.7502543926239 -0.472128033638 0.46283206343651
vn -0.69152200222015 -0.47212779521942 0.54671078920364
vn -0.65848660469055 -0.47212758660316 0.58608102798462
vn -0.58608102798462 -0.47212761640549 0.65848660469055
vn -0.54714071750641 -0.47106486558914 0.69190675020218
vn -0.46350809931755 -0.47001692652702 0.7511619925499
vn -0.41923961043358 -0.46896332502365 0.77737474441528
vn -0.32614383101463 -0.46896123886108 0.82079565525055
vn -0.27748522162437 -0.47002568840981 0.83790081739426
vn -0.17833496630192 -0.47107455134392 0.86387813091278
vn -0.12757506966591 -0.47212681174278 0.87225043773651
vn -0.02569707855582 -0.47212821245193 0.88115525245666
vn 0.02569706179202 -0.47212821245193 0.88115525245666
vn 0.12770442664623 -0.47212836146355 0.87223070859909
vn 0.17831766605377 -0.47212836146355 0.86330622434616
vn 0.27722555398941 -0.47212821245193 0.83680403232574
vn 0.32552021741867 -0.472128033638 0.81922626495361
vn 0.41832345724106 -0.47212815284729 0.77595138549805
vn 0.46283206343651 -0.472128033638 0.7502543926239
vn 0.54671078920364 -0.47212779521942 0.69152200222015
vn 0.5863853096962 -0.47106456756592 0.65897685289383
vn 0.65926307439804 -0.47001630067825 0.58690452575684
vn 0.69276452064514 -0.46896326541901 0.54786014556885
vn 0.75169134140015 -0.46896198391914 0.46371847391129
vn 0.77698600292206 -0.47002655267715 0.41876938939095
vn 0.81978625059128 -0.47107473015785 0.32563653588295
vn 0.83735477924347 -0.47106322646141 0.27737414836884
vn 0.86439090967178 -0.47001615166664 0.17864271998405
vn 0.8733361363411 -0.47002735733986 0.12789927423
# 111 normals

o cone
usemtl default
f 3//1 6//1 1//1
f 7//5 2//4 4//3
f 5//1 3//1 1//1
f 10//6 2//4 7//5
f 9//1 5//1 1//1
f 12//7 2//4 10//6
f 11//1 9//1 1//1
f 14//8 2//4 12//7
f 13//1 11//1 1//1
f 16//9 2//4 14//8
f 15//1 13//1 1//1
f 18//10 2//4 16//9
f 17//1 15//1 1//1
f 20//11 2//4 18//10
f 19//1 17//1 1//1
f 21//12 2//4 20//11
f 22//1 19//1 1//1
f 23//13 2//4 21//12
f 24//1 22//1 1//1
f 25//14 2//4 23//13
f 26//1 24//1 1//1
f 27//15 2//4 25//14
f 28//1 26//1 1//1
f 29//16 2//4 27//15
f 30//1 28//1 1//1
f 31//17 2//4 29//16
f 32//1 30//1 1//1
f 33//18 2//4 31//17
f 34//1 32//1 1//1
f 35//19 2//4 33//18
f 36//1 34//1 1//1
f 40//20 2//4 35//19
f 39//1 36//1 1//1
f 38//21 2//4 40//20
f 37//1 39//1 1//1
f 44//22 2//4 38//21
f 43//1 37//1 1//1
f 42//23 2//4 44//22
f 41//1 43//1 1//1
f 45//24 2//4 42//23
f 46//1 41//1 1//1
f 47//25 2//4 45//24
f 48//1 46//1 1//1
f 49//26 2//4 47//25
f 50//1 48//1 1//1
f 51//27 2//4 49//26
f 52//1 50//1 1//1
f 53//28 2//4 51//27
f 54//1 52//1 1//1
f 55//29 2//4 53//28
f 56//1 54//1 1//1
f 57//30 2//4 55//29
f 58//1 56//1 1//1
f 59//31 2//4 57//30
f 60//1 58//1 1//1
f 61//32 2//4 59//31
f 62//1 60//1 1//1
f 63//33 2//4 61//32
f 64//1 62//1 1//1
f 65//34 2//4 63//33
f 66//1 64//1 1//1
f 67//35 2//4 65//34
f 68//1 66//1 1//1
f 69//36 2//4 67//35
f 70//1 68//1 1//1
f 71//37 2//4 69//36
f 72//1 70//1 1//1
f 73//38 2//4 71//37
f 74//1 72//1 1//1
f 8//39 2//4 73//38
f 6//1 74//1 1//1
f 4//3 2//4 8//39
f 7//42 4//41 6//40
f 10//44 7//42 3//43
f 12//46 10//44 5//45
f 14//48 12//46 9//47
f 16//50 14//48 11//49
f 18//52 16//50 13//51
f 20//54 18//52 15//53
f 21//56 20//54 17//55
f 23//58 21//56 19//57
f 25//60 23//58 22//59
f 27//62 25//60 24//61
f 29//64 27//62 26//63
f 31//66 29//64 28//65
f 33//68 31//66 30//67
f 35//70 33//68 32//69
f 40//72 35//70 34//71
f 38//74 40//72 36//73
f 44//76 38//74 39//75
f 42//78 44//76 37//77
f 45//80 42//78 43//79
f 47//82 45//80 41//81
f 49//84 47//82 46//83
f 51//86 49//84 48//85
f 53//88 51//86 50//87
f 55//90 53//88 52//89
f 57//92 55//90 54//91
f 59//94 57//92 56//93
f 61//96 59//94 58//95
f 63//98 61//96 60//97
f 65//100 63//98 62//99
f 67//102 65//100 64//101
f 69//104 67//102 66//103
f 71//106 69//104 68//105
f 73//108 71//106 70//107
f 8//110 73//108 72//109
f 4//41 8//110 74//111
f 3//43 7//42 6//40
f 5//45 10//44 3//43
f 9//47 12//46 5//45
f 11//49 14//48 9//47
f 13//51 16//50 11//49
f 15//53 18//52 13//51
f 17//55 20//54 15//53
f 19//57 21//56 17//55
f 22//59 23//58 19//57
f 24//61 25//60 22//59
f 26//63 27//62 24//61
f 28//65 29//64 26//63
f 30//67 31//66 28//65
f 32//69 33//68 30//67
f 34//71 35//70 32//69
f 36//73 40//72 34//71
f 39//75 38//74 36//73
f 37//77 44//76 39//75
f 43//79 42//78 37//77
f 41//81 45//80 43//79
f 46//83 47//82 41//81
f 48//85 49//84 46//83
f 50//87 51//86 48//85
f 52//89 53//88 50//87
f 54//91 55//90 52//89
f 56//93 57//92 54//91
f 58//95 59//94 56//93
f 60//97 61//96 58//95
f 62//99 63//98 60//97
f 64//101 65//100 62//99
f 66//103 67//102 64//101
f 68//105 69//104 66//103
f 70//107 71//106 68//105
f 72//109 73//108 70//107
f 74//111 8//110 72//109
f 6//40 4//41 74//111

