# WaveFront *.obj file (generated by CINEMA 4D)

v 0.21071490645409 0.09214713424444 0.05342593789101
v 0.13796719908714 0.46516168117523 -0.10023903846741
v 0.20000000298023 0.04464713484049 -0
v 0.20000000298023 0.45016169548035 0
v 0.16180339455605 0.04464713484049 -0.11755704879761
v 0.16180339455605 0.45016169548035 -0.11755704879761
v 0.06180340051651 0.04464713484049 -0.19021129608154
v 0.06180340051651 0.45016169548035 -0.19021129608154
v -0.06180340051651 0.04464713484049 -0.19021129608154
v -0.06180340051651 0.45016169548035 -0.19021129608154
v -0.16180339455605 0.04464713484049 -0.11755704879761
v -0.16180339455605 0.45016169548035 -0.11755704879761
v -0.20000000298023 0.04464713484049 -0
v -0.20000000298023 0.45016169548035 -0
v -0.16180339455605 0.04464713484049 0.11755704879761
v -0.16180339455605 0.45016169548035 0.11755704879761
v -0.06180340051651 0.04464713484049 0.19021129608154
v -0.06180340051651 0.45016169548035 0.19021129608154
v 0.06180340051651 0.04464713484049 0.19021129608154
v 0.06180340051651 0.45016169548035 0.19021129608154
v 0.16180339455605 0.04464713484049 0.11755704879761
v 0.16180339455605 0.45016169548035 0.11755704879761
v 0.14742688834667 0.04464713484049 -0
v 0.11927086114883 0.04464713484049 -0.08665534853935
v 0.04555741325021 0.04464713484049 -0.14021129906178
v -0.04555741325021 0.04464713484049 -0.14021129906178
v -0.11927086114883 0.04464713484049 -0.08665534853935
v -0.14742688834667 0.04464713484049 -0
v -0.11927086114883 0.04464713484049 0.08665534853935
v -0.04555741325021 0.04464713484049 0.14021129906178
v 0.04555741325021 0.04464713484049 0.14021129906178
v 0.11927086114883 0.04464713484049 0.08665534853935
v 0.14742688834667 0 0
v 0.11927086114883 0 -0.08665534853935
v 0.04555741325021 0 -0.14021129906178
v -0.04555741325021 0 -0.14021129906178
v -0.11927086114883 0 -0.08665534853935
v -0.14742688834667 0 0
v -0.11927086114883 0 0.08665534853935
v -0.04555741325021 0 0.14021129906178
v 0.04555741325021 0 0.14021129906178
v 0.11927086114883 0 0.08665534853935
v 0.18763932585716 0.08464713394642 -0.03804226219654
v 0.18763932585716 0.410161703825 -0.03804226219654
v 0.17416407167912 0.410161703825 -0.07951478660107
v 0.17416407167912 0.08464713394642 -0.07951478660107
v 0.1294427216053 0.08464713394642 -0.14106845855713
v 0.1294427216053 0.410161703825 -0.14106845855713
v 0.09416408091784 0.410161703825 -0.16669988632202
v 0.09416408091784 0.08464713394642 -0.16669988632202
v 0.02180339954793 0.08464713394642 -0.19021129608154
v 0.02180339954793 0.410161703825 -0.19021129608154
v -0.02180339954793 0.410161703825 -0.19021129608154
v -0.02180339954793 0.08464713394642 -0.19021129608154
v -0.09416408091784 0.08464713394642 -0.16669988632202
v -0.09416408091784 0.410161703825 -0.16669988632202
v -0.1294427216053 0.410161703825 -0.14106845855713
v -0.1294427216053 0.08464713394642 -0.14106845855713
v -0.17416407167912 0.08464713394642 -0.07951478660107
v -0.17416407167912 0.410161703825 -0.07951478660107
v -0.18763932585716 0.410161703825 -0.03804226219654
v -0.18763932585716 0.08464713394642 -0.03804226219654
v -0.18763932585716 0.08464713394642 0.03804226219654
v -0.18763932585716 0.410161703825 0.03804226219654
v -0.17416407167912 0.410161703825 0.07951478660107
v -0.17416407167912 0.08464713394642 0.07951478660107
v -0.1294427216053 0.08464713394642 0.14106845855713
v -0.1294427216053 0.410161703825 0.14106845855713
v -0.09416408091784 0.410161703825 0.16669988632202
v -0.09416408091784 0.08464713394642 0.16669988632202
v -0.02180339954793 0.08464713394642 0.19021129608154
v -0.02180339954793 0.410161703825 0.19021129608154
v 0.02180339954793 0.410161703825 0.19021129608154
v 0.02180339954793 0.08464713394642 0.19021129608154
v 0.09416408091784 0.08464713394642 0.16669988632202
v 0.09416408091784 0.410161703825 0.16669988632202
v 0.1294427216053 0.410161703825 0.14106845855713
v 0.1294427216053 0.08464713394642 0.14106845855713
v 0.17416407167912 0.08464713394642 0.07951478660107
v 0.17416407167912 0.410161703825 0.07951478660107
v 0.18763932585716 0.410161703825 0.03804226219654
v 0.18763932585716 0.08464713394642 0.03804226219654
v 0.21071490645409 0.09214713424444 -0.05342593789101
v 0.21071490645409 0.40266168117523 -0.05342593789101
v 0.20187491178513 0.40266168117523 -0.08063261955976
v 0.20187491178513 0.09214713424444 -0.08063261955976
v 0.13906896114349 0.09214713424444 -0.16707760095596
v 0.13906896114349 0.40266168117523 -0.16707760095596
v 0.11592557281256 0.40266168117523 -0.1838922649622
v 0.11592557281256 0.09214713424444 -0.1838922649622
v 0.01430339924991 0.09214713424444 -0.21691130101681
v 0.01430339924991 0.40266168117523 -0.21691130101681
v -0.01430339924991 0.40266168117523 -0.21691130101681
v -0.01430339924991 0.09214713424444 -0.21691130101681
v -0.11592557281256 0.09214713424444 -0.1838922649622
v -0.11592557281256 0.40266168117523 -0.1838922649622
v -0.13906896114349 0.40266168117523 -0.16707760095596
v -0.13906896114349 0.09214713424444 -0.16707760095596
v -0.20187491178513 0.09214713424444 -0.08063261955976
v -0.20187491178513 0.40266168117523 -0.08063261955976
v -0.21071490645409 0.40266168117523 -0.05342593789101
v -0.21071490645409 0.09214713424444 -0.05342593789101
v -0.21071490645409 0.09214713424444 0.05342593789101
v -0.21071490645409 0.40266168117523 0.05342593789101
v -0.20187491178513 0.40266168117523 0.08063261955976
v -0.20187491178513 0.09214713424444 0.08063261955976
v -0.13906896114349 0.09214713424444 0.16707760095596
v -0.13906896114349 0.40266168117523 0.16707760095596
v -0.11592557281256 0.40266168117523 0.1838922649622
v -0.11592557281256 0.09214713424444 0.1838922649622
v -0.01430339924991 0.09214713424444 0.21691130101681
v -0.01430339924991 0.40266168117523 0.21691130101681
v 0.01430339924991 0.40266168117523 0.21691130101681
v 0.01430339924991 0.09214713424444 0.21691130101681
v 0.11592557281256 0.09214713424444 0.1838922649622
v 0.11592557281256 0.40266168117523 0.1838922649622
v 0.13906896114349 0.40266168117523 0.16707760095596
v 0.13906896114349 0.09214713424444 0.16707760095596
v 0.20187491178513 0.09214713424444 0.08063261955976
v 0.20187491178513 0.40266168117523 0.08063261955976
v 0.21071490645409 0.40266168117523 0.05342593789101
v 0.17053684592247 0.46516168117523 -0
v 0.13796719908714 0.46516168117523 0.10023903846741
v 0.05269878357649 0.46516168117523 0.16219016909599
v -0.05269878357649 0.46516168117523 0.16219016909599
v -0.13796719908714 0.46516168117523 0.10023903846741
v -0.17053684592247 0.46516168117523 -0
v -0.13796719908714 0.46516168117523 -0.10023903846741
v -0.05269878357649 0.46516168117523 -0.16219016909599
v 0.05269878357649 0.46516168117523 -0.16219016909599
# 130 vertices

vn 0 -1 0
vn 0 0 0
vn 0.95105642080307 0 -0.30901724100113
vn 0.95105642080307 0 -0.30901724100113
vn 0 1 0
vn 0.58778548240662 0 -0.80901682376862
vn 0.58778548240662 0 -0.80901682376862
vn 0 0 -1
vn 0 0 -1
vn 0 -1 0
vn -0.58778548240662 0 -0.80901682376862
vn 0 1 0
vn -0.95105642080307 0 -0.30901724100113
vn -0.95105642080307 0 -0.30901724100113
vn 0.15895596146584 -0.96273905038834 0.21878407895565
vn 0.158955976367 -0.96273910999298 0.21878398954868
vn -0.95105642080307 0 0.30901724100113
vn -0.95105642080307 0 0.30901724100113
vn -0.45314973592758 0.89008229970932 0.04907910898328
vn -0.45314973592758 0.89008235931396 -0.0490791015327
vn -0.39545381069183 0.89008229970932 0.22664894163609
vn -0.04030641168356 0 0.99918735027313
vn -0.04030641168356 0 0.99918735027313
vn -0.58778548240662 0 0.80901682376862
vn -0.33775785565376 0.89008229970932 0.30606058239937
vn -0.18670795857906 0.89008229970932 0.41580474376678
vn 0.25719660520554 0.96273893117905 0.08356831967831
vn 0.25719660520554 0.96273893117905 0.08356831967831
vn 0 0 1
vn -0.09335398674011 0.89008229970932 0.44613727927208
vn 0.09335397928953 0.89008229970932 0.44613727927208
vn 0.55469906330109 0 -0.83205103874207
vn 0.55469912290573 0 -0.83205103874207
vn 0.58778548240662 0 0.80901682376862
vn 0.18670795857906 0.89008235931396 0.41580474376678
vn 0.33775785565376 0.89008235931396 0.30606055259705
vn 0.25719612836838 -0.96273905038834 0.08356815576553
vn 0.25719612836838 -0.96273905038834 0.08356814086437
vn 0.95105642080307 0 0.30901724100113
vn 0.95105642080307 0 0.30901724100113
vn 0.39545378088951 0.89008235931396 0.22664894163609
vn 0.45314973592758 0.89008235931396 0.0490791015327
vn 0.86760419607162 0 -0.49725544452667
vn 0.74102240800858 0 -0.6714802980423
vn 0.99418592453003 0 -0.10767684876919
vn 0.40962710976601 0 -0.91225308179855
vn 0.20481353998184 0 -0.97880101203918
vn -0.20481353998184 0 -0.97880101203918
vn -0.40962710976601 0 -0.91225308179855
vn -0.74102240800858 0 -0.67148023843765
vn -0.86760419607162 -0 -0.49725544452667
vn -0.99418592453003 -0 -0.10767684876919
vn -0.99418592453003 -0 0.10767684876919
vn -0.86760419607162 0 0.49725544452667
vn -0.74102240800858 0 0.6714802980423
vn -0.40962710976601 0 0.91225308179855
vn -0.20481353998184 0 0.97880101203918
vn 0.20481353998184 0 0.97880101203918
vn 0.40962710976601 0 0.91225308179855
vn 0.74102240800858 0 0.67148023843765
vn 0.86760419607162 0 0.49725544452667
vn 0.99418592453003 0 0.10767684876919
vn 1 -0.00000007017616 -0.00000006267203
vn 0.95105648040771 -0.00000013348297 -0.30901706218719
vn 0.95105648040771 -0.00000008639199 -0.30901712179184
vn 1 0.00000007017616 0.00000006267203
vn 0.80901700258255 -0.00000002891416 -0.58778530359268
vn 0.80901700258255 0.00000000136514 -0.58778530359268
vn 0.58778524398804 -0.00000004449432 -0.80901700258255
vn 0.58778524398804 0.00000000914683 -0.80901700258255
vn 0.30901700258255 0.00000000480877 -0.95105654001236
vn 0.58778524398804 -0.00000002224716 -0.80901700258255
vn 0.30901700258255 0 -0.95105654001236
vn -0.30901700258255 0 -0.95105654001236
vn -0.30901700258255 -0.00000000480877 -0.95105654001236
vn -0.58778524398804 0.00000002224716 -0.80901700258255
vn -0.58778524398804 -0.00000000914683 -0.80901700258255
vn -0.58778524398804 0.00000004449432 -0.80901700258255
vn -0.80901700258255 -0.00000000136514 -0.58778524398804
vn -0.80901700258255 0.00000002891416 -0.58778530359268
vn -0.95105648040771 0.00000013348297 -0.30901706218719
vn -0.95105648040771 0.00000008639199 -0.30901712179184
vn -1 0.00000007017614 -0.00000005744936
vn -1 -0.00000007017616 0.00000006267203
vn -0.95105648040771 -0.00000013348297 0.30901706218719
vn -0.95105648040771 -0.00000008639199 0.30901712179184
vn -0.80901700258255 -0.00000002891416 0.58778530359268
vn -0.80901700258255 0.00000000136514 0.58778530359268
vn -0.58778524398804 -0.00000004449432 0.80901700258255
vn -0.58778524398804 0.00000000914683 0.80901700258255
vn -0.30901700258255 0.00000000480877 0.95105654001236
vn -0.58778524398804 -0.00000002224716 0.80901700258255
vn -0.30901700258255 0 0.95105654001236
vn 0.30901700258255 0 0.95105654001236
vn 0.30901700258255 -0.00000000480877 0.95105654001236
vn 0.58778524398804 0.00000002224716 0.80901700258255
vn 0.58778524398804 -0.00000000914683 0.80901700258255
vn 0.58778524398804 0.00000004449432 0.80901700258255
vn 0.80901700258255 -0.00000000136514 0.58778524398804
vn 0.80901700258255 0.00000002891416 0.58778530359268
vn 0.95105648040771 0.00000013348297 0.30901706218719
vn 0.95105648040771 0.00000008639199 0.30901712179184
vn 0.55469906330109 0 0.83205103874207
vn 0.55469906330109 0 0.83205103874207
vn 0.25719660520554 0.96273893117905 -0.08356831967831
vn 0.25719660520554 0.96273893117905 -0.08356831222773
vn -0.04030641168356 0 -0.99918735027313
vn -0.04030641540885 0 -0.99918735027313
vn 0.25719612836838 -0.96273905038834 -0.08356817066669
vn 0.25719612836838 -0.96273905038834 -0.08356816321611
vn 0.93782830238342 0 0.34709948301315
vn 0.93782830238342 0 0.34709948301315
vn 0.15895625948906 0.96273893117905 -0.218784481287
vn 0.1589562445879 0.96273893117905 -0.21878437697887
vn -0.6199164390564 0 -0.78466784954071
vn -0.6199164390564 0 -0.78466778993607
vn 0.158955976367 -0.96273905038834 -0.21878410875797
vn 0.15895603597164 -0.96273905038834 -0.21878412365913
vn 0.96273899078369 0 -0.27043226361275
vn 0.96273899078369 0 -0.27043229341507
vn 0 0.96273893117905 -0.27043253183365
vn -0.96273899078369 0 -0.27043226361275
vn -0.96273899078369 0 -0.27043229341507
vn 0 -0.96273905038834 -0.27043202519417
vn 0 -0.96273905038834 -0.27043202519417
vn 0.6199164390564 0 -0.78466784954071
vn 0.6199164390564 0 -0.78466778993607
vn -0.15895625948906 0.96273893117905 -0.21878451108932
vn -0.1589563190937 0.96273893117905 -0.21878452599049
vn -0.93782830238342 0 0.34709948301315
vn -0.93782830238342 0 0.34709945321083
vn -0.15895596146584 -0.96273905038834 -0.21878407895565
vn -0.158955976367 -0.96273910999298 -0.21878398954868
vn 0.04030641168356 0 -0.99918735027313
vn 0.04030641168356 0 -0.99918735027313
vn -0.25719660520554 0.96273893117905 -0.08356831967831
vn -0.25719660520554 0.96273893117905 -0.08356831967831
vn -0.55469906330109 0 0.83205103874207
vn -0.55469912290573 0 0.83205103874207
vn -0.25719612836838 -0.96273905038834 -0.08356815576553
vn -0.25719612836838 -0.96273905038834 -0.08356814086437
vn -0.55469906330109 0 -0.83205103874207
vn -0.55469906330109 0 -0.83205103874207
vn -0.25719660520554 0.96273893117905 0.08356831967831
vn -0.25719660520554 0.96273893117905 0.08356831222773
vn 0.04030641168356 0 0.99918735027313
vn 0.04030641540885 0 0.99918735027313
vn -0.25719612836838 -0.96273905038834 0.08356817066669
vn -0.25719612836838 -0.96273905038834 0.08356816321611
vn -0.93782830238342 0 -0.34709948301315
vn -0.93782830238342 0 -0.34709948301315
vn -0.15895625948906 0.96273893117905 0.218784481287
vn -0.1589562445879 0.96273893117905 0.21878437697887
vn 0.6199164390564 0 0.78466784954071
vn 0.6199164390564 0 0.78466778993607
vn -0.158955976367 -0.96273905038834 0.21878410875797
vn -0.15895603597164 -0.96273905038834 0.21878412365913
vn -0.96273899078369 0 0.27043226361275
vn -0.96273899078369 0 0.27043229341507
vn 0 0.96273893117905 0.27043253183365
vn 0.96273899078369 0 0.27043226361275
vn 0.96273899078369 0 0.27043229341507
vn 0 -0.96273905038834 0.27043202519417
vn 0 -0.96273905038834 0.27043202519417
vn -0.6199164390564 0 0.78466784954071
vn -0.6199164390564 0 0.78466778993607
vn 0.15895625948906 0.96273893117905 0.21878451108932
vn 0.1589563190937 0.96273893117905 0.21878452599049
vn 0.93782830238342 0 -0.34709948301315
vn 0.93782830238342 0 -0.34709945321083
vn 0.45314973592758 0.89008229970932 -0.0490791015327
vn 0.39545381069183 0.89008229970932 -0.22664894163609
vn 0.33775785565376 0.89008229970932 -0.30606058239937
vn 0.18670795857906 0.89008229970932 -0.41580474376678
vn 0.09335398674011 0.89008229970932 -0.44613727927208
vn -0.09335397928953 0.89008229970932 -0.44613727927208
vn -0.18670795857906 0.89008235931396 -0.41580474376678
vn -0.33775785565376 0.89008235931396 -0.30606055259705
vn -0.39545378088951 0.89008235931396 -0.22664894163609
vn 0.95105642080307 0 -0.30901724100113
vn 0.15895596146584 -0.96273905038834 0.21878415346146
vn -0.04030641168356 0 0.99918735027313
vn 0.25719660520554 0.96273893117905 0.08356833457947
vn 0.55469906330109 0 -0.83205103874207
vn 0.25719612836838 -0.96273905038834 0.08356817811728
vn 0.55469906330109 0 0.83205103874207
vn 0.25719660520554 0.96273893117905 -0.08356833457947
vn -0.04030641168356 0 -0.99918735027313
vn 0.25719612836838 -0.96273905038834 -0.08356817811728
vn 0.15895625948906 0.96273893117905 -0.21878457069397
vn 0.15895591676235 -0.96273905038834 -0.21878409385681
vn 0.96273899078369 0 -0.27043226361275
vn 0 0.96273893117905 -0.27043250203133
vn -0.96273899078369 0 -0.27043226361275
vn -0.15895621478558 0.96273893117905 -0.21878449618816
vn -0.93782830238342 0 0.34709948301315
vn -0.15895596146584 -0.96273905038834 -0.21878415346146
vn 0.04030641168356 0 -0.99918735027313
vn -0.25719660520554 0.96273893117905 -0.08356833457947
vn -0.55469906330109 0 0.83205103874207
vn -0.25719612836838 -0.96273905038834 -0.08356817811728
vn -0.55469906330109 0 -0.83205103874207
vn -0.25719660520554 0.96273893117905 0.08356833457947
vn 0.04030641168356 0 0.99918735027313
vn -0.25719612836838 -0.96273905038834 0.08356817811728
vn -0.15895625948906 0.96273893117905 0.21878457069397
vn -0.15895591676235 -0.96273905038834 0.21878409385681
vn -0.96273899078369 0 0.27043226361275
vn 0 0.96273893117905 0.27043250203133
vn 0.96273899078369 0 0.27043226361275
vn -0.6199164390564 0 0.78466784954071
vn 0.15895621478558 0.96273893117905 0.21878449618816
vn 0.93782830238342 0 -0.34709948301315
# 213 normals

o dial
usemtl default
f 40//1 33//1 42//1
f 85//3 84//4 83//3
f 124//5 123//5 122//5
f 38//1 34//1 33//1
f 89//6 88//7 87//6
f 124//5 122//5 2//5
f 37//1 35//1 34//1
f 93//8 92//9 91//8
f 126//5 125//5 2//5
f 37//1 36//10 35//1
f 97//11 96//11 95//11
f 128//5 127//12 126//5
f 40//1 39//1 38//1
f 101//13 100//14 99//13
f 130//5 129//5 128//5
f 118//15 115//16 75//15
f 105//17 104//18 103//17
f 126//21 127//20 14//19
f 119//22 120//23 80//22
f 109//24 108//24 107//24
f 125//26 126//21 16//25
f 120//27 121//28 81//27
f 113//29 112//29 111//29
f 124//31 125//26 18//30
f 121//32 1//33 82//32
f 117//34 116//34 115//34
f 123//36 124//31 20//35
f 1//37 119//38 79//37
f 121//39 120//40 119//39
f 122//42 123//36 22//41
f 23//1 24//1 5//1
f 24//1 25//1 7//1
f 25//1 26//1 9//1
f 26//1 27//1 11//1
f 27//1 28//1 13//1
f 28//1 29//1 15//1
f 29//1 30//1 17//1
f 30//1 31//1 19//1
f 31//1 32//1 21//1
f 32//1 23//1 3//1
f 33//45 34//44 24//43
f 34//44 35//47 25//46
f 35//47 36//49 26//48
f 36//49 37//51 27//50
f 37//51 38//53 28//52
f 38//53 39//55 29//54
f 39//55 40//57 30//56
f 40//57 41//59 31//58
f 41//59 42//61 32//60
f 42//61 33//45 23//62
f 46//65 43//64 3//63
f 43//64 44//65 4//66
f 44//65 45//64 6//67
f 45//64 46//65 5//68
f 50//69 47//69 5//68
f 47//69 48//70 6//67
f 48//70 49//72 8//71
f 49//72 50//69 7//73
f 54//8 51//8 7//73
f 51//8 52//8 8//71
f 52//8 53//8 10//74
f 53//8 54//8 9//75
f 58//77 55//76 9//75
f 55//76 56//78 10//74
f 56//78 57//78 12//79
f 57//78 58//77 11//80
f 62//82 59//81 11//80
f 59//81 60//82 12//79
f 60//82 61//81 14//83
f 61//81 62//82 13//84
f 66//86 63//85 13//84
f 63//85 64//86 14//83
f 64//86 65//85 16//87
f 65//85 66//86 15//88
f 70//89 67//89 15//88
f 67//89 68//90 16//87
f 68//90 69//92 18//91
f 69//92 70//89 17//93
f 74//29 71//29 17//93
f 71//29 72//29 18//91
f 72//29 73//29 20//94
f 73//29 74//29 19//95
f 78//97 75//96 19//95
f 75//96 76//98 20//94
f 76//98 77//98 22//99
f 77//98 78//97 21//100
f 82//102 79//101 21//100
f 79//101 80//102 22//99
f 80//102 81//101 4//66
f 81//101 82//102 3//63
f 83//103 84//104 44//103
f 84//105 85//106 45//105
f 85//107 86//108 46//107
f 86//109 83//110 43//109
f 87//111 88//112 48//111
f 88//113 89//114 49//113
f 89//115 90//116 50//115
f 90//117 87//118 47//117
f 91//119 92//120 52//119
f 92//121 93//121 53//121
f 93//122 94//123 54//122
f 94//124 91//125 51//124
f 95//126 96//127 56//126
f 96//128 97//129 57//128
f 97//130 98//131 58//130
f 98//132 95//133 55//132
f 99//134 100//135 60//134
f 100//136 101//137 61//136
f 101//138 102//139 62//138
f 102//140 99//141 59//140
f 103//142 104//143 64//142
f 104//144 105//145 65//144
f 105//146 106//147 66//146
f 106//148 103//149 63//148
f 107//150 108//151 68//150
f 108//152 109//153 69//152
f 109//154 110//155 70//154
f 110//156 107//157 67//156
f 111//158 112//159 72//158
f 112//160 113//160 73//160
f 113//161 114//162 74//161
f 114//163 111//164 71//163
f 115//165 116//166 76//165
f 116//167 117//168 77//167
f 117//169 118//170 78//169
f 41//1 40//1 42//1
f 40//1 38//1 33//1
f 38//1 37//1 34//1
f 2//172 122//42 4//171
f 130//174 2//172 6//173
f 129//176 130//174 8//175
f 128//178 129//176 10//177
f 127//20 128//178 12//179
f 125//5 124//5 2//5
f 130//5 126//5 2//5
f 130//5 128//5 126//5
f 86//180 85//3 83//3
f 90//6 89//6 87//6
f 94//8 93//8 91//8
f 98//11 97//11 95//11
f 102//14 101//13 99//13
f 78//181 118//15 75//15
f 106//18 105//17 103//17
f 16//25 126//21 14//19
f 79//182 119//22 80//22
f 110//24 109//24 107//24
f 18//30 125//26 16//25
f 80//183 120//27 81//27
f 114//29 113//29 111//29
f 20//35 124//31 18//30
f 81//184 121//32 82//32
f 118//34 117//34 115//34
f 22//41 123//36 20//35
f 82//185 1//37 79//37
f 1//40 121//39 119//39
f 4//171 122//42 22//41
f 3//1 23//1 5//1
f 5//1 24//1 7//1
f 7//1 25//1 9//1
f 9//1 26//1 11//1
f 11//1 27//1 13//1
f 13//1 28//1 15//1
f 15//1 29//1 17//1
f 17//1 30//1 19//1
f 19//1 31//1 21//1
f 21//1 32//1 3//1
f 23//62 33//45 24//43
f 24//43 34//44 25//46
f 25//46 35//47 26//48
f 26//48 36//49 27//50
f 27//50 37//51 28//52
f 28//52 38//53 29//54
f 29//54 39//55 30//56
f 30//56 40//57 31//58
f 31//58 41//59 32//60
f 32//60 42//61 23//62
f 5//68 46//65 3//63
f 3//63 43//64 4//66
f 4//66 44//65 6//67
f 6//67 45//64 5//68
f 7//73 50//69 5//68
f 5//68 47//69 6//67
f 6//67 48//70 8//71
f 8//71 49//72 7//73
f 9//75 54//8 7//73
f 7//73 51//8 8//71
f 8//71 52//8 10//74
f 10//74 53//8 9//75
f 11//80 58//77 9//75
f 9//75 55//76 10//74
f 10//74 56//78 12//79
f 12//79 57//78 11//80
f 13//84 62//82 11//80
f 11//80 59//81 12//79
f 12//79 60//82 14//83
f 14//83 61//81 13//84
f 15//88 66//86 13//84
f 13//84 63//85 14//83
f 14//83 64//86 16//87
f 16//87 65//85 15//88
f 17//93 70//89 15//88
f 15//88 67//89 16//87
f 16//87 68//90 18//91
f 18//91 69//92 17//93
f 19//95 74//29 17//93
f 17//93 71//29 18//91
f 18//91 72//29 20//94
f 20//94 73//29 19//95
f 21//100 78//97 19//95
f 19//95 75//96 20//94
f 20//94 76//98 22//99
f 22//99 77//98 21//100
f 3//63 82//102 21//100
f 21//100 79//101 22//99
f 22//99 80//102 4//66
f 4//66 81//101 3//63
f 43//186 83//103 44//103
f 44//187 84//105 45//105
f 45//188 85//107 46//107
f 46//189 86//109 43//109
f 47//112 87//111 48//111
f 48//190 88//113 49//113
f 49//115 89//115 50//115
f 50//191 90//117 47//117
f 51//192 91//119 52//119
f 52//193 92//121 53//121
f 53//194 93//122 54//122
f 54//125 94//124 51//124
f 55//126 95//126 56//126
f 56//195 96//128 57//128
f 57//196 97//130 58//130
f 58//197 98//132 55//132
f 59//198 99//134 60//134
f 60//199 100//136 61//136
f 61//200 101//138 62//138
f 62//201 102//140 59//140
f 63//202 103//142 64//142
f 64//203 104//144 65//144
f 65//204 105//146 66//146
f 66//205 106//148 63//148
f 67//151 107//150 68//150
f 68//206 108//152 69//152
f 69//154 109//154 70//154
f 70//207 110//156 67//156
f 71//208 111//158 72//158
f 72//209 112//160 73//160
f 73//210 113//161 74//161
f 74//164 114//163 71//163
f 75//211 115//165 76//165
f 76//212 116//167 77//167
f 77//213 117//169 78//169
f 6//173 2//172 4//171
f 8//175 130//174 6//173
f 10//177 129//176 8//175
f 12//179 128//178 10//177
f 14//19 127//20 12//179

