# WaveFront *.obj file (generated by CINEMA 4D)

v -0.07599132508039 0 0.07599132508039
v -0.07599132508039 0.15209999680519 0.07599132508039
v 0.07599132508039 0 0.07599132508039
v 0.07599132508039 0.15209999680519 0.07599132508039
v 0.07599132508039 0 -0.07599132508039
v 0.07599132508039 0.15209999680519 -0.07599132508039
v -0.07599132508039 0 -0.07599132508039
v -0.07599132508039 0.15209999680519 -0.07599132508039
v -0.07599132508039 0 0.25149130821228
v -0.07599132508039 0.15209999680519 0.25149130821228
v 0.07599132508039 0.15209999680519 0.25149130821228
v 0.07599132508039 0 0.25149130821228
v 0.25149130821228 0 0.07599132508039
v 0.25149130821228 0.15209999680519 0.07599132508039
v 0.25149130821228 0.15209999680519 -0.07599132508039
v 0.25149130821228 0 -0.07599132508039
v 0.07599132508039 0 -0.25149130821228
v 0.07599132508039 0.15209999680519 -0.25149130821228
v -0.07599132508039 0.15209999680519 -0.25149130821228
v -0.07599132508039 0 -0.25149130821228
v -0.25149130821228 0 -0.07599132508039
v -0.25149130821228 0.15209999680519 -0.07599132508039
v -0.25149130821228 0.15209999680519 0.07599132508039
v -0.25149130821228 0 0.07599132508039
v -0.06429132819176 0.16380000114441 0.06429132819176
v -0.23979131877422 0.16380000114441 0.06429132819176
v -0.23979131877422 0.16380000114441 -0.06429132819176
v 0.06429132819176 0.16380000114441 0.06429132819176
v 0.06429132819176 0.16380000114441 0.23979131877422
v -0.06429132819176 0.16380000114441 0.23979131877422
v 0.06429132819176 0.16380000114441 -0.06429132819176
v 0.23979131877422 0.16380000114441 -0.06429132819176
v 0.23979131877422 0.16380000114441 0.06429132819176
v -0.06429132819176 0.16380000114441 -0.06429132819176
v -0.06429132819176 0.16380000114441 -0.23979131877422
v 0.06429132819176 0.16380000114441 -0.23979131877422
v -0.05786219239235 0.1632149964571 0
v 0 0.1632149964571 -0.05786219239235
v 0.05786219239235 0.1632149964571 0
v 0 0.1632149964571 0.05786219239235
v -0.04339664429426 0.1632149964571 -0.04339664429426
v 0.04339664429426 0.1632149964571 0.04339664429426
v 0.04339664429426 0.1632149964571 -0.04339664429426
v -0.04339664429426 0.1632149964571 0.04339664429426
v 0 0.15209999680519 0
v -0.04676259681582 0.1526850014925 0
v -0.03507194668055 0.1526850014925 0.03507194668055
v -0.03507194668055 0.1526850014925 -0.03507194668055
v 0 0.1526850014925 -0.04676259681582
v 0.03507194668055 0.1526850014925 -0.03507194668055
v 0.04676259681582 0.1526850014925 0
v 0.03507194668055 0.1526850014925 0.03507194668055
v 0 0.1526850014925 0.04676259681582
v 0.0427903868258 0.16380000114441 0.20528219640255
v -0.0427903868258 0.16380000114441 0.20528219640255
v 0 0.16380000114441 0.1327119320631
v 0.20528219640255 0.16380000114441 -0.0427903868258
v 0.20528219640255 0.16380000114441 0.0427903868258
v 0.1327119320631 0.16380000114441 0
v -0.0427903868258 0.16380000114441 -0.20528219640255
v 0.0427903868258 0.16380000114441 -0.20528219640255
v 0 0.16380000114441 -0.1327119320631
v -0.20528219640255 0.16380000114441 0.0427903868258
v -0.20528219640255 0.16380000114441 -0.0427903868258
v -0.1327119320631 0.16380000114441 0
v 0 0.1579499989748 0.14422951638699
v 0.03254975378513 0.1579499989748 0.19943219423294
v -0.03254975378513 0.1579499989748 0.19943219423294
v 0.14422951638699 0.1579499989748 0
v 0.19943219423294 0.1579499989748 -0.03254975378513
v 0.19943219423294 0.1579499989748 0.03254975378513
v 0 0.1579499989748 -0.14422951638699
v -0.03254975378513 0.1579499989748 -0.19943219423294
v 0.03254975378513 0.1579499989748 -0.19943219423294
v -0.14422951638699 0.1579499989748 0
v -0.19943219423294 0.1579499989748 0.03254975378513
v -0.19943219423294 0.1579499989748 -0.03254975378513
# 77 vertices

vn 0 0 1
vn 0 0 0
vn 1 0 0
vn 0 0 -1
vn 0 0 -1
vn -1 0 0
vn 0.00929288938642 0.99995529651642 -0.00173740205355
vn 0.00927298609167 0.99991399049759 0.00927298609167
vn 0.01399614475667 0.99980407953262 0.01399614475667
vn 0 -1 0
vn -1 0 0
vn -0.00927298609167 0.99991399049759 -0.00927298609167
vn 0.00097927253228 0.99999761581421 -0.00195377669297
vn -0.00173740205355 0.99995529651642 -0.00929288938642
vn -0.00927298609167 0.99991399049759 0.00927298609167
vn -0.00195377669297 0.99999761581421 -0.00097927253228
vn -0.00929288938642 0.99995529651642 0.00173740205355
vn 1 0 0
vn -0.00097927253228 0.99999761581421 0.00195377669297
vn 0.00173740205355 0.99995529651642 0.00929288938642
vn 0 -1 0
vn 0.00927298609167 0.99991399049759 -0.00927298609167
vn 0.00195377669297 0.99999761581421 0.00097927253228
vn 0.70710700750351 0.707106590271 0
vn 0 0.70710629224777 0.70710724592209
vn -0.70710700750351 0.707106590271 0
vn 0 0.707106590271 -0.70710700750351
vn 0.70710724592209 0.70710629224777 0
vn 0 0.707106590271 0.70710700750351
vn 0 0.70710629224777 -0.70710724592209
vn -0.70710724592209 0.70710629224777 0
vn 0 1 0
vn 0 1 0
vn 0 1 0
vn 0.00185724336188 0.99999803304672 -0.00070608459646
vn -0.01399614475667 0.99980407953262 0.01399614475667
vn -0.01399614475667 0.99980407953262 -0.01399614475667
vn 0.01399614475667 0.99980407953262 -0.01399614475667
vn 0.01250911876559 0.99992173910141 0
vn 0.00416984735057 0.99996715784073 0.0069494554773
vn 0.00139017729089 0.99999809265137 -0.00139017729089
vn -0.00070608459646 0.99999803304672 -0.00185724336188
vn -0.00185724336188 0.99999803304672 0.00070608459646
vn 0.00070608459646 0.99999803304672 0.00185724336188
vn -0.00416967039928 0.99998259544373 0.00416967039928
vn -0.0069494554773 0.99996715784073 -0.00416984735057
vn 0 0.99992173910141 -0.01250911876559
vn 0.67082023620605 0.70710694789886 0.22360673546791
vn 0.67082017660141 0.70710700750351 0.22360675036907
vn 0.67082011699677 0.70710700750351 -0.22360675036907
vn 0.67082017660141 0.70710700750351 -0.22360678017139
vn 0.22360672056675 0.70710700750351 0.67082017660141
vn 0.22360678017139 0.70710700750351 0.67082017660141
vn -0.22360675036907 0.70710694789886 0.67082017660141
vn -0.22360675036907 0.70710700750351 0.67082017660141
vn -0.22360672056675 0.70710700750351 -0.67082017660141
vn -0.22360678017139 0.70710700750351 -0.67082017660141
vn 0.22360675036907 0.70710694789886 -0.67082017660141
vn 0.22360675036907 0.70710700750351 -0.67082017660141
vn -0.67082011699677 0.70710700750351 0.22360675036907
vn -0.67082017660141 0.70710700750351 0.22360678017139
vn -0.67082023620605 0.70710694789886 -0.22360673546791
vn -0.67082017660141 0.70710700750351 -0.22360675036907
vn -0.0000792181163 0.99998641014099 -0.00521020684391
vn -0.00839241407812 0.99995189905167 -0.00508129689842
vn -0.00521020684391 0.99998641014099 0.0000792181163
vn -0.00508129689842 0.99995189905167 0.00839241407812
vn 0.0000792181163 0.99998641014099 0.00521020684391
vn 0.00839241407812 0.99995189905167 0.00508129689842
vn 0.00521020684391 0.99998641014099 -0.0000792181163
vn 0.00508129689842 0.99995189905167 -0.00839241407812
vn -0.60910511016846 0.70710676908493 0.35915321111679
vn -0.6091051697731 0.70710664987564 0.35915330052376
vn 0 0.70710676908493 -0.70710676908493
vn 0 0.70710676908493 -0.70710676908493
vn 0.60910499095917 0.70710682868958 0.35915318131447
vn 0.60910493135452 0.70710688829422 0.35915315151215
vn 0.35915321111679 0.70710676908493 0.60910511016846
vn 0.35915330052376 0.70710664987564 0.6091051697731
vn -0.70710676908493 0.70710676908493 0
vn -0.70710676908493 0.70710676908493 0
vn 0.35915318131447 0.70710682868958 -0.60910499095917
vn 0.35915315151215 0.70710688829422 -0.60910493135452
vn 0.60910511016846 0.70710676908493 -0.35915321111679
vn 0.6091051697731 0.70710664987564 -0.35915330052376
vn 0 0.70710676908493 0.70710676908493
vn 0 0.70710676908493 0.70710676908493
vn -0.60910499095917 0.70710682868958 -0.35915318131447
vn -0.60910493135452 0.70710688829422 -0.35915315151215
vn -0.35915321111679 0.70710676908493 -0.60910511016846
vn -0.35915330052376 0.70710664987564 -0.6091051697731
vn 0.70710676908493 0.70710676908493 0
vn 0.70710676908493 0.70710676908493 0
vn -0.35915312170982 0.70710694789886 0.60910487174988
vn -0.35915315151215 0.70710688829422 0.60910493135452
vn -1 0 0
vn 1 0 0
vn 0.70710700750351 0.707106590271 0
vn 0.70710724592209 0.70710629224777 0
vn 0.00833948515356 0.99993044137955 -0.00833948515356
vn 0.67082017660141 0.70710706710815 -0.22360670566559
vn 0.22360669076443 0.70710706710815 0.67082017660141
vn -0.22360672056675 0.70710694789886 0.67082023620605
vn -0.22360669076443 0.70710706710815 -0.67082017660141
vn 0.22360672056675 0.70710694789886 -0.67082023620605
vn -0.67082017660141 0.70710706710815 0.22360670566559
vn -0.60910499095917 0.70710688829422 0.35915312170982
vn 0 0.70710676908493 -0.70710676908493
vn 0.60910511016846 0.70710670948029 0.35915321111679
vn 0.35915312170982 0.70710688829422 0.60910499095917
vn 0.35915321111679 0.70710670948029 -0.60910511016846
vn 0.60910499095917 0.70710688829422 -0.35915312170982
vn -0.60910511016846 0.70710670948029 -0.35915321111679
vn -0.35915312170982 0.70710688829422 -0.60910499095917
vn -0.3591530919075 0.70710706710815 0.60910481214523
# 115 normals

o dpad
usemtl default
f 11//1 10//1 9//1
f 15//3 14//3 13//3
f 19//4 18//5 17//4
f 23//6 22//6 21//6
f 41//9 34//8 37//7
f 3//10 1//10 7//10
f 12//10 9//10 1//10
f 9//6 10//11 2//6
f 40//14 29//13 28//12
f 11//3 12//3 3//3
f 16//10 13//10 3//10
f 13//1 14//1 4//1
f 39//17 32//16 31//15
f 15//4 16//4 5//4
f 20//10 17//10 5//10
f 17//3 18//18 6//3
f 38//20 35//19 34//8
f 19//6 20//6 7//6
f 24//10 21//21 7//10
f 21//4 22//4 8//4
f 26//23 25//22 37//7
f 23//1 24//1 1//1
f 28//24 29//24 11//24
f 29//25 30//25 10//25
f 30//26 25//26 2//26
f 31//27 32//27 15//27
f 32//28 33//28 14//28
f 33//29 28//29 4//29
f 34//26 35//26 19//26
f 35//30 36//30 18//30
f 36//24 31//24 6//24
f 25//29 26//29 23//29
f 26//31 27//31 22//31
f 27//27 34//27 8//27
f 68//32 67//32 66//32
f 71//33 70//33 69//33
f 74//34 73//34 72//34
f 37//7 34//8 27//35
f 43//36 31//15 38//20
f 42//37 28//12 39//17
f 44//38 25//22 40//14
f 45//41 48//40 46//39
f 77//32 76//32 75//32
f 25//22 30//42 40//14
f 28//12 33//43 39//17
f 31//15 36//44 38//20
f 41//9 38//20 34//8
f 42//37 40//14 28//12
f 50//45 49//32 48//40
f 43//36 39//17 31//15
f 44//38 37//7 25//22
f 53//47 52//46 45//41
f 52//46 51//32 50//45
f 46//48 48//49 41//48
f 47//50 46//51 37//50
f 48//52 49//53 38//52
f 49//54 50//55 43//54
f 52//56 53//57 40//56
f 53//58 47//59 44//58
f 50//60 51//61 39//60
f 51//62 52//63 42//62
f 55//65 56//64 40//14
f 54//32 55//65 30//42
f 56//64 54//32 29//13
f 58//67 59//66 39//17
f 57//32 58//67 33//43
f 59//66 57//32 32//16
f 61//69 62//68 38//20
f 60//32 61//69 36//44
f 62//68 60//32 35//19
f 64//71 65//70 37//7
f 63//32 64//71 27//35
f 65//70 63//32 26//23
f 66//72 67//73 54//72
f 67//74 68//75 55//74
f 68//76 66//77 56//76
f 69//78 70//79 57//78
f 70//80 71//81 58//80
f 71//82 69//83 59//82
f 72//84 73//85 60//84
f 73//86 74//87 61//86
f 74//88 72//89 62//88
f 75//90 76//91 63//90
f 76//92 77//93 64//92
f 77//94 75//95 65//94
f 12//1 11//1 9//1
f 16//3 15//3 13//3
f 20//4 19//4 17//4
f 24//6 23//6 21//6
f 5//10 3//10 7//10
f 3//10 12//10 1//10
f 1//96 9//6 2//6
f 4//97 11//3 3//3
f 5//10 16//10 3//10
f 3//1 13//1 4//1
f 6//4 15//4 5//4
f 7//10 20//10 5//10
f 5//3 17//3 6//3
f 8//6 19//6 7//6
f 1//10 24//10 7//10
f 7//4 21//4 8//4
f 2//1 23//1 1//1
f 4//98 28//24 11//24
f 11//25 29//25 10//25
f 10//26 30//26 2//26
f 6//27 31//27 15//27
f 15//99 32//28 14//28
f 14//29 33//29 4//29
f 8//26 34//26 19//26
f 19//30 35//30 18//30
f 18//98 36//24 6//24
f 2//29 25//29 23//29
f 23//31 26//31 22//31
f 22//27 27//27 8//27
f 47//100 45//41 46//39
f 45//41 50//45 48//40
f 47//100 53//47 45//41
f 45//41 52//46 50//45
f 37//48 46//48 41//48
f 44//101 47//50 37//50
f 41//102 48//52 38//52
f 38//103 49//54 43//54
f 42//104 52//56 40//56
f 40//105 53//58 44//58
f 43//106 50//60 39//60
f 39//62 51//62 42//62
f 30//42 55//65 40//14
f 29//13 54//32 30//42
f 40//14 56//64 29//13
f 33//43 58//67 39//17
f 32//16 57//32 33//43
f 39//17 59//66 32//16
f 36//44 61//69 38//20
f 35//19 60//32 36//44
f 38//20 62//68 35//19
f 27//35 64//71 37//7
f 26//23 63//32 27//35
f 37//7 65//70 26//23
f 56//107 66//72 54//72
f 54//108 67//74 55//74
f 55//109 68//76 56//76
f 59//110 69//78 57//78
f 57//81 70//80 58//80
f 58//111 71//82 59//82
f 62//112 72//84 60//84
f 60//87 73//86 61//86
f 61//113 74//88 62//88
f 65//114 75//90 63//90
f 63//93 76//92 64//92
f 64//115 77//94 65//94

