# OBJ written from C:\Users\Brad\Desktop\eyes-export\bakc-faced\eyes_04_emissive.obj
# Units	meters

g eyes_04_emissive
v -0.06132 0.104376 -0.13072
v 1.00054e-021 0.104376 -0.1429
v -0.11333 0.104376 -0.09593
v -0.14805 0.104376 -0.04399
v -0.16023 0.104376 0.01733
v -0.14805 0.104376 0.07865
v -0.11333 0.104376 0.13066
v -0.06132 0.104376 0.16538
v -1.4782e-021 0.104376 0.17756
v 0.06132 0.104376 0.16538
v 0.11333 0.104376 0.13066
v 0.14805 0.104376 0.07865
v 0.16023 0.104376 0.01733
v 0.14805 0.104376 -0.04399
v 0.11333 0.104376 -0.09593
v 0.06132 0.104376 -0.13072
v 8.58245e-022 0.174866 -0.0627499
v -0.03066 0.174866 -0.05666
v 1.01195e-021 0.167026 -0.08949
v -0.04088 0.167026 -0.08137
v 1.05934e-021 0.143576 -0.11616
v -0.0511 0.143576 -0.10601
v -0.05663 0.174866 -0.0393
v -0.07553 0.167026 -0.0582
v -0.09443 0.143576 -0.07703
v -0.07399 0.174866 -0.0133299
v -0.0987 0.167026 -0.02355
v -0.12334 0.143576 -0.03377
v -0.08008 0.174866 0.01733
v -0.10682 0.167026 0.01733
v -0.13349 0.143576 0.01733
v -0.07399 0.174866 0.04799
v -0.0987 0.167026 0.0582101
v -0.12334 0.143576 0.0684301
v -0.05663 0.174866 0.07403
v -0.07553 0.167096 0.09286
v -0.09443 0.143576 0.11176
v -0.03066 0.174866 0.0913901
v -0.04088 0.167026 0.11603
v -0.0511 0.143576 0.14074
v -3.81128e-022 0.174866 0.09748
v -6.40546e-022 0.167026 0.12415
v -1.00574e-021 0.143576 0.15082
v 0.03066 0.174866 0.0913901
v 0.04088 0.167026 0.11603
v 0.0511 0.143576 0.14074
v 0.0567 0.174866 0.07403
v 0.07553 0.167096 0.09286
v 0.09443 0.143576 0.11176
v 0.07406 0.174866 0.04799
v 0.0987 0.167026 0.0582101
v 0.12341 0.143576 0.0684301
v 0.08015 0.174866 0.01733
v 0.10682 0.167026 0.01733
v 0.13356 0.143576 0.01733
v 0.07406 0.174866 -0.0133299
v 0.0987 0.167026 -0.02355
v 0.12341 0.143576 -0.03377
v 0.0567 0.174866 -0.0393
v 0.07553 0.167026 -0.0582
v 0.09443 0.143576 -0.07703
v 0.03066 0.174866 -0.05666
v 0.04088 0.167026 -0.08137
v 0.0511 0.143576 -0.10601
v 6.7593e-023 0.176596 0.01733
vn 0.286637 0.662696 -0.691862
vn 0.316218 0.563493 -0.763205
vn -1.51004e-008 0.56352 -0.826102
vn -1.51839e-008 0.662685 -0.748898
vn 9.40208e-009 0.988273 -0.152699
vn 1.91744e-009 0.876405 -0.481574
vn -0.184279 0.876432 -0.444869
vn -0.0584315 0.988273 -0.141075
vn -0.286622 0.662726 -0.69184
vn -0.316207 0.563522 -0.763189
vn 0.748868 0.66272 3.79657e-009
vn 0.826789 0.562512 2.26511e-008
vn 0.763659 0.562591 -0.316729
vn 0.691751 0.66276 -0.286758
vn 0.184281 0.876349 -0.445032
vn -0.340479 0.876437 -0.340489
vn -0.108005 0.988267 -0.108
vn -0.529587 0.662706 -0.529489
vn -0.58432 0.563385 -0.584096
vn 0.481321 0.876544 -1.05435e-008
vn 0.444652 0.87656 -0.184191
vn 0.058424 0.98825 -0.141239
vn -0.44483 0.876457 -0.184255
vn -0.141089 0.988271 -0.0584407
vn -0.691852 0.66275 -0.286536
vn -0.763281 0.563465 -0.316085
vn 0.153039 0.98822 -2.9383e-009
vn 0.141367 0.988225 -0.058547
vn 0.340435 0.876403 -0.340621
vn 0.108106 0.98823 -0.108237
vn -0.481574 0.876405 -5.75232e-009
vn -0.152699 0.988273 -5.64125e-009
vn -0.748898 0.662685 -3.79597e-009
vn -0.826102 0.56352 -7.55022e-009
vn -0.445035 0.876428 0.183897
vn -0.141113 0.988273 0.0583409
vn -0.692052 0.662726 0.28611
vn -0.763367 0.563522 0.315775
vn 0.692066 0.662576 0.286422
vn 0.763548 0.56299 0.316288
vn 0.529469 0.662622 -0.529711
vn 0.584262 0.562901 -0.58462
vn -0.340326 0.876637 0.340127
vn -0.107782 0.988342 0.107532
vn -0.5297 0.662669 0.529422
vn -0.584486 0.563471 0.583847
vn 0.444843 0.876545 0.183803
vn -0.18382 0.876609 0.44471
vn -0.0582209 0.988314 0.140874
vn -0.286165 0.66258 0.692168
vn -0.315778 0.56299 0.763758
vn 0.141024 0.988294 0.0582045
vn 4.8616e-005 0.876389 0.481604
vn -1.03428e-008 0.98822 0.153039
vn 8.36629e-006 0.662649 0.74893
vn -7.9098e-005 0.562916 0.826514
vn 0.183872 0.876401 0.445098
vn 0.0584564 0.988224 0.141405
vn 0.286043 0.662794 0.692015
vn 0.315848 0.563195 0.763578
vn 0.52961 0.662642 0.529547
vn 0.584376 0.562958 0.584451
vn 0.340201 0.876647 0.340226
vn 0.107764 0.988305 0.107888
vn -7.27341e-006 1 -7.27583e-006
usemtl Default
f 64//1 16//2 2//3 21//4
f 17//5 19//6 20//7 18//8
f 19//6 21//4 22//9 20//7
f 21//4 2//3 1//10 22//9
f 55//11 13//12 14//13 58//14
f 63//15 64//1 21//4 19//6
f 18//8 20//7 24//16 23//17
f 20//7 22//9 25//18 24//16
f 22//9 1//10 3//19 25//18
f 54//20 55//11 58//14 57//21
f 62//22 63//15 19//6 17//5
f 23//17 24//16 27//23 26//24
f 24//16 25//18 28//25 27//23
f 25//18 3//19 4//26 28//25
f 53//27 54//20 57//21 56//28
f 56//28 57//21 60//29 59//30
f 26//24 27//23 30//31 29//32
f 27//23 28//25 31//33 30//31
f 28//25 4//26 5//34 31//33
f 29//32 30//31 33//35 32//36
f 30//31 31//33 34//37 33//35
f 31//33 5//34 6//38 34//37
f 52//39 12//40 13//12 55//11
f 61//41 15//42 16//2 64//1
f 32//36 33//35 36//43 35//44
f 33//35 34//37 37//45 36//43
f 34//37 6//38 7//46 37//45
f 51//47 52//39 55//11 54//20
f 60//29 61//41 64//1 63//15
f 35//44 36//43 39//48 38//49
f 36//43 37//45 40//50 39//48
f 37//45 7//46 8//51 40//50
f 50//52 51//47 54//20 53//27
f 59//30 60//29 63//15 62//22
f 38//49 39//48 42//53 41//54
f 39//48 40//50 43//55 42//53
f 40//50 8//51 9//56 43//55
f 57//21 58//14 61//41 60//29
f 41//54 42//53 45//57 44//58
f 42//53 43//55 46//59 45//57
f 43//55 9//56 10//60 46//59
f 49//61 11//62 12//40 52//39
f 44//58 45//57 48//63 47//64
f 45//57 46//59 49//61 48//63
f 46//59 10//60 11//62 49//61
f 48//63 49//61 52//39 51//47
f 58//14 14//13 15//42 61//41
f 47//64 48//63 51//47 50//52
f 62//22 17//5 65//65
f 62//22 65//65 59//30
f 56//28 59//30 65//65
f 56//28 65//65 53//27
f 50//52 53//27 65//65
f 50//52 65//65 47//64
f 44//58 47//64 65//65
f 44//58 65//65 41//54
f 38//49 41//54 65//65
f 38//49 65//65 35//44
f 32//36 35//44 65//65
f 32//36 65//65 29//32
f 26//24 29//32 65//65
f 26//24 65//65 23//17
f 18//8 23//17 65//65
f 18//8 65//65 17//5
