# OBJ written from C:\Users\Brad\Desktop\eyes-export\bakc-faced\eyes_00_emissive.obj
# Units	meters

g eyes_00_emissive
v 0.270571 0.096892 -0.0495621
v 0.248287 0.0968915 -0.0646055
v 0.285424 0.0968926 -0.0271879
v 0.290589 0.0968933 -0.000782268
v 0.28533 0.0968939 0.0255357
v 0.270286 0.0968942 0.0478196
v 0.247912 0.0968944 0.0626729
v 0.221506 0.0968942 0.0678377
v 0.195188 0.0968938 0.0625783
v 0.172905 0.0968933 0.0475349
v 0.158051 0.0968926 0.0251607
v 0.152886 0.096892 -0.00124496
v 0.158146 0.0968914 -0.0275629
v 0.173189 0.0968911 -0.0498467
v 0.195563 0.0968909 -0.0647001
v 0.221913 0.0968911 -0.0698881
v -0.172909 0.096892 -0.0495621
v -0.195193 0.0968915 -0.0646055
v -0.158056 0.0968926 -0.0271879
v -0.152891 0.0968933 -0.000782268
v -0.15815 0.0968939 0.0255357
v -0.173193 0.0968942 0.0478196
v -0.195568 0.0968944 0.0626729
v -0.221973 0.0968942 0.0678377
v -0.248291 0.0968938 0.0625783
v -0.270575 0.0968933 0.0475349
v -0.285429 0.0968926 0.0251607
v -0.290593 0.096892 -0.00124496
v -0.285334 0.0968914 -0.0275629
v -0.270291 0.0968911 -0.0498467
v -0.247916 0.0968909 -0.0647001
v -0.221567 0.0968911 -0.0698881
v 0.221728 0.0968926 -0.00101748
v -0.221751 0.0968926 -0.00101748
vn -9.43259e-006 1 -2.37178e-005
vn -8.68884e-006 1 -2.34758e-005
vn -9.5602e-006 1 -2.28208e-005
vn -9.98221e-006 1 -2.34755e-005
vn -9.44354e-006 1 -2.26998e-005
vn -8.95124e-006 1 -2.22461e-005
vn -1.02751e-005 1 -2.29729e-005
vn -9.48836e-006 1 -2.31219e-005
vn -9.42708e-006 1 -2.29187e-005
vn -9.59328e-006 1 -2.25064e-005
vn -1.02747e-005 1 -2.27458e-005
vn -1.0317e-005 1 -2.25875e-005
vn -9.42104e-006 1 -2.19106e-005
vn -9.249e-006 1 -2.27823e-005
vn -8.50438e-006 1 -2.28232e-005
vn -1.01728e-005 1 -2.24925e-005
vn -9.74202e-006 1 -2.26564e-005
vn -9.43259e-006 1 -2.37177e-005
vn -8.68884e-006 1 -2.34758e-005
vn -9.5602e-006 1 -2.28208e-005
vn -9.98221e-006 1 -2.34755e-005
vn -9.44353e-006 1 -2.26998e-005
vn -1.02751e-005 1 -2.29729e-005
vn -9.48835e-006 1 -2.31219e-005
vn -9.42708e-006 1 -2.29187e-005
vn -9.59328e-006 1 -2.25064e-005
vn -1.02747e-005 1 -2.27458e-005
vn -1.0317e-005 1 -2.25875e-005
vn -9.42104e-006 1 -2.19106e-005
vn -9.249e-006 1 -2.27823e-005
vn -8.50438e-006 1 -2.28232e-005
vn -1.01728e-005 1 -2.24925e-005
vn -9.74202e-006 1 -2.26564e-005
usemtl Default
f 13//1 12//2 33//3
f 33//3 4//4 3//5
f 9//6 8//7 33//3
f 8//7 7//8 33//3
f 15//9 14//10 33//3
f 33//3 14//10 13//1
f 16//11 15//9 33//3
f 2//12 16//11 33//3
f 1//13 2//12 33//3
f 1//13 33//3 3//5
f 33//3 12//2 11//14
f 33//3 11//14 10//15
f 33//3 10//15 9//6
f 4//4 33//3 5//16
f 5//16 33//3 6//17
f 6//17 33//3 7//8
f 29//18 28//19 34//20
f 34//20 20//21 19//22
f 25//6 24//23 34//20
f 24//23 23//24 34//20
f 31//25 30//26 34//20
f 34//20 30//26 29//18
f 32//27 31//25 34//20
f 18//28 32//27 34//20
f 17//29 18//28 34//20
f 17//29 34//20 19//22
f 34//20 28//19 27//30
f 34//20 27//30 26//31
f 34//20 26//31 25//6
f 20//21 34//20 21//32
f 21//32 34//20 22//33
f 22//33 34//20 23//24
