# WaveFront *.obj file (generated by CINEMA 4D)

v 0.11999999731779 0 0
v 0.23999999463558 0 0
v 0.23999999463558 0.15999999642372 0
v 0.11999999731779 0.15999999642372 0
v 0.09708204120398 0 -0.07053422927856
v 0.19416408240795 0 -0.14106845855713
v 0.19416408240795 0.15999999642372 -0.14106845855713
v 0.09708204120398 0.15999999642372 -0.07053422927856
v 0.03708203881979 0 -0.11412677913904
v 0.07416407763958 0 -0.22825355827808
v 0.07416407763958 0.15999999642372 -0.22825355827808
v 0.03708203881979 0.15999999642372 -0.11412677913904
v -0.03708203881979 0 -0.11412677913904
v -0.07416407763958 0 -0.22825355827808
v -0.07416407763958 0.15999999642372 -0.22825355827808
v -0.03708203881979 0.15999999642372 -0.11412677913904
v -0.09708204120398 0 -0.07053422927856
v -0.19416408240795 0 -0.14106845855713
v -0.19416408240795 0.15999999642372 -0.14106845855713
v -0.09708204120398 0.15999999642372 -0.07053422927856
v -0.11999999731779 0 -0
v -0.23999999463558 0 -0
v -0.23999999463558 0.15999999642372 -0
v -0.11999999731779 0.15999999642372 -0
v -0.09708204120398 0 0.07053422927856
v -0.19416408240795 0 0.14106845855713
v -0.19416408240795 0.15999999642372 0.14106845855713
v -0.09708204120398 0.15999999642372 0.07053422927856
v -0.03708203881979 0 0.11412677913904
v -0.07416407763958 0 0.22825355827808
v -0.07416407763958 0.15999999642372 0.22825355827808
v -0.03708203881979 0.15999999642372 0.11412677913904
v 0.03708203881979 0 0.11412677913904
v 0.07416407763958 0 0.22825355827808
v 0.07416407763958 0.15999999642372 0.22825355827808
v 0.03708203881979 0.15999999642372 0.11412677913904
v 0.09708204120398 0 0.07053422927856
v 0.19416408240795 0 0.14106845855713
v 0.19416408240795 0.15999999642372 0.14106845855713
v 0.09708204120398 0.15999999642372 0.07053422927856
v 0.23996378481388 0.02400000020862 -0.02522332780063
v 0.23996378481388 0.13600000739098 -0.02522332780063
v 0.2089606821537 0.13600000739098 -0.12064107507467
v 0.2089606821537 0.02400000020862 -0.12064107507467
v 0.17930889129639 0.02400000020862 -0.16145327687263
v 0.17930889129639 0.13600000739098 -0.16145327687263
v 0.09814170002937 0.13600000739098 -0.22042469680309
v 0.09814170002937 0.02400000020862 -0.22042469680309
v 0.05016407743096 0.02400000020862 -0.2360135614872
v 0.05016407743096 0.13600000739098 -0.2360135614872
v -0.05016407743096 0.13600000739098 -0.2360135614872
v -0.05016407743096 0.02400000020862 -0.2360135614872
v -0.09814170002937 0.02400000020862 -0.22042469680309
v -0.09814170002937 0.13600000739098 -0.22042469680309
v -0.17930889129639 0.13600000739098 -0.16145327687263
v -0.17930889129639 0.02400000020862 -0.16145327687263
v -0.2089606821537 0.02400000020862 -0.12064107507467
v -0.2089606821537 0.13600000739098 -0.12064107507467
v -0.23996378481388 0.13600000739098 -0.02522332780063
v -0.23996378481388 0.02400000020862 -0.02522332780063
v -0.23996378481388 0.02400000020862 0.02522332780063
v -0.23996378481388 0.13600000739098 0.02522332780063
v -0.2089606821537 0.13600000739098 0.12064107507467
v -0.2089606821537 0.02400000020862 0.12064107507467
v -0.17930889129639 0.02400000020862 0.16145327687263
v -0.17930889129639 0.13600000739098 0.16145327687263
v -0.09814170002937 0.13600000739098 0.22042469680309
v -0.09814170002937 0.02400000020862 0.22042469680309
v -0.05016407743096 0.02400000020862 0.2360135614872
v -0.05016407743096 0.13600000739098 0.2360135614872
v 0.05016407743096 0.13600000739098 0.2360135614872
v 0.05016407743096 0.02400000020862 0.2360135614872
v 0.09814170002937 0.02400000020862 0.22042469680309
v 0.09814170002937 0.13600000739098 0.22042469680309
v 0.17930889129639 0.13600000739098 0.16145327687263
v 0.17930889129639 0.02400000020862 0.16145327687263
v 0.2089606821537 0.02400000020862 0.12064107507467
v 0.2089606821537 0.13600000739098 0.12064107507467
v 0.23996378481388 0.13600000739098 0.02522332780063
v 0.23996378481388 0.02400000020862 0.02522332780063
v 0.31624037027359 0.04800000041723 -0.07524217665195
v 0.31624037027359 0.11200000345707 -0.07524217665195
v 0.30007007718086 0.11200000345707 -0.12500920891762
v 0.30007007718086 0.04800000041723 -0.12500920891762
v 0.21161757409573 0.04800000041723 -0.24675361812115
v 0.21161757409573 0.11200000345707 -0.24675361812115
v 0.16928321123123 0.11200000345707 -0.27751132845879
v 0.16928321123123 0.04800000041723 -0.27751132845879
v 0.02616407908499 0.04800000041723 -0.32401356101036
v 0.02616407908499 0.11200000345707 -0.32401356101036
v -0.02616407908499 0.11200000345707 -0.32401356101036
v -0.02616407908499 0.04800000041723 -0.32401356101036
v -0.16928321123123 0.04800000041723 -0.27751132845879
v -0.16928321123123 0.11200000345707 -0.27751132845879
v -0.21161757409573 0.11200000345707 -0.24675361812115
v -0.21161757409573 0.04800000041723 -0.24675361812115
v -0.30007007718086 0.04800000041723 -0.12500920891762
v -0.30007007718086 0.11200000345707 -0.12500920891762
v -0.31624037027359 0.11200000345707 -0.07524217665195
v -0.31624037027359 0.04800000041723 -0.07524217665195
v -0.31624037027359 0.04800000041723 0.07524217665195
v -0.31624037027359 0.11200000345707 0.07524217665195
v -0.30007007718086 0.11200000345707 0.12500920891762
v -0.30007007718086 0.04800000041723 0.12500920891762
v -0.21161757409573 0.04800000041723 0.24675361812115
v -0.21161757409573 0.11200000345707 0.24675361812115
v -0.16928321123123 0.11200000345707 0.27751132845879
v -0.16928321123123 0.04800000041723 0.27751132845879
v -0.02616407908499 0.04800000041723 0.32401356101036
v -0.02616407908499 0.11200000345707 0.32401356101036
v 0.02616407908499 0.11200000345707 0.32401356101036
v 0.02616407908499 0.04800000041723 0.32401356101036
v 0.16928321123123 0.04800000041723 0.27751132845879
v 0.16928321123123 0.11200000345707 0.27751132845879
v 0.21161757409573 0.11200000345707 0.24675361812115
v 0.21161757409573 0.04800000041723 0.24675361812115
v 0.30007007718086 0.04800000041723 0.12500920891762
v 0.30007007718086 0.11200000345707 0.12500920891762
v 0.31624037027359 0.11200000345707 0.07524217665195
v 0.31624037027359 0.04800000041723 0.07524217665195
# 120 vertices

vn 0 -1 0
vn 0 0 0
vn 0.95105648040771 0 -0.30901706218719
vn 0.95105648040771 0 -0.30901706218719
vn 0 1 0
vn -0.99418592453003 0 0.10767683386803
vn -0.99418592453003 0 -0.10767683386803
vn -0.86760419607162 0 0.49725541472435
vn 0.58778512477875 0 -0.80901706218719
vn 0.58778518438339 0 -0.80901706218719
vn -0.74102240800858 0 0.6714802980423
vn -0.40962710976601 0 0.91225308179855
vn 0 0 -1
vn 0 0 -1
vn -0.20481353998184 0 0.97880101203918
vn 0.20481353998184 0 0.97880101203918
vn -0.58778512477875 0 -0.80901706218719
vn -0.58778518438339 0 -0.80901706218719
vn 0.40962710976601 0 0.91225308179855
vn 0.74102240800858 0 0.6714802980423
vn -0.95105648040771 0 -0.30901706218719
vn 0.86760419607162 0 0.49725541472435
vn 0.99418592453003 0 0.10767683386803
vn -0.95105648040771 0 0.30901706218719
vn 0.99418592453003 0 -0.10767683386803
vn 0.86760419607162 0 -0.49725541472435
vn -0.58778512477875 0 0.80901706218719
vn -0.58778518438339 0 0.80901706218719
vn 0.74102240800858 0 -0.6714802980423
vn 0.40962710976601 0 -0.91225308179855
vn 0 0 1
vn 0.20481353998184 0 -0.97880101203918
vn -0.20481353998184 0 -0.97880101203918
vn 0.58778512477875 0 0.80901706218719
vn 0.58778518438339 0 0.80901706218719
vn -0.40962710976601 0 -0.91225308179855
vn -0.74102240800858 0 -0.6714802980423
vn 0.95105648040771 0 0.30901706218719
vn -0.86760419607162 0 -0.49725541472435
vn 0.98594951629639 -0.1592335999012 -0.05048006772995
vn 0.98934173583984 -0.10477792471647 -0.10111648589373
vn 0.89220726490021 -0.20955581963062 -0.40006569027901
vn 0.98594951629639 0.1592335999012 0.05048006772995
vn 0.95696359872818 0.20955583453178 -0.20076623558998
vn 0.82732141017914 0.15923365950584 -0.53868722915649
vn 0.8598290681839 0.10477788746357 -0.49971547722816
vn 0.76797848939896 -0.15923370420933 -0.62036579847336
vn 0.74095958471298 -0.10477796941996 -0.66332536935806
vn 0.48665788769722 -0.20955604314804 -0.84808629751205
vn 0.65619230270386 0.20955613255501 -0.72491228580475
vn 0.35268452763557 0.15923377871513 -0.92209446430206
vn 0.40189057588577 0.10477810353041 -0.90967327356338
vn 0.25666558742523 -0.15923374891281 -0.95329290628433
vn 0.20955599844456 -0.10477798432112 -0.97216659784317
vn -0.10477800667286 -0.20955595374107 -0.97216659784317
vn 0.10477799922228 0.20955599844456 -0.97216659784317
vn -0.25666558742523 0.15923376381397 -0.95329290628433
vn -0.20955599844456 0.10477799922228 -0.97216659784317
vn -0.35268452763557 -0.15923377871513 -0.92209446430206
vn -0.40189057588577 -0.10477808117867 -0.90967327356338
vn -0.6561923623085 -0.20955607295036 -0.72491234540939
vn -0.48665788769722 0.20955607295036 -0.84808629751205
vn -0.76797848939896 0.15923370420933 -0.62036573886871
vn -0.74095952510834 0.10477797687054 -0.66332536935806
vn -0.82732135057449 -0.15923362970352 -0.53868728876114
vn -0.85982912778854 -0.10477787256241 -0.4997153878212
vn -0.95696359872818 -0.2095557898283 -0.20076623558998
vn -0.89220726490021 0.20955583453178 -0.40006569027901
vn -0.98594951629639 0.1592335999012 -0.05048006772995
vn -0.98934173583984 0.10477794706821 -0.10111648589373
vn -0.98594951629639 -0.1592335999012 0.05048006772995
vn -0.98934173583984 -0.10477792471647 0.10111648589373
vn -0.89220726490021 -0.20955581963062 0.40006569027901
vn -0.95696359872818 0.20955583453178 0.20076623558998
vn -0.82732141017914 0.15923365950584 0.53868722915649
vn -0.8598290681839 0.10477788746357 0.49971547722816
vn -0.76797848939896 -0.15923370420933 0.62036579847336
vn -0.74095958471298 -0.10477796941996 0.66332536935806
vn -0.48665788769722 -0.20955604314804 0.84808629751205
vn -0.65619230270386 0.20955613255501 0.72491228580475
vn -0.35268452763557 0.15923377871513 0.92209446430206
vn -0.40189057588577 0.10477810353041 0.90967327356338
vn -0.25666558742523 -0.15923374891281 0.95329290628433
vn -0.20955599844456 -0.10477798432112 0.97216659784317
vn 0.10477800667286 -0.20955595374107 0.97216659784317
vn -0.10477799922228 0.20955599844456 0.97216659784317
vn 0.25666558742523 0.15923376381397 0.95329290628433
vn 0.20955599844456 0.10477799922228 0.97216659784317
vn 0.35268452763557 -0.15923377871513 0.92209446430206
vn 0.40189057588577 -0.10477808117867 0.90967327356338
vn 0.6561923623085 -0.20955607295036 0.72491234540939
vn 0.48665788769722 0.20955607295036 0.84808629751205
vn 0.76797848939896 0.15923370420933 0.62036573886871
vn 0.74095952510834 0.10477797687054 0.66332536935806
vn 0.82732135057449 -0.15923362970352 0.53868728876114
vn 0.85982912778854 -0.10477787256241 0.4997153878212
vn 0.95696359872818 -0.2095557898283 0.20076623558998
vn 0.89220726490021 0.20955583453178 0.40006569027901
vn 0.98934173583984 0.10477794706821 0.10111648589373
vn 0.5483677983284 0 0.83623725175858
vn 0.54836785793304 0 0.83623725175858
vn 0.25023949146271 0.96476382017136 -0.08130773156881
vn 0.25023949146271 0.96476382017136 -0.08130774646997
vn -0.04788882657886 0 -0.99885267019272
vn -0.04788883030415 0 -0.99885267019272
vn 0.25023946166039 -0.96476382017136 -0.08130773901939
vn 0.25023946166039 -0.96476382017136 -0.08130774646997
vn 0.93516689538956 0 0.35420739650726
vn 0.93516689538956 0 0.35420742630959
vn 0.15465654432774 0.96476382017136 -0.2128664702177
vn 0.1546565592289 0.96476382017136 -0.21286650002003
vn -0.62585365772247 0 -0.77994048595428
vn 0.15465649962425 -0.96476382017136 -0.21286644041538
vn 0.15465646982193 -0.96476382017136 -0.21286644041538
vn 0.96476382017136 0 -0.26311737298965
vn 0 0.96476382017136 -0.26311740279198
vn -0.96476382017136 0 -0.26311737298965
vn 0 -0.96476382017136 -0.26311737298965
vn 0 -0.96476382017136 -0.26311740279198
vn 0.62585365772247 0 -0.77994048595428
vn -0.15465649962425 0.96476382017136 -0.21286644041538
vn -0.15465646982193 0.96476382017136 -0.21286644041538
vn -0.93516689538956 0 0.35420739650726
vn -0.93516689538956 0 0.35420742630959
vn -0.15465652942657 -0.96476382017136 -0.21286645531654
vn -0.15465652942657 -0.96476382017136 -0.2128664702177
vn 0.04788882657886 0 -0.99885267019272
vn 0.04788883030415 0 -0.99885267019272
vn -0.25023946166039 0.96476382017136 -0.08130773901939
vn -0.25023943185806 0.96476382017136 -0.08130774646997
vn -0.54836785793304 0 0.83623725175858
vn -0.54836785793304 0 0.83623719215393
vn -0.25023943185806 -0.964763879776 -0.08130770921707
vn -0.25023946166039 -0.96476382017136 -0.08130770921707
vn -0.5483677983284 0 -0.83623725175858
vn -0.54836785793304 0 -0.83623725175858
vn -0.25023949146271 0.96476382017136 0.08130773156881
vn -0.25023949146271 0.96476382017136 0.08130774646997
vn 0.04788882657886 0 0.99885267019272
vn 0.04788883030415 0 0.99885267019272
vn -0.25023946166039 -0.96476382017136 0.08130773901939
vn -0.25023946166039 -0.96476382017136 0.08130774646997
vn -0.93516689538956 0 -0.35420739650726
vn -0.93516689538956 0 -0.35420742630959
vn -0.15465654432774 0.96476382017136 0.2128664702177
vn -0.1546565592289 0.96476382017136 0.21286650002003
vn 0.62585365772247 0 0.77994048595428
vn -0.15465649962425 -0.96476382017136 0.21286644041538
vn -0.15465646982193 -0.96476382017136 0.21286644041538
vn -0.96476382017136 0 0.26311737298965
vn 0 0.96476382017136 0.26311740279198
vn 0.96476382017136 0 0.26311737298965
vn 0 -0.96476382017136 0.26311737298965
vn 0 -0.96476382017136 0.26311740279198
vn -0.62585365772247 0 0.77994048595428
vn 0.15465649962425 0.96476382017136 0.21286644041538
vn 0.15465646982193 0.96476382017136 0.21286644041538
vn 0.93516689538956 0 -0.35420739650726
vn 0.93516689538956 0 -0.35420742630959
vn 0.15465652942657 -0.96476382017136 0.21286645531654
vn 0.15465652942657 -0.96476382017136 0.2128664702177
vn -0.04788882657886 0 0.99885267019272
vn -0.04788883030415 0 0.99885267019272
vn 0.25023946166039 0.96476382017136 0.08130773901939
vn 0.25023943185806 0.96476382017136 0.08130774646997
vn 0.54836785793304 0 -0.83623725175858
vn 0.54836785793304 0 -0.83623719215393
vn 0.25023943185806 -0.964763879776 0.08130770921707
vn 0.25023946166039 -0.96476382017136 0.08130770921707
vn 0.58778518438339 0 -0.80901706218719
vn 0.5483677983284 0 0.83623725175858
vn 0.25023946166039 0.96476382017136 -0.08130772411823
vn 0.25023946166039 -0.96476382017136 -0.08130772411823
vn 0.93516689538956 0 0.35420736670494
vn 0.15465652942657 0.96476382017136 -0.21286644041538
vn 0.15465654432774 -0.96476382017136 -0.21286644041538
vn 0.96476382017136 0 -0.26311737298965
vn 0 0.96476382017136 -0.26311740279198
vn -0.96476382017136 0 -0.26311737298965
vn 0 -0.96476382017136 -0.26311737298965
vn -0.15465654432774 0.96476382017136 -0.2128664702177
vn -0.93516689538956 0 0.35420736670494
vn -0.15465652942657 -0.96476382017136 -0.21286642551422
vn -0.25023949146271 0.96476382017136 -0.08130773156881
vn -0.5483677983284 0 0.83623725175858
vn -0.25023943185806 -0.96476382017136 -0.08130771666765
vn -0.5483677983284 0 -0.83623725175858
vn -0.25023946166039 0.96476382017136 0.08130772411823
vn -0.25023946166039 -0.96476382017136 0.08130772411823
vn -0.93516689538956 0 -0.35420736670494
vn -0.15465652942657 0.96476382017136 0.21286644041538
vn -0.15465654432774 -0.96476382017136 0.21286644041538
vn -0.96476382017136 0 0.26311737298965
vn 0 0.96476382017136 0.26311740279198
vn 0.96476382017136 0 0.26311737298965
vn 0 -0.96476382017136 0.26311737298965
vn -0.62585365772247 0 0.77994048595428
vn 0.15465654432774 0.96476382017136 0.2128664702177
vn 0.93516689538956 0 -0.35420736670494
vn 0.15465652942657 -0.96476382017136 0.21286642551422
vn -0.04788882657886 0 0.99885267019272
vn 0.25023949146271 0.96476382017136 0.08130773156881
vn 0.5483677983284 0 -0.83623725175858
vn 0.25023943185806 -0.96476382017136 0.08130771666765
# 204 normals

o gear
usemtl default
f 6//1 2//1 1//1
f 83//3 82//4 81//3
f 8//5 4//5 3//5
f 5//8 1//7 4//6
f 10//1 6//1 5//1
f 87//9 86//10 85//9
f 12//5 8//5 7//5
f 9//12 5//8 8//11
f 14//1 10//1 9//1
f 91//13 90//14 89//13
f 16//5 12//5 11//5
f 13//16 9//12 12//15
f 18//1 14//1 13//1
f 95//17 94//18 93//17
f 20//5 16//5 15//5
f 17//20 13//16 16//19
f 22//1 18//1 17//1
f 99//21 98//21 97//21
f 24//5 20//5 19//5
f 21//23 17//20 20//22
f 26//1 22//1 21//1
f 103//24 102//24 101//24
f 28//5 24//5 23//5
f 25//26 21//23 24//25
f 30//1 26//1 25//1
f 107//27 106//28 105//27
f 32//5 28//5 27//5
f 29//30 25//26 28//29
f 34//1 30//1 29//1
f 111//31 110//31 109//31
f 36//5 32//5 31//5
f 33//33 29//30 32//32
f 38//1 34//1 33//1
f 115//34 114//35 113//34
f 40//5 36//5 35//5
f 37//37 33//33 36//36
f 2//1 38//1 37//1
f 119//38 118//38 117//38
f 4//5 40//5 39//5
f 1//7 37//37 40//39
f 44//42 41//41 2//40
f 41//41 42//44 3//43
f 42//44 43//46 7//45
f 43//46 44//42 6//47
f 48//49 45//48 6//47
f 45//48 46//50 7//45
f 46//50 47//52 11//51
f 47//52 48//49 10//53
f 52//55 49//54 10//53
f 49//54 50//56 11//51
f 50//56 51//58 15//57
f 51//58 52//55 14//59
f 56//61 53//60 14//59
f 53//60 54//62 15//57
f 54//62 55//64 19//63
f 55//64 56//61 18//65
f 60//67 57//66 18//65
f 57//66 58//68 19//63
f 58//68 59//70 23//69
f 59//70 60//67 22//71
f 64//73 61//72 22//71
f 61//72 62//74 23//69
f 62//74 63//76 27//75
f 63//76 64//73 26//77
f 68//79 65//78 26//77
f 65//78 66//80 27//75
f 66//80 67//82 31//81
f 67//82 68//79 30//83
f 72//85 69//84 30//83
f 69//84 70//86 31//81
f 70//86 71//88 35//87
f 71//88 72//85 34//89
f 76//91 73//90 34//89
f 73//90 74//92 35//87
f 74//92 75//94 39//93
f 75//94 76//91 38//95
f 80//97 77//96 38//95
f 77//96 78//98 39//93
f 78//98 79//99 3//43
f 79//99 80//97 2//40
f 81//100 82//101 42//100
f 82//102 83//103 43//102
f 83//104 84//105 44//104
f 84//106 81//107 41//106
f 85//108 86//109 46//108
f 86//110 87//111 47//110
f 87//112 88//112 48//112
f 88//113 85//114 45//113
f 89//115 90//115 50//115
f 90//116 91//116 51//116
f 91//117 92//117 52//117
f 92//118 89//119 49//118
f 93//120 94//120 54//120
f 94//121 95//122 55//121
f 95//123 96//124 56//123
f 96//125 93//126 53//125
f 97//127 98//128 58//127
f 98//129 99//130 59//129
f 99//131 100//132 60//131
f 100//133 97//134 57//133
f 101//135 102//136 62//135
f 102//137 103//138 63//137
f 103//139 104//140 64//139
f 104//141 101//142 61//141
f 105//143 106//144 66//143
f 106//145 107//146 67//145
f 107//147 108//147 68//147
f 108//148 105//149 65//148
f 109//150 110//150 70//150
f 110//151 111//151 71//151
f 111//152 112//152 72//152
f 112//153 109//154 69//153
f 113//155 114//155 74//155
f 114//156 115//157 75//156
f 115//158 116//159 76//158
f 116//160 113//161 73//160
f 117//162 118//163 78//162
f 118//164 119//165 79//164
f 119//166 120//167 80//166
f 120//168 117//169 77//168
f 5//1 6//1 1//1
f 84//3 83//3 81//3
f 7//5 8//5 3//5
f 8//11 5//8 4//6
f 9//1 10//1 5//1
f 88//170 87//9 85//9
f 11//5 12//5 7//5
f 12//15 9//12 8//11
f 13//1 14//1 9//1
f 92//13 91//13 89//13
f 15//5 16//5 11//5
f 16//19 13//16 12//15
f 17//1 18//1 13//1
f 96//18 95//17 93//17
f 19//5 20//5 15//5
f 20//22 17//20 16//19
f 21//1 22//1 17//1
f 100//21 99//21 97//21
f 23//5 24//5 19//5
f 24//25 21//23 20//22
f 25//1 26//1 21//1
f 104//24 103//24 101//24
f 27//5 28//5 23//5
f 28//29 25//26 24//25
f 29//1 30//1 25//1
f 108//28 107//27 105//27
f 31//5 32//5 27//5
f 32//32 29//30 28//29
f 33//1 34//1 29//1
f 112//31 111//31 109//31
f 35//5 36//5 31//5
f 36//36 33//33 32//32
f 37//1 38//1 33//1
f 116//35 115//34 113//34
f 39//5 40//5 35//5
f 40//39 37//37 36//36
f 1//1 2//1 37//1
f 120//38 119//38 117//38
f 3//5 4//5 39//5
f 4//6 1//7 40//39
f 6//47 44//42 2//40
f 2//40 41//41 3//43
f 3//43 42//44 7//45
f 7//45 43//46 6//47
f 10//53 48//49 6//47
f 6//47 45//48 7//45
f 7//45 46//50 11//51
f 11//51 47//52 10//53
f 14//59 52//55 10//53
f 10//53 49//54 11//51
f 11//51 50//56 15//57
f 15//57 51//58 14//59
f 18//65 56//61 14//59
f 14//59 53//60 15//57
f 15//57 54//62 19//63
f 19//63 55//64 18//65
f 22//71 60//67 18//65
f 18//65 57//66 19//63
f 19//63 58//68 23//69
f 23//69 59//70 22//71
f 26//77 64//73 22//71
f 22//71 61//72 23//69
f 23//69 62//74 27//75
f 27//75 63//76 26//77
f 30//83 68//79 26//77
f 26//77 65//78 27//75
f 27//75 66//80 31//81
f 31//81 67//82 30//83
f 34//89 72//85 30//83
f 30//83 69//84 31//81
f 31//81 70//86 35//87
f 35//87 71//88 34//89
f 38//95 76//91 34//89
f 34//89 73//90 35//87
f 35//87 74//92 39//93
f 39//93 75//94 38//95
f 2//40 80//97 38//95
f 38//95 77//96 39//93
f 39//93 78//98 3//43
f 3//43 79//99 2//40
f 41//171 81//100 42//100
f 42//172 82//102 43//102
f 43//104 83//104 44//104
f 44//173 84//106 41//106
f 45//174 85//108 46//108
f 46//175 86//110 47//110
f 47//112 87//112 48//112
f 48//176 88//113 45//113
f 49//177 89//115 50//115
f 50//178 90//116 51//116
f 51//179 91//117 52//117
f 52//180 92//118 49//118
f 53//120 93//120 54//120
f 54//181 94//121 55//121
f 55//182 95//123 56//123
f 56//183 96//125 53//125
f 57//127 97//127 58//127
f 58//184 98//129 59//129
f 59//185 99//131 60//131
f 60//186 100//133 57//133
f 61//187 101//135 62//135
f 62//188 102//137 63//137
f 63//139 103//139 64//139
f 64//189 104//141 61//141
f 65//190 105//143 66//143
f 66//191 106//145 67//145
f 67//147 107//147 68//147
f 68//192 108//148 65//148
f 69//193 109//150 70//150
f 70//194 110//151 71//151
f 71//195 111//152 72//152
f 72//196 112//153 69//153
f 73//197 113//155 74//155
f 74//198 114//156 75//156
f 75//199 115//158 76//158
f 76//200 116//160 73//160
f 77//201 117//162 78//162
f 78//202 118//164 79//164
f 79//203 119//166 80//166
f 80//204 120//168 77//168

