# WaveFront *.obj file (generated by CINEMA 4D)

v 0.10412331670523 0.00999999977648 -0.05497514083982
v -0.08737015724182 0 -0.04756724834442
v -0.09683435410261 0 -0.06210812181234
v -0.1131092607975 0 -0.07320935279131
v -0.13505943119526 0 -0.0800507068634
v -0.1611655652523 0 -0.08211545646191
v -0.18960221111774 0 -0.07915391772985
v -0.21838103234768 0 -0.07124206423759
v -0.24551565945148 0 -0.05885043740273
v -0.2691735625267 0 -0.04285736754537
v -0.28779429197311 0 -0.02447608299553
v -0.30016419291496 0 -0.00509585579857
v -0.30546605587006 0 0.01389595866203
v -0.30340239405632 0 0.03106847591698
v -0.29412448406219 0 0.0451074205339
v -0.27845677733421 0 0.05465156212449
v -0.25790771842003 0 0.05660830810666
v -0.23456427454948 0 0.04835622012615
v -0.21090778708458 0 0.02824488468468
v -0.18470488488674 0 0.01109770778567
v -0.15430592000484 0 0.00997529737651
v -0.1264665722847 0 0.00932224933058
v -0.10525803267956 0 0.00076642388012
v -0.09140805155039 0 -0.0134772202
v -0.08533927053213 0 -0.03053016774356
v -0.09702374786139 0.00999999977648 -0.04406730085611
v -0.09554646164179 0.00999999977648 -0.03167434409261
v -0.10009797662497 0.00999999977648 -0.01888482645154
v -0.11095630377531 0.00999999977648 -0.00771786971018
v -0.12852025032043 0.00999999977648 -0.00063232704997
v -0.16564735770226 0.00999999977648 0.00031234850758
v -0.18883210420609 0.00999999977648 0.00151051033754
v -0.21690765023232 0.00999999977648 0.02022030204535
v -0.23963616788387 0.00999999977648 0.03954272344708
v -0.25073292851448 0.00999999977648 0.04506915435195
v -0.27106377482414 0.00999999977648 0.04619465768337
v -0.28701376914978 0.00999999977648 0.03772969916463
v -0.29375594854355 0.00999999977648 0.0275276824832
v -0.29530069231987 0.00999999977648 0.01467327121645
v -0.29093313217163 0.00999999977648 -0.00097173248651
v -0.27996948361397 0.00999999977648 -0.01814875565469
v -0.2559771835804 0.00999999977648 -0.04060523957014
v -0.23593866825104 0.00999999977648 -0.05269587412477
v -0.21495668590069 0.00999999977648 -0.06181246042252
v -0.1877463310957 0.00999999977648 -0.06929311901331
v -0.16963179409504 0.00999999977648 -0.07190631330013
v -0.1465068757534 0.00999999977648 -0.07189239561558
v -0.11751057207584 0.00999999977648 -0.06410668045282
v -0.10412331670523 0.00999999977648 -0.05497514083982
v 0.11751057207584 0.00999999977648 -0.06410668045282
v 0.08737015724182 0 -0.04756724834442
v 0.09683435410261 0 -0.06210812181234
v 0.1131092607975 0 -0.07320935279131
v 0.13505943119526 0 -0.0800507068634
v 0.1611655652523 0 -0.08211545646191
v 0.18960221111774 0 -0.07915391772985
v 0.21838103234768 0 -0.07124206423759
v 0.24551565945148 0 -0.05885043740273
v 0.2691735625267 0 -0.04285736754537
v 0.28779429197311 0 -0.02447608299553
v 0.30016419291496 0 -0.00509585579857
v 0.30546605587006 0 0.01389595866203
v 0.30340239405632 0 0.03106847591698
v 0.29412448406219 0 0.0451074205339
v 0.27845677733421 0 0.05465156212449
v 0.25790771842003 0 0.05660830810666
v 0.23456427454948 0 0.04835622012615
v 0.21090778708458 0 0.02824488468468
v 0.18470488488674 0 0.01109770778567
v 0.15430592000484 0 0.00997529737651
v 0.1264665722847 0 0.00932224933058
v 0.10525803267956 0 0.00076642388012
v 0.09140805155039 0 -0.0134772202
v 0.08533927053213 0 -0.03053016774356
v 0.09702374786139 0.00999999977648 -0.04406730085611
v 0.09554646164179 0.00999999977648 -0.03167434409261
v 0.10009797662497 0.00999999977648 -0.01888482645154
v 0.11095630377531 0.00999999977648 -0.00771786971018
v 0.12852025032043 0.00999999977648 -0.00063232704997
v 0.16564735770226 0.00999999977648 0.00031234850758
v 0.18883210420609 0.00999999977648 0.00151051033754
v 0.21690765023232 0.00999999977648 0.02022030204535
v 0.23963616788387 0.00999999977648 0.03954272344708
v 0.25073292851448 0.00999999977648 0.04506915435195
v 0.27106377482414 0.00999999977648 0.04619465768337
v 0.28701376914978 0.00999999977648 0.03772969916463
v 0.29375594854355 0.00999999977648 0.0275276824832
v 0.29530069231987 0.00999999977648 0.01467327121645
v 0.29093313217163 0.00999999977648 -0.00097173248651
v 0.27996948361397 0.00999999977648 -0.01814875565469
v 0.2559771835804 0.00999999977648 -0.04060523957014
v 0.23593866825104 0.00999999977648 -0.05269587412477
v 0.21495668590069 0.00999999977648 -0.06181246042252
v 0.1877463310957 0.00999999977648 -0.06929311901331
v 0.16963179409504 0.00999999977648 -0.07190631330013
v 0.1465068757534 0.00999999977648 -0.07189239561558
# 96 vertices

vn 0 1 0
vn 0 0 0
vn 0.70098698139191 0.71313780546188 -0.00719244685024
vn 0.67263966798782 0.71557700634003 0.18842896819115
vn 0.69393050670624 0.71313798427582 -0.09947223961353
vn 0.63481432199478 0.71557676792145 0.29148015379906
vn 0.51163971424103 0.71515226364136 0.47621640563011
vn 0.4295169711113 0.72591197490692 0.53718429803848
vn 0.21791984140873 0.70527255535126 0.67461210489273
vn 0.12439914792776 0.72796195745468 0.67423748970032
vn -0.11784148216248 0.67444109916687 0.72886395454407
vn -0.18312679231167 0.70068007707596 0.68957382440567
vn -0.35544955730438 0.67103636264801 0.65066564083099
vn -0.38672977685928 0.71233373880386 0.58567970991135
vn -0.43634089827538 0.70769971609116 0.55566877126694
vn -0.41094183921814 0.71100956201553 0.5706068277359
vn -0.27450734376907 0.71908247470856 0.63840907812119
vn -0.15055693686008 0.71988791227341 0.67756474018097
vn -0.02697103843093 0.70485955476761 0.70883399248123
vn -0.02020298317075 0.70738089084625 0.70654380321503
vn -0.1004339158535 0.71156072616577 0.69540947675705
vn -0.1831981241703 0.71219748258591 0.67765271663666
vn -0.34866592288017 0.71390324831009 0.60726779699326
vn -0.43024751543999 0.71390324831009 0.55247557163239
vn -0.56576871871948 0.71435213088989 0.41183346509933
vn -0.6193864941597 0.71435213088989 0.32567065954208
vn -0.68615406751633 0.71543776988983 0.13168679177761
vn -0.69828104972839 0.71543776988983 0.02350171841681
vn -0.6734025478363 0.71535819768906 -0.18652521073818
vn 0.63647598028183 0.71535813808441 -0.28837651014328
vn 0.67340260744095 0.71535819768906 -0.18652521073818
vn 0.53248745203018 0.71324157714844 -0.45578894019127
vn 0.46719941496849 0.71324157714844 -0.52250468730927
vn 0.32902690768242 0.71076250076294 -0.62173783779144
vn 0.26175144314766 0.72342830896378 -0.63885653018951
vn 0.12843622267246 0.69909197092056 -0.70340210199356
vn 0.08459853380919 0.70909523963928 -0.70001935958862
vn -0.01765899546444 0.6801346540451 -0.73287445306778
vn -0.04229222983122 0.70452117919922 -0.70842164754868
vn -0.12265661358833 0.69408816099167 -0.70936381816864
vn -0.14960172772408 0.70816999673843 -0.69001054763794
vn -0.21907235682011 0.70804870128632 -0.67132288217545
vn -0.25669866800308 0.70305758714676 -0.66318607330322
vn -0.31462451815605 0.70530390739441 -0.63526201248169
vn -0.35798168182373 0.69622522592545 -0.62218928337097
vn -0.41426181793213 0.70946598052979 -0.57012736797333
vn -0.45938125252724 0.70675551891327 -0.53801995515823
vn -0.52176147699356 0.71682769060135 -0.46251812577248
vn -0.56451207399368 0.7090744972229 -0.42253938317299
vn -0.6274191737175 0.71054565906525 -0.31854376196861
vn -0.65589809417725 0.71054553985596 -0.25479927659035
vn -0.69393050670624 0.71313798427582 -0.09947223961353
vn -0.70098698139191 0.71313780546188 -0.00719244685024
vn -0.67263960838318 0.71557700634003 0.18842896819115
vn -0.63481432199478 0.71557676792145 0.29148015379906
vn -0.51163971424103 0.71515226364136 0.47621643543243
vn -0.4295169711113 0.72591197490692 0.53718429803848
vn -0.21791984140873 0.70527255535126 0.67461210489273
vn -0.12439914792776 0.72796195745468 0.67423748970032
vn 0.11784146726131 0.67444109916687 0.72886395454407
vn 0.18312679231167 0.70068007707596 0.68957382440567
vn 0.3554495871067 0.67103636264801 0.65066564083099
vn 0.38672977685928 0.71233373880386 0.58567970991135
vn 0.43634086847305 0.70769971609116 0.55566871166229
vn 0.41094183921814 0.71100956201553 0.5706068277359
vn 0.27450734376907 0.71908247470856 0.63840907812119
vn 0.15055693686008 0.71988791227341 0.67756474018097
vn 0.02697103470564 0.70485955476761 0.70883399248123
vn 0.02020298317075 0.70738089084625 0.70654380321503
vn 0.10043392330408 0.71156072616577 0.69540947675705
vn 0.1831981241703 0.71219748258591 0.67765271663666
vn 0.34866592288017 0.71390324831009 0.6072678565979
vn 0.43024751543999 0.71390324831009 0.55247557163239
vn 0.56576877832413 0.71435213088989 0.41183343529701
vn 0.6193864941597 0.71435213088989 0.32567065954208
vn 0.68615406751633 0.71543776988983 0.13168679177761
vn 0.69828104972839 0.71543776988983 0.02350171841681
vn 0.56451207399368 0.7090744972229 -0.42253938317299
vn 0.62741911411285 0.71054565906525 -0.31854376196861
vn 0.52176147699356 0.71682769060135 -0.46251812577248
vn 0.65589809417725 0.71054553985596 -0.25479927659035
vn -0.63647598028183 0.71535813808441 -0.28837651014328
vn -0.46719941496849 0.71324157714844 -0.52250468730927
vn -0.53248745203018 0.71324157714844 -0.45578894019127
vn -0.26175147294998 0.72342830896378 -0.63885647058487
vn -0.32902690768242 0.71076250076294 -0.62173783779144
vn -0.08459853380919 0.70909518003464 -0.70001935958862
vn -0.1284362077713 0.69909203052521 -0.70340204238892
vn 0.04229222983122 0.70452117919922 -0.70842164754868
vn 0.01765899546444 0.6801346540451 -0.73287451267242
vn 0.14960174262524 0.70816999673843 -0.69001054763794
vn 0.12265662103891 0.69408816099167 -0.709363758564
vn 0.25669866800308 0.70305758714676 -0.66318613290787
vn 0.21907238662243 0.70804870128632 -0.6713228225708
vn 0.35798168182373 0.69622522592545 -0.62218928337097
vn 0.31462451815605 0.70530384778976 -0.63526201248169
vn 0.45938125252724 0.70675551891327 -0.53801995515823
vn 0.41426175832748 0.70946598052979 -0.57012736797333
# 98 normals

o happy
usemtl default
f 27//1 26//1 49//1
f 29//1 28//1 49//1
f 30//1 29//1 48//1
f 31//1 30//1 47//1
f 31//1 46//1 45//1
f 44//1 43//1 32//1
f 33//1 32//1 43//1
f 33//1 42//1 41//1
f 34//1 41//1 40//1
f 36//1 35//1 40//1
f 37//1 36//1 39//1
f 88//5 87//4 62//3
f 87//4 86//7 63//6
f 86//7 85//9 64//8
f 85//9 84//11 65//10
f 84//11 83//13 66//12
f 83//13 82//15 67//14
f 82//15 81//17 68//16
f 81//17 80//19 69//18
f 80//19 79//21 70//20
f 79//21 78//23 71//22
f 78//23 77//25 72//24
f 77//25 76//27 73//26
f 76//27 75//29 74//28
f 49//32 26//31 2//30
f 48//34 49//32 3//33
f 47//36 48//34 4//35
f 46//38 47//36 5//37
f 45//40 46//38 6//39
f 44//42 45//40 7//41
f 43//44 44//42 8//43
f 42//46 43//44 9//45
f 41//48 42//46 10//47
f 40//50 41//48 11//49
f 39//52 40//50 12//51
f 38//54 39//52 13//53
f 37//56 38//54 14//55
f 36//58 37//56 15//57
f 35//60 36//58 16//59
f 34//62 35//60 17//61
f 33//64 34//62 18//63
f 32//66 33//64 19//65
f 31//68 32//66 20//67
f 30//70 31//68 21//69
f 29//72 30//70 22//71
f 28//74 29//72 23//73
f 27//76 28//74 24//75
f 26//31 27//76 25//77
f 1//1 75//1 76//1
f 78//1 50//1 1//1
f 79//1 96//1 50//1
f 80//1 95//1 96//1
f 94//1 95//1 80//1
f 93//1 94//1 81//1
f 82//1 91//1 92//1
f 90//1 91//1 82//1
f 89//1 90//1 83//1
f 85//1 88//1 89//1
f 86//1 87//1 88//1
f 90//80 89//79 60//78
f 89//79 88//5 61//81
f 28//1 27//1 49//1
f 48//1 29//1 49//1
f 47//1 30//1 48//1
f 46//1 31//1 47//1
f 32//1 31//1 45//1
f 45//1 44//1 32//1
f 42//1 33//1 43//1
f 34//1 33//1 41//1
f 35//1 34//1 40//1
f 39//1 36//1 40//1
f 38//1 37//1 39//1
f 1//84 52//83 51//82
f 50//86 53//85 52//83
f 96//88 54//87 53//85
f 95//90 55//89 54//87
f 94//92 56//91 55//89
f 93//94 57//93 56//91
f 92//96 58//95 57//93
f 91//98 59//97 58//95
f 90//80 60//78 59//97
f 89//79 61//81 60//78
f 88//5 62//3 61//81
f 87//4 63//6 62//3
f 86//7 64//8 63//6
f 85//9 65//10 64//8
f 84//11 66//12 65//10
f 83//13 67//14 66//12
f 82//15 68//16 67//14
f 81//17 69//18 68//16
f 80//19 70//20 69//18
f 79//21 71//22 70//20
f 78//23 72//24 71//22
f 77//25 73//26 72//24
f 76//27 74//28 73//26
f 75//29 51//82 74//28
f 3//33 49//32 2//30
f 4//35 48//34 3//33
f 5//37 47//36 4//35
f 6//39 46//38 5//37
f 7//41 45//40 6//39
f 8//43 44//42 7//41
f 9//45 43//44 8//43
f 10//47 42//46 9//45
f 11//49 41//48 10//47
f 12//51 40//50 11//49
f 13//53 39//52 12//51
f 14//55 38//54 13//53
f 15//57 37//56 14//55
f 16//59 36//58 15//57
f 17//61 35//60 16//59
f 18//63 34//62 17//61
f 19//65 33//64 18//63
f 20//67 32//66 19//65
f 21//69 31//68 20//67
f 22//71 30//70 21//69
f 23//73 29//72 22//71
f 24//75 28//74 23//73
f 25//77 27//76 24//75
f 2//30 26//31 25//77
f 75//29 1//84 51//82
f 1//84 50//86 52//83
f 50//86 96//88 53//85
f 96//88 95//90 54//87
f 95//90 94//92 55//89
f 94//92 93//94 56//91
f 93//94 92//96 57//93
f 92//96 91//98 58//95
f 91//98 90//80 59//97
f 77//1 1//1 76//1
f 77//1 78//1 1//1
f 78//1 79//1 50//1
f 79//1 80//1 96//1
f 81//1 94//1 80//1
f 92//1 93//1 81//1
f 81//1 82//1 92//1
f 83//1 90//1 82//1
f 84//1 89//1 83//1
f 84//1 85//1 89//1
f 85//1 86//1 88//1

