# WaveFront *.obj file (generated by CINEMA 4D)

v 0 0.25 0
v 0.23776413500309 0.07725425064564 0
v 0.22612711787224 0.07725425064564 -0.0734731554985
v 0.19235521554947 0.07725425064564 -0.13975425064564
v 0.13975425064564 0.07725425064564 -0.19235521554947
v 0.0734731554985 0.07725425064564 -0.22612711787224
v 0 0.07725425064564 -0.23776413500309
v -0.0734731554985 0.07725425064564 -0.22612711787224
v -0.13975425064564 0.07725425064564 -0.19235521554947
v -0.19235521554947 0.07725425064564 -0.13975425064564
v -0.22612711787224 0.07725425064564 -0.0734731554985
v -0.23776413500309 0.07725425064564 -0
v -0.22612711787224 0.07725425064564 0.0734731554985
v -0.19235521554947 0.07725425064564 0.13975425064564
v -0.13975425064564 0.07725425064564 0.19235521554947
v -0.0734731554985 0.07725425064564 0.22612711787224
v -0 0.07725425064564 0.23776413500309
v 0.0734731554985 0.07725425064564 0.22612711787224
v 0.13975425064564 0.07725425064564 0.19235521554947
v 0.19235521554947 0.07725425064564 0.13975425064564
v 0.22612711787224 0.07725425064564 0.0734731554985
v 0.20225425064564 0.14694631099701 0
v 0.19235521554947 0.14694631099701 -0.0625
v 0.16362711787224 0.14694631099701 -0.11888206750154
v 0.11888206750154 0.14694631099701 -0.16362711787224
v 0.0625 0.14694631099701 -0.19235521554947
v 0 0.14694631099701 -0.20225425064564
v -0.0625 0.14694631099701 -0.19235521554947
v -0.11888206750154 0.14694631099701 -0.16362711787224
v -0.16362711787224 0.14694631099701 -0.11888206750154
v -0.19235521554947 0.14694631099701 -0.0625
v -0.20225425064564 0.14694631099701 -0
v -0.19235521554947 0.14694631099701 0.0625
v -0.16362711787224 0.14694631099701 0.11888206750154
v -0.11888206750154 0.14694631099701 0.16362711787224
v -0.0625 0.14694631099701 0.19235521554947
v -0 0.14694631099701 0.20225425064564
v 0.0625 0.14694631099701 0.19235521554947
v 0.11888206750154 0.14694631099701 0.16362711787224
v 0.16362711787224 0.14694631099701 0.11888206750154
v 0.19235521554947 0.14694631099701 0.0625
v 0.14694631099701 0.20225425064564 0
v 0.13975425064564 0.20225425064564 -0.04540890827775
v 0.11888206750154 0.20225425064564 -0.08637287467718
v 0.08637287467718 0.20225425064564 -0.11888206750154
v 0.04540890827775 0.20225425064564 -0.13975425064564
v 0 0.20225425064564 -0.14694631099701
v -0.04540890827775 0.20225425064564 -0.13975425064564
v -0.08637287467718 0.20225425064564 -0.11888206750154
v -0.11888206750154 0.20225425064564 -0.08637287467718
v -0.13975425064564 0.20225425064564 -0.04540890827775
v -0.14694631099701 0.20225425064564 -0
v -0.13975425064564 0.20225425064564 0.04540890827775
v -0.11888206750154 0.20225425064564 0.08637287467718
v -0.08637287467718 0.20225425064564 0.11888206750154
v -0.04540890827775 0.20225425064564 0.13975425064564
v -0 0.20225425064564 0.14694631099701
v 0.04540890827775 0.20225425064564 0.13975425064564
v 0.08637287467718 0.20225425064564 0.11888206750154
v 0.11888206750154 0.20225425064564 0.08637287467718
v 0.13975425064564 0.20225425064564 0.04540890827775
v 0.07725425064564 0.23776413500309 0
v 0.0734731554985 0.23776413500309 -0.02387287653983
v 0.0625 0.23776413500309 -0.04540890827775
v 0.04540890827775 0.23776413500309 -0.0625
v 0.02387287653983 0.23776413500309 -0.0734731554985
v 0 0.23776413500309 -0.07725425064564
v -0.02387287653983 0.23776413500309 -0.0734731554985
v -0.04540890827775 0.23776413500309 -0.0625
v -0.0625 0.23776413500309 -0.04540890827775
v -0.0734731554985 0.23776413500309 -0.02387287653983
v -0.07725425064564 0.23776413500309 -0
v -0.0734731554985 0.23776413500309 0.02387287653983
v -0.0625 0.23776413500309 0.04540890827775
v -0.04540890827775 0.23776413500309 0.0625
v -0.02387287653983 0.23776413500309 0.0734731554985
v -0 0.23776413500309 0.07725425064564
v 0.02387287653983 0.23776413500309 0.0734731554985
v 0.04540890827775 0.23776413500309 0.0625
v 0.0625 0.23776413500309 0.04540890827775
v 0.0734731554985 0.23776413500309 0.02387287653983
v 0.2398753464222 -0 -0
v 0.22813501954079 -0 -0.07412555813789
v 0.19406323134899 -0 -0.14099518954754
v 0.14099518954754 -0 -0.19406323134899
v 0.07412555813789 -0 -0.22813501954079
v 0 -0 -0.2398753464222
v -0.07412555813789 -0 -0.22813501954079
v -0.14099518954754 -0 -0.19406323134899
v -0.19406323134899 -0 -0.14099518954754
v -0.22813501954079 -0 -0.07412555813789
v -0.2398753464222 -0 -0
v -0.22813501954079 -0 0.07412555813789
v -0.19406323134899 -0 0.14099518954754
v -0.14099518954754 -0 0.19406323134899
v -0.07412555813789 -0 0.22813501954079
v -0 -0 0.2398753464222
v 0.07412555813789 -0 0.22813501954079
v 0.14099518954754 -0 0.19406323134899
v 0.19406323134899 -0 0.14099518954754
v 0.22813501954079 -0 0.07412555813789
v 0.23627589643002 0.00987984240055 0.07677069306374
v 0.24843518435955 0.00987984240055 0
v 0.23627589643002 0.00987984240055 -0.07677069306374
v 0.20098829269409 0.00987984240055 -0.14602653682232
v 0.14602653682232 0.00987984240055 -0.20098829269409
v 0.07677069306374 0.00987984240055 -0.23627589643002
v 0 0.00987984240055 -0.24843518435955
v -0.07677069306374 0.00987984240055 -0.23627589643002
v -0.14602653682232 0.00987984240055 -0.20098829269409
v -0.20098829269409 0.00987984240055 -0.14602653682232
v -0.23627589643002 0.00987984240055 -0.07677069306374
v -0.24843518435955 0.00987984240055 -0
v -0.23627589643002 0.00987984240055 0.07677069306374
v -0.20098829269409 0.00987984240055 0.14602653682232
v -0.14602653682232 0.00987984240055 0.20098829269409
v -0.07677069306374 0.00987984240055 0.23627589643002
v -0 0.00987984240055 0.24843518435955
v 0.07677069306374 0.00987984240055 0.23627589643002
v 0.14602653682232 0.00987984240055 0.20098829269409
v 0.20098829269409 0.00987984240055 0.14602653682232
# 121 vertices

vn 0.98634827136993 0.15622213482857 -0.05207412689924
vn 0.95099896192551 0.30918380618095 0.00252798967995
vn 0.90523493289948 0.30918383598328 -0.29147061705589
vn 0 0 0
vn 0.92198121547699 0.1562222391367 -0.35432371497154
vn 0.77086025476456 0.30918392539024 -0.55693787336349
vn 0.7673642039299 0.15622226893902 -0.62188971042633
vn 0.56102830171585 0.30918389558792 -0.76788836717606
vn 0.53763210773468 0.15622225403786 -0.82858091592789
vn 0.2962791621685 0.30918389558792 -0.90367251634598
vn 0.25527301430702 0.15622216463089 -0.95416474342346
vn 0.00252798944712 0.30918383598328 -0.95099896192551
vn -0.05207412689924 0.15622211992741 -0.98634827136993
vn -0.29147061705589 0.30918383598328 -0.90523493289948
vn -0.35432371497154 0.1562222391367 -0.92198121547699
vn -0.55693787336349 0.30918392539024 -0.77086025476456
vn -0.62188971042633 0.15622226893902 -0.7673642039299
vn -0.76788836717606 0.30918389558792 -0.56102830171585
vn -0.82858091592789 0.15622225403786 -0.53763210773468
vn -0.90367251634598 0.30918389558792 -0.29627913236618
vn -0.95416474342346 0.15622216463089 -0.25527301430702
vn -0.95099896192551 0.30918383598328 -0.00252798944712
vn -0.98634827136993 0.15622211992741 0.05207412689924
vn -0.90523493289948 0.30918383598328 0.29147061705589
vn -0.92198121547699 0.1562222391367 0.35432371497154
vn -0.77086025476456 0.30918392539024 0.55693787336349
vn -0.7673642039299 0.15622226893902 0.62188971042633
vn -0.56102830171585 0.30918389558792 0.76788836717606
vn -0.53763210773468 0.15622225403786 0.82858091592789
vn -0.2962791621685 0.30918389558792 0.90367251634598
vn -0.25527301430702 0.15622216463089 0.95416474342346
vn -0.00252798944712 0.30918383598328 0.95099896192551
vn 0.05207412689924 0.15622211992741 0.98634827136993
vn 0.29147061705589 0.30918383598328 0.90523493289948
vn 0.35432371497154 0.1562222391367 0.92198121547699
vn 0.55693787336349 0.30918392539024 0.77086025476456
vn 0.62188971042633 0.15622226893902 0.7673642039299
vn 0.76788836717606 0.30918389558792 0.56102830171585
vn 0.82858091592789 0.15622225403786 0.53763210773468
vn 0.90367251634598 0.30918389558792 0.29627913236618
vn 0.95416474342346 0.15622216463089 0.25527301430702
vn 0.80883860588074 0.58801078796387 0.00483749527484
vn 0.77074611186981 0.58801072835922 -0.24534428119659
vn 0.65720760822296 0.58801078796387 -0.47150981426239
vn 0.47933694720268 0.58801072835922 -0.65152084827423
vn 0.25454562902451 0.58801078796387 -0.76775640249252
vn 0.00483749154955 0.58801078796387 -0.80883860588074
vn -0.24534428119659 0.58801072835922 -0.77074611186981
vn -0.47150981426239 0.58801078796387 -0.65720760822296
vn -0.65152084827423 0.58801072835922 -0.47933694720268
vn -0.76775646209717 0.58801066875458 -0.25454559922218
vn -0.80883866548538 0.58801072835922 -0.00483749154955
vn -0.77074611186981 0.58801072835922 0.24534428119659
vn -0.65720760822296 0.58801078796387 0.47150981426239
vn -0.47933694720268 0.58801072835922 0.65152084827423
vn -0.25454562902451 0.58801078796387 0.76775640249252
vn -0.00483749154955 0.58801078796387 0.80883860588074
vn 0.24534428119659 0.58801072835922 0.77074611186981
vn 0.47150981426239 0.58801078796387 0.65720760822296
vn 0.65152084827423 0.58801072835922 0.47933694720268
vn 0.76775646209717 0.58801066875458 0.25454559922218
vn 0.58753794431686 0.80916881561279 0.00670804223046
vn 0.56085473299026 0.80916875600815 -0.17517949640751
vn 0.47927111387253 0.80916881561279 -0.33991923928261
vn 0.35077309608459 0.80916881561279 -0.47138530015945
vn 0.18793895840645 0.80916881561279 -0.55670893192291
vn 0.0067080417648 0.80916875600815 -0.58753800392151
vn -0.17517949640751 0.80916881561279 -0.56085473299026
vn -0.33991923928261 0.80916875600815 -0.47927111387253
vn -0.47138530015945 0.80916881561279 -0.35077309608459
vn -0.55670893192291 0.80916875600815 -0.18793894350529
vn -0.58753800392151 0.80916875600815 -0.00670804223046
vn -0.56085473299026 0.80916875600815 0.17517949640751
vn -0.47927111387253 0.80916881561279 0.33991923928261
vn -0.35077309608459 0.80916881561279 0.47138530015945
vn -0.18793895840645 0.80916881561279 0.55670893192291
vn -0.0067080417648 0.80916875600815 0.58753800392151
vn 0.17517949640751 0.80916881561279 0.56085473299026
vn 0.33991923928261 0.80916875600815 0.47927111387253
vn 0.47138530015945 0.80916881561279 0.35077309608459
vn 0.55670893192291 0.80916875600815 0.18793894350529
vn 0.33877530694008 0.94075495004654 0.01453824993223
vn 0.32668703794479 0.94075495004654 -0.09086063504219
vn 0.28262037038803 0.94075500965118 -0.1873654127121
vn 0.21088887751102 0.94075495004654 -0.26552963256836
vn 0.11851405352354 0.94075495004654 -0.31770190596581
vn 0.01453824993223 0.94075495004654 -0.33877530694008
vn -0.09086063504219 0.94075495004654 -0.32668703794479
vn -0.1873654127121 0.94075500965118 -0.28262037038803
vn -0.26552963256836 0.94075495004654 -0.21088887751102
vn -0.31770190596581 0.94075495004654 -0.11851405352354
vn -0.33877530694008 0.94075495004654 -0.01453824993223
vn -0.32668703794479 0.94075495004654 0.09086063504219
vn -0.28262037038803 0.94075500965118 0.1873654127121
vn -0.21088887751102 0.94075495004654 0.26552963256836
vn -0.11851405352354 0.94075495004654 0.31770190596581
vn -0.01453824993223 0.94075495004654 0.33877530694008
vn 0.09086063504219 0.94075495004654 0.32668703794479
vn 0.1873654127121 0.94075500965118 0.28262037038803
vn 0.26552963256836 0.94075495004654 0.21088887751102
vn 0.31770190596581 0.94075495004654 0.11851405352354
vn 0.00000000075458 1 -0.00000000386721
vn 0 -1 0
vn 0.75519019365311 -0.65429210662842 -0.03987013176084
vn 0.75519019365311 -0.65429204702377 0.03987013921142
vn 0.73054921627045 -0.65429192781448 -0.19544787704945
vn 0.70590806007385 -0.65429204702377 -0.27128529548645
vn 0.6343966126442 -0.65429228544235 -0.41163393855095
vn 0.58752632141113 -0.65429252386093 -0.47614508867264
vn 0.47614499926567 -0.65429246425629 -0.58752638101578
vn 0.41163393855095 -0.65429222583771 -0.63439667224884
vn 0.27128535509109 -0.65429198741913 -0.70590806007385
vn 0.19544792175293 -0.65429192781448 -0.73054921627045
vn 0.03987012058496 -0.65429210662842 -0.75519019365311
vn -0.03987016156316 -0.65429210662842 -0.75519019365311
vn -0.19544787704945 -0.65429192781448 -0.73054921627045
vn -0.27128529548645 -0.65429204702377 -0.70590806007385
vn -0.41163393855095 -0.65429228544235 -0.6343966126442
vn -0.47614505887032 -0.65429252386093 -0.58752632141113
vn -0.58752638101578 -0.65429252386093 -0.47614499926567
vn -0.63439667224884 -0.65429222583771 -0.41163393855095
vn -0.70590806007385 -0.65429198741913 -0.27128535509109
vn -0.73054921627045 -0.65429192781448 -0.19544792175293
vn -0.75519019365311 -0.65429210662842 -0.03987012058496
vn -0.75519019365311 -0.65429210662842 0.03987016156316
vn -0.73054921627045 -0.65429192781448 0.19544787704945
vn -0.70590806007385 -0.65429204702377 0.27128529548645
vn -0.6343966126442 -0.65429228544235 0.41163393855095
vn -0.58752632141113 -0.65429252386093 0.47614508867264
vn -0.47614499926567 -0.65429246425629 0.58752638101578
vn -0.41163393855095 -0.65429222583771 0.63439667224884
vn -0.27128535509109 -0.65429198741913 0.70590806007385
vn -0.19544792175293 -0.65429192781448 0.73054921627045
vn -0.03987012058496 -0.65429210662842 0.75519019365311
vn 0.03987016156316 -0.65429210662842 0.75519019365311
vn 0.19544787704945 -0.65429192781448 0.73054921627045
vn 0.27128529548645 -0.65429204702377 0.70590806007385
vn 0.41163393855095 -0.65429228544235 0.6343966126442
vn 0.47614505887032 -0.65429252386093 0.58752632141113
vn 0.58752638101578 -0.65429252386093 0.47614499926567
vn 0.63439655303955 -0.65429246425629 0.41163384914398
vn 0.70590794086456 -0.65429222583771 0.27128526568413
vn 0.73054909706116 -0.65429204702377 0.19544784724712
# 143 normals

o hemisphere
usemtl default
f 3//3 2//2 103//1
f 4//6 3//3 104//5
f 5//8 4//6 105//7
f 6//10 5//8 106//9
f 7//12 6//10 107//11
f 8//14 7//12 108//13
f 9//16 8//14 109//15
f 10//18 9//16 110//17
f 11//20 10//18 111//19
f 12//22 11//20 112//21
f 13//24 12//22 113//23
f 14//26 13//24 114//25
f 15//28 14//26 115//27
f 16//30 15//28 116//29
f 17//32 16//30 117//31
f 18//34 17//32 118//33
f 19//36 18//34 119//35
f 20//38 19//36 120//37
f 21//40 20//38 121//39
f 2//2 21//40 102//41
f 23//43 22//42 2//2
f 24//44 23//43 3//3
f 25//45 24//44 4//6
f 26//46 25//45 5//8
f 27//47 26//46 6//10
f 28//48 27//47 7//12
f 29//49 28//48 8//14
f 30//50 29//49 9//16
f 31//51 30//50 10//18
f 32//52 31//51 11//20
f 33//53 32//52 12//22
f 34//54 33//53 13//24
f 35//55 34//54 14//26
f 36//56 35//55 15//28
f 37//57 36//56 16//30
f 38//58 37//57 17//32
f 39//59 38//58 18//34
f 40//60 39//59 19//36
f 41//61 40//60 20//38
f 22//42 41//61 21//40
f 43//63 42//62 22//42
f 44//64 43//63 23//43
f 45//65 44//64 24//44
f 46//66 45//65 25//45
f 47//67 46//66 26//46
f 48//68 47//67 27//47
f 49//69 48//68 28//48
f 50//70 49//69 29//49
f 51//71 50//70 30//50
f 52//72 51//71 31//51
f 53//73 52//72 32//52
f 54//74 53//73 33//53
f 55//75 54//74 34//54
f 56//76 55//75 35//55
f 57//77 56//76 36//56
f 58//78 57//77 37//57
f 59//79 58//78 38//58
f 60//80 59//79 39//59
f 61//81 60//80 40//60
f 42//62 61//81 41//61
f 63//83 62//82 42//62
f 64//84 63//83 43//63
f 65//85 64//84 44//64
f 66//86 65//85 45//65
f 67//87 66//86 46//66
f 68//88 67//87 47//67
f 69//89 68//88 48//68
f 70//90 69//89 49//69
f 71//91 70//90 50//70
f 72//92 71//91 51//71
f 73//93 72//92 52//72
f 74//94 73//93 53//73
f 75//95 74//94 54//74
f 76//96 75//95 55//75
f 77//97 76//96 56//76
f 78//98 77//97 57//77
f 79//99 78//98 58//78
f 80//100 79//99 59//79
f 81//101 80//100 60//80
f 62//82 81//101 61//81
f 1//102 62//82 63//83
f 1//102 63//83 64//84
f 1//102 64//84 65//85
f 1//102 65//85 66//86
f 1//102 66//86 67//87
f 1//102 67//87 68//88
f 1//102 68//88 69//89
f 1//102 69//89 70//90
f 1//102 70//90 71//91
f 1//102 71//91 72//92
f 1//102 72//92 73//93
f 1//102 73//93 74//94
f 1//102 74//94 75//95
f 1//102 75//95 76//96
f 1//102 76//96 77//97
f 1//102 77//97 78//98
f 1//102 78//98 79//99
f 1//102 79//99 80//100
f 1//102 80//100 81//101
f 1//102 81//101 62//82
f 89//103 88//103 87//103
f 90//103 89//103 92//103
f 87//103 86//103 85//103
f 85//103 84//103 83//103
f 92//103 89//103 97//103
f 94//103 93//103 97//103
f 97//103 96//103 95//103
f 83//103 82//103 99//103
f 100//103 99//103 82//103
f 89//103 83//103 98//103
f 87//103 85//103 83//103
f 104//106 103//105 82//104
f 105//108 104//106 83//107
f 106//110 105//108 84//109
f 107//112 106//110 85//111
f 108//114 107//112 86//113
f 109//116 108//114 87//115
f 110//118 109//116 88//117
f 111//120 110//118 89//119
f 112//122 111//120 90//121
f 113//124 112//122 91//123
f 114//126 113//124 92//125
f 115//128 114//126 93//127
f 116//130 115//128 94//129
f 117//132 116//130 95//131
f 118//134 117//132 96//133
f 119//136 118//134 97//135
f 120//138 119//136 98//137
f 121//140 120//138 99//139
f 102//142 121//140 100//141
f 103//105 102//142 101//143
f 91//103 90//103 92//103
f 93//103 92//103 97//103
f 95//103 94//103 97//103
f 98//103 83//103 99//103
f 101//103 100//103 82//103
f 97//103 89//103 98//103
f 89//103 87//103 83//103
f 104//5 3//3 103//1
f 105//7 4//6 104//5
f 106//9 5//8 105//7
f 107//11 6//10 106//9
f 108//13 7//12 107//11
f 109//15 8//14 108//13
f 110//17 9//16 109//15
f 111//19 10//18 110//17
f 112//21 11//20 111//19
f 113//23 12//22 112//21
f 114//25 13//24 113//23
f 115//27 14//26 114//25
f 116//29 15//28 115//27
f 117//31 16//30 116//29
f 118//33 17//32 117//31
f 119//35 18//34 118//33
f 120//37 19//36 119//35
f 121//39 20//38 120//37
f 102//41 21//40 121//39
f 103//1 2//2 102//41
f 3//3 23//43 2//2
f 4//6 24//44 3//3
f 5//8 25//45 4//6
f 6//10 26//46 5//8
f 7//12 27//47 6//10
f 8//14 28//48 7//12
f 9//16 29//49 8//14
f 10//18 30//50 9//16
f 11//20 31//51 10//18
f 12//22 32//52 11//20
f 13//24 33//53 12//22
f 14//26 34//54 13//24
f 15//28 35//55 14//26
f 16//30 36//56 15//28
f 17//32 37//57 16//30
f 18//34 38//58 17//32
f 19//36 39//59 18//34
f 20//38 40//60 19//36
f 21//40 41//61 20//38
f 2//2 22//42 21//40
f 23//43 43//63 22//42
f 24//44 44//64 23//43
f 25//45 45//65 24//44
f 26//46 46//66 25//45
f 27//47 47//67 26//46
f 28//48 48//68 27//47
f 29//49 49//69 28//48
f 30//50 50//70 29//49
f 31//51 51//71 30//50
f 32//52 52//72 31//51
f 33//53 53//73 32//52
f 34//54 54//74 33//53
f 35//55 55//75 34//54
f 36//56 56//76 35//55
f 37//57 57//77 36//56
f 38//58 58//78 37//57
f 39//59 59//79 38//58
f 40//60 60//80 39//59
f 41//61 61//81 40//60
f 22//42 42//62 41//61
f 43//63 63//83 42//62
f 44//64 64//84 43//63
f 45//65 65//85 44//64
f 46//66 66//86 45//65
f 47//67 67//87 46//66
f 48//68 68//88 47//67
f 49//69 69//89 48//68
f 50//70 70//90 49//69
f 51//71 71//91 50//70
f 52//72 72//92 51//71
f 53//73 73//93 52//72
f 54//74 74//94 53//73
f 55//75 75//95 54//74
f 56//76 76//96 55//75
f 57//77 77//97 56//76
f 58//78 78//98 57//77
f 59//79 79//99 58//78
f 60//80 80//100 59//79
f 61//81 81//101 60//80
f 42//62 62//82 61//81
f 83//107 104//106 82//104
f 84//109 105//108 83//107
f 85//111 106//110 84//109
f 86//113 107//112 85//111
f 87//115 108//114 86//113
f 88//117 109//116 87//115
f 89//119 110//118 88//117
f 90//121 111//120 89//119
f 91//123 112//122 90//121
f 92//125 113//124 91//123
f 93//127 114//126 92//125
f 94//129 115//128 93//127
f 95//131 116//130 94//129
f 96//133 117//132 95//131
f 97//135 118//134 96//133
f 98//137 119//136 97//135
f 99//139 120//138 98//137
f 100//141 121//140 99//139
f 101//143 102//142 100//141
f 82//104 103//105 101//143

