# WaveFront *.obj file (generated by CINEMA 4D)

v 0.00000000000001 0 -0
v 0.00000000000001 0 0.11999999731779
v 0.00000000000001 0 -0.11999999731779
v 0.19372233748436 0 -0.11999999731779
v 0.22806119918823 0 -0
v 0.20526127517223 0.01113905664533 0.11850764602423
v 0.23701529204845 0.01113905664533 -0
v 0.11403059959412 0 -0.19750678539276
v 0 0 -0.22806119918823
v 0.20526127517223 0.01113905664533 -0.11850764602423
v 0.11850429326296 0.01116413343698 -0.20525544881821
v -0.11403059959412 0 -0.19750678539276
v -0.19372233748436 0 -0.11999999731779
v 0 0.01113905664533 -0.23701529204845
v -0.11850429326296 0.01116413343698 -0.20525544881821
v -0.22806119918823 0 -0
v -0.20526127517223 0.01113905664533 -0.11850764602423
v -0.19372233748436 0 0.11999999731779
v -0.23701529204845 0.01113905664533 -0
v -0.11403059959412 0 0.19750678539276
v 0 0 0.22806119918823
v -0.20526127517223 0.01113905664533 0.11850764602423
v -0.11850429326296 0.01116413343698 0.20525544881821
v 0.11403059959412 0 0.19750678539276
v 0.19372233748436 0 0.11999999731779
v -0 0.01113905664533 0.23701529204845
v 0.11850429326296 0.01116413343698 0.20525544881821
v -0.0755999982357 0.04920699074864 -0.1309430450201
v -0.15119999647141 0.04920699074864 -0
v -0.0755999982357 0.04920699074864 0.1309430450201
v 0.0755999982357 0.04920699074864 0.1309430450201
v 0.15119999647141 0.21478381752968 -0
v -0.0755999982357 0.21478383243084 -0.1309430450201
v -0.15119999647141 0.21478381752968 -0
v 0.0755999982357 0.21478383243084 0.1309430450201
v 0.11340000480413 0.22010500729084 -0.06547151505947
v 0 0.22010500729084 -0.1309430450201
v -0.11340000480413 0.22010500729084 -0.06547151505947
v 0.11340000480413 0.22010500729084 0.06547151505947
v 0.19028542935848 0.19678400456905 0.10986130684614
v 0.21972267329693 0.19678397476673 -0
v 0.23346419632435 0.17683304846287 -0
v 0.20218592882156 0.17683306336403 -0.11673206835985
v 0.19028542935848 0.19678400456905 -0.10986130684614
v 0.11673174053431 0.17683307826519 -0.20218531787395
v 0.1098613217473 0.19678403437138 -0.190285384655
v 0 0.17683307826519 -0.23346418142319
v 0 0.19678401947021 -0.21972265839577
v -0.11673174053431 0.17683307826519 -0.20218531787395
v -0.1098613217473 0.19678403437138 -0.190285384655
v -0.20218592882156 0.17683306336403 -0.11673206835985
v -0.19028542935848 0.19678400456905 -0.10986130684614
v -0.23346419632435 0.17683304846287 -0
v -0.21972267329693 0.19678397476673 -0
v -0.20218592882156 0.17683306336403 0.11673206835985
v -0.19028542935848 0.19678400456905 0.10986130684614
v -0.11673174053431 0.17683307826519 0.20218531787395
v -0.1098613217473 0.19678403437138 0.190285384655
v -0 0.17683307826519 0.23346418142319
v -0 0.19678401947021 0.21972265839577
v 0.11673174053431 0.17683307826519 0.20218531787395
v 0.1098613217473 0.19678403437138 0.190285384655
v 0.20218592882156 0.17683306336403 0.11673206835985
v 0.0755999982357 0.21478383243084 -0.1309430450201
v -0.11340000480413 0.22010500729084 0.06547151505947
v -0.0755999982357 0.21478383243084 0.1309430450201
v -0 0.22010500729084 0.1309430450201
v 0 0.04920699074864 -0
v 0.15119999647141 0.04920699074864 -0
v 0.0755999982357 0.04920699074864 -0.1309430450201
# 70 vertices

vn 0.99977040290833 0.02142677456141 0.00000001542658
vn 0.86581993103027 0.02141868881881 -0.49989706277847
vn 0.49988535046577 0.02141013741493 -0.86582690477371
vn 0 0.02141042053699 -0.99977076053619
vn -0.49988543987274 0.02141013555229 -0.86582684516907
vn -0.86581993103027 0.0214185602963 -0.49989706277847
vn -0.99977040290833 0.02142677456141 -0.00000001542658
vn -0.86581993103027 0.02141868881881 0.49989706277847
vn -0.49988535046577 0.02141013741493 0.86582690477371
vn 0 0.02141042053699 0.99977076053619
vn 0.49988543987274 0.02141013555229 0.86582684516907
vn 0.86581993103027 0.0214185602963 0.49989706277847
vn 0.25406491756439 0.96718716621399 -0.00000000373391
vn 0.22002665698528 0.96718722581863 -0.12703222036362
vn 0.12703233957291 0.96718722581863 -0.22002638876438
vn -0.00000000373391 0.96718722581863 -0.25406461954117
vn -0.12703235447407 0.96718722581863 -0.22002638876438
vn -0.22002665698528 0.96718722581863 -0.12703222036362
vn -0.25406491756439 0.96718716621399 0.00000000373391
vn -0.22002665698528 0.96718722581863 0.12703222036362
vn -0.12703233957291 0.96718722581863 0.22002638876438
vn 0.00000000373391 0.96718722581863 0.25406461954117
vn 0.12703235447407 0.96718722581863 0.22002638876438
vn 0.22002665698528 0.96718722581863 0.12703222036362
vn 0 -1 0
vn 0.74447947740555 -0.66764533519745 0.00023426245025
vn 0.66640019416809 -0.62879920005798 -0.4006524682045
vn 0.39787849783897 -0.60757088661194 -0.68742299079895
vn -0.0000022682691 -0.62596172094345 -0.77985382080078
vn -0.3987957239151 -0.60555303096771 -0.68867087364197
vn -0.66711050271988 -0.6270979642868 -0.40213394165039
vn -0.74447947740555 -0.66764533519745 -0.00023426245025
vn -0.66640019416809 -0.62879920005798 0.4006524682045
vn -0.39787849783897 -0.60757088661194 0.68742299079895
vn 0.0000022682691 -0.62596172094345 0.77985382080078
vn 0.3987957239151 -0.60555303096771 0.68867087364197
vn 0.66711050271988 -0.6270979642868 0.40213394165039
vn 0 1 0
vn 0 0 0
vn 0.86602538824081 0 0.49999997019768
vn 0.86602538824081 0.0000001446939 0.49999997019768
vn 0.86602538824081 0.0000002893878 0.49999997019768
vn 0.86602538824081 0 -0.5
vn 0.86602538824081 0.0000001446939 -0.49999997019768
vn 0.86602538824081 0.0000002893878 -0.49999997019768
vn 0 0 -1
vn -0.86602538824081 -0 -0.49999997019768
vn -0.86602538824081 0.0000001446939 -0.49999997019768
vn -0.86602538824081 0.0000002893878 -0.49999997019768
vn 0.71322131156921 0.56723189353943 -0.41178074479103
vn 0.82355499267578 0.56723642349243 0
vn 0.41178089380264 0.56722658872604 -0.71322536468506
vn 0.00000006103869 0.56722724437714 -0.82356131076813
vn -0.41178095340729 0.56722658872604 -0.71322536468506
vn -0.7132214307785 0.56723165512085 -0.41178089380264
vn -0.82355499267578 0.56723642349243 0
vn -0.71322131156921 0.56723189353943 0.41178074479103
vn -0.41178089380264 0.56722658872604 0.71322536468506
vn -0.00000006103869 0.56722724437714 0.82356131076813
vn 0.41178095340729 0.56722658872604 0.71322536468506
vn 0.7132214307785 0.56723165512085 0.41178089380264
vn -0.86602538824081 0 0.5
vn -0.86602538824081 0.0000001446939 0.49999997019768
vn -0.86602538824081 0.0000002893878 0.49999997019768
vn -0 -0 1
vn -0 -0 1
vn 0 0 1
# 67 normals

o hex
usemtl default
f 10//2 43//2 42//1 7//1
f 11//3 45//3 43//2 10//2
f 14//4 47//4 45//3 11//3
f 15//5 49//5 47//4 14//4
f 17//6 51//6 49//5 15//5
f 19//7 53//7 51//6 17//6
f 22//8 55//8 53//7 19//7
f 23//9 57//9 55//8 22//8
f 26//10 59//10 57//9 23//9
f 27//11 61//11 59//10 26//10
f 6//12 63//12 61//11 27//11
f 7//1 42//1 63//12 6//12
f 41//13 44//14 36//14 32//13
f 46//15 64//15 36//14 44//14
f 46//15 48//16 37//16 64//15
f 50//17 33//17 37//16 48//16
f 50//17 52//18 38//18 33//17
f 54//19 34//19 38//18 52//18
f 54//19 56//20 65//20 34//19
f 58//21 66//21 65//20 56//20
f 58//21 60//22 67//22 66//21
f 62//23 35//23 67//22 60//22
f 62//23 40//24 39//24 35//23
f 41//13 32//13 39//24 40//24
f 2//25 1//25 5//25 25//25
f 25//25 24//25 21//25 2//25
f 2//25 21//25 20//25 18//25
f 2//25 18//25 16//25 1//25
f 1//25 3//25 4//25 5//25
f 3//25 9//25 8//25 4//25
f 3//25 13//25 12//25 9//25
f 3//25 1//25 16//25 13//25
f 4//27 10//27 7//26 5//26
f 8//28 11//28 10//27 4//27
f 9//29 14//29 11//28 8//28
f 12//30 15//30 14//29 9//29
f 13//31 17//31 15//30 12//30
f 16//32 19//32 17//31 13//31
f 18//33 22//33 19//32 16//32
f 20//34 23//34 22//33 18//33
f 21//35 26//35 23//34 20//34
f 24//36 27//36 26//35 21//35
f 25//37 6//37 27//36 24//36
f 5//26 7//26 6//37 25//37
f 29//38 68//38 28//38
f 28//41 34//41 29//40
f 38//42 34//41 28//41 33//42
f 30//38 68//38 29//38
f 29//44 66//44 30//43
f 65//45 66//44 29//44 34//45
f 31//38 68//38 30//38
f 30//46 35//46 31//46
f 67//46 35//46 30//46 66//46
f 69//38 68//38 31//38
f 31//48 32//48 69//47
f 39//49 32//48 31//48 35//49
f 41//51 42//51 43//50 44//50
f 44//50 43//50 45//52 46//52
f 46//52 45//52 47//53 48//53
f 48//53 47//53 49//54 50//54
f 50//54 49//54 51//55 52//55
f 52//55 51//55 53//56 54//56
f 54//56 53//56 55//57 56//57
f 56//57 55//57 57//58 58//58
f 58//58 57//58 59//59 60//59
f 60//59 59//59 61//60 62//60
f 62//60 61//60 63//61 40//61
f 40//61 63//61 42//51 41//51
f 70//38 68//38 69//38
f 69//63 64//63 70//62
f 36//64 64//63 69//63 32//64
f 28//38 68//38 70//38
f 70//66 33//66 28//65
f 37//67 33//66 70//66 64//67

