# WaveFront *.obj file (generated by CINEMA 4D)

v -0.20000000298023 0 0.20000000298023
v 0.20000000298023 0 0.20000000298023
v 0.20000000298023 0 -0.20000000298023
v -0.20000000298023 0 -0.20000000298023
v 0 0.40000000596046 0
# 5 vertices

vn 0 -1 0
vn 0 0 0
vn 0.89442718029022 0.44721359014511 0
vn 0 0.44721359014511 -0.89442718029022
vn -0.89442718029022 0.44721359014511 0
vn 0 0.44721359014511 0.89442718029022
# 6 normals

o pyramid
usemtl default
f 3//1 2//1 1//1
f 2//3 3//3 5//3
f 3//4 4//4 5//4
f 4//5 1//5 5//5
f 1//6 2//6 5//6
f 4//1 3//1 1//1

