# WaveFront *.obj file (generated by CINEMA 4D)

v 0.29432862997055 0.02500000037253 0.00454437080771
v 0.28518125414848 0.02500000037253 -0.02537543326616
v 0.26723581552505 0.02500000037253 -0.0510041564703
v 0.24224899709225 0.02500000037253 -0.06983307749033
v 0.21266666054726 0.02500000037253 -0.08001909404993
v 0.18138451874256 0.02500000037253 -0.08056512475014
v 0.15146471560001 0.02500000037253 -0.07141772657633
v 0.12583599984646 0.02500000037253 -0.05347229912877
v 0.10700707882643 0.02500000037253 -0.02848547510803
v 0.09682106226683 0.02500000037253 0.00109686295036
v 0.09627503156662 0.02500000037253 0.03237899020314
v 0.10768464952707 0.02500000037253 0.04946909844875
v 0.13233377039433 0.02500000037253 0.03707931563258
v 0.16267642378807 0.02500000037253 0.0255337767303
v 0.1934888958931 0.02500000037253 0.0287433732301
v 0.2235408872366 0.02500000037253 0.03626582399011
v 0.24810485541821 0.02500000037253 0.05749288573861
v 0.26702988147736 0.02500000037253 0.07756596803665
v 0.28359660506248 0.02500000037253 0.06540883332491
v 0.29378262162209 0.02500000037253 0.03582649677992
v 0.32440701127052 -0 0.00031713329372
v 0.28612884879112 0.0426910482347 0.06394379585981
v 0.31248116493225 -0 -0.03869049996138
v 0.32291686534882 -0 0.04336112365127
v 0.2890850007534 -0 -0.07210367918015
v 0.31041520833969 -0 0.07966854423285
v 0.25650870800018 -0 -0.09665168821812
v 0.27891165018082 -0 0.11064348369837
v 0.21794103085995 -0 -0.10993160307407
v 0.25235575437546 -0 0.08993796259165
v 0.17715728282928 -0 -0.11064348369837
v 0.22262766957283 -0 0.07369215041399
v 0.13814966380596 -0 -0.09871765226126
v 0.18741494417191 -0 0.06319043785334
v 0.10473647713661 -0 -0.07532149553299
v 0.15073402225971 -0 0.06101536378264
v 0.08018846809864 -0 -0.04274518415332
v 0.11724235117435 -0 0.06611382216215
v 0.22369563579559 0.03127963468432 0.03957841917872
v 0.0852062702179 -0 0.07648799568415
v 0.06686683744192 -0 -0.00178740080446
v 0.06619667261839 -0 0.03660622984171
v 0.15681909024715 0.03716906905174 0.04819758236408
v 0.18991984426975 0.03617537394166 0.0489844456315
v 0.2212935090065 0.03716906905174 0.05956616252661
v 0.24738389253616 0.04005288332701 0.07736725360155
v 0.27033141255379 0.0445445291698 0.10085797309875
v 0.29849126935005 0.05020432919264 0.07360473275185
v 0.30987536907196 0.05624988302588 0.0407970957458
v 0.26839450001717 0.03773630782962 0.08079693466425
v 0.31058472394943 0.0801170244813 0.00501944310963
v 0.29980361461639 0.08577682822943 -0.02947505936027
v 0.27875363826752 0.09026847034693 -0.05905308946967
v 0.24949529767036 0.09315228462219 -0.0808193385601
v 0.21489262580872 0.09414598345757 -0.09264318645
v 0.1783327460289 0.09315228462219 -0.09336721897125
v 0.1433944106102 0.09026847034693 -0.08292057365179
v 0.11349762231112 0.08577682822943 -0.06232583150268
v 0.09156888723373 0.0801170244813 -0.03359895572066
v 0.1929202824831 0.03040972724557 0.03196816146374
v 0.07999877631664 0.05624988302588 0.0002636530553
v 0.07947544753551 0.05020432919264 0.0349863357842
v 0.09661590307951 0.0445445291698 0.07022724300623
v 0.12621381878853 0.04005288332701 0.0560017041862
v 0.16139803826809 0.03127963468432 0.02859367243946
v 0.13042868673801 0.03380420058966 0.03991337865591
v 0.10529728978872 0.03773630782962 0.05203849077225
v 0.09439656883478 0.0426910482347 0.03013622201979
v 0.094865873456 0.04811249300838 -0.00100188725628
v 0.24892574548721 0.03380420058966 0.06080760806799
v 0.10445468872786 0.07053703069687 -0.02690623141825
v 0.12365169078112 0.07549177110195 -0.05205450206995
v 0.14982412755489 0.0794238820672 -0.07008368521929
v 0.18041008710861 0.08194844424725 -0.07922895997763
v 0.21241557598114 0.082818351686 -0.0785951167345
v 0.24270766973495 0.08194844424725 -0.06824421137571
v 0.26832118630409 0.0794238820672 -0.04918945580721
v 0.28674891591072 0.07549177110195 -0.02329606190324
v 0.29618695378304 0.07053703069687 0.00690134149045
v 0.29633769392967 0.04811249300838 0.03452303260565
v -0.29432862997055 0.02500000037253 0.00454437080771
v -0.28518125414848 0.02500000037253 -0.02537543326616
v -0.26723581552505 0.02500000037253 -0.0510041564703
v -0.24224899709225 0.02500000037253 -0.06983307749033
v -0.21266666054726 0.02500000037253 -0.08001909404993
v -0.18138451874256 0.02500000037253 -0.08056512475014
v -0.15146471560001 0.02500000037253 -0.07141772657633
v -0.12583599984646 0.02500000037253 -0.05347229912877
v -0.10700707882643 0.02500000037253 -0.02848547510803
v -0.09682106226683 0.02500000037253 0.00109686295036
v -0.09627503156662 0.02500000037253 0.03237899020314
v -0.10768464952707 0.02500000037253 0.04946909844875
v -0.13233377039433 0.02500000037253 0.03707931563258
v -0.16267642378807 0.02500000037253 0.0255337767303
v -0.1934888958931 0.02500000037253 0.0287433732301
v -0.2235408872366 0.02500000037253 0.03626582399011
v -0.24810485541821 0.02500000037253 0.05749288573861
v -0.26702988147736 0.02500000037253 0.07756596803665
v -0.28359660506248 0.02500000037253 0.06540883332491
v -0.29378262162209 0.02500000037253 0.03582649677992
v -0.32440701127052 -0 0.00031713329372
v -0.28612884879112 0.0426910482347 0.06394379585981
v -0.31248116493225 -0 -0.03869049996138
v -0.32291686534882 -0 0.04336112365127
v -0.2890850007534 -0 -0.07210367918015
v -0.31041520833969 -0 0.07966854423285
v -0.25650870800018 -0 -0.09665168821812
v -0.27891165018082 -0 0.11064348369837
v -0.21794103085995 -0 -0.10993160307407
v -0.25235575437546 -0 0.08993796259165
v -0.17715728282928 -0 -0.11064348369837
v -0.22262766957283 -0 0.07369215041399
v -0.13814966380596 -0 -0.09871765226126
v -0.18741494417191 -0 0.06319043785334
v -0.10473647713661 -0 -0.07532149553299
v -0.15073402225971 -0 0.06101536378264
v -0.08018846809864 -0 -0.04274518415332
v -0.11724235117435 -0 0.06611382216215
v -0.22369563579559 0.03127963468432 0.03957841917872
v -0.0852062702179 -0 0.07648799568415
v -0.06686683744192 -0 -0.00178740080446
v -0.06619667261839 -0 0.03660622984171
v -0.15681909024715 0.03716906905174 0.04819758236408
v -0.18991984426975 0.03617537394166 0.0489844456315
v -0.2212935090065 0.03716906905174 0.05956616252661
v -0.24738389253616 0.04005288332701 0.07736725360155
v -0.27033141255379 0.0445445291698 0.10085797309875
v -0.29849126935005 0.05020432919264 0.07360473275185
v -0.30987536907196 0.05624988302588 0.0407970957458
v -0.26839450001717 0.03773630782962 0.08079693466425
v -0.31058472394943 0.0801170244813 0.00501944310963
v -0.29980361461639 0.08577682822943 -0.02947505936027
v -0.27875363826752 0.09026847034693 -0.05905308946967
v -0.24949529767036 0.09315228462219 -0.0808193385601
v -0.21489262580872 0.09414598345757 -0.09264318645
v -0.1783327460289 0.09315228462219 -0.09336721897125
v -0.1433944106102 0.09026847034693 -0.08292057365179
v -0.11349762231112 0.08577682822943 -0.06232583150268
v -0.09156888723373 0.0801170244813 -0.03359895572066
v -0.1929202824831 0.03040972724557 0.03196816146374
v -0.07999877631664 0.05624988302588 0.0002636530553
v -0.07947544753551 0.05020432919264 0.0349863357842
v -0.09661590307951 0.0445445291698 0.07022724300623
v -0.12621381878853 0.04005288332701 0.0560017041862
v -0.16139803826809 0.03127963468432 0.02859367243946
v -0.13042868673801 0.03380420058966 0.03991337865591
v -0.10529728978872 0.03773630782962 0.05203849077225
v -0.09439656883478 0.0426910482347 0.03013622201979
v -0.094865873456 0.04811249300838 -0.00100188725628
v -0.24892574548721 0.03380420058966 0.06080760806799
v -0.10445468872786 0.07053703069687 -0.02690623141825
v -0.12365169078112 0.07549177110195 -0.05205450206995
v -0.14982412755489 0.0794238820672 -0.07008368521929
v -0.18041008710861 0.08194844424725 -0.07922895997763
v -0.21241557598114 0.082818351686 -0.0785951167345
v -0.24270766973495 0.08194844424725 -0.06824421137571
v -0.26832118630409 0.0794238820672 -0.04918945580721
v -0.28674891591072 0.07549177110195 -0.02329606190324
v -0.29618695378304 0.07053703069687 0.00690134149045
v -0.29633769392967 0.04811249300838 0.03452303260565
# 160 vertices

vn 0 1 0
vn 0 0 0
vn 0 1 0
# 3 normals

o sad
usemtl Mat.1
f 14//1 15//1 6//1
f 5//1 6//1 15//1
f 16//1 3//1 4//1
f 2//1 3//1 16//1
f 20//1 1//1 16//1
f 19//1 20//1 17//1
f 10//1 13//1 14//1
f 8//1 9//1 14//1
f 11//1 12//3 13//1
f 7//1 14//1 6//1
f 4//1 5//1 15//1
f 15//1 16//1 4//1
f 1//1 2//1 16//1
f 17//1 20//1 16//1
f 18//1 19//1 17//1
f 9//1 10//1 14//1
f 7//1 8//1 14//1
f 10//1 11//1 13//1
f 95//1 94//1 86//1
f 86//1 85//1 95//1
f 83//1 96//1 84//1
f 83//1 82//1 96//1
f 81//1 100//1 96//1
f 100//1 99//1 97//1
f 93//1 90//1 94//1
f 89//1 88//1 94//1
f 92//1 91//1 93//1
f 94//1 87//1 86//1
f 85//1 84//1 95//1
f 96//1 95//1 84//1
f 82//1 81//1 96//1
f 100//1 97//1 96//1
f 99//1 98//1 97//1
f 90//1 89//1 94//1
f 88//1 87//1 94//1
f 91//1 90//1 93//1

