# WaveFront *.obj file (generated by CINEMA 4D)

v 0 0.18899999558926 0
v 0.20000000298023 0 0
v 0.17320507764816 0 -0.10000000149012
v 0.10000000149012 0 -0.17320507764816
v 0 0 -0.20000000298023
v -0.10000000149012 0 -0.17320507764816
v -0.17320507764816 0 -0.10000000149012
v -0.20000000298023 0 -0
v -0.17320507764816 0 0.10000000149012
v -0.10000000149012 0 0.17320507764816
v -0 0 0.20000000298023
v 0.10000000149012 0 0.17320507764816
v 0.17320507764816 0 0.10000000149012
v 0.17320507764816 0.07415918260813 0
v 0.15000000596046 0.07415918260813 -0.08660253882408
v 0.08660253882408 0.07415918260813 -0.15000000596046
v 0 0.07415918260813 -0.17320507764816
v -0.08660253882408 0.07415918260813 -0.15000000596046
v -0.15000000596046 0.07415918260813 -0.08660253882408
v -0.17320507764816 0.07415918260813 -0
v -0.15000000596046 0.07415918260813 0.08660253882408
v -0.08660253882408 0.07415918260813 0.15000000596046
v -0 0.07415918260813 0.17320507764816
v 0.08660253882408 0.07415918260813 0.15000000596046
v 0.15000000596046 0.07415918260813 0.08660253882408
v 0.10000000149012 0.12844747304916 0
v 0.08660253882408 0.12844747304916 -0.05000000074506
v 0.05000000074506 0.12844747304916 -0.08660253882408
v 0 0.12844747304916 -0.10000000149012
v -0.05000000074506 0.12844747304916 -0.08660253882408
v -0.08660253882408 0.12844747304916 -0.05000000074506
v -0.10000000149012 0.12844747304916 -0
v -0.08660253882408 0.12844747304916 0.05000000074506
v -0.05000000074506 0.12844747304916 0.08660253882408
v -0 0.12844747304916 0.10000000149012
v 0.05000000074506 0.12844747304916 0.08660253882408
v 0.08660253882408 0.12844747304916 0.05000000074506
v 0.0102021554485 0.14907191693783 -0
v 0.00883532594889 0.14907191693783 -0.00510107772425
v 0.00510107772425 0.14907191693783 -0.00883532594889
v -0 0.14907191693783 -0.0102021554485
v -0.00510107772425 0.14907191693783 -0.00883532594889
v -0.00883532594889 0.14907191693783 -0.00510107772425
v -0.0102021554485 0.14907191693783 0
v -0.00883532594889 0.14907191693783 0.00510107772425
v -0.00510107772425 0.14907191693783 0.00883532594889
v 0 0.14907191693783 0.0102021554485
v 0.00510107772425 0.14907191693783 0.00883532594889
v 0.00883532594889 0.14907191693783 0.00510107772425
v 0.0102021554485 0.18899999558926 -0
v 0.00883532594889 0.18899999558926 -0.00510107772425
v 0.00510107772425 0.18899999558926 -0.00883532594889
v -0 0.18899999558926 -0.0102021554485
v -0.00510107772425 0.18899999558926 -0.00883532594889
v -0.00883532594889 0.18899999558926 -0.00510107772425
v -0.0102021554485 0.18899999558926 0
v -0.00883532594889 0.18899999558926 0.00510107772425
v -0.00510107772425 0.18899999558926 0.00883532594889
v 0 0.18899999558926 0.0102021554485
v 0.00510107772425 0.18899999558926 0.00883532594889
v 0.00883532594889 0.18899999558926 0.00510107772425
v 0.00883532594889 0.17110204696655 0.00510107772425
v 0.00883532594889 0.18195931613445 0.00510107772425
v 0.0102021554485 0.17110204696655 -0
v 0.0102021554485 0.18195931613445 -0
v 0.00883532594889 0.17110204696655 -0.00510107772425
v 0.00883532594889 0.18195931613445 -0.00510107772425
v 0.00510107772425 0.17110204696655 -0.00883532594889
v 0.00510107772425 0.18195931613445 -0.00883532594889
v -0 0.17110204696655 -0.0102021554485
v -0 0.18195931613445 -0.0102021554485
v -0.00510107772425 0.17110204696655 -0.00883532594889
v -0.00510107772425 0.18195931613445 -0.00883532594889
v -0.00883532594889 0.17110204696655 -0.00510107772425
v -0.00883532594889 0.18195931613445 -0.00510107772425
v -0.0102021554485 0.17110204696655 0
v -0.0102021554485 0.18195931613445 0
v -0.00883532594889 0.17110204696655 0.00510107772425
v -0.00883532594889 0.18195931613445 0.00510107772425
v -0.00510107772425 0.17110204696655 0.00883532594889
v -0.00510107772425 0.18195931613445 0.00883532594889
v 0 0.17110204696655 0.0102021554485
v 0 0.18195931613445 0.0102021554485
v 0.00510107772425 0.17110204696655 0.00883532594889
v 0.00510107772425 0.18195931613445 0.00883532594889
v 0.20257242023945 0.18515649437904 -0.07347450405359
v 0.20197686553001 0.18869346380234 -0.07569716870785
v 0.17531023919582 0.17488710582256 -0.10002279281616
v 0.17427739500999 0.17817425727844 -0.10181172192097
v 0.15475869178772 0.16449281573296 -0.12736627459526
v 0.15324652194977 0.16777996718884 -0.12887844443321
v -0.16486199200153 0.18515649437904 -0.13868257403374
v -0.16648909449577 0.18869346380234 -0.1370554715395
v -0.17427739500999 0.17488710582256 -0.10181172192097
v -0.17531023919582 0.17817425727844 -0.10002279281616
v -0.1876817792654 0.16449281573296 -0.07034182548523
v -0.18823526799679 0.16777996718884 -0.06827615201473
v -0.03761663287878 0.18515649437904 0.2121289819479
v -0.03539396822453 0.18869346380234 0.21272455155849
v -0.00103283685166 0.17488710582256 0.20183451473713
v 0.00103283685166 0.17817425727844 0.20183451473713
v 0.0329230800271 0.16449281573296 0.19770810008049
v 0.0349887534976 0.16777996718884 0.19715459644794
v -0.12753066420555 0.10000000149012 0
v -0.11044479906559 0.10000000149012 0.06376533210278
v -0.06376533210278 0.10000000149012 0.11044479906559
v -0 0.10000000149012 0.12753066420555
v 0.06376533210278 0.10000000149012 0.11044479906559
v 0.11044479906559 0.10000000149012 0.06376533210278
v 0.12753066420555 0.10000000149012 -0
v 0.11044479906559 0.10000000149012 -0.06376533210278
v 0.06376533210278 0.10000000149012 -0.11044479906559
v -0 0.10000000149012 -0.12753066420555
v -0.06376533210278 0.10000000149012 -0.11044479906559
v -0.11044479906559 0.10000000149012 -0.06376533210278
# 115 vertices

vn 0.93719154596329 0.33862254023552 -0.08370654284954
vn 0.80053150653839 0.5990919470787 0.01543043553829
vn 0.70099592208862 0.59909182786942 -0.38690266013145
vn 0 0 0
vn 0.76977837085724 0.3386225104332 -0.54108786582947
vn 0.41362890601158 0.59909188747406 -0.68556553125381
vn 0.39610373973846 0.3386225104332 -0.85348498821259
vn 0.01543043367565 0.59909188747406 -0.80053156614304
vn -0.08370654284954 0.33862259984016 -0.93719154596329
vn -0.38690266013145 0.59909182786942 -0.70099592208862
vn -0.54108786582947 0.3386225104332 -0.76977837085724
vn -0.68556553125381 0.59909182786942 -0.4136289358139
vn -0.85348498821259 0.3386225104332 -0.39610373973846
vn -0.80053156614304 0.59909188747406 -0.01543043367565
vn -0.93719154596329 0.33862259984016 0.08370654284954
vn -0.70099592208862 0.59909182786942 0.38690266013145
vn -0.76977837085724 0.3386225104332 0.54108786582947
vn -0.41362890601158 0.59909188747406 0.68556553125381
vn -0.39610373973846 0.3386225104332 0.85348498821259
vn -0.01543043367565 0.59909188747406 0.80053156614304
vn 0.08370654284954 0.33862259984016 0.93719154596329
vn 0.38690266013145 0.59909182786942 0.70099592208862
vn 0.54108786582947 0.3386225104332 0.76977837085724
vn 0.68556553125381 0.59909182786942 0.4136289358139
vn 0.85348498821259 0.3386225104332 0.39610373973846
vn 0.41754099726677 0.90850347280502 0.01676011644304
vn 0.36998122930527 0.90850347280502 -0.19425578415394
vn 0.22328522801399 0.90850347280502 -0.3532210290432
vn 0.01676011830568 0.90850347280502 -0.41754102706909
vn -0.19425578415394 0.90850347280502 -0.36998122930527
vn -0.3532210290432 0.90850347280502 -0.22328522801399
vn -0.41754102706909 0.90850347280502 -0.01676011830568
vn -0.36998122930527 0.90850347280502 0.19425578415394
vn -0.22328522801399 0.90850347280502 0.3532210290432
vn -0.01676011830568 0.90850347280502 0.41754102706909
vn 0.19425578415394 0.90850347280502 0.36998122930527
vn 0.3532210290432 0.90850347280502 0.22328522801399
vn -0.13569837808609 -0.99049949645996 0.0222858581692
vn -0.2637924849987 -0.96426898241043 0.02447153441608
vn -0.18820276856422 -0.9819124341011 0.02068207412958
vn 0.09955289214849 0.99503064155579 0.00181522313505
vn 0.19622173905373 0.98033690452576 0.02089447341859
vn 0.1468106508255 0.98913818597794 -0.00723273819312
vn -0.94624239206314 0.28346183896065 -0.15580354630947
vn -0.82739329338074 0.54366475343704 -0.1408865749836
vn -0.10265185683966 -0.99471670389175 0.00114540848881
vn -0.15146961808205 -0.98842751979828 -0.00824453867972
vn 0.94634258747101 -0.28346279263496 -0.15519212186337
vn 0.82739025354385 -0.54366493225098 -0.14090365171432
vn 0.15217325091362 0.98809576034546 0.02258598990738
vn 0.29575735330582 0.95493692159653 0.02496230416
vn 0.22380335628986 0.97442930936813 0.01998923160136
vn 0.20381407439709 0.97442930936813 -0.09459048509598
vn 0.12921294569969 0.97442930936813 -0.18382470309734
vn 0.01998923160136 0.97442930936813 -0.22380335628986
vn -0.09459048509598 0.97442930936813 -0.20381407439709
vn -0.18382470309734 0.97442930936813 -0.12921294569969
vn -0.22380335628986 0.97442930936813 -0.01998923160136
vn -0.20381407439709 0.97442930936813 0.09459048509598
vn -0.12921294569969 0.97442930936813 0.18382470309734
vn -0.01998923160136 0.97442930936813 0.22380335628986
vn 0.09459048509598 0.97442930936813 0.20381407439709
vn 0.18382470309734 0.97442930936813 0.12921294569969
vn 0.99603497982025 0 -0.08896224945784
vn 0.99114441871643 0 0.13278818130493
vn 0.90707278251648 0 -0.42097389698029
vn 0.81811052560806 0 -0.57506102323532
vn 0.45293992757797 0 -0.89154106378555
vn 0.42097389698029 0 -0.90707278251648
vn 0 0 -1
vn -0.08896224945784 0 -0.99603497982025
vn -0.38057428598404 0 -0.92475032806396
vn -0.57506102323532 0 -0.81811052560806
vn -0.81811052560806 0 -0.57506102323532
vn -0.90707278251648 0 -0.42097389698029
vn -0.99856716394424 0 0.05351305007935
vn -0.99603497982025 0 0.08896224945784
vn -0.86602538824081 0 0.5
vn -0.81811052560806 0 0.57506102323532
vn -0.61057019233704 0 0.79196214675903
vn -0.42097389698029 0 0.90707278251648
vn -0.08896224945784 0 0.99603497982025
vn 0.08896224945784 0 0.99603497982025
vn 0.54562723636627 0 0.83802801370621
vn 0.57506102323532 0 0.81811052560806
vn 0.86602538824081 0 0.5
vn 0.90707278251648 0 0.42097389698029
vn 0.86602538824081 0 0.49999997019768
vn 0.99856716394424 0 0.05351304635406
vn 0.71707290410995 -0.21474081277847 -0.6630933880806
vn 0.71264374256134 -0.28330382704735 -0.64177709817886
vn 0.74770414829254 -0.16766703128815 -0.64251554012299
vn 0.77146458625793 -0.04722433164716 -0.63451731204987
vn 0.79413837194443 0.00209617381915 -0.6077333688736
vn 0.38057428598404 0 -0.92475032806396
vn -0.45293986797333 0 -0.89154106378555
vn -0.93256944417953 -0.21403577923775 -0.29069390892982
vn -0.91192138195038 -0.28264808654785 -0.29750543832779
vn -0.93008869886398 -0.16718766093254 -0.327083081007
vn -0.93510431051254 -0.04696990177035 -0.3512459397316
vn -0.92338168621063 0.00209596892819 -0.3838774561882
vn -0.99114441871643 0 0.13278816640377
vn -0.86602538824081 0 0.49999997019768
vn -0.54562723636627 0 0.83802801370621
vn 0.2150567471981 -0.21434681117535 0.95278853178024
vn 0.19881018996239 -0.28293064236641 0.93830955028534
vn 0.18213434517384 -0.16739904880524 0.96891933679581
vn 0.16355021297932 -0.04708398133516 0.98541080951691
vn 0.12924359738827 0.0020968131721 0.99161064624786
vn 0.61057019233704 0 0.79196214675903
vn 0.81811052560806 0 0.57506102323532
vn 0.99603497982025 0 0.08896224945784
vn 0.57506102323532 0 -0.81811052560806
vn 0.08896224945784 0 -0.99603497982025
vn -0.42097389698029 0 -0.90707278251648
vn -0.99603497982025 0 -0.08896224945784
vn -0.90707278251648 0 0.42097389698029
vn -0.57506102323532 0 0.81811052560806
vn 0.42097389698029 0 0.90707278251648
vn 0.08707413077354 -0.99051952362061 0.10625043511391
vn 0.15294346213341 -0.96434670686722 0.21597167849541
vn 0.11196271330118 -0.98193103075027 0.15256425738335
vn -0.04815680906177 0.99503952264786 -0.08704754710197
vn -0.07997088134289 0.98035454750061 -0.18030416965485
vn -0.07959730178118 0.98915809392929 -0.12341205775738
vn 0.33805337548256 0.28346434235573 0.89742290973663
vn 0.29156446456909 0.54366910457611 0.78702867031097
vn 0.05231786519289 -0.99471670389175 0.08832638710737
vn 0.0685947984457 -0.98842751979828 0.13529875874519
vn -0.60757166147232 -0.28346225619316 -0.74196082353592
vn -0.53572160005569 -0.54366397857666 -0.6460896730423
vn -0.056526619941 0.98809570074081 -0.14307896792889
vn -0.12626075744629 0.95493686199188 -0.26861461997032
vn 0.04846004024148 -0.99052476882935 -0.12850020825863
vn 0.11052907258272 -0.96436703205109 -0.24037374556065
vn 0.07613087445498 -0.9819358587265 -0.1732224971056
vn -0.05128178745508 0.9950442314148 0.08518914878368
vn -0.11613913625479 0.98036408424377 0.1593674570322
vn -0.06704150140285 0.98916852474213 0.13057960569859
vn 0.60825324058533 0.28346678614616 -0.74140042066574
vn 0.53588151931763 0.54367333650589 -0.64594912528992
vn 0.05033396929502 -0.99471670389175 -0.08947180211544
vn 0.08287477493286 -0.98842751979828 -0.12705424427986
vn -0.33877104520798 -0.28346225619316 0.8971529006958
vn -0.29166921973228 -0.54366397857666 0.78699338436127
vn -0.0956466794014 0.98809570074081 0.12049291282892
vn -0.16949667036533 0.95493686199188 0.24365223944187
vn 0 1 0
vn 0.00850651878864 0.99945974349976 -0.03174676373601
vn -0.98744928836823 0 -0.15793637931347
vn -0.00901484489441 -0.99939322471619 -0.03364386036992
vn 0.98763900995255 0 -0.15674568712711
vn 0.78294450044632 0.07614846527576 -0.6174134016037
vn -0.92616790533066 0.07615055888891 -0.36934286355972
vn 0.14322394132614 0.0761508718133 0.98675626516342
vn -0.03173905983567 0.99945998191834 0.00850445404649
vn 0.35680344700813 0 0.93417948484421
vn -0.0246290192008 -0.99939322471619 0.0246290192008
vn -0.62956523895264 0 -0.77694761753082
vn 0.02324005402625 0.99945974349976 0.02324005402625
vn 0.63071405887604 0 -0.77601534128189
vn 0.03364386409521 -0.99939322471619 0.00901484582573
vn -0.35807374119759 0 0.93369328975677
vn 0 -1 0
vn 0.80761903524399 -0.58527618646622 0.07213362306356
vn 0.80761909484863 -0.58527606725693 -0.07213362306356
vn 0.73548543453217 -0.58527618646622 0.34133997559547
vn 0.73548549413681 -0.58527612686157 -0.3413400053978
vn 0.66335183382034 -0.58527612686157 -0.46627905964851
vn 0.46627908945084 -0.58527618646622 -0.66335183382034
vn 0.34133997559547 -0.58527618646622 -0.73548543453217
vn -0.80761903524399 -0.58527618646622 -0.07213362306356
vn -0.80761909484863 -0.58527606725693 0.07213362306356
vn -0.73548543453217 -0.58527618646622 -0.34133997559547
vn -0.73548549413681 -0.58527612686157 0.3413400053978
vn -0.66335183382034 -0.58527612686157 0.46627905964851
vn -0.07213362306356 -0.58527618646622 0.80761903524399
vn 0.07213362306356 -0.58527606725693 0.80761909484863
vn -0.34133997559547 -0.58527618646622 0.73548543453217
vn 0.3413400053978 -0.58527612686157 0.73548549413681
vn 0.46627905964851 -0.58527612686157 0.66335183382034
vn 0.6633517742157 -0.58527612686157 0.46627911925316
vn 0.07213362306356 -0.58527618646622 -0.80761903524399
vn -0.07213362306356 -0.58527606725693 -0.80761909484863
vn -0.3413400053978 -0.58527612686157 -0.73548549413681
vn -0.46627905964851 -0.58527612686157 -0.66335183382034
vn -0.6633517742157 -0.58527612686157 -0.46627911925316
vn -0.46627911925316 -0.58527612686157 0.6633517742157
# 188 normals

o spinny
usemtl default
f 15//3 14//2 2//1
f 16//6 15//3 3//5
f 17//8 16//6 4//7
f 18//10 17//8 5//9
f 19//12 18//10 6//11
f 20//14 19//12 7//13
f 21//16 20//14 8//15
f 22//18 21//16 9//17
f 23//20 22//18 10//19
f 24//22 23//20 11//21
f 25//24 24//22 12//23
f 14//2 25//24 13//25
f 27//27 26//26 14//2
f 28//28 27//27 15//3
f 29//29 28//28 16//6
f 30//30 29//29 17//8
f 31//31 30//30 18//10
f 32//32 31//31 19//12
f 33//33 32//32 20//14
f 34//34 33//33 21//16
f 35//35 34//34 22//18
f 36//36 35//35 23//20
f 37//37 36//36 24//22
f 26//26 37//37 25//24
f 100//40 98//39 80//38
f 99//43 101//42 83//41
f 98//44 99//45 81//44
f 102//47 100//40 82//46
f 103//48 102//49 84//48
f 101//42 103//51 85//50
f 39//53 38//52 26//26
f 40//54 39//53 27//27
f 41//55 40//54 28//28
f 42//56 41//55 29//29
f 43//57 42//56 30//30
f 44//58 43//57 31//31
f 45//59 44//58 32//32
f 46//60 45//59 33//33
f 47//61 46//60 34//34
f 48//62 47//61 35//35
f 49//63 48//62 36//36
f 38//52 49//63 37//37
f 66//66 64//65 38//64
f 68//68 66//66 39//67
f 70//70 68//68 40//69
f 72//72 70//70 41//71
f 74//74 72//72 42//73
f 76//76 74//74 43//75
f 78//78 76//76 44//77
f 80//80 78//78 45//79
f 82//82 80//80 46//81
f 84//84 82//82 47//83
f 62//86 84//84 48//85
f 64//65 62//86 49//87
f 65//89 63//88 62//86
f 89//92 87//91 86//90
f 91//94 89//92 88//93
f 71//70 69//95 68//68
f 73//96 71//70 70//70
f 95//99 93//98 92//97
f 97//101 95//99 94//100
f 79//103 77//102 76//76
f 81//104 79//103 78//78
f 101//107 99//106 98//105
f 103//109 101//107 100//108
f 63//88 85//110 84//84
f 50//112 61//111 63//88
f 51//66 50//112 65//89
f 52//113 51//66 67//67
f 53//114 52//113 69//95
f 54//115 53//114 71//70
f 55//74 54//115 73//96
f 56//116 55//74 75//75
f 57//117 56//116 77//102
f 58//118 57//117 79//103
f 59//82 58//118 81//104
f 60//119 59//82 83//83
f 61//111 60//119 85//110
f 88//122 86//121 64//120
f 87//125 89//124 67//123
f 86//126 87//127 65//126
f 90//129 88//122 66//128
f 91//130 90//131 68//130
f 89//124 91//133 69//132
f 94//136 92//135 72//134
f 93//139 95//138 75//137
f 92//140 93//141 73//140
f 96//143 94//136 74//142
f 97//144 96//145 76//144
f 95//138 97//147 77//146
f 60//148 61//148 50//148
f 60//148 55//148 56//148
f 53//148 55//148 60//148
f 57//148 58//148 59//148
f 53//148 54//148 55//148
f 50//148 51//148 52//148
f 52//148 60//148 50//148
f 59//148 60//148 56//148
f 52//148 53//148 60//148
f 56//148 57//148 59//148
f 3//5 15//3 2//1
f 4//7 16//6 3//5
f 5//9 17//8 4//7
f 6//11 18//10 5//9
f 7//13 19//12 6//11
f 8//15 20//14 7//13
f 9//17 21//16 8//15
f 10//19 22//18 9//17
f 11//21 23//20 10//19
f 12//23 24//22 11//21
f 13//25 25//24 12//23
f 2//1 14//2 13//25
f 15//3 27//27 14//2
f 16//6 28//28 15//3
f 17//8 29//29 16//6
f 18//10 30//30 17//8
f 19//12 31//31 18//10
f 20//14 32//32 19//12
f 21//16 33//33 20//14
f 22//18 34//34 21//16
f 23//20 35//35 22//18
f 24//22 36//36 23//20
f 25//24 37//37 24//22
f 14//2 26//26 25//24
f 82//46 100//40 80//38
f 81//149 99//43 83//41
f 80//150 98//44 81//44
f 84//151 102//47 82//46
f 85//152 103//48 84//48
f 83//41 101//42 85//50
f 27//27 39//53 26//26
f 28//28 40//54 27//27
f 29//29 41//55 28//28
f 30//30 42//56 29//29
f 31//31 43//57 30//30
f 32//32 44//58 31//31
f 33//33 45//59 32//32
f 34//34 46//60 33//33
f 35//35 47//61 34//34
f 36//36 48//62 35//35
f 37//37 49//63 36//36
f 26//26 38//52 37//37
f 39//67 66//66 38//64
f 40//69 68//68 39//67
f 41//71 70//70 40//69
f 42//73 72//72 41//71
f 43//75 74//74 42//73
f 44//77 76//76 43//75
f 45//79 78//78 44//77
f 46//81 80//80 45//79
f 47//83 82//82 46//81
f 48//85 84//84 47//83
f 49//87 62//86 48//85
f 38//64 64//65 49//87
f 64//65 65//89 62//86
f 88//93 89//92 86//90
f 90//153 91//94 88//93
f 70//70 71//70 68//68
f 72//72 73//96 70//70
f 94//100 95//99 92//97
f 96//154 97//101 94//100
f 78//78 79//103 76//76
f 80//80 81//104 78//78
f 100//108 101//107 98//105
f 102//155 103//109 100//108
f 62//86 63//88 84//84
f 65//89 50//112 63//88
f 67//67 51//66 65//89
f 69//95 52//113 67//67
f 71//70 53//114 69//95
f 73//96 54//115 71//70
f 75//75 55//74 73//96
f 77//102 56//116 75//75
f 79//103 57//117 77//102
f 81//104 58//118 79//103
f 83//83 59//82 81//104
f 85//110 60//119 83//83
f 63//88 61//111 85//110
f 66//128 88//122 64//120
f 65//156 87//125 67//123
f 64//157 86//126 65//126
f 68//158 90//129 66//128
f 69//159 91//130 68//130
f 67//123 89//124 69//132
f 74//142 94//136 72//134
f 73//160 93//139 75//137
f 72//161 92//140 73//140
f 76//162 96//143 74//142
f 77//163 97//144 76//144
f 75//137 95//138 77//146
f 106//164 105//164 104//164
f 109//164 108//164 107//164
f 111//164 110//164 109//164
f 113//164 112//164 115//164
f 106//164 104//164 109//164
f 109//164 104//164 115//164
f 115//167 104//166 8//165
f 104//166 105//169 9//168
f 105//169 106//171 10//170
f 109//174 110//173 2//172
f 110//173 111//176 3//175
f 112//179 113//178 5//177
f 113//178 114//181 6//180
f 114//181 115//167 7//182
f 106//171 107//184 11//183
f 107//184 108//186 12//185
f 108//186 109//174 13//187
f 111//176 112//179 4//188
f 112//164 111//164 109//164
f 114//164 113//164 115//164
f 107//164 106//164 109//164
f 112//164 109//164 115//164
f 7//182 115//167 8//165
f 8//165 104//166 9//168
f 9//168 105//169 10//170
f 13//187 109//174 2//172
f 2//172 110//173 3//175
f 4//188 112//179 5//177
f 5//177 113//178 6//180
f 6//180 114//181 7//182
f 10//170 106//171 11//183
f 11//183 107//184 12//185
f 12//185 108//186 13//187
f 3//175 111//176 4//188

