# WaveFront *.obj file (generated by CINEMA 4D)

v 0.16367007791996 0.02981367334723 -0.00639648921788
v 0.13807052373886 0.02981367334723 0.00924520846456
v 0.13632991909981 0 0.00639648921788
v 0.16192947328091 0 -0.00924520846456
v 0.10910651087761 0.04126285016537 -0.09630734473467
v 0.08630659431219 0.04131080955267 -0.07609694451094
v 0.08373196423054 0.0115652019158 -0.07907563447952
v 0.10653188079596 0.01151724345982 -0.09928602725267
v 0.02472655847669 0.05594499781728 -0.16469238698483
v 0.01794337294996 0.0558312907815 -0.13191759586334
v 0.01357492990792 0.02615734003484 -0.13270199298859
v 0.02035811729729 0.02627104707062 -0.16547678411007
v -0.08533474057913 0.06792230904102 -0.13709089159966
v -0.06841691583395 0.06794361770153 -0.11056301742792
v -0.07167551666498 0.03819148987532 -0.10851077735424
v -0.08859334141016 0.03817017748952 -0.13503864407539
v -0.15769495069981 0.0807928442955 -0.05231067165732
v -0.12686178088188 0.08076696097851 -0.04251526296139
v -0.1280380487442 0.05103029683232 -0.03872509300709
v -0.15887120366096 0.05105618014932 -0.04852050170302
v -0.1501784324646 0.09283685684204 0.0593279376626
v -0.12104739993811 0.09285548329353 0.0474458001554
v -0.11961088329554 0.06310334801674 0.05101815611124
v -0.14874191582203 0.06308472156525 0.06290028989315
v -0.07975596934557 0.10565060377121 0.14576640725136
v -0.06458438932896 0.10562820732594 0.11718959361315
v -0.06106841936707 0.07589163631201 0.11903023719788
v -0.0762399956584 0.07591404020786 0.14760704338551
v 0.03139530867338 0.11775147169828 0.15838429331779
v 0.02493364736438 0.11776735633612 0.12759582698345
v 0.0287046674639 0.08801522105932 0.12682101130486
v 0.03516632691026 0.08799932897091 0.1576094776392
v 0.12910580635071 0.13050748407841 0.10461603105068
v 0.1037141084671 0.1304886341095 0.08456049114466
v 0.10615883767605 0.10075214505196 0.08143412321806
v 0.13155053555965 0.10077099502087 0.1014896556735
v 0.16144223511219 0.14266616106033 -0.00244444492273
v 0.12999565899372 0.14267927408218 -0.00161228794605
v 0.12990725040436 0.11292711645365 -0.00546054169536
v 0.16135384142399 0.11291401088238 -0.00629269890487
v 0.1260846555233 0.15536315739155 -0.10825268179178
v 0.10179606080055 0.15534792840481 -0.08687154948711
v 0.09916196018457 0.12561151385307 -0.08984023332596
v 0.12345054000616 0.12562674283981 -0.11122136563063
v 0.0265841782093 0.16758093237877 -0.15925332903862
v 0.0217602699995 0.16759119927883 -0.12816914916039
v 0.01795862242579 0.13783903419971 -0.12876977026463
v 0.02278252877295 0.13782876729965 -0.15985395014286
v -0.08388292044401 0.18021748960018 -0.14346417784691
v -0.06720762699842 0.18020597100258 -0.11573115736246
v -0.07060290873051 0.15046961605549 -0.11367587000132
v -0.08727820217609 0.15048111975193 -0.14140889048576
v -0.15188892185688 0.19249573349953 -0.05474784970284
v -0.12217577546835 0.19250313937664 -0.04442482069135
v -0.12344590574503 0.16275095939636 -0.040792029351
v -0.15315905213356 0.16274356842041 -0.05111505836248
v -0.15618799626827 0.20507089793682 0.05678999423981
v -0.12591141462326 0.20506316423416 0.04536260664463
v -0.12450248003006 0.17532683908939 0.04907305538654
v -0.15477906167507 0.17533457279205 0.06050044298172
v -0.08113165944815 0.21741059422493 0.13958834111691
v -0.0656449124217 0.21741506457329 0.11221031099558
v -0.06229777634144 0.18766286969185 0.11410892754793
v -0.07778452336788 0.18765839934349 0.14148695766926
v 0.02785411663353 0.22992339730263 0.16384303569794
v 0.02204607985914 0.22991949319839 0.13200648128986
v 0.02594988979399 0.20018319785595 0.13129022717476
v 0.03175792843103 0.20018708705902 0.16312679648399
v 0.12275122851133 0.24232546985149 0.10487861186266
v 0.09859655797482 0.24232697486877 0.08473095297813
v 0.10106246173382 0.21257476508617 0.08177702873945
v 0.12521712481976 0.21257327497005 0.10192468762398
v 0.16618111729622 0.25477495789528 0.00198468263261
v 0.13381887972355 0.25477495789528 0.00198464468122
v 0.13381887972355 0.22503866255283 -0.00198433827609
v 0.16618111729622 0.22503866255283 -0.00198430032469
v 0.12521736323833 0.26724037528038 -0.10192438960075
v 0.10106265544891 0.26723885536194 -0.08177679032087
v 0.09859676659107 0.2374866604805 -0.08473071455956
v 0.12275148183107 0.23748816549778 -0.10487832129002
v 0.03175830468535 0.27962651848793 -0.16312672197819
v 0.02595019154251 0.27963042259216 -0.13129016757011
v 0.02204638160765 0.24989412724972 -0.13200643658638
v 0.0278544947505 0.24989022314548 -0.16384297609329
v -0.07778418809175 0.29215523600578 -0.14148713648319
v -0.06229750439525 0.29215076565742 -0.11410907655954
v -0.0656446442008 0.26239857077599 -0.11221047490835
v -0.0811313316226 0.26240304112434 -0.139588534832
v -0.15477892756462 0.3044790327549 -0.06050080060959
v -0.12450236082077 0.30448678135872 -0.0490733422339
v -0.12591131031513 0.27475044131279 -0.04536289349198
v -0.15618786215782 0.27474272251129 -0.05679035186768
v -0.15315917134285 0.31707006692886 0.05111469328403
v -0.12344601005316 0.31706267595291 0.04079173505306
v -0.12217587977648 0.28731051087379 0.04442452639341
v -0.15188905596733 0.28731790184975 0.05474748834968
v -0.08727853000164 0.32933250069618 0.14140869677067
v -0.07060316205025 0.32934400439262 0.11367570608854
v -0.06720788776875 0.29960763454437 0.11573100090027
v -0.08388324826956 0.29959613084793 0.14346398413181
v 0.02278214879334 0.34198486804962 0.15985400974751
v 0.0179583132267 0.3419745862484 0.12876981496811
v 0.0217599645257 0.31222242116928 0.12816920876503
v 0.02658379822969 0.3122327029705 0.15925340354443
v 0.12345027923584 0.35418689250946 0.11122164130211
v 0.09916174411774 0.35420209169388 0.08984046429396
v 0.10179585963488 0.3244656920433 0.08687178790569
v 0.12608440220356 0.32445046305656 0.10825296491385
v 0.16135382652283 0.36689963936806 0.0062930835411
v 0.12990725040436 0.36688652634621 0.00546085322276
v 0.12999565899372 0.33713436126709 0.00161259935703
v 0.16144223511219 0.33714747428894 0.00244482979178
v 0.13155075907707 0.37904262542725 -0.1014893501997
v 0.10615902394056 0.379061460495 -0.0814338773489
v 0.1037143021822 0.34932497143745 -0.08456025272608
v 0.12910604476929 0.34930613636971 -0.10461572557688
v 0.03516670316458 0.39181432127953 -0.15760940313339
v 0.02870497107506 0.39179840683937 -0.12682095170021
v 0.02493395470083 0.36204627156258 -0.12759576737881
v 0.0313956849277 0.36206215620041 -0.15838421881199
v -0.07623965293169 0.40389958024025 -0.14760722219944
v -0.06106814369559 0.40392199158669 -0.11903037130833
v -0.06458412110806 0.37418541312218 -0.11718973517418
v -0.07975563406944 0.37416300177574 -0.14576658606529
v -0.14874176681042 0.41672891378403 -0.06290064752102
v -0.11961076408625 0.41671028733253 -0.05101844668388
v -0.1210472881794 0.38695815205574 -0.04744609072804
v -0.15017828345299 0.38697677850723 -0.05932829529047
v -0.15887130796909 0.42875742912292 0.04852012917399
v -0.12803812325001 0.42878332734108 0.03872479498386
v -0.12686188519001 0.3990466594696 0.04251497238874
v -0.15769505500793 0.39902076125145 0.05231030657887
v -0.08859366178513 0.44164347648621 0.13503843545914
v -0.0716757774353 0.44162213802338 0.10851060599089
v -0.06841718405485 0.4118700325489 0.11056285351515
v -0.08533506840467 0.41189134120941 0.1370906829834
v 0.02035772800446 0.45354256033897 0.16547681391239
v 0.01357463002205 0.45365628600121 0.13270202279091
v 0.01794307306409 0.42398232221603 0.13191764056683
v 0.0247261710465 0.42386862635612 0.16469243168831
v 0.10653564333916 0.46829652786255 0.09928387403488
v 0.0837292894721 0.46824842691422 0.0790785625577
v 0.08630247414112 0.43850266933441 0.07609969377518
v 0.10910882055759 0.43855080008507 0.09630500525236
v 0.16169857978821 0.47976610064507 0.00952034816146
v 0.13609071075916 0.47976610064507 -0.00610773544759
v 0.13782876729965 0.44995221495628 -0.00895568355918
v 0.16343665122986 0.44995221495628 0.00667240004987
v 0.16367007791996 0.02981367334723 -0.00639648921788
v 0.13807052373886 0.02981367334723 0.00924520846456
v 0.13632991909981 0 0.00639648921788
v 0.16192947328091 0 -0.00924520846456
v 0.16169857978821 0.47976610064507 0.00952034816146
v 0.13609071075916 0.47976610064507 -0.00610773544759
v 0.13782876729965 0.44995221495628 -0.00895568355918
v 0.16343665122986 0.44995221495628 0.00667240004987
# 156 vertices

vn 0.06698856502771 0.99372589588165 0.08956229686737
vn 0.09736885875463 0.99172443151474 0.08367745578289
vn -0.8526491522789 0.01069573592395 0.52237439155579
vn -0.74659645557404 0.01675166189671 0.66506624221802
vn -0.0674540027976 -0.99372017383575 -0.08927607536316
vn -0.10044214129448 -0.99172759056091 -0.07992317527533
vn 0.85265254974365 -0.01063953526318 -0.52237004041672
vn 0.74659961462021 -0.01670970208943 -0.66506373882294
vn 0.12406775355339 0.9917476773262 0.03230645135045
vn -0.20216031372547 0.00563599076122 0.97933620214462
vn -0.12544609606266 -0.99183189868927 -0.02308064699173
vn 0.20215684175491 -0.00571533385664 -0.97933650016785
vn 0.10084513574839 0.99331599473953 -0.05615641176701
vn 0.53747433423996 -0.00352132110856 0.84327274560928
vn -0.09580010920763 -0.99329394102097 0.06472666561604
vn -0.53747779130936 0.00343377725221 -0.8432708978653
vn 0.04086153209209 0.993124127388 -0.10970341414213
vn 0.95303976535797 0.00007944217214 0.30284512042999
vn -0.03282698616385 -0.99312949180603 0.11232205480337
vn -0.95303976535797 -0.00008148449706 -0.30284509062767
vn -0.04107131436467 0.99321180582047 -0.10882780700922
vn 0.9258970618248 0.0000876999693 -0.37777587771416
vn 0.04908735305071 -0.99320632219315 0.10550659149885
vn -0.92589700222015 -0.00008937198436 0.37777602672577
vn -0.10068495571613 0.99312508106232 -0.05970879644156
vn 0.46897089481354 0.00006941617903 -0.88321363925934
vn 0.10469502210617 -0.99312973022461 0.05227177590132
vn -0.46897080540657 -0.0000710130189 0.88321363925934
vn -0.11445642262697 0.99321275949478 0.02069249004126
vn -0.20548750460148 0.00007528297283 -0.97865974903107
vn 0.11263434588909 -0.99320805072784 -0.02917585149407
vn 0.20548751950264 -0.00007674910012 0.97865974903107
vn -0.07664880156517 0.99312597513199 0.08846356719732
vn -0.78470915555954 0.00005837070421 -0.61986410617828
vn 0.07004754245281 -0.9931298494339 -0.09373593330383
vn 0.78470921516418 -0.00005963158037 0.61986404657364
vn -0.00037008521031 0.99321359395981 0.11630376428366
vn -0.9996480345726 0.00006227221456 0.02652880735695
vn -0.00830250605941 -0.99320977926254 -0.11604073643684
vn 0.9996480345726 -0.00006328200107 -0.0265288837254
vn 0.07343035936356 0.99312674999237 0.09114402532578
vn -0.75063055753708 0.0000471128842 0.66072219610214
vn -0.07979530841112 -0.99312990903854 -0.08559025079012
vn 0.75063049793243 -0.00004828509918 -0.66072219610214
vn 0.11430785804987 0.99321436882019 0.02142196334898
vn -0.15329433977604 0.00004901450666 0.98818057775497
vn -0.11561240255833 -0.99321138858795 -0.01284395717084
vn 0.15329420566559 -0.00004996242933 -0.98818057775497
vn 0.10273494571447 0.99312746524811 -0.05606532096863
vn 0.51527535915375 0.00003601389835 0.85702466964722
vn -0.09840638190508 -0.9931298494339 0.06331870704889
vn -0.51527535915375 -0.00003677135828 -0.85702466964722
vn 0.04176644980907 0.99321496486664 -0.10853393375874
vn 0.94462895393372 0.00003551665941 0.32814049720764
vn -0.03356460854411 -0.99321275949478 0.11136335879564
vn -0.94462895393372 -0.00003609556006 -0.32814049720764
vn -0.03692250326276 0.9931281208992 -0.11105523258448
vn 0.93558597564697 0.00002425662024 -0.35309901833534
vn 0.04483104497194 -0.99312973022461 0.10809032618999
vn -0.93558591604233 -0.00002478784154 0.35309907793999
vn -0.09917096793652 0.99321538209915 -0.06073160469532
vn 0.49232894182205 0.0000214392694 -0.8704092502594
vn 0.10343267023563 -0.99321407079697 0.05317416042089
vn -0.49232894182205 -0.00002167360981 0.8704092502594
vn -0.11584256589413 0.993128657341 0.01661080867052
vn -0.17946057021618 0.00001209511993 -0.9837651848793
vn 0.11433621495962 -0.99312949180603 -0.02492139302194
vn 0.17946055531502 -0.00001215973225 0.9837651848793
vn -0.07768931984901 0.99321568012238 0.08652739226818
vn -0.76793324947357 0.00000713112058 -0.64052993059158
vn 0.07102453708649 -0.99321520328522 -0.09208157658577
vn 0.76793324947357 -0.00000725989639 0.64052993059158
vn -0.00422311015427 0.99312913417816 0.11694748699665
vn -1 0.00000002891243 -0.00000117459899
vn -0.00422267941758 -0.99312913417816 -0.11694743484259
vn 1 -0.00000004248871 0.00000117459911
vn 0.0710239559412 0.99321526288986 0.09208196401596
vn -0.76793473958969 -0.0000071357631 0.6405280828476
vn -0.07768908888102 -0.99321568012238 -0.08652762323618
vn 0.76793473958969 0.00000733320394 -0.6405280828476
vn 0.11433605849743 0.99312949180603 0.02492159605026
vn -0.17946287989616 -0.00001226406675 0.98376476764679
vn -0.11584255099297 -0.993128657341 -0.01661102101207
vn 0.17946289479733 0.00001241541759 -0.98376476764679
vn 0.1034327223897 0.99321407079697 -0.05317406728864
vn 0.49232685565948 -0.00002156682422 0.87041038274765
vn -0.09917121380568 -0.99321538209915 0.06073121353984
vn -0.49232691526413 0.00002176157977 -0.87041038274765
vn 0.04483101889491 0.99312973022461 -0.10809032618999
vn 0.93558514118195 -0.0000242143833 0.3531012237072
vn -0.03692275285721 -0.9931281208992 0.11105512082577
vn -0.93558514118195 0.00002473026871 -0.35310125350952
vn -0.03356442600489 0.99321275949478 -0.11136349290609
vn 0.94462966918945 -0.00003538152669 -0.32813835144043
vn 0.04176609963179 -0.99321496486664 0.10853408277035
vn -0.94462966918945 0.0000360943377 0.32813829183578
vn -0.09840621799231 0.9931298494339 -0.06331900507212
vn 0.51527732610703 -0.00003594551526 -0.85702347755432
vn 0.10273472964764 -0.99312746524811 0.05606572329998
vn -0.51527732610703 0.00003675527114 0.85702347755432
vn -0.1156125664711 0.99321132898331 0.0128432167694
vn -0.15329194068909 -0.00004915575119 -0.98818093538284
vn 0.11430797725916 -0.99321436882019 -0.02142131514847
vn 0.15329194068909 0.00004997635187 0.98818093538284
vn -0.07979595661163 0.99312990903854 0.08558974415064
vn -0.75062894821167 -0.00004725591862 -0.66072392463684
vn 0.0734306126833 -0.99312674999237 -0.09114381670952
vn 0.75062900781631 0.00004837383676 0.66072392463684
vn -0.00830331910402 0.99320977926254 0.11604061722755
vn -0.99964797496796 -0.00006224850949 -0.02653113752604
vn -0.00036960607395 -0.99321359395981 -0.1163037866354
vn 0.99964797496796 0.00006340224354 0.02653118222952
vn 0.07004708051682 0.9931298494339 0.09373630583286
vn -0.78471058607101 -0.00005827920177 0.61986231803894
vn -0.07664842903614 -0.99312597513199 -0.08846382051706
vn 0.78471064567566 0.0000596396203 -0.61986219882965
vn 0.11263418197632 0.99320805072784 0.02917661890388
vn -0.2054897248745 -0.00007518031634 0.97865927219391
vn -0.11445630341768 -0.99321275949478 -0.02069275826216
vn 0.20548985898495 0.00007654869114 -0.97865921258926
vn 0.10469509661198 0.99312973022461 -0.05227145180106
vn 0.46896880865097 -0.00006922866305 0.88321471214294
vn -0.10068500041962 -0.99312508106232 0.0597088560462
vn -0.46896880865097 0.00007076267502 -0.88321471214294
vn 0.04908748343587 0.99320632219315 -0.10550647974014
vn 0.92589610815048 -0.00008775643801 0.37777814269066
vn -0.04107143357396 -0.99321180582047 0.10882776230574
vn -0.92589610815048 0.00008911657642 -0.37777814269066
vn -0.03282687067986 0.99312943220139 -0.11232218891382
vn 0.95304048061371 -0.00007980710507 -0.30284288525581
vn 0.04086161032319 -0.993124127388 0.10970345884562
vn -0.95304054021835 0.0000812105427 0.30284282565117
vn -0.09579984098673 0.99329394102097 -0.06472709774971
vn 0.53747636079788 0.00352107803337 -0.8432714343071
vn 0.10084500908852 -0.99331599473953 0.0561567991972
vn -0.53747975826263 -0.00343391718343 0.84326964616776
vn -0.12544199824333 0.99183231592178 0.02308644540608
vn -0.20215904712677 -0.00562651082873 -0.97933655977249
vn 0.12406168878078 -0.99174815416336 -0.03231464326382
vn 0.20215553045273 0.00570544879884 0.97933679819107
vn -0.1004031971097 0.99173218011856 0.07991567999125
vn -0.74677294492722 -0.0167501848191 -0.66486811637878
vn 0.0973267108202 -0.99172896146774 -0.08367308974266
vn 0.74677604436874 0.01670774072409 0.66486567258835
vn -0.06738392263651 0.99372732639313 0.08924897015095
vn -0.85292637348175 -0.01070834882557 -0.52192139625549
vn 0.0669159591198 -0.99373310804367 -0.08953662961721
vn 0.8529297709465 0.01065176632255 0.52191704511642
vn 0.51815164089203 -0.11127994954586 0.84801864624023
vn 0 0 0
vn 0.51770436763763 0.11121389269829 -0.84830045700073
vn 0.51770448684692 0.11121375858784 -0.84830039739609
vn 0.51770430803299 0.11121403425932 -0.84830045700073
# 153 normals

o spring
usemtl default
f 5//2 6//2 2//1 1//1
f 6//4 7//4 3//3 2//3
f 7//6 8//6 4//5 3//5
f 8//8 5//8 1//7 4//7
f 9//9 10//9 6//2 5//2
f 10//10 11//10 7//4 6//4
f 11//11 12//11 8//6 7//6
f 12//12 9//12 5//8 8//8
f 13//13 14//13 10//9 9//9
f 14//14 15//14 11//10 10//10
f 15//15 16//15 12//11 11//11
f 16//16 13//16 9//12 12//12
f 17//17 18//17 14//13 13//13
f 18//18 19//18 15//14 14//14
f 19//19 20//19 16//15 15//15
f 20//20 17//20 13//16 16//16
f 21//21 22//21 18//17 17//17
f 22//22 23//22 19//18 18//18
f 23//23 24//23 20//19 19//19
f 24//24 21//24 17//20 20//20
f 25//25 26//25 22//21 21//21
f 26//26 27//26 23//22 22//22
f 27//27 28//27 24//23 23//23
f 28//28 25//28 21//24 24//24
f 29//29 30//29 26//25 25//25
f 30//30 31//30 27//26 26//26
f 31//31 32//31 28//27 27//27
f 32//32 29//32 25//28 28//28
f 33//33 34//33 30//29 29//29
f 34//34 35//34 31//30 30//30
f 35//35 36//35 32//31 31//31
f 36//36 33//36 29//32 32//32
f 37//37 38//37 34//33 33//33
f 38//38 39//38 35//34 34//34
f 39//39 40//39 36//35 35//35
f 40//40 37//40 33//36 36//36
f 41//41 42//41 38//37 37//37
f 42//42 43//42 39//38 38//38
f 43//43 44//43 40//39 39//39
f 44//44 41//44 37//40 40//40
f 45//45 46//45 42//41 41//41
f 46//46 47//46 43//42 42//42
f 47//47 48//47 44//43 43//43
f 48//48 45//48 41//44 44//44
f 49//49 50//49 46//45 45//45
f 50//50 51//50 47//46 46//46
f 51//51 52//51 48//47 47//47
f 52//52 49//52 45//48 48//48
f 53//53 54//53 50//49 49//49
f 54//54 55//54 51//50 50//50
f 55//55 56//55 52//51 51//51
f 56//56 53//56 49//52 52//52
f 57//57 58//57 54//53 53//53
f 58//58 59//58 55//54 54//54
f 59//59 60//59 56//55 55//55
f 60//60 57//60 53//56 56//56
f 61//61 62//61 58//57 57//57
f 62//62 63//62 59//58 58//58
f 63//63 64//63 60//59 59//59
f 64//64 61//64 57//60 60//60
f 65//65 66//65 62//61 61//61
f 66//66 67//66 63//62 62//62
f 67//67 68//67 64//63 63//63
f 68//68 65//68 61//64 64//64
f 69//69 70//69 66//65 65//65
f 70//70 71//70 67//66 66//66
f 71//71 72//71 68//67 67//67
f 72//72 69//72 65//68 68//68
f 73//73 74//73 70//69 69//69
f 74//74 75//74 71//70 70//70
f 75//75 76//75 72//71 71//71
f 76//76 73//76 69//72 72//72
f 77//77 78//77 74//73 73//73
f 78//78 79//78 75//74 74//74
f 79//79 80//79 76//75 75//75
f 80//80 77//80 73//76 76//76
f 81//81 82//81 78//77 77//77
f 82//82 83//82 79//78 78//78
f 83//83 84//83 80//79 79//79
f 84//84 81//84 77//80 80//80
f 85//85 86//85 82//81 81//81
f 86//86 87//86 83//82 82//82
f 87//87 88//87 84//83 83//83
f 88//88 85//88 81//84 84//84
f 89//89 90//89 86//85 85//85
f 90//90 91//90 87//86 86//86
f 91//91 92//91 88//87 87//87
f 92//92 89//92 85//88 88//88
f 93//93 94//93 90//89 89//89
f 94//94 95//94 91//90 90//90
f 95//95 96//95 92//91 91//91
f 96//96 93//96 89//92 92//92
f 97//97 98//97 94//93 93//93
f 98//98 99//98 95//94 94//94
f 99//99 100//99 96//95 95//95
f 100//100 97//100 93//96 96//96
f 101//101 102//101 98//97 97//97
f 102//102 103//102 99//98 98//98
f 103//103 104//103 100//99 99//99
f 104//104 101//104 97//100 100//100
f 105//105 106//105 102//101 101//101
f 106//106 107//106 103//102 102//102
f 107//107 108//107 104//103 103//103
f 108//108 105//108 101//104 104//104
f 109//109 110//109 106//105 105//105
f 110//110 111//110 107//106 106//106
f 111//111 112//111 108//107 107//107
f 112//112 109//112 105//108 108//108
f 113//113 114//113 110//109 109//109
f 114//114 115//114 111//110 110//110
f 115//115 116//115 112//111 111//111
f 116//116 113//116 109//112 112//112
f 117//117 118//117 114//113 113//113
f 118//118 119//118 115//114 114//114
f 119//119 120//119 116//115 115//115
f 120//120 117//120 113//116 116//116
f 121//121 122//121 118//117 117//117
f 122//122 123//122 119//118 118//118
f 123//123 124//123 120//119 119//119
f 124//124 121//124 117//120 120//120
f 125//125 126//125 122//121 121//121
f 126//126 127//126 123//122 122//122
f 127//127 128//127 124//123 123//123
f 128//128 125//128 121//124 124//124
f 129//129 130//129 126//125 125//125
f 130//130 131//130 127//126 126//126
f 131//131 132//131 128//127 127//127
f 132//132 129//132 125//128 128//128
f 133//133 134//133 130//129 129//129
f 134//134 135//134 131//130 130//130
f 135//135 136//135 132//131 131//131
f 136//136 133//136 129//132 132//132
f 137//137 138//137 134//133 133//133
f 138//138 139//138 135//134 134//134
f 139//139 140//139 136//135 135//135
f 140//140 137//140 133//136 136//136
f 141//141 142//141 138//137 137//137
f 142//142 143//142 139//138 138//138
f 143//143 144//143 140//139 139//139
f 144//144 141//144 137//140 140//140
f 145//145 146//145 142//141 141//141
f 146//146 147//146 143//142 142//142
f 147//147 148//147 144//143 143//143
f 148//148 145//148 141//144 144//144
f 150//149 151//149 152//149
f 149//149 150//149 152//149
f 155//151 154//152 153//151
f 156//153 155//151 153//151

