# WaveFront *.obj file (generated by CINEMA 4D)

v -0.07379593700171 0.07407147437334 -0.04897063598037
v -0.07379593700171 0.05624988302588 0.05210060626268
v -0.07931008934975 0.05020432919264 0.0863866508007
v -0.09591730684042 0.0445445291698 0.11848498880863
v -0.12178365886211 0.04005288332701 0.1439583748579
v -0.15887801349163 0.03127963468432 0.14373654127121
v -0.13034480810165 0.03380420058966 0.12941899895668
v -0.10770071297884 0.03773630782962 0.10711892694235
v -0.0931623056531 0.0426910482347 0.0790191963315
v -0.08821740746498 0.04811249300838 0.04827265068889
v -0.08821740746498 0.06511558592319 -0.04815668612719
v -0.0931623056531 0.07053703069687 -0.07890322804451
v -0.10770071297884 0.07549177110195 -0.10700296610594
v -0.13034480810165 0.0794238820672 -0.12930303812027
v -0.15887801349163 0.08194844424725 -0.14362056553364
v -0.19050733745098 0.082818351686 -0.14855405688286
v -0.22213666141033 0.08194844424725 -0.14362056553364
v -0.25066986680031 0.0794238820672 -0.12930303812027
v -0.2733139693737 0.07549177110195 -0.10700296610594
v -0.28785237669945 0.07053703069687 -0.07890322804451
v -0.29279726743698 0.06511558592319 -0.04815668612719
v 0.20949266850948 0.02500000037253 0.05000000074506
v -0.29279726743698 0.04811249300838 0.04827265068889
v -0.28785237669945 0.0426910482347 0.0790191963315
v -0.2733139693737 0.03773630782962 0.10711892694235
v -0.25066986680031 0.03380420058966 0.12941899895668
v -0.22213666141033 0.03127963468432 0.14373654127121
v -0.19050733745098 0.03040972724557 0.14867001771927
v 0.28155359625816 0.02558252587914 -0.00437941681594
v 0.2714384496212 0.02527900412679 -0.01365932635963
v 0.25883734226227 0.02488279156387 -0.02180525287986
v 0.23616679012775 0.02471971698105 -0.02432319149375
v 0.21036247909069 0.02466348186135 -0.02264437265694
v 0.18395775556564 0.02471971698105 -0.01693233661354
v 0.15954533219337 0.02488279156387 -0.00774920219555
v 0.13951708376408 0.02513613179326 0.00400172220543
v 0.13063398003578 0.02558252587914 0.01616553403437
v 0.12092550843954 0.02611626684666 0.03557442501187
v 0.12722238898277 0.02662055194378 0.0561588332057
v 0.13122102618217 0.02834631688893 0.05842423439026
v 0.14205138385296 0.02788553759456 0.05240992084146
v 0.17423649132252 0.03050068579614 0.04116298258305
v 0.20881842076778 0.03156748041511 0.03772117942572
v 0.24357049167156 0.03050068579614 0.03794415295124
v 0.27385941147804 0.02788553759456 0.04629073664546
v 0.28796273469925 0.02834631688893 0.05114750191569
v 0.29173427820206 0.02662055194378 0.04852136969566
v 0.29333460330963 0.02611626684666 0.02757033333182
v 0.31570705771446 -0 -0.01312065497041
v 0.29269471764565 0.0443116016686 0.05073575675488
v 0.30003798007965 -0 -0.03433576971292
v 0.32035797834396 -0 0.01233048085123
v 0.27499169111252 -0 -0.0501222871244
v 0.32050734758377 -0 0.04491227120161
v 0.2431423664093 -0 -0.05870338901877
v 0.30100640654564 -0 0.0788701698184
v 0.20760025084019 -0 -0.05923500284553
v 0.27607002854347 -0 0.07793540507555
v 0.17184381186962 -0 -0.05166297405958
v 0.24527297914028 -0 0.07647303491831
v 0.13937258720398 -0 -0.03673050552607
v 0.20861482620239 -0 0.07394279539585
v 0.11335790902376 -0 -0.01590194553137
v 0.17234879732132 -0 0.07985854148865
v 0.09645037353039 -0 0.00851753726602
v 0.13901989161968 -0 0.08429795503616
v 0.24444736540318 0.03678032010794 0.04114232957363
v 0.11179033666849 -0 0.09007711708546
v 0.09011889994144 -0 0.03630344942212
v 0.09009574353695 -0 0.05689454823732
v 0.17547719180584 0.03716906905174 0.06601886451244
v 0.20794586837292 0.03617537394166 0.05953317135572
v 0.24087579548359 0.03716906905174 0.06298273056746
v 0.26846435666084 0.04005288332701 0.06675972044468
v 0.28981652855873 0.04102410003543 0.07135404646397
v 0.30715349316597 0.04664308577776 0.04169656336308
v 0.30707159638405 0.05328166112304 0.01268657669425
v 0.28881296515465 0.04108262062073 0.05819962918758
v 0.30294016003609 0.07756447046995 -0.0068883150816
v 0.28907850384712 0.0833500251174 -0.02527971938252
v 0.26690819859505 0.08780457079411 -0.03896767646074
v 0.2387218028307 0.09065382182598 -0.04638078808784
v 0.20727108418941 0.09163384884596 -0.04678931459785
v 0.17563399672508 0.09065382182598 -0.04015114530921
v 0.14690683782101 0.08780457079411 -0.02711807563901
v 0.12389446794987 0.0833500251174 -0.00896853022277
v 0.10901609063148 0.07776475697756 0.01227325387299
v 0.20897027850151 0.03697720915079 0.04099219292402
v 0.1032454892993 0.05328166112304 0.03482309728861
v 0.10313219577074 0.04664308577776 0.05230643972754
v 0.12244679033756 0.04102410003543 0.08126706629992
v 0.14555741846561 0.04005288332701 0.07246567308903
v 0.17365969717503 0.03678032010794 0.04442864656448
v 0.14081363379955 0.03668973967433 0.05559256672859
v 0.12826550006866 0.04108262062073 0.06565304100513
v 0.12370889633894 0.0443116016686 0.0585809238255
v 0.11855793744326 0.04922876134515 0.03395512700081
v 0.27538669109344 0.03668973967433 0.0493450127542
v 0.12845721840858 0.07111956179142 0.01739307679236
v 0.13752764463425 0.07562790811062 0.00511167943478
v 0.15807802975178 0.07930666953325 -0.00679568666965
v 0.18314062058926 0.08166816085577 -0.01612384617329
v 0.21025989949703 0.08248183131218 -0.02195529639721
v 0.23677322268486 0.08166816085577 -0.02371622622013
v 0.26007780432701 0.07930666953325 -0.02123505808413
v 0.27317595481873 0.07577078044415 -0.01307696569711
v 0.28348913788795 0.07111956179142 -0.00371168809943
v 0.2955419421196 0.04922876134515 0.02573864534497
v -0.19050733745098 0.02500000037253 -0.05000000074506
v -0.29050734639168 0.02500000037253 -0.05000000074506
v -0.28561300039291 0.02500000037253 -0.08090169727802
v -0.271409034729 0.02500000037253 -0.10877852886915
v -0.24928586184978 0.02500000037253 -0.13090169429779
v -0.22140903770924 0.02500000037253 -0.14510564506054
v -0.19050733745098 0.02500000037253 -0.15000000596046
v -0.15960563719273 0.02500000037253 -0.14510564506054
v -0.13172881305218 0.02500000037253 -0.13090169429779
v -0.10960564017296 0.02500000037253 -0.10877852886915
v -0.09540168195963 0.02500000037253 -0.08090169727802
v -0.09050733596087 0.02500000037253 -0.05000000074506
v -0.19050733745098 0.02500000037253 0.05000000074506
v -0.09050733596087 0.02500000037253 0.05000000074506
v -0.09540168195963 0.02500000037253 0.08090169727802
v -0.10960564017296 0.02500000037253 0.10877852886915
v -0.13172881305218 0.02500000037253 0.13090169429779
v -0.15960563719273 0.02500000037253 0.14510564506054
v -0.19050733745098 0.02500000037253 0.15000000596046
v -0.22140903770924 0.02500000037253 0.14510564506054
v -0.24928586184978 0.02500000037253 0.13090169429779
v -0.271409034729 0.02500000037253 0.10877852886915
v -0.28561300039291 0.02500000037253 0.08090169727802
v -0.29050734639168 0.02500000037253 0.05000000074506
v -0.31450033187866 -0 -0.09028776735067
v -0.32050734758377 -0 -0.05236105248332
v -0.29598209261894 -0 -0.12663188576698
v -0.32050734758377 -0 0.05236105248332
v -0.2671392261982 -0 -0.15547473728657
v -0.31450033187866 -0 0.09028776735067
v -0.23079510033131 -0 -0.17399299144745
v -0.29598209261894 -0 0.12663188576698
v -0.19050733745098 -0 -0.18037395179272
v -0.2671392261982 -0 0.15547473728657
v -0.15021957457066 -0 -0.17399299144745
v -0.23079510033131 -0 0.17399299144745
v -0.11387544870377 -0 -0.15547473728657
v -0.19050733745098 -0 0.18037395179272
v -0.0850325897336 -0 -0.12663188576698
v -0.15021957457066 -0 0.17399299144745
v -0.06651433557272 -0 -0.09028776735067
v -0.11387544870377 -0 0.15547473728657
v -0.06050733849406 -0 -0.05236105248332
v -0.0850325897336 -0 0.12663188576698
v -0.06050733849406 -0 0.05236105248332
v -0.06651433557272 -0 0.09028776735067
v -0.15437716245651 0.03716906905174 0.16031329333782
v -0.19050733745098 0.03617537394166 0.16594880819321
v -0.22663751244545 0.03716906905174 0.16031329333782
v -0.25923103094101 0.04005288332701 0.1439583748579
v -0.28509736061096 0.0445445291698 0.11848498880863
v -0.30170458555222 0.05020432919264 0.0863866508007
v -0.30721873044968 0.05624988302588 0.05210060626268
v -0.30721873044968 0.07407147437334 -0.04897063598037
v -0.30170458555222 0.0801170244813 -0.08325668424368
v -0.28509736061096 0.08577682822943 -0.11535501480103
v -0.25923103094101 0.09026847034693 -0.1408284008503
v -0.22663751244545 0.09315228462219 -0.15718331933022
v -0.19050733745098 0.09414598345757 -0.1628188341856
v -0.15437716245651 0.09315228462219 -0.15718331933022
v -0.12178365886211 0.09026847034693 -0.1408284008503
v -0.09591730684042 0.08577682822943 -0.11535501480103
v -0.07931008934975 0.0801170244813 -0.08325668424368
# 171 vertices

vn 0 1 0
vn 0 0 0
vn 0.03212716430426 0.99362045526505 0.10810270905495
vn 0.01054739486426 0.99414843320847 0.10750643908978
vn 0.05690324306488 0.99541503190994 0.07688284665346
vn 0.01607825420797 0.993348300457 0.11402033269405
vn -0.00824489444494 0.9948588013649 0.10093581676483
vn -0.01411199662834 0.99583929777145 0.09002723544836
vn -0.04445959255099 0.99674141407013 0.06730412691832
vn -0.03346256166697 0.99601137638092 0.08271380513906
vn -0.06007046252489 0.99627542495728 0.06186100840569
vn -0.07939346134663 0.99658888578415 0.02252370305359
vn -0.0940083488822 0.98397248983383 0.15152755379677
vn -0.096784979105 0.96933913230896 0.22586341202259
vn 0.11566361784935 0.9846927523613 0.13039211928844
vn 0.08050417900085 0.99651426076889 0.02187344431877
vn 0.06967931985855 0.99480724334717 0.07418466359377
vn 0.05528952926397 0.99423485994339 0.09187005460262
vn 0.17428335547447 0.90701764822006 0.38333320617676
vn 0.13219454884529 0.97185981273651 0.19496954977512
vn 0.03943810239434 0.99396961927414 0.1023185774684
vn -0.11640597134829 0.89849483966827 0.42326909303665
# 22 normals

o wink
usemtl Mat.1
f 112//1 111//1 110//1
f 114//1 113//1 112//1
f 116//1 115//1 114//1
f 118//1 117//1 116//1
f 120//1 119//1 118//1
f 124//1 123//1 122//1
f 126//1 125//1 124//1
f 128//1 127//1 126//1
f 130//1 129//1 128//1
f 132//1 131//1 130//1
f 120//1 109//1 121//1
f 132//1 121//1 109//1
f 42//5 43//4 34//3
f 33//6 34//3 43//4
f 44//9 31//8 32//7
f 30//10 31//8 44//9
f 48//12 29//11 44//9
f 47//14 48//12 45//13
f 38//16 41//15 42//5
f 36//18 37//17 42//5
f 39//20 40//19 41//15
f 35//21 42//5 34//3
f 32//7 33//6 43//4
f 43//4 44//9 32//7
f 29//11 30//10 44//9
f 45//13 48//12 44//9
f 46//22 47//14 45//13
f 37//17 38//16 42//5
f 35//21 36//18 42//5
f 38//16 39//20 41//15
f 109//1 112//1 110//1
f 109//1 114//1 112//1
f 109//1 116//1 114//1
f 109//1 118//1 116//1
f 109//1 120//1 118//1
f 121//1 124//1 122//1
f 121//1 126//1 124//1
f 121//1 128//1 126//1
f 121//1 130//1 128//1
f 121//1 132//1 130//1
f 122//1 120//1 121//1
f 110//1 132//1 109//1

