<svg xmlns="http://www.w3.org/2000/svg" viewBox="0 0 107.64 97"><defs><style>.cls-1{fill:#fff;}</style></defs><title>Asset 2</title><g id="Layer_2" data-name="Layer 2"><g id="Layer_1-2" data-name="Layer 1"><path d="M33.85,95a11.7,11.7,0,0,1-10.29-5.82l-20-34.47a12,12,0,0,1,0-11.92l20-34.68A12,12,0,0,1,33.85,2H73.8A12,12,0,0,1,84.09,8.09l20,34.75a11.88,11.88,0,0,1,0,11.84l-20,34.53A11.69,11.69,0,0,1,73.8,95Zm20-65.59a19.4,19.4,0,1,0,19.4,19.4A19.42,19.42,0,0,0,53.82,29.41Z"/><path class="cls-1" d="M73.8,4a10,10,0,0,1,8.56,5.09l20,34.74a9.81,9.81,0,0,1,0,9.84l-20,34.52A9.75,9.75,0,0,1,73.8,93H33.85a9.77,9.77,0,0,1-8.55-4.82L5.32,53.7a10,10,0,0,1,0-9.92l20-34.68A10,10,0,0,1,33.85,4H73.8m-20,66.2a21.4,21.4,0,1,0-21.4-21.4,21.4,21.4,0,0,0,21.4,21.4M73.8,0H33.85a14,14,0,0,0-12,7.11l-20,34.68a14,14,0,0,0,0,13.92l20,34.48a13.68,13.68,0,0,0,12,6.81H73.8a13.67,13.67,0,0,0,12-6.8l20-34.52a13.88,13.88,0,0,0,0-13.85l-20-34.74A14,14,0,0,0,73.8,0Zm-20,66.2a17.4,17.4,0,1,1,17.4-17.4,17.42,17.42,0,0,1-17.4,17.4Z"/></g></g></svg>