<svg xmlns="http://www.w3.org/2000/svg" viewBox="0 0 108.05 120.83"><defs><style>.cls-1{fill:none;stroke:#000;stroke-linecap:round;stroke-linejoin:round;stroke-width:16px;}</style></defs><title>Asset 4</title><g id="Layer_2" data-name="Layer 2"><g id="Layer_1-2" data-name="Layer 1"><path d="M9.63,82l16.39,3a2.43,2.43,0,0,1,1.1,4.27L11.19,102.45a2.43,2.43,0,0,1-4-1.81L6.76,84.49A2.43,2.43,0,0,1,9.63,82Z"/><path class="cls-1" d="M8,66.81a46,46,0,1,1,7.61,25.36"/><rect x="47.23" y="5" width="13" height="19"/><rect x="41.23" width="26" height="10" rx="3.91" ry="3.91"/><circle cx="54.02" cy="66.81" r="7.94"/><path d="M75.14,46.25,53.67,60a1.23,1.23,0,0,0-.25,1.85l5.49,6.12a1.23,1.23,0,0,0,1.87,0L76.76,48A1.23,1.23,0,0,0,75.14,46.25Z"/></g></g></svg>