# OBJ written from C:\Users\Brad\Desktop\helperbot-exports\eye-base (4).obj
# Units	meters

g eye-base
v 0 0 -0.2
v -0.1 0 -0.173205
v -0.173205 0 -0.1
v -0.2 0 0
v -0.173205 0 0.1
v -0.1 0 0.173205
v 0 0 0.2
v 0.1 0 0.173205
v 0.173205 0 0.1
v 0.2 0 0
v 0.173205 0 -0.1
v 0.1 0 -0.173205
v 9.53674e-009 0.155 -0.183
v -0.0915 0.155 -0.158483
v -0.158483 0.155 -0.0915
v -0.183 0.155 0
v -0.158483 0.155 0.0915
v -0.0915 0.155 0.158483
v 9.53674e-009 0.155 0.183
v 0.0915001 0.155 0.158483
v 0.158483 0.155 0.0915
v 0.183 0.155 0
v 0.158483 0.155 -0.0915
v 0.0915001 0.155 -0.158483
v 9.53674e-009 0.155 -0.13412
v -0.0670602 0.155 -0.116152
v -0.116152 0.155 -0.0670602
v -0.13412 0.155 0
v -0.116152 0.155 0.0670602
v -0.0670602 0.155 0.116152
v 9.53674e-009 0.155 0.13412
v 0.0670602 0.155 0.116152
v 0.116152 0.155 0.0670602
v 0.13412 0.155 0
v 0.116152 0.155 -0.0670602
v 0.0670602 0.155 -0.116152
v 0 0.07 -0.14658
v -0.0732899 0.07 -0.126942
v -0.126942 0.07 -0.0732899
v -0.14658 0.07 0
v -0.126942 0.07 0.0732899
v -0.0732899 0.07 0.126942
v 0 0.07 0.14658
v 0.0732899 0.07 0.126942
v 0.126942 0.07 0.0732899
v 0.14658 0.07 0
v 0.126942 0.07 -0.0732899
v 0.0732899 0.07 -0.126942
v 9.53674e-009 0.08715 -0.2
v -0.1 0.08715 -0.173205
v -0.173205 0.08715 -0.1
v -0.2 0.08715 0
v -0.173205 0.08715 0.1
v -0.1 0.08715 0.173205
v 9.53674e-009 0.08715 0.2
v 0.1 0.08715 0.173205
v 0.173205 0.08715 0.1
v 0.2 0.08715 0
v 0.173205 0.08715 -0.1
v 0.1 0.08715 -0.173205
v -0.00776457 8.4967e-010 -0.228978
v -0.107765 -1.32761e-009 -0.202183
v -0.228978 -9.90941e-009 0.00776457
v -0.202183 -1.48641e-008 0.107765
v 0.00776459 -8.4967e-010 0.228978
v 0.107765 -2.65522e-009 0.202183
v 0.228978 -1.98188e-008 -0.00776457
v 0.202183 -2.47735e-008 -0.107765
v -0.00776457 0.04915 -0.228978
v -0.107765 0.04915 -0.202183
v -0.228978 0.04915 0.00776457
v -0.202183 0.04915 0.107765
v 0.00776459 0.04915 0.228978
v 0.107765 0.04915 0.202183
v 0.228978 0.04915 -0.00776457
v 0.202183 0.04915 -0.107765
vn 0 1 0
vn -0.809528 -0.144467 0.569028
vn -0.985586 -0.144467 0.0880292
vn -0.897557 -0.144467 0.416558
vn -0.985586 -0.144467 -0.0880289
vn -0.85039 0.183403 0.493153
vn -0.707107 -2.41806e-007 0.707107
vn -0.570759 0.122084 0.811991
vn -0.420974 -4.70333e-008 0.907073
vn 0.778196 0.18181 -0.601129
vn 0.707107 -4.23161e-007 -0.707107
vn 0.497322 0.122562 -0.858865
vn 0.420974 -1.23272e-007 -0.907073
vn 0.258819 0 0.965926
vn 0.258819 6.63805e-008 0.965926
vn 0.258819 1.32761e-007 0.965926
vn -0.897557 -0.144467 -0.416558
vn -0.809528 -0.144467 -0.569029
vn -0.851312 0.279954 0.443727
vn -0.793766 0.242133 0.557949
vn -0.408447 0.242133 0.880081
vn 0.557949 0.242133 -0.793766
vn 0.797178 0.279605 -0.535096
vn 0.880081 0.242132 -0.408447
vn 1.19647e-007 -1 -3.20593e-008
vn 3.92629e-007 -1 -1.29978e-007
vn 1.57052e-007 -1 -5.19913e-008
vn 3.06672e-007 -1 -1.31719e-007
vn -0.569028 -0.144467 -0.809528
vn -0.416558 -0.144467 -0.897557
vn 0.244504 0.327961 0.912502
vn 0.258819 0 0.965926
vn 0.244504 0.327961 0.912502
vn 0.258819 0 0.965926
vn -0.244504 0.327961 -0.912502
vn -0.258819 0 -0.965926
vn -0.965926 0 0.258819
vn -0.965926 5.28502e-008 0.258819
vn -0.965926 1.057e-007 0.258819
vn -0.0880291 -0.144467 -0.985586
vn 0.416558 -0.144467 -0.897557
vn 0.088029 -0.144467 -0.985586
vn 0.569028 -0.144467 -0.809528
vn -0.829278 0.1468 -0.53921
vn -0.866025 -3.38897e-007 -0.5
vn -0.976678 0.145149 -0.158215
vn -0.965926 -3.30314e-007 -0.258819
vn 0.81811 -5.74743e-007 0.575061
vn 0.965926 -7.43206e-007 0.258819
vn 0.860126 0.122562 0.495138
vn 0.9793 0.195165 0.0536856
vn 0.965926 0 -0.25882
vn 0.965926 -1.65157e-007 -0.25882
vn 0.965926 -3.30314e-007 -0.25882
vn 0.809528 -0.144468 -0.569028
vn 0.897557 -0.144468 -0.416558
vn -0.953572 0.296054 -0.0552408
vn -0.880081 0.242133 -0.408447
vn -0.966396 0.242133 0.086315
vn 0.943762 0.329872 -0.0223123
vn 0.880081 0.242132 0.408447
vn 0.970016 0.24304 0
vn -3.97533e-008 -1 -8.09775e-008
vn -2.35419e-008 -1 -5.41674e-008
vn -1.17709e-008 -1 -2.70837e-008
vn -3.66518e-009 -1 -1.36786e-008
vn 0.362953 0.345188 0.865512
vn 0.0325621 0.409312 0.911813
vn 0.897557 -0.144468 0.416558
vn 0.569028 -0.144467 0.809528
vn 0.809528 -0.144468 0.569029
vn 0.416558 -0.144467 0.897557
vn 0.912502 0.32796 -0.244504
vn 0.965926 -4.67574e-006 -0.258819
vn 0.912502 0.32796 -0.244504
vn 0.965926 -4.68555e-006 -0.258819
vn -0.912502 0.327961 0.244504
vn -0.965926 9.8085e-009 0.258819
vn -0.912502 0.327961 0.244504
vn -0.965926 0 0.258819
vn -0.25882 1.25549e-006 -0.965926
vn -0.258819 7.38379e-007 -0.965926
vn -0.258818 2.21267e-007 -0.965926
vn -0.965926 0 0.25882
vn -0.965926 -8.25784e-008 0.25882
vn -0.965926 -1.65157e-007 0.258819
vn 0.985586 -0.144467 -0.0880291
vn 0.985586 -0.144468 0.0880289
vn -0.541739 0.146776 -0.827633
vn -0.707107 -1.20903e-007 -0.707107
vn 0.541739 0.146775 0.827633
vn 0.707107 -2.41806e-007 0.707107
vn 0.25882 -1.3287e-006 0.965926
vn 0.258819 -7.52859e-007 0.965926
vn 0.258818 -1.77014e-007 0.965926
vn 0.965926 0 -0.258819
vn 0.965926 -5.28502e-008 -0.258819
vn 0.965926 -1.057e-007 -0.258819
vn 0.088029 -0.144467 0.985586
vn -0.088029 -0.144467 0.985586
vn 0.0199037 0.305605 -0.95195
vn -0.495711 0.233987 -0.836373
vn 0 0.24304 -0.970016
vn -0.557949 0.242133 -0.793766
vn -0.0552407 0.296055 0.953572
vn 0.495711 0.233987 0.836373
vn 0.086315 0.242133 0.966396
vn 0.557949 0.242133 0.793766
vn -7.85261e-007 -1 2.59957e-007
vn -7.1169e-007 -1 2.1547e-007
vn -2.84676e-007 -1 8.61881e-008
vn -1.5953e-007 -1 4.27458e-008
vn 3.1768e-008 -1 3.73025e-008
vn 1.22188e-008 -1 4.97262e-009
vn 6.1094e-009 -1 2.48631e-009
vn -3.66518e-009 -1 -1.36786e-008
vn 0.805597 0.347607 -0.479774
vn 0.921753 0.381214 -0.0710404
vn -0.362953 0.345188 -0.865512
vn -0.106304 0.447352 -0.888018
vn -0.416558 -0.144467 0.897557
vn -0.569028 -0.144467 0.809528
vn -0.158215 0.145149 0.976678
vn -0.258819 2.83223e-008 0.965926
vn 0.133647 0.121463 -0.983557
vn 0.258819 -2.83223e-008 -0.965926
vn -0.258819 -7.32117e-008 -0.965926
vn -0.258819 -8.08595e-008 -0.965926
vn -0.258819 -8.85073e-008 -0.965926
vn 0 -1 0
vn -0.865512 0.345188 0.362953
vn -0.911814 0.409311 0.032562
vt 0.426777 0.573223
vt 0.381168 0.618832
vt 0.314705 0.508519
vt 0.298011 0.570821
vt 0.333333 0.265
vt 0.333333 0
vt 0.416667 0.265
vt 0.416667 0
vt 0.833333 0.265
vt 0.833333 0
vt 0.916667 0.265
vt 0.916667 0
vt 0.185295 0.508519
vt 0.201989 0.570821
vt 0.333333 0.5
vt 0.416667 0.5
vt 0.916667 0.5
vt 0.833333 0.5
vt 0.25 0
vt 0.0732233 0.573223
vt 0.118832 0.618832
vt 0.5 0.265
vt 0.5 0
vt 0.583333 0.265
vt 0.583333 0
vt 0 0.265
vt 0 0
vt 0.0833333 0.265
vt 0.0833333 0
vt 0.00851854 0.814705
vt 0.00851855 0.685295
vt 0.0708208 0.798011
vt 0.0708208 0.701989
vt 0.166667 0.265
vt 0.166667 0
vt 0.25 0.265
vt 0.666667 0
vt 0.75 0
vt 0.666667 0.265
vt 0.75 0.265
vt 0.0732233 0.926777
vt 0.118832 0.881168
vt 0.166667 0.5
vt 0.25 0.5
vt 0.666667 0.5
vt 0.75 0.5
vt 0.314705 0.991481
vt 0.298011 0.929179
vt 0.426777 0.926777
vt 0.381168 0.881168
vt 0.185295 0.991481
vt 0.201989 0.929179
vt 0.491481 0.814705
vt 0.429179 0.798011
vt 0 0.5
vt 0.0833333 0.5
vt 0.5 0.5
vt 0.583333 0.5
vt 0.429179 0.701989
vt 0.491481 0.685295
vt 1 0.265
vt 1 0
vt 0.991481 0.685295
vt 0.991481 0.814705
vt 0.926777 0.573223
vt 0.814705 0.508519
vt 0.926777 0.926777
vt 0.685295 0.508519
vt 0.814705 0.991481
vt 0.573223 0.573223
vt 0.685295 0.991481
vt 0.508519 0.685295
vt 0.573223 0.926777
vt 0.508519 0.814705
vt 1 0.5
usemtl Default
f 23/1/1 35/2/1 22/3/1
f 34/4/1 22/3/1 35/2/1
f 47/2/2 46/4/3 35/2/4
f 34/4/5 35/2/4 46/4/3
f 53/5/6 5/6/7 54/7/8
f 6/8/9 54/7/8 5/6/7
f 59/9/10 11/10/11 60/11/12
f 12/12/13 60/11/12 11/10/11
f 64/6/14 5/6/15 72/5/15
f 53/5/16 72/5/15 5/6/15
f 21/13/1 22/3/1 33/14/1
f 34/4/1 33/14/1 22/3/1
f 46/4/3 45/14/17 34/4/5
f 33/14/18 34/4/5 45/14/17
f 53/5/19 54/7/8 17/15/20
f 18/16/21 17/15/20 54/7/8
f 60/11/12 24/17/22 59/9/23
f 23/18/24 59/9/23 24/17/22
f 5/6/25 64/6/26 4/19/27
f 63/19/28 4/19/27 64/6/26
f 21/13/1 33/14/1 20/20/1
f 32/21/1 20/20/1 33/14/1
f 45/14/17 44/21/29 33/14/18
f 32/21/30 33/14/18 44/21/29
f 73/22/31 65/23/32 74/24/33
f 66/25/34 74/24/33 65/23/32
f 69/26/35 61/27/36 70/28/35
f 62/29/36 70/28/35 61/27/36
f 65/23/37 73/22/38 7/23/38
f 55/22/39 7/23/38 73/22/38
f 18/30/1 19/31/1 30/32/1
f 31/33/1 30/32/1 19/31/1
f 43/33/40 42/32/41 31/33/42
f 30/32/43 31/33/42 42/32/41
f 51/34/44 3/35/45 52/36/46
f 4/19/47 52/36/46 3/35/45
f 9/37/48 10/38/49 57/39/50
f 58/40/51 57/39/50 10/38/49
f 66/25/52 8/25/53 74/24/53
f 56/24/54 74/24/53 8/25/53
f 17/41/1 18/30/1 29/42/1
f 30/32/1 29/42/1 18/30/1
f 42/32/41 41/42/55 30/32/43
f 29/42/56 30/32/43 41/42/55
f 51/34/44 52/36/57 15/43/58
f 16/44/59 15/43/58 52/36/57
f 57/39/50 58/40/60 21/45/61
f 22/46/62 21/45/61 58/40/60
f 66/25/63 65/23/64 8/25/65
f 7/23/66 8/25/65 65/23/64
f 19/31/1 20/20/1 31/33/1
f 32/21/1 31/33/1 20/20/1
f 44/21/29 43/33/40 32/21/30
f 31/33/42 32/21/30 43/33/40
f 52/36/57 53/5/19 16/44/59
f 17/15/20 16/44/59 53/5/19
f 59/9/23 23/18/24 58/40/60
f 22/46/62 58/40/60 23/18/24
f 56/24/67 55/22/68 74/24/33
f 73/22/31 74/24/33 55/22/68
f 15/47/1 27/48/1 14/49/1
f 26/50/1 14/49/1 27/48/1
f 39/48/69 38/50/70 27/48/71
f 26/50/72 27/48/71 38/50/70
f 75/40/73 67/38/74 76/9/75
f 68/10/76 76/9/75 67/38/74
f 71/36/77 63/19/78 72/5/79
f 64/6/80 72/5/79 63/19/78
f 68/10/81 11/10/82 76/9/82
f 59/9/83 76/9/82 11/10/82
f 62/29/84 2/29/85 70/28/85
f 50/28/86 70/28/85 2/29/85
f 16/51/1 17/41/1 28/52/1
f 29/42/1 28/52/1 17/41/1
f 41/42/55 40/52/87 29/42/56
f 28/52/88 29/42/56 40/52/87
f 51/34/44 50/28/89 3/35/45
f 2/29/90 3/35/45 50/28/89
f 57/39/50 56/24/91 9/37/48
f 8/25/92 9/37/48 56/24/91
f 67/38/93 75/40/94 10/38/94
f 58/40/95 10/38/94 75/40/94
f 61/27/96 69/26/97 1/27/97
f 49/26/98 1/27/97 69/26/97
f 13/53/1 14/49/1 25/54/1
f 26/50/1 25/54/1 14/49/1
f 38/50/70 37/54/99 26/50/72
f 25/54/100 26/50/72 37/54/99
f 49/26/101 50/28/102 13/55/103
f 14/56/104 13/55/103 50/28/102
f 55/22/105 56/24/106 19/57/107
f 20/58/108 19/57/107 56/24/106
f 68/10/109 67/38/110 11/10/111
f 10/38/112 11/10/111 67/38/110
f 62/29/113 61/27/114 2/29/115
f 1/27/116 2/29/115 61/27/114
f 16/51/1 28/52/1 15/47/1
f 27/48/1 15/47/1 28/52/1
f 40/52/87 39/48/69 28/52/88
f 27/48/71 28/52/88 39/48/69
f 50/28/102 51/34/44 14/56/104
f 15/43/58 14/56/104 51/34/44
f 56/24/106 57/39/50 20/58/108
f 21/45/61 20/58/108 57/39/50
f 59/9/117 58/40/118 76/9/75
f 75/40/73 76/9/75 58/40/118
f 50/28/119 49/26/120 70/28/35
f 69/26/35 70/28/35 49/26/120
f 39/48/1 40/52/1 38/50/1
f 37/54/1 38/50/1 40/52/1
f 40/52/1 41/42/1 37/54/1
f 48/59/1 37/54/1 41/42/1
f 41/42/1 42/32/1 48/59/1
f 47/2/1 48/59/1 42/32/1
f 42/32/1 43/33/1 47/2/1
f 46/4/1 47/2/1 43/33/1
f 43/33/1 44/21/1 46/4/1
f 45/14/1 46/4/1 44/21/1
f 24/60/1 13/53/1 36/59/1
f 25/54/1 36/59/1 13/53/1
f 37/54/99 48/59/121 25/54/100
f 36/59/122 25/54/100 48/59/121
f 54/7/8 6/8/9 55/22/123
f 7/23/124 55/22/123 6/8/9
f 60/11/12 12/12/13 49/61/125
f 1/62/126 49/61/125 12/12/13
f 63/19/127 71/36/128 4/19/128
f 52/36/129 4/19/128 71/36/128
f 1/63/116 12/64/130 2/65/115
f 3/66/130 2/65/115 12/64/130
f 12/64/130 11/67/111 3/66/130
f 4/68/27 3/66/130 11/67/111
f 11/67/111 10/69/112 4/68/27
f 5/70/25 4/68/27 10/69/112
f 10/69/112 9/71/130 5/70/25
f 6/72/130 5/70/25 9/71/130
f 9/71/130 8/73/65 6/72/130
f 7/74/66 6/72/130 8/73/65
f 23/1/1 24/60/1 35/2/1
f 36/59/1 35/2/1 24/60/1
f 48/59/121 47/2/2 36/59/122
f 35/2/4 36/59/122 47/2/2
f 54/7/8 55/22/105 18/16/21
f 19/57/107 18/16/21 55/22/105
f 49/61/101 13/75/103 60/11/12
f 24/17/22 60/11/12 13/75/103
f 53/5/131 52/36/132 72/5/79
f 71/36/77 72/5/79 52/36/132
