# OBJ written from C:\Users\Brad\Desktop\helperbot-exports\eye-emissive (2).obj
# Units	meters

g eye-emissive
v 0 0.095 -0.119463
v -0.0597312 0.095 -0.103458
v -0.103458 0.095 -0.0597313
v -0.119462 0.095 0
v -0.103458 0.095 0.0597313
v -0.0597312 0.095 0.103458
v 0 0.095 0.119463
v 0.0597312 0.095 0.103458
v 0.103458 0.095 0.0597313
v 0.119462 0.095 0
v 0.103458 0.095 -0.0597313
v 0.0597312 0.095 -0.103458
v 0 0.121 -0.0739103
v -0.0369551 0.121 -0.0640082
v -0.0640082 0.121 -0.0369552
v -0.0739104 0.121 0
v -0.0640082 0.121 0.0369552
v -0.0369551 0.121 0.0640082
v 0 0.121 0.0739103
v 0.0369551 0.121 0.0640082
v 0.0640082 0.121 0.0369552
v 0.0739104 0.121 0
v 0.0640082 0.121 -0.0369552
v 0.0369551 0.121 -0.0640082
vn 0.450994 0.867638 -0.209307
vn 0.285918 0.867638 -0.406762
vn 0.209647 0.966608 -0.147364
vn 0.129378 0.951603 -0.27877
vn 0.495225 0.867638 0.0442318
vn 0.255242 0.966608 -0.0227972
vn 0.406762 0.867638 0.285919
vn 0.232445 0.966608 0.107878
vn 0.209307 0.867638 0.450994
vn 0.147364 0.966608 0.209647
vn -0.0442318 0.867638 0.495225
vn 0.0339664 0.924242 0.380292
vn -0.285918 0.867638 0.406762
vn -0.129378 0.951603 0.27877
vn -0.450994 0.867638 0.209307
vn -0.209647 0.966608 0.147364
vn -0.495225 0.867638 -0.0442318
vn -0.255242 0.966608 0.0227972
vn -0.406762 0.867638 -0.285919
vn -0.232445 0.966608 -0.107878
vn -0.209307 0.867638 -0.450994
vn -0.147364 0.966608 -0.209647
vn 0.0442318 0.867638 -0.495225
vn -0.0339664 0.924242 -0.380292
vt 0.381168 0.618832
vt 0.429179 0.701989
vt 0.332857 0.667143
vt 0.363185 0.719672
vt 0.298011 0.570821
vt 0.280328 0.636815
vt 0.201989 0.570821
vt 0.219672 0.636815
vt 0.118832 0.618832
vt 0.167143 0.667143
vt 0.0708208 0.701989
vt 0.136815 0.719672
vt 0.0708208 0.798011
vt 0.136815 0.780328
vt 0.118832 0.881168
vt 0.167143 0.832857
vt 0.201989 0.929179
vt 0.219672 0.863185
vt 0.298011 0.929179
vt 0.280328 0.863185
vt 0.381168 0.881168
vt 0.332857 0.832857
vt 0.429179 0.798011
vt 0.363185 0.780328
usemtl Default
f 11/1/1 12/2/2 23/3/3
f 24/4/4 23/3/3 12/2/2
f 10/5/5 11/1/1 22/6/6
f 23/3/3 22/6/6 11/1/1
f 9/7/7 10/5/5 21/8/8
f 22/6/6 21/8/8 10/5/5
f 8/9/9 9/7/7 20/10/10
f 21/8/8 20/10/10 9/7/7
f 7/11/11 8/9/9 19/12/12
f 20/10/10 19/12/12 8/9/9
f 6/13/13 7/11/11 18/14/14
f 19/12/12 18/14/14 7/11/11
f 5/15/15 6/13/13 17/16/16
f 18/14/14 17/16/16 6/13/13
f 4/17/17 5/15/15 16/18/18
f 17/16/16 16/18/18 5/15/15
f 3/19/19 4/17/17 15/20/20
f 16/18/18 15/20/20 4/17/17
f 2/21/21 3/19/19 14/22/22
f 15/20/20 14/22/22 3/19/19
f 1/23/23 2/21/21 13/24/24
f 14/22/22 13/24/24 2/21/21
f 19/12/12 20/10/10 18/14/14
f 17/16/16 18/14/14 20/10/10
f 20/10/10 21/8/8 17/16/16
f 16/18/18 17/16/16 21/8/8
f 21/8/8 22/6/6 16/18/18
f 15/20/20 16/18/18 22/6/6
f 22/6/6 23/3/3 15/20/20
f 14/22/22 15/20/20 23/3/3
f 23/3/3 24/4/4 14/22/22
f 13/24/24 14/22/22 24/4/4
f 12/2/2 1/23/23 24/4/4
f 13/24/24 24/4/4 1/23/23
