# OBJ written from E:\projects\work\958 - GCL - Claw Game\tests\animation_003\source\models\helper\head-inner.obj
# Units	meters

g head-inner
v 0 0.0380359 -1.00198
v -0.30963 0.0380359 -0.952943
v -0.588951 0.0380359 -0.810622
v -0.810622 0.0380359 -0.588951
v -0.952943 0.0380359 -0.30963
v -1.00198 0.0380359 0
v -0.952943 0.0380359 0.30963
v -0.810622 0.0380359 0.588951
v -0.588951 0.0380359 0.810622
v -0.30963 0.0380359 0.952943
v 0 0.0380359 1.00198
v 0.30963 0.0380359 0.952943
v 0.588951 0.0380359 0.810622
v 0.810622 0.0380359 0.588951
v 0.952943 0.0380359 0.30963
v 1.00198 0.0380359 0
v 0.952943 0.0380359 -0.30963
v 0.810622 0.0380359 -0.588951
v 0.588951 0.0380359 -0.810622
v 0.30963 0.0380359 -0.952943
v 0 0.919556 -0.996716
v -0.309017 0.919556 -0.94778
v -0.587785 0.919556 -0.805762
v -0.809017 0.919556 -0.584564
v -0.951057 0.919556 -0.305839
v -1 0.919556 0.00313142
v -0.951057 0.919556 0.312101
v -0.809017 0.919556 0.590827
v -0.587785 0.919556 0.812025
v -0.309017 0.919556 0.954043
v 0 0.919556 1.00298
v 0.309017 0.919556 0.954043
v 0.587785 0.919556 0.812025
v 0.809017 0.919556 0.590827
v 0.951057 0.919556 0.312101
v 1 0.919556 0.00313142
v 0.951057 0.919556 -0.305839
v 0.809017 0.919556 -0.584564
v 0.587785 0.919556 -0.805762
v 0.309017 0.919556 -0.94778
v 0 0.919556 -0.891436
v -0.276371 0.919556 -0.84767
v -0.52569 0.919556 -0.720655
v -0.72355 0.919556 -0.522825
v -0.850584 0.919556 -0.273545
v -0.894357 0.919556 0.00278436
v -0.850584 0.919556 0.279114
v -0.72355 0.919556 0.528394
v -0.52569 0.919556 0.726224
v -0.276371 0.919556 0.853239
v 0 0.919556 0.897005
v 0.276371 0.919556 0.853239
v 0.52569 0.919556 0.726224
v 0.72355 0.919556 0.528394
v 0.850584 0.919556 0.279114
v 0.894357 0.919556 0.00278436
v 0.850584 0.919556 -0.273545
v 0.72355 0.919556 -0.522825
v 0.52569 0.919556 -0.720655
v 0.276371 0.919556 -0.84767
v 0 -0.000290454 -0.814816
v -0.251792 -0.000290454 -0.774936
v -0.478937 -0.000290454 -0.6592
v -0.6592 -0.000290454 -0.478937
v -0.774936 -0.000290454 -0.251792
v -0.814816 -0.000290454 0
v -0.774936 -0.000290454 0.251792
v -0.6592 -0.000290454 0.478937
v -0.478937 -0.000290454 0.6592
v -0.251792 -0.000290454 0.774936
v 0 -0.000290454 0.814816
v 0.251792 -0.000290454 0.774936
v 0.478937 -0.000290454 0.6592
v 0.6592 -0.000290454 0.478937
v 0.774936 -0.000290454 0.251792
v 0.814816 -0.000290454 0
v 0.774936 -0.000290454 -0.251792
v 0.6592 -0.000290454 -0.478937
v 0.478937 -0.000290454 -0.6592
v 0.251792 -0.000290454 -0.774936
v 0 0.07 -0.822801
v -0.25426 0.07 -0.78253
v -0.48363 0.07 -0.66566
v -0.66566 0.07 -0.48363
v -0.78253 0.07 -0.25426
v -0.822801 0.07 0
v -0.78253 0.07 0.25426
v -0.66566 0.07 0.48363
v -0.48363 0.07 0.66566
v -0.25426 0.07 0.78253
v 0 0.07 0.822801
v 0.25426 0.07 0.78253
v 0.48363 0.07 0.66566
v 0.66566 0.07 0.48363
v 0.78253 0.07 0.25426
v 0.822801 0.07 0
v 0.78253 0.07 -0.25426
v 0.66566 0.07 -0.48363
v 0.48363 0.07 -0.66566
v 0.25426 0.07 -0.78253
v 0 0.340988 -1.04048
v 0.321525 0.340988 -0.989552
v 0.611577 0.340988 -0.841763
v 0.841763 0.340988 -0.611577
v 0.989552 0.340988 -0.321525
v 1.04048 0.340988 0
v 0.989552 0.340988 0.321525
v 0.841763 0.340988 0.611577
v 0.611577 0.340988 0.841763
v 0.321525 0.340988 0.989552
v 0 0.340988 1.04048
v -0.321525 0.340988 0.989552
v -0.611577 0.340988 0.841763
v -0.841763 0.340988 0.611577
v -0.989552 0.340988 0.321525
v -1.04048 0.340988 0
v -0.989552 0.340988 -0.321525
v -0.841763 0.340988 -0.611577
v -0.611577 0.340988 -0.841763
v -0.321525 0.340988 -0.989552
v 0 0.07 -0.522287
v -0.161396 0.07 -0.496725
v -0.306993 0.07 -0.422539
v -0.422539 0.07 -0.306993
v -0.496725 0.07 -0.161396
v -0.522287 0.07 0
v -0.496725 0.07 0.161396
v -0.422539 0.07 0.306993
v -0.306993 0.07 0.422539
v -0.161396 0.07 0.496725
v 0 0.07 0.522287
v 0.161396 0.07 0.496725
v 0.306993 0.07 0.422539
v 0.422539 0.07 0.306993
v 0.496725 0.07 0.161396
v 0.522287 0.07 0
v 0.496725 0.07 -0.161396
v 0.422539 0.07 -0.306993
v 0.306993 0.07 -0.422539
v 0.161396 0.07 -0.496725
v 0 -0.03 -0.41646
v -0.128693 -0.03 -0.396077
v -0.244789 -0.03 -0.336923
v -0.336923 -0.03 -0.244789
v -0.396077 -0.03 -0.128693
v -0.41646 -0.03 0
v -0.396077 -0.03 0.128693
v -0.336923 -0.03 0.244789
v -0.244789 -0.03 0.336923
v -0.128693 -0.03 0.396077
v 0 -0.03 0.41646
v 0.128693 -0.03 0.396077
v 0.244789 -0.03 0.336923
v 0.336923 -0.03 0.244789
v 0.396077 -0.03 0.128693
v 0.41646 -0.03 0
v 0.396077 -0.03 -0.128693
v 0.336923 -0.03 -0.244789
v 0.244789 -0.03 -0.336923
v 0.128693 -0.03 -0.396077
v 0 -0.03 -0.297541
v -0.0919452 -0.03 -0.282978
v -0.17489 -0.03 -0.240716
v -0.240716 -0.03 -0.17489
v -0.282978 -0.03 -0.0919452
v -0.297541 -0.03 0
v -0.282978 -0.03 0.0919452
v -0.240716 -0.03 0.17489
v -0.17489 -0.03 0.240716
v -0.0919452 -0.03 0.282978
v 0 -0.03 0.297541
v 0.0919452 -0.03 0.282978
v 0.17489 -0.03 0.240716
v 0.240716 -0.03 0.17489
v 0.282978 -0.03 0.0919452
v 0.297541 -0.03 0
v 0.282978 -0.03 -0.0919452
v 0.240716 -0.03 -0.17489
v 0.17489 -0.03 -0.240716
v 0.0919452 -0.03 -0.282978
v 0 0.445 -0.297541
v -0.0919452 0.445 -0.282978
v -0.17489 0.445 -0.240716
v -0.240716 0.445 -0.17489
v -0.282978 0.445 -0.0919452
v -0.297541 0.445 0
v -0.282978 0.445 0.0919452
v -0.240716 0.445 0.17489
v -0.17489 0.445 0.240716
v -0.0919452 0.445 0.282978
v 0 0.445 0.297541
v 0.0919452 0.445 0.282978
v 0.17489 0.445 0.240716
v 0.240716 0.445 0.17489
v 0.282978 0.445 0.0919452
v 0.297541 0.445 0
v 0.282978 0.445 -0.0919452
v 0.240716 0.445 -0.17489
v 0.17489 0.445 -0.240716
v 0.0919452 0.445 -0.282978
v 0 0.445 0
v 0 0.849556 -0.891436
v -0.276371 0.849556 -0.84767
v -0.52569 0.849556 -0.720655
v -0.72355 0.849556 -0.522825
v -0.850584 0.849556 -0.273545
v -0.894357 0.849556 0.00278436
v -0.850584 0.849556 0.279114
v -0.72355 0.849556 0.528394
v -0.52569 0.849556 0.726224
v -0.276371 0.849556 0.853239
v 0 0.849556 0.897005
v 0.276371 0.849556 0.853239
v 0.52569 0.849556 0.726224
v 0.72355 0.849556 0.528394
v 0.850584 0.849556 0.279114
v 0.894357 0.849556 0.00278436
v 0.850584 0.849556 -0.273545
v 0.72355 0.849556 -0.522825
v 0.52569 0.849556 -0.720655
v 0.276371 0.849556 -0.84767
v 0 0.63895 -1.02566
v 0.317471 0.63895 -0.975385
v 0.603865 0.63895 -0.829471
v 0.831149 0.63895 -0.602205
v 0.977074 0.63895 -0.315833
v 1.02736 0.63895 0.00161268
v 0.977074 0.63895 0.319059
v 0.831149 0.63895 0.605431
v 0.603865 0.63895 0.832697
v 0.317471 0.63895 0.978611
v 0 0.63895 1.02889
v -0.317471 0.63895 0.978611
v -0.603865 0.63895 0.832697
v -0.831149 0.63895 0.605431
v -0.977074 0.63895 0.319059
v -1.02736 0.63895 0.00161268
v -0.977074 0.63895 -0.315833
v -0.831149 0.63895 -0.602205
v -0.603865 0.63895 -0.829471
v -0.317471 0.63895 -0.975385
v 0 -0.000290454 -0.892593
v -0.275826 -0.000290454 -0.848907
v -0.524653 -0.000290454 -0.722123
v -0.722123 -0.000290454 -0.524653
v -0.848907 -0.000290454 -0.275826
v -0.892593 -0.000290454 0
v -0.848907 -0.000290454 0.275826
v -0.722123 -0.000290454 0.524653
v -0.524653 -0.000290454 0.722123
v -0.275826 -0.000290454 0.848907
v 0 -0.000290454 0.892593
v 0.275826 -0.000290454 0.848907
v 0.524653 -0.000290454 0.722123
v 0.722123 -0.000290454 0.524653
v 0.848907 -0.000290454 0.275826
v 0.892593 -0.000290454 0
v 0.848907 -0.000290454 -0.275826
v 0.722123 -0.000290454 -0.524653
v 0.524653 -0.000290454 -0.722123
v 0.275826 -0.000290454 -0.848907
v 0.398998 0.729556 -0.546306
v 0.209766 0.729556 -0.64271
v 0.549174 0.729556 -0.396153
v 0.645593 0.729556 -0.20695
v 0.678817 0.729556 0.00278436
v 0.645593 0.729556 0.212518
v 0.549174 0.729556 0.401722
v 0.398998 0.729556 0.551875
v 0.209766 0.729556 0.648279
v 0 0.729556 0.681498
v -0.209766 0.729556 0.648279
v -0.398998 0.729556 0.551875
v -0.549174 0.729556 0.401722
v -0.645593 0.729556 0.212518
v -0.678817 0.729556 0.00278436
v -0.645593 0.729556 -0.20695
v -0.549174 0.729556 -0.396153
v -0.398998 0.729556 -0.546306
v -0.209766 0.729556 -0.64271
v 0 0.729556 -0.675929
v 0 0.729556 0.00278436
v 0.247822 0.849556 -0.759818
v 0.471386 0.849556 -0.645924
v 0.648807 0.849556 -0.46853
v 0.762718 0.849556 -0.245
v 0.80197 0.849556 0.00278436
v 0.762718 0.849556 0.250569
v 0.648807 0.849556 0.474098
v 0.471386 0.849556 0.651493
v 0.247822 0.849556 0.765387
v 0 0.849556 0.804632
v -0.247822 0.849556 0.765387
v -0.471386 0.849556 0.651493
v -0.648807 0.849556 0.474098
v -0.762718 0.849556 0.250569
v -0.80197 0.849556 0.00278436
v -0.762718 0.849556 -0.245
v -0.648807 0.849556 -0.46853
v -0.471386 0.849556 -0.645924
v -0.247822 0.849556 -0.759818
v 0 0.849556 -0.799063
vn 0 -1 0
vn -0.403698 -0.726835 0.555643
vn -0.555643 -0.726835 0.403698
vn -0.653197 -0.726835 0.212237
vn -0.686812 -0.726835 1.49891e-008
vn -0.653197 -0.726835 -0.212237
vn -0.555643 -0.726835 -0.403698
vn -0.403698 -0.726835 -0.555643
vn -0.212237 -0.726835 -0.653197
vn -1.12418e-008 -0.726835 -0.686812
vn 0.212237 -0.726835 -0.653197
vn 0.403698 -0.726835 -0.555643
vn 0.555643 -0.726835 -0.403698
vn 0.653197 -0.726835 -0.212237
vn 0.686812 -0.726835 -1.49891e-008
vn 0.653197 -0.726835 0.212237
vn 0.555643 -0.726835 0.403698
vn 0.403698 -0.726835 0.555643
vn 0.212237 -0.726835 0.653197
vn 1.12418e-008 -0.726835 0.686812
vn -0.212237 -0.726835 0.653197
vn 0.587785 0 -0.809017
vn 0.809017 0 -0.587785
vn 0.951057 0 -0.309017
vn 1 0 0
vn 0.951057 0 0.309017
vn 0.809017 0 0.587785
vn 0.587785 0 0.809017
vn 0.309017 0 0.951057
vn 0 0 1
vn -0.309017 0 0.951057
vn -0.587785 0 0.809017
vn -0.809017 0 0.587785
vn -0.951057 0 0.309017
vn -1 0 0
vn -0.951057 0 -0.309017
vn -0.809017 0 -0.587785
vn -0.587785 0 -0.809017
vn -0.309017 0 -0.951057
vn 0 0 -1
vn 0.309017 0 -0.951057
vn -0.564582 0.716197 0.410254
vn -0.410184 0.716181 0.564654
vn -0.663718 0.71621 0.215687
vn -0.697879 0.716215 1.1244e-008
vn -0.663718 0.716211 -0.215687
vn -0.564582 0.716197 -0.410254
vn -0.410184 0.716181 -0.564654
vn -0.215643 0.716168 -0.663779
vn 0 0.716162 -0.697934
vn 0.215643 0.716168 -0.663779
vn 0.410184 0.716181 -0.564654
vn 0.564582 0.716197 -0.410254
vn 0.663718 0.716211 -0.215687
vn 0.697879 0.716216 1.87399e-008
vn 0.663718 0.71621 0.215687
vn 0.564582 0.716197 0.410254
vn 0.410184 0.716181 0.564654
vn 0.215643 0.716168 0.663779
vn 0 0.716162 0.697934
vn -0.215643 0.716168 0.663779
vn 0 1 0
vt 0.95163 0.781935
vt 0.931893 0.842679
vt 0.874746 0.813561
vt 0.888282 0.771902
vt 0.894351 0.894351
vt 0.848999 0.848999
vt 0.842679 0.931893
vt 0.813561 0.874746
vt 0.781935 0.95163
vt 0.771902 0.888282
vt 0.718065 0.95163
vt 0.728098 0.888282
vt 0.657321 0.931893
vt 0.686439 0.874746
vt 0.605649 0.894351
vt 0.651001 0.848999
vt 0.568107 0.842679
vt 0.625254 0.813561
vt 0.54837 0.781935
vt 0.611718 0.771902
vt 0.54837 0.718065
vt 0.611718 0.728098
vt 0.568107 0.657321
vt 0.625254 0.686439
vt 0.605649 0.605649
vt 0.651001 0.651001
vt 0.657321 0.568107
vt 0.686439 0.625254
vt 0.718065 0.54837
vt 0.728098 0.611718
vt 0.781935 0.54837
vt 0.771902 0.611718
vt 0.842679 0.568107
vt 0.813561 0.625254
vt 0.894351 0.605649
vt 0.848999 0.651001
vt 0.931893 0.657321
vt 0.874746 0.686439
vt 0.95163 0.718065
vt 0.888282 0.728098
vt 0.662048 0.662048
vt 0.639174 0.693531
vt 0.693531 0.639174
vt 0.730542 0.627149
vt 0.769458 0.627149
vt 0.806469 0.639174
vt 0.837952 0.662048
vt 0.860826 0.693531
vt 0.872851 0.730542
vt 0.872851 0.769458
vt 0.860826 0.806469
vt 0.837952 0.837952
vt 0.806469 0.860826
vt 0.769458 0.872851
vt 0.730542 0.872851
vt 0.693531 0.860826
vt 0.662048 0.837952
vt 0.639174 0.806469
vt 0.627149 0.769458
vt 0.627149 0.730542
vt 0.686853 0.686853
vt 0.670431 0.709457
vt 0.709457 0.670431
vt 0.73603 0.661797
vt 0.76397 0.661797
vt 0.790543 0.670431
vt 0.813147 0.686853
vt 0.829569 0.709457
vt 0.838203 0.73603
vt 0.838203 0.76397
vt 0.829569 0.790543
vt 0.813147 0.813147
vt 0.790543 0.829569
vt 0.76397 0.838203
vt 0.73603 0.838203
vt 0.709457 0.829569
vt 0.686853 0.813147
vt 0.670431 0.790543
vt 0.661797 0.76397
vt 0.661797 0.73603
vt 0.802884 0.75
vt 0.395379 0.619799
vt 0.392487 0.611308
vt 0.428557 0.660954
vt 0.42924 0.666406
vt 0.348772 0.585937
vt 0.34284 0.575238
vt 0.293982 0.568135
vt 0.284478 0.556274
vt 0.236373 0.568135
vt 0.223111 0.556274
vt 0.181584 0.585937
vt 0.164749 0.575238
vt 0.134977 0.619799
vt 0.115102 0.611308
vt 0.101115 0.666406
vt 0.079032 0.660954
vt 0.0833128 0.721195
vt 0.0600687 0.719317
vt 0.0833128 0.778805
vt 0.0600687 0.780683
vt 0.101115 0.833594
vt 0.0790319 0.839046
vt 0.134977 0.880201
vt 0.115102 0.888692
vt 0.181584 0.914063
vt 0.164748 0.924763
vt 0.236373 0.931865
vt 0.223111 0.943726
vt 0.293982 0.931865
vt 0.284478 0.943726
vt 0.348772 0.914063
vt 0.34284 0.924762
vt 0.395379 0.880201
vt 0.392487 0.888692
vt 0.42924 0.833594
vt 0.428557 0.839046
vt 0.447043 0.778805
vt 0.44752 0.780683
vt 0.447043 0.721195
vt 0.44752 0.719317
vt 0.418775 0.725673
vt 0.447679 0.718691
vt 0.428329 0.659137
vt 0.391523 0.608477
vt 0.340863 0.571671
vt 0.281309 0.552321
vt 0.218691 0.552321
vt 0.159137 0.571671
vt 0.108477 0.608477
vt 0.0716709 0.659137
vt 0.0523207 0.718691
vt 0.0523207 0.781309
vt 0.0716709 0.840863
vt 0.108477 0.891523
vt 0.159137 0.928329
vt 0.218691 0.947679
vt 0.281309 0.947679
vt 0.340863 0.928329
vt 0.391523 0.891523
vt 0.428329 0.840863
vt 0.447679 0.781309
usemtl Default
f 100/1/1 99/2/1 139/3/1 140/4/1
f 99/2/1 98/5/1 138/6/1 139/3/1
f 98/5/1 97/7/1 137/8/1 138/6/1
f 97/7/1 96/9/1 136/10/1 137/8/1
f 96/9/1 95/11/1 135/12/1 136/10/1
f 95/11/1 94/13/1 134/14/1 135/12/1
f 94/13/1 93/15/1 133/16/1 134/14/1
f 93/15/1 92/17/1 132/18/1 133/16/1
f 92/17/1 91/19/1 131/20/1 132/18/1
f 91/19/1 90/21/1 130/22/1 131/20/1
f 90/21/1 89/23/1 129/24/1 130/22/1
f 89/23/1 88/25/1 128/26/1 129/24/1
f 88/25/1 87/27/1 127/28/1 128/26/1
f 87/27/1 86/29/1 126/30/1 127/28/1
f 86/29/1 85/31/1 125/32/1 126/30/1
f 85/31/1 84/33/1 124/34/1 125/32/1
f 84/33/1 83/35/1 123/36/1 124/34/1
f 83/35/1 82/37/1 122/38/1 123/36/1
f 82/37/1 81/39/1 121/40/1 122/38/1
f 81/39/1 100/1/1 140/4/1 121/40/1
f 129/24/2 128/26/3 148/41/3 149/42/2
f 128/26/3 127/28/4 147/43/4 148/41/3
f 127/28/4 126/30/5 146/44/5 147/43/4
f 126/30/5 125/32/6 145/45/6 146/44/5
f 125/32/6 124/34/7 144/46/7 145/45/6
f 124/34/7 123/36/8 143/47/8 144/46/7
f 123/36/8 122/38/9 142/48/9 143/47/8
f 122/38/9 121/40/10 141/49/10 142/48/9
f 121/40/10 140/4/11 160/50/11 141/49/10
f 140/4/11 139/3/12 159/51/12 160/50/11
f 139/3/12 138/6/13 158/52/13 159/51/12
f 138/6/13 137/8/14 157/53/14 158/52/13
f 137/8/14 136/10/15 156/54/15 157/53/14
f 136/10/15 135/12/16 155/55/16 156/54/15
f 135/12/16 134/14/17 154/56/17 155/55/16
f 134/14/17 133/16/18 153/57/18 154/56/17
f 133/16/18 132/18/19 152/58/19 153/57/18
f 132/18/19 131/20/20 151/59/20 152/58/19
f 131/20/20 130/22/21 150/60/21 151/59/20
f 130/22/21 129/24/2 149/42/2 150/60/21
f 149/42/1 148/41/1 168/61/1 169/62/1
f 148/41/1 147/43/1 167/63/1 168/61/1
f 147/43/1 146/44/1 166/64/1 167/63/1
f 146/44/1 145/45/1 165/65/1 166/64/1
f 145/45/1 144/46/1 164/66/1 165/65/1
f 144/46/1 143/47/1 163/67/1 164/66/1
f 143/47/1 142/48/1 162/68/1 163/67/1
f 142/48/1 141/49/1 161/69/1 162/68/1
f 141/49/1 160/50/1 180/70/1 161/69/1
f 160/50/1 159/51/1 179/71/1 180/70/1
f 159/51/1 158/52/1 178/72/1 179/71/1
f 158/52/1 157/53/1 177/73/1 178/72/1
f 157/53/1 156/54/1 176/74/1 177/73/1
f 156/54/1 155/55/1 175/75/1 176/74/1
f 155/55/1 154/56/1 174/76/1 175/75/1
f 154/56/1 153/57/1 173/77/1 174/76/1
f 153/57/1 152/58/1 172/78/1 173/77/1
f 152/58/1 151/59/1 171/79/1 172/78/1
f 151/59/1 150/60/1 170/80/1 171/79/1
f 150/60/1 149/42/1 169/62/1 170/80/1
f 169/62/22 168/61/23 188/61/23 189/62/22
f 168/61/23 167/63/24 187/63/24 188/61/23
f 167/63/24 166/64/25 186/64/25 187/63/24
f 166/64/25 165/65/26 185/65/26 186/64/25
f 165/65/26 164/66/27 184/66/27 185/65/26
f 164/66/27 163/67/28 183/67/28 184/66/27
f 163/67/28 162/68/29 182/68/29 183/67/28
f 162/68/29 161/69/30 181/69/30 182/68/29
f 161/69/30 180/70/31 200/70/31 181/69/30
f 180/70/31 179/71/32 199/71/32 200/70/31
f 179/71/32 178/72/33 198/72/33 199/71/32
f 178/72/33 177/73/34 197/73/34 198/72/33
f 177/73/34 176/74/35 196/74/35 197/73/34
f 176/74/35 175/75/36 195/75/36 196/74/35
f 175/75/36 174/76/37 194/76/37 195/75/36
f 174/76/37 173/77/38 193/77/38 194/76/37
f 173/77/38 172/78/39 192/78/39 193/77/38
f 172/78/39 171/79/40 191/79/40 192/78/39
f 171/79/40 170/80/41 190/80/41 191/79/40
f 170/80/41 169/62/22 189/62/22 190/80/41
f 187/63/1 186/64/1 201/81/1
f 186/64/1 185/65/1 201/81/1
f 185/65/1 184/66/1 201/81/1
f 184/66/1 183/67/1 201/81/1
f 183/67/1 182/68/1 201/81/1
f 182/68/1 181/69/1 201/81/1
f 181/69/1 200/70/1 201/81/1
f 200/70/1 199/71/1 201/81/1
f 199/71/1 198/72/1 201/81/1
f 198/72/1 197/73/1 201/81/1
f 197/73/1 196/74/1 201/81/1
f 196/74/1 195/75/1 201/81/1
f 195/75/1 194/76/1 201/81/1
f 194/76/1 193/77/1 201/81/1
f 193/77/1 192/78/1 201/81/1
f 192/78/1 191/79/1 201/81/1
f 191/79/1 190/80/1 201/81/1
f 190/80/1 189/62/1 201/81/1
f 189/62/1 188/61/1 201/81/1
f 188/61/1 187/63/1 201/81/1
f 264/82/42 285/83/42 284/84/43 262/85/43
f 265/86/44 286/87/44 285/83/42 264/82/42
f 265/86/44 266/88/45 287/89/45 286/87/44
f 267/90/46 288/91/46 287/89/45 266/88/45
f 268/92/47 289/93/47 288/91/46 267/90/46
f 268/92/47 269/94/48 290/95/48 289/93/47
f 270/96/49 291/97/49 290/95/48 269/94/48
f 271/98/50 292/99/50 291/97/49 270/96/49
f 271/98/50 272/100/51 293/101/51 292/99/50
f 272/100/51 273/102/52 294/103/52 293/101/51
f 273/102/52 274/104/53 295/105/53 294/103/52
f 274/104/53 275/106/54 296/107/54 295/105/53
f 276/108/55 297/109/55 296/107/54 275/106/54
f 277/110/56 298/111/56 297/109/55 276/108/55
f 277/110/56 278/112/57 299/113/57 298/111/56
f 278/112/57 279/114/58 300/115/58 299/113/57
f 279/114/58 280/116/59 301/117/59 300/115/58
f 281/118/60 302/119/60 301/117/59 280/116/59
f 281/118/60 263/120/61 283/121/61 302/119/60
f 262/85/43 284/84/43 283/121/61 263/120/61
f 272/100/62 271/98/62 282/122/62
f 271/98/62 270/96/62 282/122/62
f 270/96/62 269/94/62 282/122/62
f 269/94/62 268/92/62 282/122/62
f 268/92/62 267/90/62 282/122/62
f 267/90/62 266/88/62 282/122/62
f 266/88/62 265/86/62 282/122/62
f 265/86/62 264/82/62 282/122/62
f 264/82/62 262/85/62 282/122/62
f 262/85/62 263/120/62 282/122/62
f 263/120/62 281/118/62 282/122/62
f 281/118/62 280/116/62 282/122/62
f 280/116/62 279/114/62 282/122/62
f 279/114/62 278/112/62 282/122/62
f 278/112/62 277/110/62 282/122/62
f 277/110/62 276/108/62 282/122/62
f 276/108/62 275/106/62 282/122/62
f 275/106/62 274/104/62 282/122/62
f 274/104/62 273/102/62 282/122/62
f 273/102/62 272/100/62 282/122/62
f 221/123/62 283/121/62 284/84/62 220/124/62
f 220/124/62 284/84/62 285/83/62 219/125/62
f 219/125/62 285/83/62 286/87/62 218/126/62
f 218/126/62 286/87/62 287/89/62 217/127/62
f 217/127/62 287/89/62 288/91/62 216/128/62
f 216/128/62 288/91/62 289/93/62 215/129/62
f 215/129/62 289/93/62 290/95/62 214/130/62
f 214/130/62 290/95/62 291/97/62 213/131/62
f 213/131/62 291/97/62 292/99/62 212/132/62
f 212/132/62 292/99/62 293/101/62 211/133/62
f 211/133/62 293/101/62 294/103/62 210/134/62
f 210/134/62 294/103/62 295/105/62 209/135/62
f 209/135/62 295/105/62 296/107/62 208/136/62
f 208/136/62 296/107/62 297/109/62 207/137/62
f 207/137/62 297/109/62 298/111/62 206/138/62
f 206/138/62 298/111/62 299/113/62 205/139/62
f 205/139/62 299/113/62 300/115/62 204/140/62
f 204/140/62 300/115/62 301/117/62 203/141/62
f 203/141/62 301/117/62 302/119/62 202/142/62
f 202/142/62 302/119/62 283/121/62 221/123/62
