# OBJ written from E:\projects\work\958 - GCL - Claw Game\tests\animation_003\source\models\helper\head-shell.obj
# Units	meters

g head-shell
v 0 0.0380359 -1.00198
v -0.30963 0.0380359 -0.952943
v -0.588951 0.0380359 -0.810622
v -0.810622 0.0380359 -0.588951
v -0.952943 0.0380359 -0.30963
v -1.00198 0.0380359 0
v -0.952943 0.0380359 0.30963
v -0.810622 0.0380359 0.588951
v -0.588951 0.0380359 0.810622
v -0.30963 0.0380359 0.952943
v 0 0.0380359 1.00198
v 0.30963 0.0380359 0.952943
v 0.588951 0.0380359 0.810622
v 0.810622 0.0380359 0.588951
v 0.952943 0.0380359 0.30963
v 1.00198 0.0380359 0
v 0.952943 0.0380359 -0.30963
v 0.810622 0.0380359 -0.588951
v 0.588951 0.0380359 -0.810622
v 0.30963 0.0380359 -0.952943
v 0 0.919556 -0.996716
v -0.309017 0.919556 -0.94778
v -0.587785 0.919556 -0.805762
v -0.809017 0.919556 -0.584564
v -0.951057 0.919556 -0.305839
v -1 0.919556 0.00313142
v -0.951057 0.919556 0.312101
v -0.809017 0.919556 0.590827
v -0.587785 0.919556 0.812025
v -0.309017 0.919556 0.954043
v 0 0.919556 1.00298
v 0.309017 0.919556 0.954043
v 0.587785 0.919556 0.812025
v 0.809017 0.919556 0.590827
v 0.951057 0.919556 0.312101
v 1 0.919556 0.00313142
v 0.951057 0.919556 -0.305839
v 0.809017 0.919556 -0.584564
v 0.587785 0.919556 -0.805762
v 0.309017 0.919556 -0.94778
v 0 0.919556 -0.891436
v -0.276371 0.919556 -0.84767
v -0.52569 0.919556 -0.720655
v -0.72355 0.919556 -0.522825
v -0.850584 0.919556 -0.273545
v -0.894357 0.919556 0.00278436
v -0.850584 0.919556 0.279114
v -0.72355 0.919556 0.528394
v -0.52569 0.919556 0.726224
v -0.276371 0.919556 0.853239
v 0 0.919556 0.897005
v 0.276371 0.919556 0.853239
v 0.52569 0.919556 0.726224
v 0.72355 0.919556 0.528394
v 0.850584 0.919556 0.279114
v 0.894357 0.919556 0.00278436
v 0.850584 0.919556 -0.273545
v 0.72355 0.919556 -0.522825
v 0.52569 0.919556 -0.720655
v 0.276371 0.919556 -0.84767
v 0 -0.000290454 -0.814816
v -0.251792 -0.000290454 -0.774936
v -0.478937 -0.000290454 -0.6592
v -0.6592 -0.000290454 -0.478937
v -0.774936 -0.000290454 -0.251792
v -0.814816 -0.000290454 0
v -0.774936 -0.000290454 0.251792
v -0.6592 -0.000290454 0.478937
v -0.478937 -0.000290454 0.6592
v -0.251792 -0.000290454 0.774936
v 0 -0.000290454 0.814816
v 0.251792 -0.000290454 0.774936
v 0.478937 -0.000290454 0.6592
v 0.6592 -0.000290454 0.478937
v 0.774936 -0.000290454 0.251792
v 0.814816 -0.000290454 0
v 0.774936 -0.000290454 -0.251792
v 0.6592 -0.000290454 -0.478937
v 0.478937 -0.000290454 -0.6592
v 0.251792 -0.000290454 -0.774936
v 0 0.115 -0.822801
v -0.25426 0.115 -0.78253
v -0.48363 0.115 -0.66566
v -0.66566 0.115 -0.48363
v -0.78253 0.115 -0.25426
v -0.822801 0.115 0
v -0.78253 0.115 0.25426
v -0.66566 0.115 0.48363
v -0.48363 0.115 0.66566
v -0.25426 0.115 0.78253
v 0 0.115 0.822801
v 0.25426 0.115 0.78253
v 0.48363 0.115 0.66566
v 0.66566 0.115 0.48363
v 0.78253 0.115 0.25426
v 0.822801 0.115 0
v 0.78253 0.115 -0.25426
v 0.66566 0.115 -0.48363
v 0.48363 0.115 -0.66566
v 0.25426 0.115 -0.78253
v 0 0.340988 -1.04048
v 0.321525 0.340988 -0.989552
v 0.611577 0.340988 -0.841763
v 0.841763 0.340988 -0.611577
v 0.989552 0.340988 -0.321525
v 1.04048 0.340988 0
v 0.989552 0.340988 0.321525
v 0.841763 0.340988 0.611577
v 0.611577 0.340988 0.841763
v 0.321525 0.340988 0.989552
v 0 0.340988 1.04048
v -0.321525 0.340988 0.989552
v -0.611577 0.340988 0.841763
v -0.841763 0.340988 0.611577
v -0.989552 0.340988 0.321525
v -1.04048 0.340988 0
v -0.989552 0.340988 -0.321525
v -0.841763 0.340988 -0.611577
v -0.611577 0.340988 -0.841763
v -0.321525 0.340988 -0.989552
v 0 0.115 -0.555625
v -0.171698 0.115 -0.528431
v -0.326588 0.115 -0.44951
v -0.44951 0.115 -0.326588
v -0.528431 0.115 -0.171698
v -0.555625 0.115 0
v -0.528431 0.115 0.171698
v -0.44951 0.115 0.326588
v -0.326588 0.115 0.44951
v -0.171698 0.115 0.528431
v 0 0.115 0.555625
v 0.171698 0.115 0.528431
v 0.326588 0.115 0.44951
v 0.44951 0.115 0.326588
v 0.528431 0.115 0.171698
v 0.555625 0.115 0
v 0.528431 0.115 -0.171698
v 0.44951 0.115 -0.326588
v 0.326588 0.115 -0.44951
v 0.171698 0.115 -0.528431
v 0 0.06 -0.492852
v -0.1523 0.06 -0.46873
v -0.289691 0.06 -0.398726
v -0.398726 0.06 -0.289691
v -0.46873 0.06 -0.1523
v -0.492852 0.06 0
v -0.46873 0.06 0.1523
v -0.398726 0.06 0.289691
v -0.289691 0.06 0.398726
v -0.1523 0.06 0.46873
v 0 0.06 0.492852
v 0.1523 0.06 0.46873
v 0.289691 0.06 0.398726
v 0.398726 0.06 0.289691
v 0.46873 0.06 0.1523
v 0.492852 0.06 0
v 0.46873 0.06 -0.1523
v 0.398726 0.06 -0.289691
v 0.289691 0.06 -0.398726
v 0.1523 0.06 -0.46873
v 0 0.06 -0.352119
v -0.108811 0.06 -0.334885
v -0.206971 0.06 -0.284871
v -0.284871 0.06 -0.206971
v -0.334885 0.06 -0.108811
v -0.352119 0.06 0
v -0.334885 0.06 0.108811
v -0.284871 0.06 0.206971
v -0.206971 0.06 0.284871
v -0.108811 0.06 0.334885
v 0 0.06 0.352119
v 0.108811 0.06 0.334885
v 0.206971 0.06 0.284871
v 0.284871 0.06 0.206971
v 0.334885 0.06 0.108811
v 0.352119 0.06 0
v 0.334885 0.06 -0.108811
v 0.284871 0.06 -0.206971
v 0.206971 0.06 -0.284871
v 0.108811 0.06 -0.334885
v 0 0.445 -0.352119
v -0.108811 0.445 -0.334885
v -0.206971 0.445 -0.284871
v -0.284871 0.445 -0.206971
v -0.334885 0.445 -0.108811
v -0.352119 0.445 0
v -0.334885 0.445 0.108811
v -0.284871 0.445 0.206971
v -0.206971 0.445 0.284871
v -0.108811 0.445 0.334885
v 0 0.445 0.352119
v 0.108811 0.445 0.334885
v 0.206971 0.445 0.284871
v 0.284871 0.445 0.206971
v 0.334885 0.445 0.108811
v 0.352119 0.445 0
v 0.334885 0.445 -0.108811
v 0.284871 0.445 -0.206971
v 0.206971 0.445 -0.284871
v 0.108811 0.445 -0.334885
v 0 0.445 0
v 0 0.849556 -0.891436
v -0.276371 0.849556 -0.84767
v -0.52569 0.849556 -0.720655
v -0.72355 0.849556 -0.522825
v -0.850584 0.849556 -0.273545
v -0.894357 0.849556 0.00278436
v -0.850584 0.849556 0.279114
v -0.72355 0.849556 0.528394
v -0.52569 0.849556 0.726224
v -0.276371 0.849556 0.853239
v 0 0.849556 0.897005
v 0.276371 0.849556 0.853239
v 0.52569 0.849556 0.726224
v 0.72355 0.849556 0.528394
v 0.850584 0.849556 0.279114
v 0.894357 0.849556 0.00278436
v 0.850584 0.849556 -0.273545
v 0.72355 0.849556 -0.522825
v 0.52569 0.849556 -0.720655
v 0.276371 0.849556 -0.84767
v 0 0.63895 -1.02566
v 0.317471 0.63895 -0.975385
v 0.603865 0.63895 -0.829471
v 0.831149 0.63895 -0.602205
v 0.977074 0.63895 -0.315833
v 1.02736 0.63895 0.00161268
v 0.977074 0.63895 0.319059
v 0.831149 0.63895 0.605431
v 0.603865 0.63895 0.832697
v 0.317471 0.63895 0.978611
v 0 0.63895 1.02889
v -0.317471 0.63895 0.978611
v -0.603865 0.63895 0.832697
v -0.831149 0.63895 0.605431
v -0.977074 0.63895 0.319059
v -1.02736 0.63895 0.00161268
v -0.977074 0.63895 -0.315833
v -0.831149 0.63895 -0.602205
v -0.603865 0.63895 -0.829471
v -0.317471 0.63895 -0.975385
v 0 -0.000290454 -0.892593
v -0.275826 -0.000290454 -0.848907
v -0.524653 -0.000290454 -0.722123
v -0.722123 -0.000290454 -0.524653
v -0.848907 -0.000290454 -0.275826
v -0.892593 -0.000290454 0
v -0.848907 -0.000290454 0.275826
v -0.722123 -0.000290454 0.524653
v -0.524653 -0.000290454 0.722123
v -0.275826 -0.000290454 0.848907
v 0 -0.000290454 0.892593
v 0.275826 -0.000290454 0.848907
v 0.524653 -0.000290454 0.722123
v 0.722123 -0.000290454 0.524653
v 0.848907 -0.000290454 0.275826
v 0.892593 -0.000290454 0
v 0.848907 -0.000290454 -0.275826
v 0.722123 -0.000290454 -0.524653
v 0.524653 -0.000290454 -0.722123
v 0.275826 -0.000290454 -0.848907
v 0.398998 0.729556 -0.546306
v 0.209766 0.729556 -0.64271
v 0.549174 0.729556 -0.396153
v 0.645593 0.729556 -0.20695
v 0.678817 0.729556 0.00278436
v 0.645593 0.729556 0.212518
v 0.549174 0.729556 0.401722
v 0.398998 0.729556 0.551875
v 0.209766 0.729556 0.648279
v 0 0.729556 0.681498
v -0.209766 0.729556 0.648279
v -0.398998 0.729556 0.551875
v -0.549174 0.729556 0.401722
v -0.645593 0.729556 0.212518
v -0.678817 0.729556 0.00278436
v -0.645593 0.729556 -0.20695
v -0.549174 0.729556 -0.396153
v -0.398998 0.729556 -0.546306
v -0.209766 0.729556 -0.64271
v 0 0.729556 -0.675929
v 0 0.729556 0.00278436
v 0.247822 0.849556 -0.759818
v 0.471386 0.849556 -0.645924
v 0.648807 0.849556 -0.46853
v 0.762718 0.849556 -0.245
v 0.80197 0.849556 0.00278436
v 0.762718 0.849556 0.250569
v 0.648807 0.849556 0.474098
v 0.471386 0.849556 0.651493
v 0.247822 0.849556 0.765387
v 0 0.849556 0.804632
v -0.247822 0.849556 0.765387
v -0.471386 0.849556 0.651493
v -0.648807 0.849556 0.474098
v -0.762718 0.849556 0.250569
v -0.80197 0.849556 0.00278436
v -0.762718 0.849556 -0.245
v -0.648807 0.849556 -0.46853
v -0.471386 0.849556 -0.645924
v -0.247822 0.849556 -0.759818
v 0 0.849556 -0.799063
vn 0 1 0
vn -0.308278 0.0690961 0.948784
vn -0.58638 0.0690961 0.807083
vn -0.807083 0.0690963 0.58638
vn -0.948784 0.0690961 0.308278
vn -0.99761 0.0690961 0
vn -0.948784 0.0690961 -0.308278
vn -0.807083 0.0690961 -0.58638
vn -0.58638 0.0690963 -0.807083
vn -0.308278 0.0690961 -0.948784
vn 0 0.0690961 -0.99761
vn 0.308278 0.0690961 -0.948784
vn 0.58638 0.0690961 -0.807083
vn 0.807083 0.0690963 -0.58638
vn 0.948784 0.0690961 -0.308278
vn 0.99761 0.0690961 0
vn 0.948784 0.0690961 0.308278
vn 0.807083 0.0690961 0.58638
vn 0.58638 0.0690963 0.807083
vn 0.308278 0.0690961 0.948784
vn 0 0.0690961 0.99761
vn 7.54199e-009 -0.126047 -0.992024
vn -2.27158e-008 -0.0383564 -0.999264
vn 0.308789 -0.0384946 -0.950351
vn 0.306552 -0.126047 -0.943471
vn 0.587342 -0.038906 -0.808403
vn 0.583097 -0.126047 -0.802564
vn 0.808386 -0.039542 -0.587323
vn 0.802564 -0.126047 -0.583097
vn 0.950284 -0.0403295 -0.308763
vn 0.943471 -0.126047 -0.306552
vn 0.999152 -0.0411814 2.94476e-006
vn 0.992024 -0.126047 7.54199e-009
vn 0.950216 -0.0420091 0.308747
vn 0.943471 -0.126047 0.306552
vn 0.808277 -0.0427335 0.58725
vn 0.802564 -0.126047 0.583097
vn 0.587233 -0.0432915 0.808259
vn 0.583097 -0.126047 0.802564
vn 0.308722 -0.0436395 0.950151
vn 0.306552 -0.126047 0.943471
vn 1.51369e-008 -0.0437536 0.999042
vn -7.54199e-009 -0.126047 0.992024
vn -0.308722 -0.0436277 0.950151
vn -0.306552 -0.126047 0.943471
vn -0.587234 -0.0432724 0.80826
vn -0.583097 -0.126047 0.802564
vn -0.808277 -0.0427144 0.587251
vn -0.802564 -0.126047 0.583097
vn -0.950217 -0.0419974 0.308747
vn -0.943471 -0.126047 0.306552
vn -0.999152 -0.0411814 2.89177e-006
vn -0.992024 -0.126047 -7.54199e-009
vn -0.950283 -0.0403413 -0.308763
vn -0.943471 -0.126047 -0.306552
vn -0.808385 -0.0395611 -0.587323
vn -0.802564 -0.126047 -0.583097
vn -0.587341 -0.038925 -0.808403
vn -0.583097 -0.126047 -0.802564
vn -0.308789 -0.0385065 -0.950351
vn -0.306552 -0.126047 -0.943471
vn -0.308976 0 0.95107
vn 0 0 1
vn 0.308976 0 0.95107
vn 0.58773 0 0.809058
vn 0.808976 0 0.587841
vn 0.951043 0 0.309057
vn 1 0 0
vn 0.951043 0 -0.309057
vn 0.808976 0 -0.587841
vn 0.58773 0 -0.809057
vn 0.308977 0 -0.95107
vn 0 0 -1
vn -0.308977 0 -0.95107
vn -0.58773 0 -0.809057
vn -0.808976 0 -0.587841
vn -0.951043 0 -0.309057
vn -1 0 0
vn -0.951043 0 0.309057
vn -0.808976 0 0.587841
vn -0.58773 0 0.809058
vn -7.54551e-008 0.0761559 -0.997096
vn 0.308119 0.0758815 -0.948317
vn -9.80521e-008 0.10261 -0.994722
vn 0.307378 0.102338 -0.946069
vn 0.586118 0.0750652 -0.806741
vn 0.584727 0.101528 -0.804852
vn 0.806805 0.0738019 -0.58619
vn 0.804926 0.100274 -0.584842
vn 0.948571 0.072237 -0.308211
vn 0.946408 0.0987194 -0.307516
vn 0.997509 0.0705428 9.35655e-006
vn 0.995281 0.0970361 1.2845e-005
vn 0.948791 0.0688956 0.308301
vn 0.946709 0.0953982 0.307639
vn 0.80716 0.0674532 0.586466
vn 0.805412 0.093963 0.585221
vn 0.586472 0.0663414 0.807248
vn 0.585212 0.0928562 0.805546
vn 0.308338 0.0656476 0.949009
vn 0.307678 0.0921653 0.947016
vn 6.41381e-008 0.0654199 0.997858
vn 9.05119e-008 0.0919386 0.995765
vn -0.308337 0.0656709 0.949008
vn -0.307677 0.0921886 0.947014
vn -0.586471 0.0663794 0.807246
vn -0.58521 0.092894 0.805543
vn -0.807158 0.0674911 0.586465
vn -0.805409 0.0940006 0.585219
vn -0.948789 0.0689191 0.3083
vn -0.946707 0.0954214 0.307638
vn -0.997509 0.0705428 9.21318e-006
vn -0.995281 0.0970361 1.26489e-005
vn -0.948573 0.0722135 -0.308212
vn -0.94641 0.0986963 -0.307517
vn -0.806808 0.073764 -0.586191
vn -0.804929 0.100236 -0.584844
vn -0.58612 0.0750273 -0.806743
vn -0.584729 0.10149 -0.804855
vn -0.308119 0.0758582 -0.948318
vn -0.307379 0.102315 -0.946071
vn 9.32599e-009 -0.943751 -0.330656
vn 4.72674e-009 -0.985857 -0.167588
vn -0.0517877 -0.985857 -0.159386
vn -0.102178 -0.943751 -0.314473
vn 0 -1 0
vn -0.0985061 -0.985857 -0.135582
vn -0.194355 -0.943751 -0.267507
vn -0.135582 -0.985857 -0.0985061
vn -0.267507 -0.943751 -0.194355
vn -0.159386 -0.985857 -0.0517877
vn -0.314473 -0.943751 -0.102178
vn -0.167588 -0.985857 -4.72674e-009
vn -0.330656 -0.943751 -9.32599e-009
vn -0.159386 -0.985857 0.0517877
vn -0.314473 -0.943751 0.102178
vn -0.135582 -0.985857 0.0985061
vn -0.267507 -0.943751 0.194355
vn -0.0985061 -0.985857 0.135582
vn -0.194355 -0.943751 0.267507
vn -0.0517877 -0.985857 0.159386
vn -0.102178 -0.943751 0.314473
vn -4.72674e-009 -0.985857 0.167588
vn -9.32599e-009 -0.943751 0.330656
vn 0.0517877 -0.985857 0.159386
vn 0.102178 -0.943751 0.314473
vn 0.0985061 -0.985857 0.135582
vn 0.194355 -0.943751 0.267507
vn 0.135582 -0.985857 0.0985061
vn 0.267507 -0.943751 0.194355
vn 0.159386 -0.985857 0.0517877
vn 0.314473 -0.943751 0.102178
vn 0.167588 -0.985857 4.72674e-009
vn 0.330656 -0.943751 9.32599e-009
vn 0.159386 -0.985857 -0.0517877
vn 0.314473 -0.943751 -0.102178
vn 0.135582 -0.985857 -0.0985061
vn 0.267507 -0.943751 -0.194355
vn 0.0985061 -0.985857 -0.135582
vn 0.194355 -0.943751 -0.267507
vn 0.0517877 -0.985857 -0.159386
vn 0.102178 -0.943751 -0.314473
vt 0.447679 0.718691
vt 0.507398 0.709232
vt 0.507398 0.790768
vt 0.447679 0.781309
vt 0.428329 0.659137
vt 0.482202 0.631687
vt 0.391523 0.608477
vt 0.340863 0.571671
vt 0.368313 0.517798
vt 0.434277 0.565723
vt 0.281309 0.552321
vt 0.290768 0.492602
vt 0.218691 0.552321
vt 0.209232 0.492602
vt 0.159137 0.571671
vt 0.108477 0.608477
vt 0.0657233 0.565723
vt 0.131687 0.517798
vt 0.0716709 0.659137
vt 0.0177978 0.631687
vt 0.0523207 0.718691
vt -0.0073981 0.709232
vt 0.0523207 0.781309
vt -0.0073981 0.790768
vt 0.0716709 0.840863
vt 0.0177978 0.868313
vt 0.108477 0.891523
vt 0.159137 0.928329
vt 0.131687 0.982202
vt 0.0657233 0.934277
vt 0.218691 0.947679
vt 0.209232 1.0074
vt 0.281309 0.947679
vt 0.290768 1.0074
vt 0.340863 0.928329
vt 0.391523 0.891523
vt 0.434277 0.934277
vt 0.368313 0.982202
vt 0.428329 0.840863
vt 0.482202 0.868313
vt 0.95163 0.781935
vt 0.931893 0.842679
vt 0.894351 0.894351
vt 0.842679 0.931893
vt 0.781935 0.95163
vt 0.718065 0.95163
vt 0.657321 0.931893
vt 0.605649 0.894351
vt 0.568107 0.842679
vt 0.54837 0.781935
vt 0.54837 0.718065
vt 0.568107 0.657321
vt 0.605649 0.605649
vt 0.657321 0.568107
vt 0.718065 0.54837
vt 0.781935 0.54837
vt 0.842679 0.568107
vt 0.894351 0.605649
vt 0.931893 0.657321
vt 0.95163 0.718065
vt 1 0.0260285
vt 1 0.211925
vt 0.95 0.211925
vt 0.95 0.0260285
vt 0.9 0.211925
vt 0.9 0.0260285
vt 0.85 0.211925
vt 0.85 0.0260285
vt 0.8 0.211925
vt 0.8 0.0260285
vt 0.75 0.211925
vt 0.75 0.0260285
vt 0.7 0.211925
vt 0.7 0.0260285
vt 0.65 0.211925
vt 0.65 0.0260285
vt 0.6 0.211925
vt 0.6 0.0260285
vt 0.55 0.211925
vt 0.55 0.0260285
vt 0.5 0.211925
vt 0.5 0.0260285
vt 0.45 0.211925
vt 0.45 0.0260285
vt 0.4 0.211925
vt 0.4 0.0260285
vt 0.35 0.211925
vt 0.35 0.0260285
vt 0.3 0.211925
vt 0.3 0.0260285
vt 0.25 0.211925
vt 0.25 0.0260285
vt 0.2 0.211925
vt 0.2 0.0260285
vt 0.15 0.211925
vt 0.15 0.0260285
vt 0.1 0.211925
vt 0.1 0.0260285
vt 0.05 0.211925
vt 0.05 0.0260285
vt 0 0.211925
vt 0 0.0260285
vt 1 0.346879
vt 0.95 0.346879
vt 1 0.473972
vt 0.95 0.473972
vt 0.9 0.346879
vt 0.9 0.473972
vt 0.85 0.346879
vt 0.85 0.473972
vt 0.8 0.346879
vt 0.8 0.473972
vt 0.75 0.346879
vt 0.75 0.473972
vt 0.7 0.346879
vt 0.7 0.473972
vt 0.65 0.346879
vt 0.65 0.473972
vt 0.6 0.346879
vt 0.6 0.473972
vt 0.55 0.346879
vt 0.55 0.473972
vt 0.5 0.346879
vt 0.5 0.473972
vt 0.45 0.346879
vt 0.45 0.473972
vt 0.4 0.346879
vt 0.4 0.473972
vt 0.35 0.346879
vt 0.35 0.473972
vt 0.3 0.346879
vt 0.3 0.473972
vt 0.25 0.346879
vt 0.25 0.473972
vt 0.2 0.346879
vt 0.2 0.473972
vt 0.15 0.346879
vt 0.15 0.473972
vt 0.1 0.346879
vt 0.1 0.473972
vt 0.05 0.346879
vt 0.05 0.473972
vt 0 0.346879
vt 0 0.473972
vt 1.0074 0.709232
vt 0.975053 0.714355
vt 0.953023 0.646555
vt 0.982202 0.631687
vt 0.91112 0.58888
vt 0.934277 0.565723
vt 0.853445 0.546977
vt 0.868313 0.517798
vt 0.785645 0.524947
vt 0.790768 0.492602
vt 0.714355 0.524947
vt 0.709232 0.492602
vt 0.646555 0.546977
vt 0.631687 0.517798
vt 0.58888 0.58888
vt 0.565723 0.565723
vt 0.546977 0.646555
vt 0.517798 0.631687
vt 0.524947 0.714355
vt 0.492602 0.709232
vt 0.524947 0.785645
vt 0.492602 0.790768
vt 0.546977 0.853445
vt 0.517798 0.868313
vt 0.58888 0.91112
vt 0.565723 0.934277
vt 0.646555 0.953023
vt 0.631687 0.982202
vt 0.714355 0.975053
vt 0.709232 1.0074
vt 0.785645 0.975053
vt 0.790768 1.0074
vt 0.853445 0.953023
vt 0.868313 0.982202
vt 0.91112 0.91112
vt 0.934277 0.934277
vt 0.953023 0.853445
vt 0.982202 0.868313
vt 0.975053 0.785645
vt 1.0074 0.790768
usemtl Default
f 60/1/1 40/2/1 21/3/1 41/4/1
f 60/1/1 59/5/1 39/6/1 40/2/1
f 58/7/1 57/8/1 37/9/1 38/10/1
f 57/8/1 56/11/1 36/12/1 37/9/1
f 55/13/1 35/14/1 36/12/1 56/11/1
f 54/15/1 53/16/1 33/17/1 34/18/1
f 53/16/1 52/19/1 32/20/1 33/17/1
f 52/19/1 51/21/1 31/22/1 32/20/1
f 50/23/1 30/24/1 31/22/1 51/21/1
f 50/23/1 49/25/1 29/26/1 30/24/1
f 48/27/1 47/28/1 27/29/1 28/30/1
f 47/28/1 46/31/1 26/32/1 27/29/1
f 45/33/1 25/34/1 26/32/1 46/31/1
f 44/35/1 43/36/1 23/37/1 24/38/1
f 43/36/1 42/39/1 22/40/1 23/37/1
f 42/39/1 41/4/1 21/3/1 22/40/1
f 80/41/2 79/42/3 99/42/3 100/41/2
f 79/42/3 78/43/4 98/43/4 99/42/3
f 78/43/4 77/44/5 97/44/5 98/43/4
f 77/44/5 76/45/6 96/45/6 97/44/5
f 76/45/6 75/46/7 95/46/7 96/45/6
f 75/46/7 74/47/8 94/47/8 95/46/7
f 74/47/8 73/48/9 93/48/9 94/47/8
f 73/48/9 72/49/10 92/49/10 93/48/9
f 72/49/10 71/50/11 91/50/11 92/49/10
f 71/50/11 70/51/12 90/51/12 91/50/11
f 70/51/12 69/52/13 89/52/13 90/51/12
f 69/52/13 68/53/14 88/53/14 89/52/13
f 68/53/14 67/54/15 87/54/15 88/53/14
f 67/54/15 66/55/16 86/55/16 87/54/15
f 66/55/16 65/56/17 85/56/17 86/55/16
f 65/56/17 64/57/18 84/57/18 85/56/17
f 64/57/18 63/58/19 83/58/19 84/57/18
f 63/58/19 62/59/20 82/59/20 83/58/19
f 62/59/20 61/60/21 81/60/21 82/59/20
f 61/60/21 80/41/2 100/41/2 81/60/21
f 1/61/22 101/62/23 102/63/24 20/64/25
f 20/64/25 102/63/24 103/65/26 19/66/27
f 19/66/27 103/65/26 104/67/28 18/68/29
f 18/68/29 104/67/28 105/69/30 17/70/31
f 17/70/31 105/69/30 106/71/32 16/72/33
f 16/72/33 106/71/32 107/73/34 15/74/35
f 15/74/35 107/73/34 108/75/36 14/76/37
f 14/76/37 108/75/36 109/77/38 13/78/39
f 13/78/39 109/77/38 110/79/40 12/80/41
f 12/80/41 110/79/40 111/81/42 11/82/43
f 11/82/43 111/81/42 112/83/44 10/84/45
f 10/84/45 112/83/44 113/85/46 9/86/47
f 9/86/47 113/85/46 114/87/48 8/88/49
f 8/88/49 114/87/48 115/89/50 7/90/51
f 7/90/51 115/89/50 116/91/52 6/92/53
f 6/92/53 116/91/52 117/93/54 5/94/55
f 5/94/55 117/93/54 118/95/56 4/96/57
f 4/96/57 118/95/56 119/97/58 3/98/59
f 3/98/59 119/97/58 120/99/60 2/100/61
f 2/100/61 120/99/60 101/101/23 1/102/22
f 28/30/1 29/26/1 49/25/1 48/27/1
f 24/38/1 25/34/1 45/33/1 44/35/1
f 38/10/1 39/6/1 59/5/1 58/7/1
f 34/18/1 35/14/1 55/13/1 54/15/1
f 60/1/62 41/4/63 202/4/63 221/1/62
f 41/4/63 42/39/64 203/39/64 202/4/63
f 42/39/64 43/36/65 204/36/65 203/39/64
f 43/36/65 44/35/66 205/35/66 204/36/65
f 44/35/66 45/33/67 206/33/67 205/35/66
f 45/33/67 46/31/68 207/31/68 206/33/67
f 46/31/68 47/28/69 208/28/69 207/31/68
f 47/28/69 48/27/70 209/27/70 208/28/69
f 48/27/70 49/25/71 210/25/71 209/27/70
f 49/25/71 50/23/72 211/23/72 210/25/71
f 50/23/72 51/21/73 212/21/73 211/23/72
f 51/21/73 52/19/74 213/19/74 212/21/73
f 52/19/74 53/16/75 214/16/75 213/19/74
f 53/16/75 54/15/76 215/15/76 214/16/75
f 54/15/76 55/13/77 216/13/77 215/15/76
f 55/13/77 56/11/78 217/11/78 216/13/77
f 56/11/78 57/8/79 218/8/79 217/11/78
f 57/8/79 58/7/80 219/7/80 218/8/79
f 58/7/80 59/5/81 220/5/81 219/7/80
f 59/5/81 60/1/62 221/1/62 220/5/81
f 101/62/23 222/103/82 223/104/83 102/63/24
f 222/103/82 21/105/84 40/106/85 223/104/83
f 102/63/24 223/104/83 224/107/86 103/65/26
f 223/104/83 40/106/85 39/108/87 224/107/86
f 103/65/26 224/107/86 225/109/88 104/67/28
f 224/107/86 39/108/87 38/110/89 225/109/88
f 104/67/28 225/109/88 226/111/90 105/69/30
f 225/109/88 38/110/89 37/112/91 226/111/90
f 105/69/30 226/111/90 227/113/92 106/71/32
f 226/111/90 37/112/91 36/114/93 227/113/92
f 106/71/32 227/113/92 228/115/94 107/73/34
f 227/113/92 36/114/93 35/116/95 228/115/94
f 107/73/34 228/115/94 229/117/96 108/75/36
f 228/115/94 35/116/95 34/118/97 229/117/96
f 108/75/36 229/117/96 230/119/98 109/77/38
f 229/117/96 34/118/97 33/120/99 230/119/98
f 109/77/38 230/119/98 231/121/100 110/79/40
f 230/119/98 33/120/99 32/122/101 231/121/100
f 110/79/40 231/121/100 232/123/102 111/81/42
f 231/121/100 32/122/101 31/124/103 232/123/102
f 111/81/42 232/123/102 233/125/104 112/83/44
f 232/123/102 31/124/103 30/126/105 233/125/104
f 112/83/44 233/125/104 234/127/106 113/85/46
f 233/125/104 30/126/105 29/128/107 234/127/106
f 113/85/46 234/127/106 235/129/108 114/87/48
f 234/127/106 29/128/107 28/130/109 235/129/108
f 114/87/48 235/129/108 236/131/110 115/89/50
f 235/129/108 28/130/109 27/132/111 236/131/110
f 115/89/50 236/131/110 237/133/112 116/91/52
f 236/131/110 27/132/111 26/134/113 237/133/112
f 116/91/52 237/133/112 238/135/114 117/93/54
f 237/133/112 26/134/113 25/136/115 238/135/114
f 117/93/54 238/135/114 239/137/116 118/95/56
f 238/135/114 25/136/115 24/138/117 239/137/116
f 118/95/56 239/137/116 240/139/118 119/97/58
f 239/137/116 24/138/117 23/140/119 240/139/118
f 119/97/58 240/139/118 241/141/120 120/99/60
f 240/139/118 23/140/119 22/142/121 241/141/120
f 120/99/60 241/141/120 222/143/82 101/101/23
f 241/141/120 22/142/121 21/144/84 222/143/82
f 1/145/122 242/146/123 243/147/124 2/148/125
f 242/146/123 61/60/126 62/59/126 243/147/124
f 2/148/125 243/147/124 244/149/127 3/150/128
f 243/147/124 62/59/126 63/58/126 244/149/127
f 3/150/128 244/149/127 245/151/129 4/152/130
f 244/149/127 63/58/126 64/57/126 245/151/129
f 4/152/130 245/151/129 246/153/131 5/154/132
f 245/151/129 64/57/126 65/56/126 246/153/131
f 5/154/132 246/153/131 247/155/133 6/156/134
f 246/153/131 65/56/126 66/55/126 247/155/133
f 6/156/134 247/155/133 248/157/135 7/158/136
f 247/155/133 66/55/126 67/54/126 248/157/135
f 7/158/136 248/157/135 249/159/137 8/160/138
f 248/157/135 67/54/126 68/53/126 249/159/137
f 8/160/138 249/159/137 250/161/139 9/162/140
f 249/159/137 68/53/126 69/52/126 250/161/139
f 9/162/140 250/161/139 251/163/141 10/164/142
f 250/161/139 69/52/126 70/51/126 251/163/141
f 10/164/142 251/163/141 252/165/143 11/166/144
f 251/163/141 70/51/126 71/50/126 252/165/143
f 11/166/144 252/165/143 253/167/145 12/168/146
f 252/165/143 71/50/126 72/49/126 253/167/145
f 12/168/146 253/167/145 254/169/147 13/170/148
f 253/167/145 72/49/126 73/48/126 254/169/147
f 13/170/148 254/169/147 255/171/149 14/172/150
f 254/169/147 73/48/126 74/47/126 255/171/149
f 14/172/150 255/171/149 256/173/151 15/174/152
f 255/171/149 74/47/126 75/46/126 256/173/151
f 15/174/152 256/173/151 257/175/153 16/176/154
f 256/173/151 75/46/126 76/45/126 257/175/153
f 16/176/154 257/175/153 258/177/155 17/178/156
f 257/175/153 76/45/126 77/44/126 258/177/155
f 17/178/156 258/177/155 259/179/157 18/180/158
f 258/177/155 77/44/126 78/43/126 259/179/157
f 18/180/158 259/179/157 260/181/159 19/182/160
f 259/179/157 78/43/126 79/42/126 260/181/159
f 19/182/160 260/181/159 261/183/161 20/184/162
f 260/181/159 79/42/126 80/41/126 261/183/161
f 20/184/162 261/183/161 242/146/123 1/145/122
f 261/183/161 80/41/126 61/60/126 242/146/123
