# OBJ written from C:\Users\Brad\Desktop\spot-the-bot-stuff\exports\icon_hourglass_plus_2.obj
# Units	meters

g icon_hourglass_plus_2
v 0.331837 0.469023 -0.000842109
v -0.331837 0.469023 -0.000842109
v -0.341175 0.557591 -0.000842109
v -0.331837 0.558674 -0.000842109
v 0.331837 0.558674 -0.000842109
v 0.341176 0.557591 -0.000842109
v 0.331837 -0.400436 -0.000842109
v -0.331837 -0.400436 -0.000842109
v -0.341175 -0.311868 -0.000842109
v -0.331837 -0.310785 -0.000842109
v 0.331837 -0.310785 -0.000842109
v 0.341176 -0.311868 -0.000842109
v -0.315316 -0.345191 -0.000842109
v -0.310508 -0.280293 -0.000842109
v -0.31078 0.436687 -0.000842109
v -0.315517 0.496074 -0.000842109
v -0.255776 0.496074 -0.000842109
v -0.251966 0.447308 -0.000842109
v -0.251479 -0.290141 -0.000842109
v -0.255576 -0.345191 -0.000842109
v 0.315316 -0.345191 -0.000842109
v 0.310508 -0.280293 -0.000842109
v 0.31078 0.436687 -0.000842109
v 0.315517 0.496074 -0.000842109
v 0.255776 0.496074 -0.000842109
v 0.251966 0.447308 -0.000842109
v 0.251479 -0.290141 -0.000842109
v 0.255576 -0.345191 -0.000842109
v 0.331837 0.389904 -0.000842109
v -0.331837 0.389904 -0.000842109
v -0.349748 0.394073 -0.000842109
v -0.363618 0.405268 -0.000842109
v -0.371491 0.421519 -0.000842109
v -0.372566 0.438532 -0.000842109
v -0.368426 0.456573 -0.000842109
v -0.357311 0.470542 -0.000842109
v -0.341175 0.478471 -0.000842109
v -0.331837 0.479555 -0.000842109
v 0.331837 0.479555 -0.000842109
v 0.341176 0.478471 -0.000842109
v 0.357311 0.470542 -0.000842109
v 0.368426 0.456573 -0.000842109
v 0.372566 0.438532 -0.000842109
v 0.371491 0.421519 -0.000842109
v 0.363618 0.405268 -0.000842109
v 0.349749 0.394073 -0.000842109
v 0.331837 -0.479555 -0.000842109
v -0.331837 -0.479555 -0.000842109
v -0.349748 -0.475385 -0.000842109
v -0.363618 -0.46419 -0.000842109
v -0.371491 -0.447938 -0.000842109
v -0.372566 -0.430926 -0.000842109
v -0.368426 -0.412886 -0.000842109
v -0.357311 -0.398916 -0.000842109
v -0.341175 -0.390987 -0.000842109
v -0.331837 -0.389904 -0.000842109
v 0.331837 -0.389904 -0.000842109
v 0.341176 -0.390987 -0.000842109
v 0.357311 -0.398916 -0.000842109
v 0.368426 -0.412886 -0.000842109
v 0.372566 -0.430926 -0.000842109
v 0.371491 -0.447938 -0.000842109
v 0.363618 -0.46419 -0.000842109
v 0.349749 -0.475385 -0.000842109
v -0.315316 -0.42431 -0.000842109
v -0.310508 -0.359412 -0.000842109
v -0.277272 -0.253597 -0.000842109
v -0.224163 -0.172767 -0.000842109
v -0.165124 -0.108531 -0.000842109
v -0.1309 -0.0724871 -0.000842109
v -0.104629 -0.0385849 -0.000842109
v -0.0898155 -0.00441533 -0.000842109
v -0.0898786 0.0315076 -0.000842109
v -0.105156 0.0649161 -0.000842109
v -0.132248 0.0971667 -0.000842109
v -0.167542 0.130968 -0.000842109
v -0.225708 0.188471 -0.000842109
v -0.278033 0.261333 -0.000842109
v -0.31078 0.357568 -0.000842109
v -0.315517 0.416955 -0.000842109
v -0.255776 0.416955 -0.000842109
v -0.251966 0.368189 -0.000842109
v -0.225034 0.289037 -0.000842109
v -0.180237 0.227472 -0.000842109
v -0.127037 0.17519 -0.000842109
v -0.0851565 0.134655 -0.000842109
v -0.0509902 0.0915316 -0.000842109
v -0.0308719 0.0419474 -0.000842109
v -0.0307437 -0.0142207 -0.000842109
v -0.0499457 -0.0638 -0.000842109
v -0.082558 -0.108217 -0.000842109
v -0.122537 -0.15073 -0.000842109
v -0.176182 -0.208866 -0.000842109
v -0.222848 -0.279077 -0.000842109
v -0.251479 -0.36926 -0.000842109
v -0.255576 -0.42431 -0.000842109
v 0.315316 -0.42431 -0.000842109
v 0.310508 -0.359412 -0.000842109
v 0.277272 -0.253597 -0.000842109
v 0.224163 -0.172767 -0.000842109
v 0.165124 -0.108531 -0.000842109
v 0.1309 -0.0724871 -0.000842109
v 0.104629 -0.0385849 -0.000842109
v 0.0898155 -0.00441533 -0.000842109
v 0.0898786 0.0315076 -0.000842109
v 0.105156 0.0649161 -0.000842109
v 0.132248 0.0971667 -0.000842109
v 0.167542 0.130968 -0.000842109
v 0.225708 0.188471 -0.000842109
v 0.278033 0.261333 -0.000842109
v 0.31078 0.357568 -0.000842109
v 0.315517 0.416955 -0.000842109
v 0.255776 0.416955 -0.000842109
v 0.251966 0.368189 -0.000842109
v 0.225034 0.289037 -0.000842109
v 0.180237 0.227472 -0.000842109
v 0.127037 0.17519 -0.000842109
v 0.0851565 0.134655 -0.000842109
v 0.0509902 0.0915316 -0.000842109
v 0.0308719 0.0419474 -0.000842109
v 0.0307437 -0.0142207 -0.000842109
v 0.0499457 -0.0638 -0.000842109
v 0.0825579 -0.108217 -0.000842109
v 0.122537 -0.15073 -0.000842109
v 0.176182 -0.208866 -0.000842109
v 0.222848 -0.279077 -0.000842109
v 0.251479 -0.36926 -0.000842109
v 0.255576 -0.42431 -0.000842109
v 0.396639 0.128947 0
v 0.424139 0.156447 0
v 0.404694 0.148393 0
v 0.471771 0.156447 0
v 0.499271 0.128947 0
v 0.491216 0.148393 0
v 0.499271 -0.128947 0
v 0.471771 -0.156447 0
v 0.491216 -0.148393 0
v 0.424139 -0.156447 0
v 0.396639 -0.128947 0
v 0.404694 -0.148393 0
v 0.319008 -0.0513158 0
v 0.291508 -0.0238159 0
v 0.299562 -0.0432613 0
v 0.291508 0.0238159 0
v 0.319008 0.0513158 0
v 0.299562 0.0432613 0
v 0.576902 0.0513158 0
v 0.604402 0.0238159 0
v 0.596348 0.0432613 0
v 0.604402 -0.0238159 0
v 0.576902 -0.0513158 0
v 0.596348 -0.0432613 0
v 0 0.436374 0.0461579
v 0 -0.433085 0.0461579
v -0.0782189 0.0784491 0.0461579
v -0.282929 0.382551 0.0461579
v -0.282672 -0.386949 0.0461579
v -0.125321 -0.110037 0.0461579
v -0.0660229 -0.00799318 0.0461579
v -0.128043 0.134542 0.0461579
v -0.227238 0.241554 0.0461579
v 0.0782189 0.0784491 0.0461579
v 0.282929 0.382551 0.0461579
v 0.282672 -0.386949 0.0461579
v 0.125321 -0.110037 0.0461579
v 0.0660228 -0.00799318 0.0461579
v 0.128043 0.134542 0.0461579
v 0.227238 0.241554 0.0461579
v 0.225102 -0.228552 0.0461579
v -0.225102 -0.228552 0.0461579
v 0.447955 -0.00249991 0.0461579
v 0.450455 -2.21655e-009 0.0461579
v -0.331837 -0.479555 0.0461579
v -0.349748 -0.475385 0.0461579
v -0.363618 -0.46419 0.0461579
v -0.371491 -0.447938 0.0461579
v -0.372566 -0.430926 0.0461579
v -0.368426 -0.412886 0.0461579
v -0.357311 -0.398916 0.0461579
v -0.341175 -0.390987 0.0461579
v -0.331837 -0.389904 0.0461579
v -0.315316 -0.42431 0.0461579
v -0.251479 -0.36926 0.0461579
v -0.255576 -0.42431 0.0461579
v 0.331837 -0.479555 0.0461579
v 0.331837 -0.389904 0.0461579
v 0.341176 -0.390987 0.0461579
v 0.357311 -0.398916 0.0461579
v 0.349749 -0.475385 0.0461579
v 0.315316 -0.42431 0.0461579
v 0.251479 -0.36926 0.0461579
v 0.255576 -0.42431 0.0461579
v 0.368426 -0.412886 0.0461579
v 0.372566 -0.430926 0.0461579
v 0.371491 -0.447938 0.0461579
v 0.363618 -0.46419 0.0461579
v -0.310508 -0.359412 0.0461579
v -0.277272 -0.253597 0.0461579
v -0.222848 -0.279077 0.0461579
v 0.222848 -0.279077 0.0461579
v 0.310508 -0.359412 0.0461579
v 0.277272 -0.253597 0.0461579
v -0.224163 -0.172767 0.0461579
v -0.176182 -0.208866 0.0461579
v -0.122537 -0.15073 0.0461579
v 0.224163 -0.172767 0.0461579
v 0.176182 -0.208866 0.0461579
v 0.122537 -0.15073 0.0461579
v 0.471771 -0.156447 0.0461579
v 0.424139 -0.156447 0.0461579
v 0.396639 -0.128947 0.0461579
v 0.404694 -0.148393 0.0461579
v 0.499271 -0.128947 0.0461579
v 0.491216 -0.148393 0.0461579
v -0.165124 -0.108531 0.0461579
v -0.1309 -0.0724871 0.0461579
v -0.104629 -0.0385849 0.0461579
v -0.0898155 -0.00441533 0.0461579
v -0.0307437 -0.0142207 0.0461579
v -0.0499457 -0.0638 0.0461579
v -0.082558 -0.108217 0.0461579
v 0.104629 -0.0385849 0.0461579
v 0.0898155 -0.00441533 0.0461579
v 0.0307437 -0.0142207 0.0461579
v 0.0499457 -0.0638 0.0461579
v 0.0825579 -0.108217 0.0461579
v 0.165124 -0.108531 0.0461579
v 0.1309 -0.0724871 0.0461579
v 0.319008 -0.0513158 0.0461579
v 0.291508 -0.0238159 0.0461579
v 0.299562 -0.0432613 0.0461579
v 0.604402 -0.0238159 0.0461579
v 0.576902 -0.0513158 0.0461579
v 0.596348 -0.0432613 0.0461579
v -0.132248 0.0971667 0.0461579
v -0.0898786 0.0315076 0.0461579
v -0.105156 0.0649161 0.0461579
v -0.0509902 0.0915316 0.0461579
v -0.0308719 0.0419474 0.0461579
v 0.0898786 0.0315076 0.0461579
v 0.105156 0.0649161 0.0461579
v 0.0509902 0.0915316 0.0461579
v 0.0308719 0.0419474 0.0461579
v 0.132248 0.0971667 0.0461579
v 0.291508 0.0238159 0.0461579
v 0.319008 0.0513158 0.0461579
v 0.299562 0.0432613 0.0461579
v 0.576902 0.0513158 0.0461579
v 0.604402 0.0238159 0.0461579
v 0.596348 0.0432613 0.0461579
v -0.167542 0.130968 0.0461579
v -0.225708 0.188471 0.0461579
v -0.180237 0.227472 0.0461579
v -0.127037 0.17519 0.0461579
v -0.0851565 0.134655 0.0461579
v 0.0851565 0.134655 0.0461579
v 0.167542 0.130968 0.0461579
v 0.225708 0.188471 0.0461579
v 0.127037 0.17519 0.0461579
v 0.180237 0.227472 0.0461579
v 0.396639 0.128947 0.0461579
v 0.424139 0.156447 0.0461579
v 0.404694 0.148393 0.0461579
v 0.471771 0.156447 0.0461579
v 0.499271 0.128947 0.0461579
v 0.491216 0.148393 0.0461579
v -0.278033 0.261333 0.0461579
v -0.31078 0.357568 0.0461579
v -0.225034 0.289037 0.0461579
v 0.225034 0.289037 0.0461579
v 0.278033 0.261333 0.0461579
v 0.31078 0.357568 0.0461579
v -0.331837 0.389904 0.0461579
v -0.251966 0.368189 0.0461579
v -0.349748 0.394073 0.0461579
v -0.363618 0.405268 0.0461579
v -0.371491 0.421519 0.0461579
v -0.372566 0.438532 0.0461579
v -0.368426 0.456573 0.0461579
v -0.357311 0.470542 0.0461579
v -0.341175 0.478471 0.0461579
v -0.331837 0.479555 0.0461579
v -0.315517 0.416955 0.0461579
v -0.255776 0.416955 0.0461579
v 0.331837 0.389904 0.0461579
v 0.331837 0.479555 0.0461579
v 0.341176 0.478471 0.0461579
v 0.357311 0.470542 0.0461579
v 0.349749 0.394073 0.0461579
v 0.251966 0.368189 0.0461579
v 0.315517 0.416955 0.0461579
v 0.255776 0.416955 0.0461579
v 0.368426 0.456573 0.0461579
v 0.372566 0.438532 0.0461579
v 0.371491 0.421519 0.0461579
v 0.363618 0.405268 0.0461579
v -0.190437 0.102536 0
v -0.190436 0.102536 0.0466
v 0.190437 0.102536 0
v 0.190436 0.102536 0.0466
v -0.272955 0.176998 0
v -0.230369 0.138088 0
v -0.272954 0.176998 0.0466
v -0.230369 0.138088 0.0466
v 0.272955 0.176998 0
v 0.230369 0.138088 0
v 0.272954 0.176998 0.0466
v 0.230369 0.138088 0.0466
v -0.340562 0.280436 0
v -0.311811 0.223152 0
v -0.340562 0.280436 0.0466
v -0.311811 0.223152 0.0466
v 0.340562 0.280436 0
v 0.311811 0.223152 0
v 0.340562 0.280436 0.0466
v 0.311811 0.223152 0.0466
v -0.325993 0.409615 0
v -0.338315 0.407071 0
v -0.351684 0.394437 0
v -0.354925 0.380419 0
v -0.354925 0.3614 0
v -0.325993 0.409615 0.0466
v -0.338315 0.407071 0.0466
v -0.351684 0.394437 0.0466
v -0.354925 0.380419 0.0466
v -0.354925 0.3614 0.0466
v 0.325993 0.409615 0
v 0.338315 0.407071 0
v 0.351684 0.394437 0
v 0.354925 0.380419 0
v 0.354925 0.3614 0
v 0.325993 0.409615 0.0466
v 0.338315 0.407071 0.0466
v 0.351684 0.394437 0.0466
v 0.354925 0.380419 0.0466
v 0.354925 0.3614 0.0466
v 5.96046e-009 0.288947 0.0466
v -0.190437 -0.102536 0
v -0.190436 -0.102536 0.0466
v 0.190437 -0.102536 0
v 0.190436 -0.102536 0.0466
v -0.272955 -0.176998 0
v -0.230369 -0.138088 0
v -0.272954 -0.176998 0.0466
v -0.230369 -0.138088 0.0466
v 0.272955 -0.176998 0
v 0.230369 -0.138088 0
v 0.272954 -0.176998 0.0466
v 0.230369 -0.138088 0.0466
v -0.340562 -0.280436 0
v -0.311811 -0.223152 0
v -0.340562 -0.280436 0.0466
v -0.311811 -0.223152 0.0466
v 0.340562 -0.280436 0
v 0.311811 -0.223152 0
v 0.340562 -0.280436 0.0466
v 0.311811 -0.223152 0.0466
v -0.325993 -0.409615 0
v -0.338315 -0.407071 0
v -0.351684 -0.394437 0
v -0.354925 -0.380419 0
v -0.354925 -0.3614 0
v -0.325993 -0.409615 0.0466
v -0.338315 -0.407071 0.0466
v -0.351684 -0.394437 0.0466
v -0.354925 -0.380419 0.0466
v -0.354925 -0.3614 0.0466
v 0.325993 -0.409615 0
v 0.338315 -0.407071 0
v 0.351684 -0.394437 0
v 0.354925 -0.380419 0
v 0.354925 -0.3614 0
v 0.325993 -0.409615 0.0466
v 0.338315 -0.407071 0.0466
v 0.351684 -0.394437 0.0466
v 0.354925 -0.380419 0.0466
v 0.354925 -0.3614 0.0466
v 5.96046e-009 -0.288947 0.0466
v -0.106786 0 0
v -0.106786 0 0.0466
v 0.106786 0 0
v 0.106786 0 0.0466
v -0.14554 -0.0664566 0
v -0.14554 -0.0664566 0.0466
v 0.14554 -0.0664566 0
v 0.14554 -0.0664566 0.0466
v -0.112057 -0.0259632 0
v -0.112057 -0.0259632 0.0466
v 0.112057 -0.0259632 0
v 0.112057 -0.0259632 0.0466
v -0.14554 0.0664566 0
v -0.112057 0.0259632 0
v -0.14554 0.0664566 0.0466
v -0.112057 0.0259632 0.0466
v 0.14554 0.0664566 0
v 0.112057 0.0259632 0
v 0.14554 0.0664566 0.0466
v 0.112057 0.0259632 0.0466
vn -1.41816 0.587416 0
vn -1.50551 0.299462 0
vn -1.50551 -0.29946 0
vn -1.41816 -0.587413 0
vn -0.587416 -1.41816 0
vn -0.299462 -1.50551 0
vn 0.299461 -1.50551 0
vn 0.587415 -1.41816 0
vn 1.41816 -0.587413 0
vn 1.50551 -0.29946 0
vn 1.50551 0.299462 0
vn 1.41816 0.587416 0
vn 0.587418 1.41816 0
vn 0.299463 1.50551 0
vn -0.299464 1.50551 0
vn -0.587419 1.41815 0
vn -0.587415 -1.41816 0
vn -0.299462 -1.50551 0
vn 0.29946 -1.50551 0
vn 0.587412 -1.41816 0
vn 1.41816 -0.587416 0
vn 1.50551 -0.299462 0
vn 1.50551 0.299462 0
vn 1.41816 0.587416 0
vn 0.587412 1.41816 0
vn 0.29946 1.50551 0
vn -0.299462 1.50551 0
vn -0.587415 1.41816 0
vn -1.41816 0.587418 0
vn -1.50551 0.299463 0
vn -1.50551 -0.299463 0
vn -1.41816 -0.587419 0
vn 0 0 1
vn 1.52511 0.173986 0
vn 1.33177 0.763283 0
vn -1.52511 0.173986 3.17707e-007
vn -1.52909 -0.134578 1.60502e-007
vn -1.4569 -0.483397 0
vn 1.4569 -0.483397 0
vn 1.52909 -0.134578 0
vn -1.28189 -0.844385 -1.23155e-007
vn -1.1072 -1.06318 9.35843e-008
vn -1.02807 -1.13986 6.40966e-007
vn -0.991436 -1.17187 7.25949e-007
vn -0.15601 1.52705 3.24997e-008
vn 0.15601 1.52705 3.24997e-008
vn 0.709335 1.36127 3.36103e-008
vn -1.33178 0.763282 2.77432e-007
vn 1.28189 -0.844385 -1.23155e-007
vn 1.1072 -1.06318 9.35843e-008
vn 1.02807 -1.13986 6.40966e-007
vn 0.991435 -1.17187 7.25949e-007
vn -0.709336 1.36127 1.47767e-007
vn 1.52511 -0.173986 0
vn 1.33177 -0.763283 0
vn -1.52511 -0.173986 3.17707e-007
vn -1.52909 0.134578 1.60502e-007
vn -1.4569 0.483397 0
vn 1.4569 0.483397 0
vn 1.52909 0.134578 0
vn -1.28189 0.844385 -1.23155e-007
vn -1.1072 1.06318 9.35843e-008
vn -1.02807 1.13986 6.40966e-007
vn -0.991435 1.17187 7.25949e-007
vn -0.15601 -1.52705 3.24997e-008
vn 0.15601 -1.52705 3.24997e-008
vn 0.709335 -1.36127 3.36103e-008
vn -1.33178 -0.763282 2.77432e-007
vn 1.28189 0.844385 -1.23155e-007
vn 1.1072 1.06318 9.35843e-008
vn 1.02807 1.13986 6.40966e-007
vn 0.991435 1.17187 7.25949e-007
vn -0.709336 -1.36127 1.47767e-007
vn -1.0778 1.09296 6.11647e-007
vn 1.0778 1.09296 6.11647e-007
vn 1.38511 0.661586 7.21357e-007
vn -1.38511 0.661587 7.21356e-007
vn 1.535 0 7.19477e-007
vn -1.535 -3.26758e-007 7.19477e-007
vn -1.0778 -1.09296 3.63939e-007
vn 1.0778 -1.09296 3.63939e-007
vn 1.38511 -0.661586 3.86556e-007
vn -1.38511 -0.661587 3.86556e-007
vt 0.866026 0.0337097
vt 1 0.0674193
vt 1 0.932581
vt 0.866026 0.96629
vt 0.732051 1
vt 0.267949 1
vt 0.133974 0.96629
vt 0 0.932581
vt 0 0.0674193
vt 0.133974 0.0337097
vt 0.267949 0
vt 0.732051 0
vt 0.87843 0.508509
usemtl Default
f 131/1/1 129/2/2 261/2/2 263/1/1
f 129/2/2 139/3/3 211/3/3 261/2/2
f 139/3/3 140/4/4 212/4/4 211/3/3
f 140/4/5 138/5/6 210/5/6 212/4/5
f 138/5/6 136/6/7 209/6/7 210/5/6
f 136/6/7 137/7/8 214/7/8 209/6/7
f 137/7/9 135/8/10 213/8/10 214/7/9
f 135/8/10 133/9/11 265/9/11 213/8/10
f 133/9/11 134/10/12 266/10/12 265/9/11
f 134/10/13 132/11/14 264/11/14 266/10/13
f 132/11/14 130/12/15 262/12/15 264/11/14
f 130/12/15 131/1/16 263/1/16 262/12/15
f 143/1/17 141/2/18 229/2/18 231/1/17
f 141/2/18 151/3/19 233/3/19 229/2/18
f 151/3/19 152/4/20 234/4/20 233/3/19
f 152/4/21 150/5/22 232/5/22 234/4/21
f 150/5/22 148/6/23 249/6/23 232/5/22
f 148/6/23 149/7/24 250/7/24 249/6/23
f 149/7/25 147/8/26 248/8/26 250/7/25
f 147/8/26 145/9/27 246/9/27 248/8/26
f 145/9/27 146/10/28 247/10/28 246/9/27
f 146/10/29 144/11/30 245/11/30 247/10/29
f 144/11/30 142/12/31 230/12/31 245/11/30
f 142/12/31 143/1/32 231/1/32 230/12/31
f 261/2/33 211/3/33 171/13/33
f 211/3/33 212/4/33 171/13/33
f 212/4/33 210/5/33 171/13/33
f 210/5/33 209/6/33 171/13/33
f 209/6/33 214/7/33 171/13/33
f 214/7/33 213/8/33 171/13/33
f 213/8/33 265/9/33 171/13/33
f 265/9/33 266/10/33 171/13/33
f 266/10/33 264/11/33 171/13/33
f 264/11/33 262/12/33 171/13/33
f 262/12/33 263/1/33 171/13/33
f 263/1/33 261/2/33 171/13/33
f 229/2/33 233/3/33 172/13/33
f 233/3/33 234/4/33 172/13/33
f 234/4/33 232/5/33 172/13/33
f 232/5/33 249/6/33 172/13/33
f 249/6/33 250/7/33 172/13/33
f 250/7/33 248/8/33 172/13/33
f 248/8/33 246/9/33 172/13/33
f 246/9/33 247/10/33 172/13/33
f 247/10/33 245/11/33 172/13/33
f 245/11/33 230/12/33 172/13/33
f 230/12/33 231/1/33 172/13/33
f 231/1/33 229/2/33 172/13/33
f 335//34 330//34 329//35 334//35
f 320//36 321//37 326//37 325//36
f 309//38 311//38 326//37 321//37
f 315//39 313//39 331//40 336//40
f 309//38 310//41 312//41 311//38
f 310//41 301//42 303//42 312//41
f 301//42 302//43 304//43 303//42
f 302//43 297//44 298//44 304//43
f 322//45 332//46 327//46 317//45
f 327//46 332//46 333//47 328//47
f 320//36 325//36 324//48 319//48
f 330//34 335//34 336//40 331//40
f 313//39 315//39 316//49 314//49
f 314//49 316//49 307//50 305//50
f 305//50 307//50 308//51 306//51
f 306//51 308//51 300//52 299//52
f 317//45 318//53 323//53 322//45
f 319//48 324//48 323//53 318//53
f 334//35 329//35 328//47 333//47
f 335//33 334//33 337//33
f 334//33 333//33 337//33
f 333//33 332//33 337//33
f 332//33 322//33 337//33
f 322//33 323//33 337//33
f 323//33 324//33 337//33
f 324//33 325//33 337//33
f 325//33 326//33 337//33
f 326//33 311//33 337//33
f 311//33 312//33 337//33
f 312//33 303//33 337//33
f 303//33 304//33 337//33
f 304//33 298//33 337//33
f 298//33 300//33 337//33
f 300//33 308//33 337//33
f 308//33 307//33 337//33
f 307//33 316//33 337//33
f 316//33 315//33 337//33
f 315//33 336//33 337//33
f 336//33 335//33 337//33
f 376//54 375//55 370//55 371//54
f 361//56 366//56 367//57 362//57
f 350//58 362//57 367//57 352//58
f 356//59 377//60 372//60 354//59
f 350//58 352//58 353//61 351//61
f 351//61 353//61 344//62 342//62
f 342//62 344//62 345//63 343//63
f 343//63 345//63 339//64 338//64
f 363//65 358//65 368//66 373//66
f 368//66 369//67 374//67 373//66
f 361//56 360//68 365//68 366//56
f 371//54 372//60 377//60 376//54
f 354//59 355//69 357//69 356//59
f 355//69 346//70 348//70 357//69
f 346//70 347//71 349//71 348//70
f 347//71 340//72 341//72 349//71
f 358//65 363//65 364//73 359//73
f 360//68 359//73 364//73 365//68
f 375//55 374//67 369//67 370//55
f 376//33 378//33 375//33
f 375//33 378//33 374//33
f 374//33 378//33 373//33
f 373//33 378//33 363//33
f 363//33 378//33 364//33
f 364//33 378//33 365//33
f 365//33 378//33 366//33
f 366//33 378//33 367//33
f 367//33 378//33 352//33
f 352//33 378//33 353//33
f 353//33 378//33 344//33
f 344//33 378//33 345//33
f 345//33 378//33 339//33
f 339//33 378//33 341//33
f 341//33 378//33 349//33
f 349//33 378//33 348//33
f 348//33 378//33 357//33
f 357//33 378//33 356//33
f 356//33 378//33 377//33
f 377//33 378//33 376//33
f 339//64 384//74 383//74 338//64
f 340//72 385//75 386//75 341//72
f 341//33 386//33 384//33 339//33
f 385//75 389//76 390//76 386//75
f 386//33 390//33 388//33 384//33
f 384//74 388//77 387//77 383//74
f 389//76 381//78 382//78 390//76
f 390//33 382//33 380//33 388//33
f 388//77 380//79 379//79 387//77
f 298//44 297//44 391//80 393//80
f 299//52 300//52 397//81 395//81
f 300//33 298//33 393//33 397//33
f 395//81 397//81 398//82 396//82
f 397//33 393//33 394//33 398//33
f 393//80 391//80 392//83 394//83
f 396//82 398//82 382//78 381//78
f 398//33 394//33 380//33 382//33
f 394//83 392//83 379//79 380//79
