# OBJ written from C:\Users\Brad\Desktop\timer\icon_time-bonus_centered.obj
# Units	meters

g icon_time-bonus_centered
v -0.351062 -0.1163 -0.0243421
v -0.221423 -0.140369 -0.0243421
v -0.212721 -0.174167 -0.0243421
v -0.3388 -0.278005 -0.0243421
v -0.37021 -0.263671 -0.0243421
v -0.37377 -0.135764 -0.0243421
v -2.52062e-006 -0.423671 -0.0243421
v -0.0608725 -0.419341 -0.0243421
v -0.119695 -0.406624 -0.0243421
v -0.175712 -0.385928 -0.0243421
v -0.228167 -0.357661 -0.0243421
v -0.2763 -0.322232 -0.0243421
v -0.319355 -0.28005 -0.0243421
v -0.224826 -0.195756 -0.0243421
v -0.194511 -0.225464 -0.0243421
v -0.160621 -0.250416 -0.0243421
v -0.123692 -0.270323 -0.0243421
v -0.0842571 -0.284898 -0.0243421
v -0.0428493 -0.293854 -0.0243421
v -2.52062e-006 -0.296903 -0.0243421
v 0.0688668 -0.288933 -0.0243421
v 0.132131 -0.266236 -0.0243421
v 0.187972 -0.230635 -0.0243421
v 0.234571 -0.183952 -0.0243421
v 0.270107 -0.12801 -0.0243421
v 0.292763 -0.0646305 -0.0243421
v 0.300719 0.00436401 -0.0243421
v 0.292763 0.0733581 -0.0243421
v 0.270107 0.136738 -0.0243421
v 0.234571 0.192679 -0.0243421
v 0.187972 0.239362 -0.0243421
v 0.132131 0.274963 -0.0243421
v 0.0688668 0.29766 -0.0243421
v -2.52062e-006 0.305631 -0.0243421
v -0.0688699 0.29766 -0.0243421
v -0.132133 0.274963 -0.0243421
v -0.187973 0.239362 -0.0243421
v -0.234571 0.192679 -0.0243421
v -0.270107 0.136738 -0.0243421
v -0.292763 0.0733581 -0.0243421
v -0.300719 0.00436401 -0.0243421
v -0.30715 -0.0235095 -0.0243421
v -0.324416 -0.0450945 -0.0243421
v -0.349481 -0.0573459 -0.0243421
v -0.378496 -0.0573459 -0.0243421
v -0.40356 -0.0450945 -0.0243421
v -0.420826 -0.0235095 -0.0243421
v -0.427257 0.00436401 -0.0243421
v -0.415953 0.102389 -0.0243421
v -0.383764 0.192437 -0.0243421
v -0.333276 0.271918 -0.0243421
v -0.267071 0.338245 -0.0243421
v -0.187734 0.388826 -0.0243421
v -0.0978497 0.421074 -0.0243421
v 0.0978455 0.421074 -0.0243421
v 0.18773 0.388826 -0.0243421
v 0.267068 0.338245 -0.0243421
v 0.333274 0.271918 -0.0243421
v 0.383764 0.192437 -0.0243421
v 0.415953 0.102389 -0.0243421
v 0.427257 0.00436401 -0.0243421
v 0.415953 -0.0936611 -0.0243421
v 0.383764 -0.18371 -0.0243421
v 0.333274 -0.263191 -0.0243421
v 0.267068 -0.329517 -0.0243421
v 0.18773 -0.380099 -0.0243421
v 0.0978455 -0.412346 -0.0243421
v 0.104555 0.485438 -0.0243421
v 0.10141 0.471807 -0.0243421
v 0.0872218 0.457592 -0.0243421
v -0.0837353 0.457592 -0.0243421
v -0.0979242 0.471807 -0.0243421
v -0.101069 0.485438 -0.0243421
v -0.101069 0.502676 -0.0243421
v -0.0979242 0.516307 -0.0243421
v -0.0837353 0.53052 -0.0243421
v -0.070129 0.533671 -0.0243421
v 0.0736158 0.533671 -0.0243421
v 0.0872218 0.53052 -0.0243421
v 0.10141 0.516307 -0.0243421
v 0.104555 0.502676 -0.0243421
v -0.351062 -0.1163 0.0256579
v -0.221423 -0.140369 0.0256579
v -0.212721 -0.174167 0.0256579
v -0.3388 -0.278005 0.0256579
v -0.37021 -0.263671 0.0256579
v -0.37377 -0.135764 0.0256579
v -2.52062e-006 -0.423671 0.0256579
v -0.0608725 -0.419341 0.0256579
v -0.119695 -0.406624 0.0256579
v -0.175712 -0.385928 0.0256579
v -0.228167 -0.357661 0.0256579
v -0.2763 -0.322232 0.0256579
v -0.319355 -0.28005 0.0256579
v -0.224826 -0.195756 0.0256579
v -0.19451 -0.225464 0.0256579
v -0.160621 -0.250416 0.0256579
v -0.123692 -0.270323 0.0256579
v -0.0842571 -0.284898 0.0256579
v -0.0428493 -0.293854 0.0256579
v -2.52062e-006 -0.296903 0.0256579
v 0.0688668 -0.288933 0.0256579
v 0.132131 -0.266236 0.0256579
v 0.187972 -0.230635 0.0256579
v 0.234571 -0.183952 0.0256579
v 0.270107 -0.12801 0.0256579
v 0.292763 -0.0646305 0.0256579
v 0.300719 0.00436401 0.0256579
v 0.292763 0.0733581 0.0256579
v 0.270107 0.136738 0.0256579
v 0.234571 0.192679 0.0256579
v 0.187972 0.239362 0.0256579
v 0.132131 0.274963 0.0256579
v 0.0688668 0.29766 0.0256579
v -2.52062e-006 0.305631 0.0256579
v -0.0688699 0.29766 0.0256579
v -0.132133 0.274963 0.0256579
v -0.187973 0.239362 0.0256579
v -0.234571 0.192679 0.0256579
v -0.270108 0.136738 0.0256579
v -0.292763 0.0733581 0.0256579
v -0.300719 0.00436401 0.0256579
v -0.30715 -0.0235095 0.0256579
v -0.324416 -0.0450945 0.0256579
v -0.349481 -0.0573459 0.0256579
v -0.378496 -0.0573459 0.0256579
v -0.40356 -0.0450945 0.0256579
v -0.420826 -0.0235095 0.0256579
v -0.427257 0.00436401 0.0256579
v -0.415953 0.102389 0.0256579
v -0.383764 0.192437 0.0256579
v -0.333276 0.271918 0.0256579
v -0.267071 0.338245 0.0256579
v -0.187734 0.388826 0.0256579
v -0.0978495 0.421074 0.0256579
v 0.0978455 0.421074 0.0256579
v 0.18773 0.388826 0.0256579
v 0.267068 0.338245 0.0256579
v 0.333274 0.271918 0.0256579
v 0.383764 0.192437 0.0256579
v 0.415953 0.102389 0.0256579
v 0.427257 0.00436401 0.0256579
v 0.415953 -0.0936611 0.0256579
v 0.383764 -0.18371 0.0256579
v 0.333274 -0.263191 0.0256579
v 0.267068 -0.329517 0.0256579
v 0.18773 -0.380099 0.0256579
v 0.0978455 -0.412346 0.0256579
v 0.104555 0.485438 0.0256579
v 0.10141 0.471807 0.0256579
v 0.0872218 0.457592 0.0256579
v -0.0837351 0.457592 0.0256579
v -0.0979242 0.471807 0.0256579
v -0.101069 0.485438 0.0256579
v -0.101069 0.502676 0.0256579
v -0.0979242 0.516307 0.0256579
v -0.0837351 0.53052 0.0256579
v -0.070129 0.533671 0.0256579
v 0.0736158 0.533671 0.0256579
v 0.0872218 0.53052 0.0256579
v 0.10141 0.516307 0.0256579
v 0.104555 0.502676 0.0256579
v -0.0538182 0.42617 0.0256579
v -0.0538186 0.42617 -0.0243421
v 0.0489217 0.426736 0.0256579
v 0.0489217 0.426736 -0.0243421
v 0.0491791 0.454442 0.0256579
v 0.0491791 0.454442 -0.0243421
v -0.0534259 0.454442 -0.0243421
v -0.0534259 0.454442 0.0256579
v -0.327915 -0.268889 0.0256579
v -0.327915 -0.268889 -0.0243421
v -0.23033 -0.188579 -0.0243421
v -0.23033 -0.188579 0.0256579
v -0.36696 -0.120711 0.0256579
v -0.36696 -0.120711 -0.0243421
v -0.358877 -0.280452 0.0256579
v -0.358877 -0.280452 -0.0243421
v -0.206537 -0.154546 0.0256579
v -0.206538 -0.154546 -0.0243421
v -0.307864 -0.189332 0.0256579
v 0.00139175 0.492005 0.0256579
v -0.176447 -0.051579 -0.0256579
v -0.203947 -0.0240791 -0.0256579
v -0.195893 -0.0435245 -0.0256579
v -0.203947 0.0235526 -0.0256579
v -0.176447 0.0510526 -0.0256579
v -0.195893 0.0429981 -0.0256579
v 0.176447 0.0510526 -0.0256579
v 0.203947 0.0235526 -0.0256579
v 0.195893 0.0429981 -0.0256579
v 0.203947 -0.0240791 -0.0256579
v 0.176447 -0.051579 -0.0256579
v 0.195893 -0.0435245 -0.0256579
v -0.176447 -0.051579 0.0226579
v -0.203947 -0.0240791 0.0226579
v -0.195893 -0.0435245 0.0226579
v -0.203947 0.0235526 0.0226579
v -0.176447 0.0510526 0.0226579
v -0.195893 0.0429981 0.0226579
v 0.176447 0.0510526 0.0226579
v 0.203947 0.0235526 0.0226579
v 0.195893 0.0429981 0.0226579
v 0.203947 -0.0240791 0.0226579
v 0.176447 -0.051579 0.0226579
v 0.195893 -0.0435245 0.0226579
v -0.0513158 -0.051579 -0.0256579
v -0.0513158 -0.051579 0.0226579
v 0.0513158 -0.051579 -0.0256579
v 0.0513158 -0.051579 0.0226579
v -0.0513158 0.0510526 -0.0256579
v -0.0513158 0.0510526 0.0226579
v -0.0513158 0.176184 -0.0256579
v -0.0238159 0.203684 -0.0256579
v -0.0432613 0.19563 -0.0256579
v 0.0238159 0.203684 -0.0256579
v 0.0513158 0.176184 -0.0256579
v 0.0432613 0.19563 -0.0256579
v 0.0513158 -0.176711 -0.0256579
v 0.0238159 -0.204211 -0.0256579
v 0.0432613 -0.196156 -0.0256579
v -0.0238159 -0.204211 -0.0256579
v -0.0513158 -0.176711 -0.0256579
v -0.0432613 -0.196156 -0.0256579
v -0.0513158 0.176184 0.0226579
v -0.0238159 0.203684 0.0226579
v -0.0432613 0.19563 0.0226579
v 0.0238159 0.203684 0.0226579
v 0.0513158 0.176184 0.0226579
v 0.0432613 0.19563 0.0226579
v 0.0513158 -0.176711 0.0226579
v 0.0238159 -0.204211 0.0226579
v 0.0432613 -0.196156 0.0226579
v -0.0238159 -0.204211 0.0226579
v -0.0513158 -0.176711 0.0226579
v -0.0432613 -0.196156 0.0226579
v 0.0513158 0.0510526 -0.0256579
v 0.0513158 0.0510526 0.0226579
vn -0.0435245 0.999052 0
vn 0.454932 0.890526 0
vn 0 0 1
vn -0.952057 -0.305922 0
vn -0.980359 0.19722 0
vn 0.648007 0.761635 -6.17987e-006
vn 0.535021 0.844839 -2.83415e-006
vn 0.973881 -0.227061 0
vn 0.985454 -0.169941 0
vn 0.225368 -0.974274 0
vn -0.225368 -0.974274 1.61196e-006
vn 0.99358 0.113135 -2.36888e-006
vn 0.874869 0.48436 -1.20826e-006
vn 0.113528 0.993535 0
vn 0.485485 0.874245 0
vn -0.113528 0.993535 0
vn -0.485475 0.87425 1.75539e-006
vn -0.99358 -0.113129 0
vn -0.99358 0.113131 0
vn -0.874866 0.484366 1.75516e-006
vn -0.874877 -0.484346 0
vn 0.99358 -0.113129 -2.36888e-006
vn 0.642089 -0.76663 0
vn 0.397926 -0.917418 0
vn 0.828081 -0.560608 0
vn 0.63335 -0.773865 0
vn 0.87488 -0.48434 -1.20826e-006
vn -0.900139 -0.435602 0
vn -0.625192 -0.780471 1.60954e-006
vn 0.625184 -0.780477 0
vn 0.900135 -0.435611 0
vn -0.998434 -0.0559332 0
vn 0.898428 -0.43912 2.025e-006
vn -0.973881 0.227059 0
vn 0.780578 -0.625058 2.02455e-006
vn -0.780581 0.625054 0
vn -0.898431 0.439114 0
vn 0.626413 -0.779492 0
vn 0.440377 -0.897813 0
vn -0.626414 0.77949 0
vn 0.227829 -0.973701 0
vn -0.44038 0.897811 8.10167e-007
vn 1.60507e-006 -1 0
vn -0.227826 0.973702 1.22431e-006
vn -0.999904 0.0138754 0
vn -0.114965 0.99337 8.22294e-007
vn 0.999957 -0.0092891 0
vn -0.227825 -0.973702 0
vn -0.440371 -0.897816 0
vn 0.227821 0.973703 0
vn 0.114958 0.99337 0
vn -0.626406 -0.779497 8.48772e-007
vn 0.440377 0.897813 0
vn -0.780575 -0.625062 8.48763e-007
vn 0.62641 0.779493 1.06097e-006
vn -0.898428 -0.43912 1.4119e-006
vn 0.780577 0.62506 1.06096e-006
vn -0.97388 -0.227062 1.41237e-006
vn 0.898428 0.43912 1.12952e-006
vn -1 -3.93748e-007 0
vn 0.97388 0.227063 1.1299e-006
vn -0.97388 0.227063 0
vn 1 1.34999e-007 1.19209e-006
vn -0.898429 0.439119 1.26563e-006
vn 0.97388 -0.227061 1.19202e-006
vn -0.780577 0.62506 1.26534e-006
vn 0.898429 -0.439119 1.26563e-006
vn -0.626409 0.779495 6.44703e-007
vn 0.780577 -0.62506 1.26534e-006
vn -0.440374 0.897814 6.44859e-007
vn 0.62641 -0.779494 0
vn -0.227823 0.973703 0
vn 0.440374 -0.897815 0
vn 0.227825 -0.973702 0
vn -0.0220873 0.999756 0
vn 0.0221044 -0.999756 0
vn 0.141548 0.989931 0
vn -0.141492 -0.989939 0
vn 0.279737 0.960077 0
vn -0.279634 -0.960107 0
vn 0.411609 0.91136 0
vn -0.411489 -0.911415 0
vn -0.534901 -0.844915 0
vn -0.647909 -0.761718 0
vn 0.748589 0.663034 -3.34577e-006
vn 0.793533 0.608527 0
vn -0.911094 0.412198 0
vn -0.267354 0.963598 0
vn 0.120992 -0.992653 0
vn -0.828713 -0.559673 0
vn 0.689662 0.724132 0
vn 0.953751 -0.300597 0
vn -0.793487 -0.608587 0
vn -0.748529 -0.663103 0
vn 0.707759 -0.706454 0
vn 0.0825281 -0.996589 0
vn -0.103383 -0.994642 0
vn -0.430403 -0.902637 0
vn -0.382681 -0.923881 0
vn -0.195089 -0.980786 0
vn 0.195089 -0.980786 0
vn 0.382681 -0.923881 0
vn 0.92388 -0.382683 0
vn 0.980785 -0.19509 0
vn 0.980785 0.19509 0
vn 0.92388 0.382683 0
vn 0.382681 0.923881 0
vn 0.195089 0.980786 0
vn -0.195089 0.980786 0
vn -0.382681 0.923881 0
vn -0.92388 0.382683 0
vn -0.980785 0.19509 0
vn -0.980785 -0.19509 0
vn -0.92388 -0.382683 0
vn 0 -1 0
vn 0 1 0
vn -0.19509 -0.980785 0
vn 0.19509 -0.980785 0
vn 0.19509 0.980785 0
vn -0.19509 0.980785 0
vn 1 0 0
vn 0.980786 0.195089 0
vn 0.980785 -0.195089 0
vn 0.923881 0.382681 0
vn -1 0 0
vn -0.980786 0.195089 0
vn 0.382683 0.92388 0
vn -0.382683 0.92388 0
vn -0.923881 0.382681 0
vn 0.92388 -0.382681 0
vn -0.980785 -0.195089 0
vn -0.382683 -0.92388 0
vn 0.382683 -0.92388 0
vn -0.92388 -0.382681 0
vt 0.866026 0.0337097
vt 1 0.0674193
vt 1 0.932581
vt 0.866026 0.96629
vt 0.732051 1
vt 0.267949 1
vt 0.133974 0.96629
vt 0 0.932581
vt 0 0.0674193
vt 0.133974 0.0337097
vt 0.267949 0
vt 0.732051 0
vt 1 0.625806
vt 1 0.374194
vt 1 0.374194
vt 0 0.374194
vt 0 0.625806
vt 0 0.625807
usemtl txt_045white
f 1//1 82//1 83//2 2//2
f 181//3 179//3 83//3
f 181//3 84//3 179//3
f 181//3 177//3 85//3
f 181//3 86//3 177//3
f 5//4 86//4 87//5 6//5
f 181//3 175//3 87//3
f 181//3 82//3 175//3
f 15//6 96//6 97//7 16//7
f 40//8 121//8 122//9 41//9
f 44//10 125//10 126//11 45//11
f 162//12 81//12 80//13 161//13
f 182//3 161//3 160//3
f 78//14 159//14 160//15 79//15
f 158//16 77//16 76//17 157//17
f 182//3 157//3 156//3
f 73//18 154//18 155//19 74//19
f 74//19 155//19 156//20 75//20
f 154//18 73//18 72//21 153//21
f 182//3 151//3 150//3
f 77//16 158//16 159//14 78//14
f 182//3 167//3 151//3
f 182//3 152//3 170//3
f 182//3 153//3 152//3
f 81//12 162//12 149//22 68//22
f 171//23 85//24 4//24 172//23
f 84//25 174//26 173//26 3//25
f 68//22 149//22 150//27 69//27
f 47//28 46//29 127//29 128//28
f 46//29 45//11 126//11 127//29
f 44//10 43//30 124//30 125//10
f 127//3 126//3 125//3 124//3
f 43//30 42//31 123//31 124//30
f 123//3 128//3 127//3 124//3
f 42//31 41//9 122//9 123//31
f 47//28 128//28 129//32 48//32
f 129//3 128//3 123//3 122//3
f 40//8 39//33 120//33 121//8
f 130//34 49//34 48//32 129//32
f 130//3 129//3 122//3 121//3
f 39//33 38//35 119//35 120//33
f 51//36 50//37 131//37 132//36
f 131//37 50//37 49//34 130//34
f 131//3 130//3 121//3 120//3
f 38//35 37//38 118//38 119//35
f 132//3 131//3 120//3 119//3
f 37//38 36//39 117//39 118//38
f 133//40 52//40 51//36 132//36
f 133//3 132//3 119//3 118//3
f 36//39 35//41 116//41 117//39
f 134//42 53//42 52//40 133//40
f 134//3 133//3 118//3 117//3
f 35//41 34//43 115//43 116//41
f 135//44 54//44 53//42 134//42
f 134//3 117//3 116//3 135//3
f 170//45 169//45 164//45 163//45
f 163//46 164//46 54//44 135//44
f 115//3 163//3 135//3 116//3
f 168//47 167//47 165//47 166//47
f 163//3 165//3 167//3 170//3
f 115//43 34//43 33//48 114//48
f 165//3 163//3 115//3
f 33//48 32//49 113//49 114//48
f 55//50 166//51 165//51 136//50
f 115//3 114//3 136//3 165//3
f 32//49 31//52 112//52 113//49
f 137//53 56//53 55//50 136//50
f 136//3 114//3 113//3 137//3
f 31//52 30//54 111//54 112//52
f 138//55 57//55 56//53 137//53
f 137//3 113//3 112//3 138//3
f 30//54 29//56 110//56 111//54
f 139//57 58//57 57//55 138//55
f 138//3 112//3 111//3 139//3
f 29//56 28//58 109//58 110//56
f 140//59 59//59 58//57 139//57
f 139//3 111//3 110//3 140//3
f 28//58 27//60 108//60 109//58
f 141//61 60//61 59//59 140//59
f 141//3 140//3 110//3 109//3
f 27//60 26//62 107//62 108//60
f 142//63 61//63 60//61 141//61
f 142//3 141//3 109//3 108//3
f 26//62 25//64 106//64 107//62
f 143//65 62//65 61//63 142//63
f 142//3 108//3 107//3 143//3
f 25//64 24//66 105//66 106//64
f 144//67 63//67 62//65 143//65
f 143//3 107//3 106//3 144//3
f 24//66 23//68 104//68 105//66
f 145//69 64//69 63//67 144//67
f 145//3 144//3 106//3 105//3
f 23//68 22//70 103//70 104//68
f 146//71 65//71 64//69 145//69
f 146//3 145//3 105//3 104//3
f 22//70 21//72 102//72 103//70
f 147//73 66//73 65//71 146//71
f 147//3 146//3 104//3 103//3
f 148//74 67//74 66//73 147//73
f 148//3 147//3 103//3 102//3
f 102//72 21//72 20//75 101//75
f 88//76 7//76 67//74 148//74
f 88//3 148//3 102//3 101//3
f 20//75 19//77 100//77 101//75
f 89//78 8//78 7//76 88//76
f 89//3 88//3 101//3 100//3
f 19//77 18//79 99//79 100//77
f 90//80 9//80 8//78 89//78
f 90//3 89//3 100//3 99//3
f 18//79 17//81 98//81 99//79
f 91//82 10//82 9//80 90//80
f 91//3 90//3 99//3 98//3
f 17//81 16//7 97//7 98//81
f 92//83 11//83 10//82 91//82
f 92//3 91//3 98//3 97//3
f 93//84 12//84 11//83 92//83
f 93//3 92//3 97//3 96//3
f 95//85 14//85 173//86 174//86
f 83//3 82//3 181//3
f 6//5 87//5 175//87 176//87
f 82//1 1//1 176//88 175//88
f 87//3 86//3 181//3
f 4//24 85//24 177//89 178//89
f 86//4 5//4 178//90 177//90
f 85//3 171//3 181//3
f 171//3 174//3 181//3
f 174//3 84//3 181//3
f 2//2 83//2 179//91 180//91
f 84//25 3//25 180//92 179//92
f 96//6 15//6 14//85 95//85
f 172//93 13//94 94//94 171//93
f 93//84 94//94 13//94 12//84
f 94//3 93//3 96//3 95//3
f 171//3 94//3 95//3 174//3
f 162//3 161//3 182//3
f 80//13 79//15 160//15 161//13
f 160//3 159//3 182//3
f 159//3 158//3 182//3
f 158//3 157//3 182//3
f 157//17 76//17 75//20 156//20
f 156//3 155//3 182//3
f 155//3 154//3 182//3
f 154//3 153//3 182//3
f 151//95 70//95 69//27 150//27
f 168//96 70//96 151//96 167//96
f 170//3 167//3 182//3
f 170//97 152//98 71//98 169//97
f 72//21 71//98 152//98 153//21
f 150//3 149//3 182//3
f 149//3 162//3 182//3
f 185/1/99 183/2/100 195/2/100 197/1/99
f 193/3/101 194/4/102 206/4/102 205/3/101
f 194/4/103 192/5/104 204/5/104 206/4/103
f 192/5/104 190/6/105 202/6/105 204/5/104
f 190/6/105 191/7/106 203/7/106 202/6/105
f 191/7/107 189/8/108 201/8/108 203/7/107
f 187/9/109 188/10/110 200/10/110 199/9/109
f 188/10/111 186/11/112 198/11/112 200/10/111
f 186/11/112 184/12/113 196/12/113 198/11/112
f 184/12/113 185/1/114 197/1/114 196/12/113
f 210/13/115 209/13/115 193/3/101 205/3/101
f 207/14/115 208/15/115 195/2/100 183/2/100
f 212/16/116 211/16/116 187/9/109 199/9/109
f 222/5/117 220/6/118 232/6/118 234/5/117
f 216/11/119 214/12/120 226/12/120 228/11/119
f 238/17/121 237/18/121 217/9/122 229/9/122
f 231/8/123 219/8/123 209/13/121 210/13/121
f 238/17/116 201/8/108 189/8/108 237/18/116
f 212/16/3 199/9/3 195/2/3 208/15/3
f 199/9/3 200/10/3 197/1/3 195/2/3
f 200/10/3 198/11/3 196/12/3 197/1/3
f 210/13/3 205/3/3 201/8/3 238/17/3
f 203/7/3 201/8/3 205/3/3 206/4/3
f 206/4/3 204/5/3 202/6/3 203/7/3
f 212/16/3 208/15/3 210/13/3 238/17/3
f 229/9/122 217/9/122 218/10/124 230/10/124
f 225/2/3 212/16/3 238/17/3 229/9/3
f 212/16/125 225/2/126 213/2/126 211/16/125
f 230/10/127 218/10/127 216/11/119 228/11/119
f 226/12/120 214/12/120 215/1/128 227/1/128
f 225/2/126 227/1/129 215/1/129 213/2/126
f 225/2/3 229/9/3 230/10/3 227/1/3
f 227/1/3 230/10/3 228/11/3 226/12/3
f 233/7/130 221/7/130 219/8/123 231/8/123
f 207/14/125 223/3/131 235/3/131 208/15/125
f 231/8/3 210/13/3 208/15/3 235/3/3
f 236/4/132 224/4/132 222/5/117 234/5/117
f 232/6/118 220/6/118 221/7/133 233/7/133
f 236/4/134 235/3/131 223/3/131 224/4/134
f 231/8/3 235/3/3 236/4/3 233/7/3
f 233/7/3 236/4/3 234/5/3 232/6/3
