# OBJ written from C:\Users\Brad\Desktop\_2\icon_hourglass_plus.obj
# Units	meters

g icon_hourglass_plus
v 0.331837 0.469023 -0.000842109
v -0.331837 0.469023 -0.000842109
v -0.341175 0.557591 -0.000842109
v -0.331837 0.558674 -0.000842109
v 0.331837 0.558674 -0.000842109
v 0.341176 0.557591 -0.000842109
v 0.331837 -0.400436 -0.000842109
v -0.331837 -0.400436 -0.000842109
v -0.341175 -0.311868 -0.000842109
v -0.331837 -0.310785 -0.000842109
v 0.331837 -0.310785 -0.000842109
v 0.341176 -0.311868 -0.000842109
v -0.315316 -0.345191 -0.000842109
v -0.310508 -0.280293 -0.000842109
v -0.31078 0.436687 -0.000842109
v -0.315517 0.496074 -0.000842109
v -0.255776 0.496074 -0.000842109
v -0.251966 0.447308 -0.000842109
v -0.251479 -0.290141 -0.000842109
v -0.255576 -0.345191 -0.000842109
v 0.315316 -0.345191 -0.000842109
v 0.310508 -0.280293 -0.000842109
v 0.31078 0.436687 -0.000842109
v 0.315517 0.496074 -0.000842109
v 0.255776 0.496074 -0.000842109
v 0.251966 0.447308 -0.000842109
v 0.251479 -0.290141 -0.000842109
v 0.255576 -0.345191 -0.000842109
v 0.331837 0.389904 -0.000842109
v -0.331837 0.389904 -0.000842109
v -0.349748 0.394073 -0.000842109
v -0.363618 0.405268 -0.000842109
v -0.371491 0.421519 -0.000842109
v -0.372566 0.438532 -0.000842109
v -0.368427 0.456573 -0.000842109
v -0.357311 0.470542 -0.000842109
v -0.341175 0.478471 -0.000842109
v -0.331837 0.479555 -0.000842109
v 0.331837 0.479555 -0.000842109
v 0.341176 0.478471 -0.000842109
v 0.357311 0.470542 -0.000842109
v 0.368427 0.456573 -0.000842109
v 0.372566 0.438532 -0.000842109
v 0.371491 0.421519 -0.000842109
v 0.363618 0.405268 -0.000842109
v 0.349749 0.394073 -0.000842109
v 0.331837 -0.479555 -0.000842109
v -0.331837 -0.479555 -0.000842109
v -0.349748 -0.475385 -0.000842109
v -0.363618 -0.46419 -0.000842109
v -0.371491 -0.447938 -0.000842109
v -0.372566 -0.430926 -0.000842109
v -0.368427 -0.412886 -0.000842109
v -0.357311 -0.398916 -0.000842109
v -0.341175 -0.390987 -0.000842109
v -0.331837 -0.389904 -0.000842109
v 0.331837 -0.389904 -0.000842109
v 0.341176 -0.390987 -0.000842109
v 0.357311 -0.398916 -0.000842109
v 0.368427 -0.412886 -0.000842109
v 0.372566 -0.430926 -0.000842109
v 0.371491 -0.447938 -0.000842109
v 0.363618 -0.46419 -0.000842109
v 0.349749 -0.475385 -0.000842109
v -0.315316 -0.42431 -0.000842109
v -0.310508 -0.359412 -0.000842109
v -0.277272 -0.253597 -0.000842109
v -0.224163 -0.172767 -0.000842109
v -0.165124 -0.108531 -0.000842109
v -0.1309 -0.0724871 -0.000842109
v -0.104629 -0.0385849 -0.000842109
v -0.0898156 -0.00441533 -0.000842109
v -0.0898786 0.0315076 -0.000842109
v -0.105156 0.0649161 -0.000842109
v -0.132248 0.0971667 -0.000842109
v -0.167542 0.130968 -0.000842109
v -0.225708 0.188471 -0.000842109
v -0.278033 0.261333 -0.000842109
v -0.31078 0.357568 -0.000842109
v -0.315517 0.416955 -0.000842109
v -0.255776 0.416955 -0.000842109
v -0.251966 0.368189 -0.000842109
v -0.225034 0.289037 -0.000842109
v -0.180237 0.227472 -0.000842109
v -0.127037 0.17519 -0.000842109
v -0.0851565 0.134655 -0.000842109
v -0.0509902 0.0915316 -0.000842109
v -0.0308719 0.0419474 -0.000842109
v -0.0307437 -0.0142207 -0.000842109
v -0.0499457 -0.0638 -0.000842109
v -0.082558 -0.108217 -0.000842109
v -0.122537 -0.15073 -0.000842109
v -0.176182 -0.208866 -0.000842109
v -0.222848 -0.279077 -0.000842109
v -0.251479 -0.36926 -0.000842109
v -0.255576 -0.42431 -0.000842109
v 0.315316 -0.42431 -0.000842109
v 0.310508 -0.359412 -0.000842109
v 0.277272 -0.253597 -0.000842109
v 0.224163 -0.172767 -0.000842109
v 0.165124 -0.108531 -0.000842109
v 0.1309 -0.0724871 -0.000842109
v 0.104629 -0.0385849 -0.000842109
v 0.0898156 -0.00441533 -0.000842109
v 0.0898786 0.0315076 -0.000842109
v 0.105156 0.0649161 -0.000842109
v 0.132248 0.0971667 -0.000842109
v 0.167542 0.130968 -0.000842109
v 0.225708 0.188471 -0.000842109
v 0.278033 0.261333 -0.000842109
v 0.31078 0.357568 -0.000842109
v 0.315517 0.416955 -0.000842109
v 0.255776 0.416955 -0.000842109
v 0.251966 0.368189 -0.000842109
v 0.225034 0.289037 -0.000842109
v 0.180237 0.227472 -0.000842109
v 0.127037 0.17519 -0.000842109
v 0.0851565 0.134655 -0.000842109
v 0.0509902 0.0915316 -0.000842109
v 0.0308719 0.0419474 -0.000842109
v 0.0307437 -0.0142207 -0.000842109
v 0.0499457 -0.0638 -0.000842109
v 0.0825579 -0.108217 -0.000842109
v 0.122537 -0.15073 -0.000842109
v 0.176182 -0.208866 -0.000842109
v 0.222848 -0.279077 -0.000842109
v 0.251479 -0.36926 -0.000842109
v 0.255576 -0.42431 -0.000842109
v 0.396639 0.128947 0
v 0.424139 0.156447 0
v 0.404694 0.148393 0
v 0.471771 0.156447 0
v 0.499271 0.128947 0
v 0.491216 0.148393 0
v 0.499271 -0.128947 0
v 0.471771 -0.156447 0
v 0.491216 -0.148393 0
v 0.424139 -0.156447 0
v 0.396639 -0.128947 0
v 0.404694 -0.148393 0
v 0.319008 -0.0513158 0
v 0.291508 -0.0238159 0
v 0.299562 -0.0432613 0
v 0.291508 0.0238159 0
v 0.319008 0.0513158 0
v 0.299562 0.0432613 0
v 0.576902 0.0513158 0
v 0.604402 0.0238159 0
v 0.596348 0.0432613 0
v 0.604402 -0.0238159 0
v 0.576902 -0.0513158 0
v 0.596348 -0.0432613 0
v 0 0.436374 0.0461579
v 0 -0.433085 0.0461579
v -0.0782189 0.0784491 0.0461579
v -0.282929 0.382551 0.0461579
v -0.282672 -0.386949 0.0461579
v -0.125321 -0.110037 0.0461579
v -0.0660229 -0.00799319 0.0461579
v -0.128043 0.134542 0.0461579
v -0.227238 0.241554 0.0461579
v 0.0782189 0.0784491 0.0461579
v 0.282929 0.382551 0.0461579
v 0.282672 -0.386949 0.0461579
v 0.125321 -0.110037 0.0461579
v 0.0660228 -0.00799319 0.0461579
v 0.128043 0.134542 0.0461579
v 0.227238 0.241554 0.0461579
v 0.225102 -0.228552 0.0461579
v -0.225102 -0.228552 0.0461579
v 0.447955 -0.00249991 0.0461579
v 0.450455 -2.21655e-009 0.0461579
v -0.331837 -0.479555 0.0461579
v -0.349748 -0.475385 0.0461579
v -0.363618 -0.46419 0.0461579
v -0.371491 -0.447938 0.0461579
v -0.372566 -0.430926 0.0461579
v -0.368427 -0.412886 0.0461579
v -0.357311 -0.398916 0.0461579
v -0.341175 -0.390987 0.0461579
v -0.331837 -0.389904 0.0461579
v -0.315316 -0.42431 0.0461579
v -0.251479 -0.36926 0.0461579
v -0.255576 -0.42431 0.0461579
v 0.331837 -0.479555 0.0461579
v 0.331837 -0.389904 0.0461579
v 0.341176 -0.390987 0.0461579
v 0.357311 -0.398916 0.0461579
v 0.349749 -0.475385 0.0461579
v 0.315316 -0.42431 0.0461579
v 0.251479 -0.36926 0.0461579
v 0.255576 -0.42431 0.0461579
v 0.368427 -0.412886 0.0461579
v 0.372566 -0.430926 0.0461579
v 0.371491 -0.447938 0.0461579
v 0.363618 -0.46419 0.0461579
v -0.310508 -0.359412 0.0461579
v -0.277272 -0.253597 0.0461579
v -0.222848 -0.279077 0.0461579
v 0.222848 -0.279077 0.0461579
v 0.310508 -0.359412 0.0461579
v 0.277272 -0.253597 0.0461579
v -0.224163 -0.172767 0.0461579
v -0.176182 -0.208866 0.0461579
v -0.122537 -0.15073 0.0461579
v 0.224163 -0.172767 0.0461579
v 0.176182 -0.208866 0.0461579
v 0.122537 -0.15073 0.0461579
v 0.471771 -0.156447 0.0461579
v 0.424139 -0.156447 0.0461579
v 0.396639 -0.128947 0.0461579
v 0.404694 -0.148393 0.0461579
v 0.499271 -0.128947 0.0461579
v 0.491216 -0.148393 0.0461579
v -0.165124 -0.108531 0.0461579
v -0.1309 -0.0724871 0.0461579
v -0.104629 -0.0385849 0.0461579
v -0.0898156 -0.00441533 0.0461579
v -0.0307437 -0.0142207 0.0461579
v -0.0499457 -0.0638 0.0461579
v -0.082558 -0.108217 0.0461579
v 0.104629 -0.0385849 0.0461579
v 0.0898156 -0.00441533 0.0461579
v 0.0307437 -0.0142207 0.0461579
v 0.0499457 -0.0638 0.0461579
v 0.0825579 -0.108217 0.0461579
v 0.165124 -0.108531 0.0461579
v 0.1309 -0.0724871 0.0461579
v 0.319008 -0.0513158 0.0461579
v 0.291508 -0.0238159 0.0461579
v 0.299562 -0.0432613 0.0461579
v 0.604402 -0.0238159 0.0461579
v 0.576902 -0.0513158 0.0461579
v 0.596348 -0.0432613 0.0461579
v -0.132248 0.0971667 0.0461579
v -0.0898786 0.0315076 0.0461579
v -0.105156 0.0649161 0.0461579
v -0.0509902 0.0915316 0.0461579
v -0.0308719 0.0419474 0.0461579
v 0.0898786 0.0315076 0.0461579
v 0.105156 0.0649161 0.0461579
v 0.0509902 0.0915316 0.0461579
v 0.0308719 0.0419474 0.0461579
v 0.132248 0.0971667 0.0461579
v 0.291508 0.0238159 0.0461579
v 0.319008 0.0513158 0.0461579
v 0.299562 0.0432613 0.0461579
v 0.576902 0.0513158 0.0461579
v 0.604402 0.0238159 0.0461579
v 0.596348 0.0432613 0.0461579
v -0.167542 0.130968 0.0461579
v -0.225708 0.188471 0.0461579
v -0.180237 0.227472 0.0461579
v -0.127037 0.17519 0.0461579
v -0.0851565 0.134655 0.0461579
v 0.0851565 0.134655 0.0461579
v 0.167542 0.130968 0.0461579
v 0.225708 0.188471 0.0461579
v 0.127037 0.17519 0.0461579
v 0.180237 0.227472 0.0461579
v 0.396639 0.128947 0.0461579
v 0.424139 0.156447 0.0461579
v 0.404694 0.148393 0.0461579
v 0.471771 0.156447 0.0461579
v 0.499271 0.128947 0.0461579
v 0.491216 0.148393 0.0461579
v -0.278033 0.261333 0.0461579
v -0.31078 0.357568 0.0461579
v -0.225034 0.289037 0.0461579
v 0.225034 0.289037 0.0461579
v 0.278033 0.261333 0.0461579
v 0.31078 0.357568 0.0461579
v -0.331837 0.389904 0.0461579
v -0.251966 0.368189 0.0461579
v -0.349748 0.394073 0.0461579
v -0.363618 0.405268 0.0461579
v -0.371491 0.421519 0.0461579
v -0.372566 0.438532 0.0461579
v -0.368427 0.456573 0.0461579
v -0.357311 0.470542 0.0461579
v -0.341175 0.478471 0.0461579
v -0.331837 0.479555 0.0461579
v -0.315517 0.416955 0.0461579
v -0.255776 0.416955 0.0461579
v 0.331837 0.389904 0.0461579
v 0.331837 0.479555 0.0461579
v 0.341176 0.478471 0.0461579
v 0.357311 0.470542 0.0461579
v 0.349749 0.394073 0.0461579
v 0.251966 0.368189 0.0461579
v 0.315517 0.416955 0.0461579
v 0.255776 0.416955 0.0461579
v 0.368427 0.456573 0.0461579
v 0.372566 0.438532 0.0461579
v 0.371491 0.421519 0.0461579
v 0.363618 0.405268 0.0461579
vn -0.175159 -1.52497 0
vn 0.175153 -1.52497 0
vn -0.673048 -1.37958 -2.04283e-007
vn -1.20181 -0.954921 -2.04058e-007
vn -1.48454 -0.390359 0
vn -1.52994 0.124524 0
vn -1.38295 0.66608 -8.90413e-007
vn -0.962456 1.19579 -2.46635e-006
vn -0.433241 1.47259 -1.56073e-006
vn 0.433244 1.47259 0
vn 0.0886048 1.53244 0
vn -0.0886143 1.53244 0
vn 0.962475 1.19577 0
vn 1.38296 0.666068 0
vn 1.52994 0.124524 0
vn 1.48454 -0.390356 0
vn 1.20182 -0.954906 0
vn 0.673056 -1.37957 0
vn -0.175165 -1.52497 0
vn 0.175159 -1.52497 0
vn -0.673066 -1.37957 -2.04288e-007
vn -1.20183 -0.954902 -2.04063e-007
vn -1.48454 -0.390351 0
vn -1.52994 0.124524 0
vn -1.38295 0.666085 -8.90409e-007
vn -0.962444 1.1958 -2.4663e-006
vn -0.433224 1.4726 -1.56068e-006
vn 0.433227 1.4726 0
vn 0.0885974 1.53244 0
vn -0.0886069 1.53244 0
vn 0.962463 1.19578 0
vn 1.38296 0.666074 0
vn 1.52994 0.124524 0
vn 1.48454 -0.390347 0
vn 1.20184 -0.954888 0
vn 0.673074 -1.37956 0
vn 0 -1.535 0
vn 1.53077 -0.11393 0
vn 1.50713 -0.291181 0
vn 1.50349 0.309422 0
vn 1.3626 0.706787 0
vn 1.16251 1.00239 0
vn 1.07174 1.09891 0
vn 1.13781 1.03035 0
vn 1.32616 0.77299 0
vn 1.50625 0.295719 0
vn 1.5092 -0.280265 0
vn 1.34604 -0.737828 0
vn 1.17993 -0.981827 0
vn 1.12318 -1.04628 0
vn 1.20704 -0.948304 0
vn 1.38417 -0.663542 0
vn 1.53034 0.119564 0
vn 0 1.535 0
vn -1.53014 -0.122059 0
vn -1.50323 -0.310662 0
vn -1.50762 0.288607 0
vn -1.38694 0.657733 0
vn -1.21048 0.943909 0
vn -1.12169 1.04787 0
vn -1.16471 0.999835 0
vn -1.32117 0.781499 0
vn -1.50327 0.310467 0
vn -1.49955 -0.32798 0
vn -1.29743 -0.8203 0
vn -1.12017 -1.0495 0
vn -1.07048 -1.10013 0
vn -1.16711 -0.99703 0
vn -1.36479 -0.702555 0
vn -1.5308 0.113412 0
vn -1.53077 -0.11393 0
vn -1.50713 -0.291181 0
vn -1.50349 0.309422 0
vn -1.3626 0.706787 0
vn -1.16251 1.00239 0
vn -1.07174 1.09891 0
vn -1.13781 1.03035 0
vn -1.32616 0.77299 0
vn -1.50625 0.295719 0
vn -1.5092 -0.280265 0
vn -1.34604 -0.737828 0
vn -1.17993 -0.981827 0
vn -1.12318 -1.04628 0
vn -1.20704 -0.948304 0
vn -1.38417 -0.663542 0
vn -1.53034 0.119564 0
vn 1.53014 -0.122059 0
vn 1.50323 -0.310662 0
vn 1.50762 0.288607 0
vn 1.38694 0.657733 0
vn 1.21048 0.943909 0
vn 1.12169 1.04787 0
vn 1.16471 0.999835 0
vn 1.32117 0.781499 0
vn 1.50327 0.310467 0
vn 1.49955 -0.32798 0
vn 1.29743 -0.8203 0
vn 1.12017 -1.0495 0
vn 1.07048 -1.10013 0
vn 1.16711 -0.99703 0
vn 1.36479 -0.702555 0
vn 1.5308 0.113412 0
vn -1.41816 0.587416 0
vn -1.50551 0.299462 0
vn -1.50551 -0.29946 0
vn -1.41816 -0.587413 0
vn -0.587416 -1.41816 0
vn -0.299462 -1.50551 0
vn 0.299461 -1.50551 0
vn 0.587415 -1.41816 0
vn 1.41816 -0.587413 0
vn 1.50551 -0.29946 0
vn 1.50551 0.299462 0
vn 1.41816 0.587416 0
vn 0.587418 1.41816 0
vn 0.299463 1.50551 0
vn -0.299464 1.50551 0
vn -0.587419 1.41816 0
vn -0.587415 -1.41816 0
vn -0.299462 -1.50551 0
vn 0.29946 -1.50551 0
vn 0.587412 -1.41816 0
vn 1.41816 -0.587416 0
vn 1.50551 -0.299462 0
vn 1.50551 0.299462 0
vn 1.41816 0.587416 0
vn 0.587412 1.41816 0
vn 0.29946 1.50551 0
vn -0.299462 1.50551 0
vn -0.587415 1.41816 0
vn -1.41816 0.587418 0
vn -1.50551 0.299463 0
vn -1.50551 -0.299463 0
vn -1.41816 -0.587419 0
vn 0 0 1
vt 0.866026 0.0337097
vt 1 0.0674193
vt 1 0.932581
vt 0.866026 0.96629
vt 0.732051 1
vt 0.267949 1
vt 0.133974 0.96629
vt 0 0.932581
vt 0 0.0674193
vt 0.133974 0.0337097
vt 0.267949 0
vt 0.732051 0
vt 0.87843 0.508509
usemtl txt_045white
f 30//1 29//2 285//2 273//1
f 30//1 273//1 275//3 31//3
f 32//4 31//3 275//3 276//4
f 33//5 32//4 276//4 277//5
f 33//5 277//5 278//6 34//6
f 34//6 278//6 279//7 35//7
f 36//8 35//7 279//7 280//8
f 37//9 36//8 280//8 281//9
f 40//10 39//11 286//11 287//10
f 39//11 38//12 282//12 286//11
f 38//12 37//9 281//9 282//12
f 41//13 40//10 287//10 288//13
f 42//14 41//13 288//13 293//14
f 43//15 42//14 293//14 294//15
f 44//16 43//15 294//15 295//16
f 45//17 44//16 295//16 296//17
f 46//18 45//17 296//17 289//18
f 29//2 46//18 289//18 285//2
f 48//19 47//20 185//20 173//19
f 48//19 173//19 174//21 49//21
f 50//22 49//21 174//21 175//22
f 51//23 50//22 175//22 176//23
f 51//23 176//23 177//24 52//24
f 52//24 177//24 178//25 53//25
f 54//26 53//25 178//25 179//26
f 55//27 54//26 179//26 180//27
f 58//28 57//29 186//29 187//28
f 57//29 56//30 181//30 186//29
f 56//30 55//27 180//27 181//30
f 59//31 58//28 187//28 188//31
f 60//32 59//31 188//31 193//32
f 61//33 60//32 193//32 194//33
f 62//34 61//33 194//33 195//34
f 63//35 62//34 195//34 196//35
f 64//36 63//35 196//35 189//36
f 47//20 64//36 189//36 185//20
f 182//37 65//37 96//37 184//37
f 96//38 95//39 183//39 184//38
f 82//40 274//40 269//41 83//41
f 83//41 269//41 253//42 84//42
f 84//42 253//42 254//43 85//43
f 85//43 254//43 255//44 86//44
f 86//44 255//44 238//45 87//45
f 88//46 87//45 238//45 239//46
f 88//46 239//46 219//47 89//47
f 90//48 89//47 219//47 220//48
f 91//49 90//48 220//48 221//49
f 92//50 91//49 221//49 205//50
f 93//51 92//50 205//50 204//51
f 94//52 93//51 204//51 199//52
f 95//39 94//52 199//52 183//39
f 82//40 81//53 284//53 274//40
f 80//54 283//54 284//54 81//54
f 80//55 79//56 268//56 283//55
f 66//57 197//57 198//58 67//58
f 67//58 198//58 203//59 68//59
f 68//59 203//59 215//60 69//60
f 69//60 215//60 216//61 70//61
f 70//61 216//61 217//62 71//62
f 71//62 217//62 218//63 72//63
f 73//64 72//63 218//63 236//64
f 74//65 73//64 236//64 237//65
f 75//66 74//65 237//65 235//66
f 76//67 75//66 235//66 251//67
f 77//68 76//67 251//67 252//68
f 78//69 77//68 252//68 267//69
f 79//56 78//69 267//69 268//56
f 66//57 65//70 182//70 197//57
f 190//37 192//37 128//37 97//37
f 128//71 192//71 191//72 127//72
f 114//73 115//74 270//74 290//73
f 115//74 116//75 260//75 270//74
f 116//75 117//76 259//76 260//75
f 117//76 118//77 256//77 259//76
f 118//77 119//78 242//78 256//77
f 120//79 243//79 242//78 119//78
f 120//79 121//80 224//80 243//79
f 122//81 225//81 224//80 121//80
f 123//82 226//82 225//81 122//81
f 124//83 208//83 226//82 123//82
f 125//84 207//84 208//83 124//83
f 126//85 200//85 207//84 125//84
f 127//72 191//72 200//85 126//85
f 114//73 290//73 292//86 113//86
f 112//54 113//54 292//54 291//54
f 112//87 291//87 272//88 111//88
f 98//89 99//90 202//90 201//89
f 99//90 100//91 206//91 202//90
f 100//91 101//92 227//92 206//91
f 101//92 102//93 228//93 227//92
f 102//93 103//94 222//94 228//93
f 103//94 104//95 223//95 222//94
f 105//96 240//96 223//95 104//95
f 106//97 241//97 240//96 105//96
f 107//98 244//98 241//97 106//97
f 108//99 257//99 244//98 107//98
f 109//100 258//100 257//99 108//99
f 110//101 271//101 258//100 109//100
f 111//88 272//88 271//101 110//101
f 98//89 201//89 190//102 97//102
f 131/1/103 129/2/104 261/2/104 263/1/103
f 129/2/104 139/3/105 211/3/105 261/2/104
f 139/3/105 140/4/106 212/4/106 211/3/105
f 140/4/107 138/5/108 210/5/108 212/4/107
f 138/5/108 136/6/109 209/6/109 210/5/108
f 136/6/109 137/7/110 214/7/110 209/6/109
f 137/7/111 135/8/112 213/8/112 214/7/111
f 135/8/112 133/9/113 265/9/113 213/8/112
f 133/9/113 134/10/114 266/10/114 265/9/113
f 134/10/115 132/11/116 264/11/116 266/10/115
f 132/11/116 130/12/117 262/12/117 264/11/116
f 130/12/117 131/1/118 263/1/118 262/12/117
f 143/1/119 141/2/120 229/2/120 231/1/119
f 141/2/120 151/3/121 233/3/121 229/2/120
f 151/3/121 152/4/122 234/4/122 233/3/121
f 152/4/123 150/5/124 232/5/124 234/4/123
f 150/5/124 148/6/125 249/6/125 232/5/124
f 148/6/125 149/7/126 250/7/126 249/6/125
f 149/7/127 147/8/128 248/8/128 250/7/127
f 147/8/128 145/9/129 246/9/129 248/8/128
f 145/9/129 146/10/130 247/10/130 246/9/129
f 146/10/131 144/11/132 245/11/132 247/10/131
f 144/11/132 142/12/133 230/12/133 245/11/132
f 142/12/133 143/1/134 231/1/134 230/12/133
f 273//135 285//135 153//135
f 285//135 289//135 153//135
f 289//135 296//135 153//135
f 296//135 295//135 153//135
f 295//135 294//135 153//135
f 294//135 293//135 153//135
f 293//135 288//135 153//135
f 288//135 287//135 153//135
f 287//135 286//135 153//135
f 286//135 282//135 153//135
f 282//135 281//135 153//135
f 281//135 280//135 153//135
f 280//135 279//135 153//135
f 279//135 278//135 153//135
f 278//135 277//135 153//135
f 277//135 276//135 153//135
f 276//135 275//135 153//135
f 275//135 273//135 153//135
f 173//135 185//135 154//135
f 185//135 189//135 154//135
f 189//135 196//135 154//135
f 196//135 195//135 154//135
f 195//135 194//135 154//135
f 194//135 193//135 154//135
f 193//135 188//135 154//135
f 188//135 187//135 154//135
f 187//135 186//135 154//135
f 186//135 181//135 154//135
f 181//135 180//135 154//135
f 180//135 179//135 154//135
f 179//135 178//135 154//135
f 178//135 177//135 154//135
f 177//135 176//135 154//135
f 176//135 175//135 154//135
f 175//135 174//135 154//135
f 174//135 173//135 154//135
f 284//135 283//135 156//135
f 274//135 284//135 156//135
f 283//135 268//135 156//135
f 182//135 184//135 157//135
f 184//135 183//135 157//135
f 197//135 182//135 157//135
f 205//135 221//135 158//135
f 216//135 215//135 158//135
f 239//135 238//135 155//135 159//135
f 237//135 236//135 159//135 155//135
f 219//135 239//135 159//135
f 236//135 218//135 159//135
f 220//135 219//135 159//135
f 218//135 217//135 159//135
f 221//135 220//135 159//135 158//135
f 217//135 216//135 158//135 159//135
f 255//135 254//135 160//135
f 251//135 235//135 160//135
f 238//135 255//135 160//135 155//135
f 235//135 237//135 155//135 160//135
f 253//135 269//135 161//135
f 267//135 252//135 161//135
f 269//135 274//135 156//135 161//135
f 268//135 267//135 161//135 156//135
f 254//135 253//135 161//135 160//135
f 252//135 251//135 160//135 161//135
f 292//135 163//135 291//135
f 290//135 163//135 292//135
f 291//135 163//135 272//135
f 190//135 164//135 192//135
f 192//135 164//135 191//135
f 201//135 164//135 190//135
f 208//135 165//135 226//135
f 228//135 165//135 227//135
f 243//135 166//135 162//135 242//135
f 241//135 162//135 166//135 240//135
f 224//135 166//135 243//135
f 240//135 166//135 223//135
f 225//135 166//135 224//135
f 223//135 166//135 222//135
f 226//135 165//135 166//135 225//135
f 222//135 166//135 165//135 228//135
f 256//135 167//135 259//135
f 257//135 167//135 244//135
f 242//135 162//135 167//135 256//135
f 244//135 167//135 162//135 241//135
f 260//135 168//135 270//135
f 271//135 168//135 258//135
f 270//135 168//135 163//135 290//135
f 272//135 163//135 168//135 271//135
f 259//135 167//135 168//135 260//135
f 258//135 168//135 167//135 257//135
f 200//135 169//135 207//135
f 206//135 169//135 202//135
f 191//135 164//135 169//135 200//135
f 202//135 169//135 164//135 201//135
f 207//135 169//135 165//135 208//135
f 227//135 165//135 169//135 206//135
f 199//135 204//135 170//135
f 203//135 198//135 170//135
f 183//135 199//135 170//135 157//135
f 198//135 197//135 157//135 170//135
f 204//135 205//135 158//135 170//135
f 215//135 203//135 170//135 158//135
f 261/2/135 211/3/135 171/13/135
f 211/3/135 212/4/135 171/13/135
f 212/4/135 210/5/135 171/13/135
f 210/5/135 209/6/135 171/13/135
f 209/6/135 214/7/135 171/13/135
f 214/7/135 213/8/135 171/13/135
f 213/8/135 265/9/135 171/13/135
f 265/9/135 266/10/135 171/13/135
f 266/10/135 264/11/135 171/13/135
f 264/11/135 262/12/135 171/13/135
f 262/12/135 263/1/135 171/13/135
f 263/1/135 261/2/135 171/13/135
f 229/2/135 233/3/135 172/13/135
f 233/3/135 234/4/135 172/13/135
f 234/4/135 232/5/135 172/13/135
f 232/5/135 249/6/135 172/13/135
f 249/6/135 250/7/135 172/13/135
f 250/7/135 248/8/135 172/13/135
f 248/8/135 246/9/135 172/13/135
f 246/9/135 247/10/135 172/13/135
f 247/10/135 245/11/135 172/13/135
f 245/11/135 230/12/135 172/13/135
f 230/12/135 231/1/135 172/13/135
f 231/1/135 229/2/135 172/13/135
