# OBJ written from C:\Users\Brad\Desktop\spot-the-bot-stuff\exports\hourglass-a.obj
# Units	meters

g hourglass-b
v -0.190437 0.102536 0
v -0.190436 0.102536 0.0466
v 0.190437 0.102536 0
v 0.190436 0.102536 0.0466
v -0.272955 0.176998 0
v -0.230369 0.138088 0
v -0.272954 0.176998 0.0466
v -0.230369 0.138088 0.0466
v 0.272955 0.176998 0
v 0.230369 0.138088 0
v 0.272954 0.176998 0.0466
v 0.230369 0.138088 0.0466
v -0.340562 0.280436 0
v -0.311811 0.223152 0
v -0.340562 0.280436 0.0466
v -0.311811 0.223152 0.0466
v 0.340562 0.280436 0
v 0.311811 0.223152 0
v 0.340562 0.280436 0.0466
v 0.311811 0.223152 0.0466
v -0.325993 0.409615 0
v -0.338315 0.407071 0
v -0.351684 0.394437 0
v -0.354925 0.380419 0
v -0.354925 0.3614 0
v -0.325993 0.409615 0.0466
v -0.338315 0.407071 0.0466
v -0.351684 0.394437 0.0466
v -0.354925 0.380419 0.0466
v -0.354925 0.3614 0.0466
v 0.325993 0.409615 0
v 0.338315 0.407071 0
v 0.351684 0.394437 0
v 0.354925 0.380419 0
v 0.354925 0.3614 0
v 0.325993 0.409615 0.0466
v 0.338315 0.407071 0.0466
v 0.351684 0.394437 0.0466
v 0.354925 0.380419 0.0466
v 0.354925 0.3614 0.0466
v 5.96046e-009 0.288947 0.0466
v -0.190437 -0.102536 0
v -0.190436 -0.102536 0.0466
v 0.190437 -0.102536 0
v 0.190436 -0.102536 0.0466
v -0.272955 -0.176998 0
v -0.230369 -0.138088 0
v -0.272954 -0.176998 0.0466
v -0.230369 -0.138088 0.0466
v 0.272955 -0.176998 0
v 0.230369 -0.138088 0
v 0.272954 -0.176998 0.0466
v 0.230369 -0.138088 0.0466
v -0.340562 -0.280436 0
v -0.311811 -0.223152 0
v -0.340562 -0.280436 0.0466
v -0.311811 -0.223152 0.0466
v 0.340562 -0.280436 0
v 0.311811 -0.223152 0
v 0.340562 -0.280436 0.0466
v 0.311811 -0.223152 0.0466
v -0.325993 -0.409615 0
v -0.338315 -0.407071 0
v -0.351684 -0.394437 0
v -0.354925 -0.380419 0
v -0.354925 -0.3614 0
v -0.325993 -0.409615 0.0466
v -0.338315 -0.407071 0.0466
v -0.351684 -0.394437 0.0466
v -0.354925 -0.380419 0.0466
v -0.354925 -0.3614 0.0466
v 0.325993 -0.409615 0
v 0.338315 -0.407071 0
v 0.351684 -0.394437 0
v 0.354925 -0.380419 0
v 0.354925 -0.3614 0
v 0.325993 -0.409615 0.0466
v 0.338315 -0.407071 0.0466
v 0.351684 -0.394437 0.0466
v 0.354925 -0.380419 0.0466
v 0.354925 -0.3614 0.0466
v 5.96046e-009 -0.288947 0.0466
v -0.106786 0 0
v -0.106786 0 0.0466
v 0.106786 0 0
v 0.106786 0 0.0466
v -0.14554 -0.0664566 0
v -0.14554 -0.0664566 0.0466
v 0.14554 -0.0664566 0
v 0.14554 -0.0664566 0.0466
v -0.112057 -0.0259632 0
v -0.112057 -0.0259632 0.0466
v 0.112057 -0.0259632 0
v 0.112057 -0.0259632 0.0466
v -0.14554 0.0664566 0
v -0.112057 0.0259632 0
v -0.14554 0.0664566 0.0466
v -0.112057 0.0259632 0.0466
v 0.14554 0.0664566 0
v 0.112057 0.0259632 0
v 0.14554 0.0664566 0.0466
v 0.112057 0.0259632 0.0466
vn 0.993556 0.113346 0
vn 0.867606 0.497252 0
vn -0.993556 0.113346 6.35413e-007
vn -0.996149 -0.0876729 3.21003e-007
vn -0.949119 -0.314917 0
vn 0.949119 -0.314917 0
vn 0.996149 -0.0876729 0
vn -0.835107 -0.550088 -2.46311e-007
vn -0.7213 -0.692623 1.87168e-007
vn -0.669755 -0.742582 9.62981e-007
vn -0.645886 -0.763433 1.03267e-006
vn -0.101635 0.994822 6.49993e-008
vn 0.101635 0.994822 6.49993e-008
vn 0.462108 0.886824 6.72206e-008
vn -0.867606 0.497252 5.54864e-007
vn 0.835107 -0.550088 -2.46311e-007
vn 0.7213 -0.692623 1.87168e-007
vn 0.669755 -0.742582 9.62981e-007
vn 0.645886 -0.763434 1.03267e-006
vn -0.462108 0.886824 2.95534e-007
vn 0 0 1
vn 0.993556 -0.113346 0
vn 0.867606 -0.497252 0
vn -0.993556 -0.113346 6.35413e-007
vn -0.996149 0.0876729 3.21003e-007
vn -0.949119 0.314917 0
vn 0.949119 0.314917 0
vn 0.996149 0.0876729 0
vn -0.835107 0.550088 -2.46311e-007
vn -0.7213 0.692623 1.87168e-007
vn -0.669755 0.742582 9.62981e-007
vn -0.645886 0.763434 1.03267e-006
vn -0.101635 -0.994822 6.49993e-008
vn 0.101635 -0.994822 6.49993e-008
vn 0.462108 -0.886824 6.72206e-008
vn -0.867606 -0.497252 5.54864e-007
vn 0.835107 0.550088 -2.46311e-007
vn 0.7213 0.692623 1.87168e-007
vn 0.669755 0.742582 9.62981e-007
vn 0.645886 0.763434 1.03267e-006
vn -0.462108 -0.886824 2.95534e-007
vn -0.70215 0.712029 9.9877e-007
vn 0.70215 0.712029 9.9877e-007
vn 0.902351 0.431001 1.15417e-006
vn -0.902351 0.431001 1.15417e-006
vn 1 0 1.11919e-006
vn -1 -2.73692e-007 1.11919e-006
vn -0.70215 -0.712029 6.27208e-007
vn 0.70215 -0.712029 6.27208e-007
vn 0.902351 -0.431001 6.11589e-007
vn -0.902351 -0.431001 6.11589e-007
usemtl Default
f 39//1 34//1 33//2 38//2
f 24//3 25//4 30//4 29//3
f 13//5 15//5 30//4 25//4
f 19//6 17//6 35//7 40//7
f 13//5 14//8 16//8 15//5
f 14//8 5//9 7//9 16//8
f 5//9 6//10 8//10 7//9
f 6//10 1//11 2//11 8//10
f 26//12 36//13 31//13 21//12
f 31//13 36//13 37//14 32//14
f 24//3 29//3 28//15 23//15
f 34//1 39//1 40//7 35//7
f 17//6 19//6 20//16 18//16
f 18//16 20//16 11//17 9//17
f 9//17 11//17 12//18 10//18
f 10//18 12//18 4//19 3//19
f 21//12 22//20 27//20 26//12
f 23//15 28//15 27//20 22//20
f 38//2 33//2 32//14 37//14
f 39//21 38//21 41//21
f 38//21 37//21 41//21
f 37//21 36//21 41//21
f 36//21 26//21 41//21
f 26//21 27//21 41//21
f 27//21 28//21 41//21
f 28//21 29//21 41//21
f 29//21 30//21 41//21
f 30//21 15//21 41//21
f 15//21 16//21 41//21
f 16//21 7//21 41//21
f 7//21 8//21 41//21
f 8//21 2//21 41//21
f 2//21 4//21 41//21
f 4//21 12//21 41//21
f 12//21 11//21 41//21
f 11//21 20//21 41//21
f 20//21 19//21 41//21
f 19//21 40//21 41//21
f 40//21 39//21 41//21
f 80//22 79//23 74//23 75//22
f 65//24 70//24 71//25 66//25
f 54//26 66//25 71//25 56//26
f 60//27 81//28 76//28 58//27
f 54//26 56//26 57//29 55//29
f 55//29 57//29 48//30 46//30
f 46//30 48//30 49//31 47//31
f 47//31 49//31 43//32 42//32
f 67//33 62//33 72//34 77//34
f 72//34 73//35 78//35 77//34
f 65//24 64//36 69//36 70//24
f 75//22 76//28 81//28 80//22
f 58//27 59//37 61//37 60//27
f 59//37 50//38 52//38 61//37
f 50//38 51//39 53//39 52//38
f 51//39 44//40 45//40 53//39
f 62//33 67//33 68//41 63//41
f 64//36 63//41 68//41 69//36
f 79//23 78//35 73//35 74//23
f 80//21 82//21 79//21
f 79//21 82//21 78//21
f 78//21 82//21 77//21
f 77//21 82//21 67//21
f 67//21 82//21 68//21
f 68//21 82//21 69//21
f 69//21 82//21 70//21
f 70//21 82//21 71//21
f 71//21 82//21 56//21
f 56//21 82//21 57//21
f 57//21 82//21 48//21
f 48//21 82//21 49//21
f 49//21 82//21 43//21
f 43//21 82//21 45//21
f 45//21 82//21 53//21
f 53//21 82//21 52//21
f 52//21 82//21 61//21
f 61//21 82//21 60//21
f 60//21 82//21 81//21
f 81//21 82//21 80//21
f 43//32 88//42 87//42 42//32
f 44//40 89//43 90//43 45//40
f 45//21 90//21 88//21 43//21
f 89//43 93//44 94//44 90//43
f 90//21 94//21 92//21 88//21
f 88//42 92//45 91//45 87//42
f 93//44 85//46 86//46 94//44
f 94//21 86//21 84//21 92//21
f 92//45 84//47 83//47 91//45
f 2//11 1//11 95//48 97//48
f 3//19 4//19 101//49 99//49
f 4//21 2//21 97//21 101//21
f 99//49 101//49 102//50 100//50
f 101//21 97//21 98//21 102//21
f 97//48 95//48 96//51 98//51
f 100//50 102//50 86//46 85//46
f 102//21 98//21 84//21 86//21
f 98//51 96//51 83//47 84//47
