# OBJ written from E:\projects\work\958 - GCL - Claw Game\tests\animation_003\source\models\light-emissive.obj
# Units	meters

g light-emissive
v 0 4.414 0
v 0 4.42169 -0.0780361
v -0.0298631 4.42169 -0.072096
v -0.0551799 4.42169 -0.0551799
v -0.072096 4.42169 -0.0298631
v -0.0780361 4.42169 0
v -0.072096 4.42169 0.0298631
v -0.0551799 4.42169 0.0551799
v -0.0298631 4.42169 0.072096
v 0 4.42169 0.0780361
v 0.0298631 4.42169 0.072096
v 0.0551799 4.42169 0.0551799
v 0.072096 4.42169 0.0298631
v 0.0780361 4.42169 0
v 0.072096 4.42169 -0.0298631
v 0.0551799 4.42169 -0.0551799
v 0.0298631 4.42169 -0.072096
v 0 4.44445 -0.153073
v -0.0585786 4.44445 -0.141421
v -0.108239 4.44445 -0.108239
v -0.141421 4.44445 -0.0585786
v -0.153073 4.44445 0
v -0.141421 4.44445 0.0585786
v -0.108239 4.44445 0.108239
v -0.0585786 4.44445 0.141421
v 0 4.44445 0.153073
v 0.0585786 4.44445 0.141421
v 0.108239 4.44445 0.108239
v 0.141421 4.44445 0.0585786
v 0.153073 4.44445 0
v 0.141421 4.44445 -0.0585786
v 0.108239 4.44445 -0.108239
v 0.0585786 4.44445 -0.141421
v 0 4.48141 -0.222228
v -0.085043 4.48141 -0.205312
v -0.157139 4.48141 -0.157139
v -0.205312 4.48141 -0.085043
v -0.222228 4.48141 0
v -0.205312 4.48141 0.085043
v -0.157139 4.48141 0.157139
v -0.085043 4.48141 0.205312
v 0 4.48141 0.222228
v 0.085043 4.48141 0.205312
v 0.157139 4.48141 0.157139
v 0.205312 4.48141 0.085043
v 0.222228 4.48141 0
v 0.205312 4.48141 -0.085043
v 0.157139 4.48141 -0.157139
v 0.085043 4.48141 -0.205312
v 0 4.53116 -0.282843
v -0.108239 4.53116 -0.261313
v -0.2 4.53116 -0.2
v -0.261313 4.53116 -0.108239
v -0.282843 4.53116 0
v -0.261313 4.53116 0.108239
v -0.2 4.53116 0.2
v -0.108239 4.53116 0.261313
v 0 4.53116 0.282843
v 0.108239 4.53116 0.261313
v 0.2 4.53116 0.2
v 0.261313 4.53116 0.108239
v 0.282843 4.53116 0
v 0.261313 4.53116 -0.108239
v 0.2 4.53116 -0.2
v 0.108239 4.53116 -0.261313
v 0 4.59177 -0.332588
v -0.127276 4.59177 -0.307271
v -0.235175 4.59177 -0.235175
v -0.307271 4.59177 -0.127276
v -0.332588 4.59177 0
v -0.307271 4.59177 0.127276
v -0.235175 4.59177 0.235175
v -0.127276 4.59177 0.307271
v 0 4.59177 0.332588
v 0.127276 4.59177 0.307271
v 0.235175 4.59177 0.235175
v 0.307271 4.59177 0.127276
v 0.332588 4.59177 0
v 0.307271 4.59177 -0.127276
v 0.235175 4.59177 -0.235175
v 0.127276 4.59177 -0.307271
v 0 4.66093 -0.369552
v -0.141421 4.66093 -0.341421
v -0.261313 4.66093 -0.261313
v -0.341421 4.66093 -0.141421
v -0.369552 4.66093 0
v -0.341421 4.66093 0.141421
v -0.261313 4.66093 0.261313
v -0.141421 4.66093 0.341421
v 0 4.66093 0.369552
v 0.141421 4.66093 0.341421
v 0.261313 4.66093 0.261313
v 0.341421 4.66093 0.141421
v 0.369552 4.66093 0
v 0.341421 4.66093 -0.141421
v 0.261313 4.66093 -0.261313
v 0.141421 4.66093 -0.341421
v 0 4.73596 -0.392314
v -0.150132 4.73596 -0.362451
v -0.277408 4.73596 -0.277408
v -0.362451 4.73596 -0.150132
v -0.392314 4.73596 0
v -0.362451 4.73596 0.150132
v -0.277408 4.73596 0.277408
v -0.150132 4.73596 0.362451
v 0 4.73596 0.392314
v 0.150132 4.73596 0.362451
v 0.277408 4.73596 0.277408
v 0.362451 4.73596 0.150132
v 0.392314 4.73596 0
v 0.362451 4.73596 -0.150132
v 0.277408 4.73596 -0.277408
v 0.150132 4.73596 -0.362451
v 0 3.79398 -0.685856
v -0.264817 3.79489 -0.633189
v -0.489318 3.79751 -0.483205
v -0.639325 3.80143 -0.258738
v -0.692 3.80605 0.00603853
v -0.639325 3.81067 0.270815
v -0.489318 3.81459 0.495282
v -0.264817 3.81721 0.645266
v 0 3.81813 0.697933
v 0.264817 3.81721 0.645266
v 0.489318 3.81459 0.495282
v 0.639325 3.81067 0.270815
v 0.692 3.80605 0.00603853
v 0.639325 3.80143 -0.258738
v 0.489318 3.79751 -0.483205
v 0.264817 3.79489 -0.633189
v 0 0.0535467 -0.6786
v -0.259729 0.0535467 -0.626945
v -0.479916 0.0535467 -0.479843
v -0.62704 0.0535467 -0.259689
v -0.678703 0.0535467 8.61473e-009
v -0.62704 0.0535467 0.259689
v -0.479916 0.0535467 0.479843
v -0.259729 0.0535467 0.626945
v 0 0.0535467 0.6786
v 0.259729 0.0535467 0.626945
v 0.479916 0.0535467 0.479843
v 0.62704 0.0535467 0.259689
v 0.678703 0.0535467 8.61473e-009
v 0.62704 0.0535467 -0.259689
v 0.479916 0.0535467 -0.479843
v 0.259729 0.0535467 -0.626945
v -6.20856e-021 0.227224 -0.646763
v -0.246151 0.227224 -0.597808
v -0.454827 0.227224 -0.458396
v -0.594261 0.227224 -0.249751
v -0.643223 0.227224 -0.00363799
v -0.594261 0.227224 0.242475
v -0.454827 0.227224 0.45112
v -0.246151 0.227224 0.590532
v -6.20856e-021 0.227224 0.639487
v 0.246151 0.227224 0.590532
v 0.454827 0.227224 0.45112
v 0.594261 0.227224 0.242475
v 0.643223 0.227224 -0.00363799
v 0.594261 0.227224 -0.249751
v 0.454827 0.227224 -0.458396
v 0.246151 0.227224 -0.597808
v -6.89074e-021 0.353734 -0.581133
v -0.220187 0.353734 -0.537342
v -0.406853 0.353734 -0.412635
v -0.531579 0.353734 -0.225998
v -0.575377 0.353734 -0.00584382
v -0.531579 0.353734 0.21431
v -0.406853 0.353734 0.400947
v -0.220187 0.353734 0.525654
v -6.89074e-021 0.353734 0.569445
v 0.220187 0.353734 0.525654
v 0.406853 0.353734 0.400947
v 0.531579 0.353734 0.21431
v 0.575377 0.353734 -0.00584382
v 0.531579 0.353734 -0.225998
v 0.406853 0.353734 -0.412635
v 0.220187 0.353734 -0.537342
v -6.89074e-021 0.444427 -0.49667
v -0.187254 0.444427 -0.459429
v -0.346 0.444427 -0.353374
v -0.452071 0.444427 -0.194652
v -0.489318 0.444427 -0.00742687
v -0.452071 0.444427 0.179798
v -0.346 0.444427 0.33852
v -0.187254 0.444427 0.444575
v -6.89074e-021 0.444427 0.481816
v 0.187254 0.444427 0.444575
v 0.346 0.444427 0.33852
v 0.452071 0.444427 0.179798
v 0.489318 0.444427 -0.00742687
v 0.452071 0.444427 -0.194652
v 0.346 0.444427 -0.353374
v 0.187254 0.444427 -0.459429
v -6.89074e-021 0.518857 -0.393122
v -0.147124 0.518857 -0.363862
v -0.27185 0.518857 -0.280535
v -0.35519 0.518857 -0.155828
v -0.384455 0.518857 -0.00872605
v -0.35519 0.518857 0.138376
v -0.27185 0.518857 0.263083
v -0.147124 0.518857 0.34641
v -6.89074e-021 0.518857 0.37567
v 0.147124 0.518857 0.34641
v 0.27185 0.518857 0.263083
v 0.35519 0.518857 0.138376
v 0.384455 0.518857 -0.00872605
v 0.35519 0.518857 -0.155828
v 0.27185 0.518857 -0.280535
v 0.147124 0.518857 -0.363862
v -6.89074e-021 0.574163 -0.274468
v -0.101341 0.574163 -0.254313
v -0.187254 0.574163 -0.196917
v -0.244659 0.574163 -0.111017
v -0.264817 0.574163 -0.00969142
v -0.244659 0.574163 0.0916342
v -0.187254 0.574163 0.177534
v -0.101341 0.574163 0.23493
v -6.89074e-021 0.574163 0.255085
v 0.101341 0.574163 0.23493
v 0.187254 0.574163 0.177534
v 0.244659 0.574163 0.0916342
v 0.264817 0.574163 -0.00969142
v 0.244659 0.574163 -0.111017
v 0.187254 0.574163 -0.196917
v 0.101341 0.574163 -0.254313
v -6.89074e-021 0.608221 -0.145268
v -0.0516632 0.608221 -0.134993
v -0.0954612 0.608221 -0.105733
v -0.124726 0.608221 -0.0619413
v -0.135003 0.608221 -0.0102859
v -0.124726 0.608221 0.0413695
v -0.0954612 0.608221 0.0851607
v -0.0516632 0.608221 0.114421
v -6.89074e-021 0.608221 0.124696
v 0.0516632 0.608221 0.114421
v 0.0954612 0.608221 0.0851607
v 0.124726 0.608221 0.0413695
v 0.135003 0.608221 -0.0102859
v 0.124726 0.608221 -0.0619413
v 0.0954612 0.608221 -0.105733
v 0.0516632 0.608221 -0.134993
v -6.89074e-021 0.614453 -0.0103947
vn 1.1426e-008 0.576576 -0.817044
vn 0 0.324216 -0.945983
vn -0.361738 0.325445 -0.873631
vn -0.312347 0.5773 -0.754429
vn -0.667613 0.328936 -0.667903
vn -0.576181 0.579354 -0.576511
vn -0.870693 0.33413 -0.360903
vn -0.750922 0.582397 -0.311335
vn -0.940349 0.34021 -0.000201812
vn -0.810352 0.585943 -0.000247639
vn -0.866789 0.346239 0.358882
vn -0.746392 0.589441 0.308963
vn -0.662092 0.35131 0.661979
vn -0.569775 0.592369 0.56961
vn -0.357835 0.354677 0.863805
vn -0.307818 0.594306 0.742999
vn 3.82655e-009 0.355855 0.934541
vn -1.14149e-008 0.594983 0.803738
vn 0.357835 0.354676 0.863805
vn 0.307819 0.594306 0.742999
vn 0.662092 0.35131 0.661979
vn 0.569775 0.592369 0.56961
vn 0.866789 0.346239 0.358882
vn 0.746392 0.589441 0.308963
vn 0.940349 0.34021 -0.000201819
vn 0.810352 0.585943 -0.000247627
vn 0.870693 0.33413 -0.360903
vn 0.750922 0.582397 -0.311335
vn 0.667613 0.328936 -0.667903
vn 0.576181 0.579354 -0.576511
vn 0.361738 0.325445 -0.873631
vn 0.312347 0.5773 -0.754429
vn 5.66377e-009 0.75055 -0.660814
vn -0.252603 0.750941 -0.610147
vn -0.465918 0.752047 -0.466204
vn -0.60712 0.753682 -0.251732
vn -0.655055 0.755581 -0.000216656
vn -0.60326 0.757448 0.249699
vn -0.46046 0.759006 0.460312
vn -0.248744 0.760034 0.600396
vn -3.77354e-009 0.760392 0.649464
vn 0.248744 0.760034 0.600396
vn 0.46046 0.759006 0.460312
vn 0.60326 0.757448 0.249699
vn 0.655055 0.755581 -0.000216656
vn 0.60712 0.753682 -0.251732
vn 0.465918 0.752047 -0.466204
vn 0.252603 0.750941 -0.610147
vn -1.12824e-008 0.863033 -0.505147
vn -0.193117 0.863212 -0.466445
vn -0.356264 0.863717 -0.356467
vn -0.46437 0.864462 -0.192526
vn -0.501211 0.865325 -0.000148513
vn -0.461748 0.866171 0.191143
vn -0.352557 0.866876 0.352462
vn -0.190495 0.86734 0.459818
vn 1.87962e-008 0.867502 0.497434
vn 0.190495 0.86734 0.459818
vn 0.352557 0.866876 0.352462
vn 0.461748 0.866172 0.191143
vn 0.501211 0.865325 -0.000148537
vn 0.46437 0.864462 -0.192526
vn 0.356264 0.863717 -0.356467
vn 0.193117 0.863212 -0.466445
vn -9.37288e-010 0.940446 -0.339943
vn -0.129986 0.940503 -0.313938
vn -0.239891 0.940665 -0.240004
vn -0.312863 0.940903 -0.129689
vn -0.337914 0.941177 -7.65432e-005
vn -0.311522 0.941445 0.12898
vn -0.237994 0.941667 0.237954
vn -0.128645 0.941813 0.310547
vn 4.68537e-009 0.941863 0.335996
vn 0.128645 0.941813 0.310547
vn 0.237994 0.941667 0.237954
vn 0.311522 0.941445 0.12898
vn 0.337914 0.941177 -7.65488e-005
vn 0.312863 0.940903 -0.129689
vn 0.239891 0.940665 -0.240004
vn 0.129986 0.940503 -0.313938
vn 9.37178e-010 0.988486 -0.15131
vn -0.0578702 0.988494 -0.139755
vn -0.106845 0.988514 -0.106884
vn -0.139435 0.988544 -0.0577869
vn -0.150712 0.988578 -2.23053e-005
vn -0.139045 0.988611 0.0575809
vn -0.106295 0.988638 0.106288
vn -0.0574807 0.988655 0.138769
vn -2.57692e-009 0.988661 0.150163
vn 0.0574807 0.988655 0.138769
vn 0.106295 0.988638 0.106288
vn 0.139045 0.988611 0.0575809
vn 0.150712 0.988578 -2.23053e-005
vn 0.139435 0.988544 -0.0577869
vn 0.106845 0.988514 -0.106884
vn 0.0578702 0.988494 -0.139755
vn 5.82721e-011 1 -1.93008e-005
vn 0.376209 0.181826 -0.908518
vn 7.5918e-009 0.180306 -0.983611
vn 0.694627 0.186147 -0.694869
vn 0.906513 0.19259 -0.375691
vn 0.979765 0.200151 -0.000153464
vn 0.903776 0.207669 0.37425
vn 0.690757 0.214008 0.690692
vn 0.373474 0.218224 0.901607
vn 0 0.219701 0.975567
vn -0.373474 0.218224 0.901607
vn -0.690757 0.214008 0.690692
vn -0.903776 0.207669 0.37425
vn -0.979765 0.200151 -0.000153464
vn -0.906513 0.19259 -0.375691
vn -0.694627 0.186147 -0.694869
vn -0.376209 0.181826 -0.908518
vt 0 0.6875
vt 0 0.625
vt 0.0625 0.625
vt 0.0625 0.6875
vt 0.125 0.625
vt 0.125 0.6875
vt 0.1875 0.625
vt 0.1875 0.6875
vt 0.25 0.625
vt 0.25 0.6875
vt 0.3125 0.625
vt 0.3125 0.6875
vt 0.375 0.625
vt 0.375 0.6875
vt 0.4375 0.625
vt 0.4375 0.6875
vt 0.5 0.625
vt 0.5 0.6875
vt 0.5625 0.625
vt 0.5625 0.6875
vt 0.625 0.625
vt 0.625 0.6875
vt 0.6875 0.625
vt 0.6875 0.6875
vt 0.75 0.625
vt 0.75 0.6875
vt 0.8125 0.625
vt 0.8125 0.6875
vt 0.875 0.625
vt 0.875 0.6875
vt 0.9375 0.625
vt 0.9375 0.6875
vt 1 0.625
vt 1 0.6875
vt 0 0.75
vt 0.0625 0.75
vt 0.125 0.75
vt 0.1875 0.75
vt 0.25 0.75
vt 0.3125 0.75
vt 0.375 0.75
vt 0.4375 0.75
vt 0.5 0.75
vt 0.5625 0.75
vt 0.625 0.75
vt 0.6875 0.75
vt 0.75 0.75
vt 0.8125 0.75
vt 0.875 0.75
vt 0.9375 0.75
vt 1 0.75
vt 0 0.8125
vt 0.0625 0.8125
vt 0.125 0.8125
vt 0.1875 0.8125
vt 0.25 0.8125
vt 0.3125 0.8125
vt 0.375 0.8125
vt 0.4375 0.8125
vt 0.5 0.8125
vt 0.5625 0.8125
vt 0.625 0.8125
vt 0.6875 0.8125
vt 0.75 0.8125
vt 0.8125 0.8125
vt 0.875 0.8125
vt 0.9375 0.8125
vt 1 0.8125
vt 0 0.875
vt 0.0625 0.875
vt 0.125 0.875
vt 0.1875 0.875
vt 0.25 0.875
vt 0.3125 0.875
vt 0.375 0.875
vt 0.4375 0.875
vt 0.5 0.875
vt 0.5625 0.875
vt 0.625 0.875
vt 0.6875 0.875
vt 0.75 0.875
vt 0.8125 0.875
vt 0.875 0.875
vt 0.9375 0.875
vt 1 0.875
vt 0 0.9375
vt 0.0625 0.9375
vt 0.125 0.9375
vt 0.1875 0.9375
vt 0.25 0.9375
vt 0.3125 0.9375
vt 0.375 0.9375
vt 0.4375 0.9375
vt 0.5 0.9375
vt 0.5625 0.9375
vt 0.625 0.9375
vt 0.6875 0.9375
vt 0.75 0.9375
vt 0.8125 0.9375
vt 0.875 0.9375
vt 0.9375 0.9375
vt 1 0.9375
vt 0.03125 1
vt 0.09375 1
vt 0.15625 1
vt 0.21875 1
vt 0.28125 1
vt 0.34375 1
vt 0.40625 1
vt 0.46875 1
vt 0.53125 1
vt 0.59375 1
vt 0.65625 1
vt 0.71875 1
vt 0.78125 1
vt 0.84375 1
vt 0.90625 1
vt 0.96875 1
vt 0.9375 0.5625
vt 1 0.5625
vt 0.875 0.5625
vt 0.8125 0.5625
vt 0.75 0.5625
vt 0.6875 0.5625
vt 0.625 0.5625
vt 0.5625 0.5625
vt 0.5 0.5625
vt 0.4375 0.5625
vt 0.375 0.5625
vt 0.3125 0.5625
vt 0.25 0.5625
vt 0.1875 0.5625
vt 0.125 0.5625
vt 0.0625 0.5625
vt 0 0.5625
usemtl Default
f 162/1/1 146/2/2 147/3/3 163/4/4
f 163/4/4 147/3/3 148/5/5 164/6/6
f 164/6/6 148/5/5 149/7/7 165/8/8
f 165/8/8 149/7/7 150/9/9 166/10/10
f 166/10/10 150/9/9 151/11/11 167/12/12
f 167/12/12 151/11/11 152/13/13 168/14/14
f 168/14/14 152/13/13 153/15/15 169/16/16
f 169/16/16 153/15/15 154/17/17 170/18/18
f 170/18/18 154/17/17 155/19/19 171/20/20
f 171/20/20 155/19/19 156/21/21 172/22/22
f 172/22/22 156/21/21 157/23/23 173/24/24
f 173/24/24 157/23/23 158/25/25 174/26/26
f 174/26/26 158/25/25 159/27/27 175/28/28
f 175/28/28 159/27/27 160/29/29 176/30/30
f 176/30/30 160/29/29 161/31/31 177/32/32
f 177/32/32 161/31/31 146/33/2 162/34/1
f 178/35/33 162/1/1 163/4/4 179/36/34
f 179/36/34 163/4/4 164/6/6 180/37/35
f 180/37/35 164/6/6 165/8/8 181/38/36
f 181/38/36 165/8/8 166/10/10 182/39/37
f 182/39/37 166/10/10 167/12/12 183/40/38
f 183/40/38 167/12/12 168/14/14 184/41/39
f 184/41/39 168/14/14 169/16/16 185/42/40
f 185/42/40 169/16/16 170/18/18 186/43/41
f 186/43/41 170/18/18 171/20/20 187/44/42
f 187/44/42 171/20/20 172/22/22 188/45/43
f 188/45/43 172/22/22 173/24/24 189/46/44
f 189/46/44 173/24/24 174/26/26 190/47/45
f 190/47/45 174/26/26 175/28/28 191/48/46
f 191/48/46 175/28/28 176/30/30 192/49/47
f 192/49/47 176/30/30 177/32/32 193/50/48
f 193/50/48 177/32/32 162/34/1 178/51/33
f 194/52/49 178/35/33 179/36/34 195/53/50
f 195/53/50 179/36/34 180/37/35 196/54/51
f 196/54/51 180/37/35 181/38/36 197/55/52
f 197/55/52 181/38/36 182/39/37 198/56/53
f 198/56/53 182/39/37 183/40/38 199/57/54
f 199/57/54 183/40/38 184/41/39 200/58/55
f 200/58/55 184/41/39 185/42/40 201/59/56
f 201/59/56 185/42/40 186/43/41 202/60/57
f 202/60/57 186/43/41 187/44/42 203/61/58
f 203/61/58 187/44/42 188/45/43 204/62/59
f 204/62/59 188/45/43 189/46/44 205/63/60
f 205/63/60 189/46/44 190/47/45 206/64/61
f 206/64/61 190/47/45 191/48/46 207/65/62
f 207/65/62 191/48/46 192/49/47 208/66/63
f 208/66/63 192/49/47 193/50/48 209/67/64
f 209/67/64 193/50/48 178/51/33 194/68/49
f 210/69/65 194/52/49 195/53/50 211/70/66
f 211/70/66 195/53/50 196/54/51 212/71/67
f 212/71/67 196/54/51 197/55/52 213/72/68
f 213/72/68 197/55/52 198/56/53 214/73/69
f 214/73/69 198/56/53 199/57/54 215/74/70
f 215/74/70 199/57/54 200/58/55 216/75/71
f 216/75/71 200/58/55 201/59/56 217/76/72
f 217/76/72 201/59/56 202/60/57 218/77/73
f 218/77/73 202/60/57 203/61/58 219/78/74
f 219/78/74 203/61/58 204/62/59 220/79/75
f 220/79/75 204/62/59 205/63/60 221/80/76
f 221/80/76 205/63/60 206/64/61 222/81/77
f 222/81/77 206/64/61 207/65/62 223/82/78
f 223/82/78 207/65/62 208/66/63 224/83/79
f 224/83/79 208/66/63 209/67/64 225/84/80
f 225/84/80 209/67/64 194/68/49 210/85/65
f 226/86/81 210/69/65 211/70/66 227/87/82
f 227/87/82 211/70/66 212/71/67 228/88/83
f 228/88/83 212/71/67 213/72/68 229/89/84
f 229/89/84 213/72/68 214/73/69 230/90/85
f 230/90/85 214/73/69 215/74/70 231/91/86
f 231/91/86 215/74/70 216/75/71 232/92/87
f 232/92/87 216/75/71 217/76/72 233/93/88
f 233/93/88 217/76/72 218/77/73 234/94/89
f 234/94/89 218/77/73 219/78/74 235/95/90
f 235/95/90 219/78/74 220/79/75 236/96/91
f 236/96/91 220/79/75 221/80/76 237/97/92
f 237/97/92 221/80/76 222/81/77 238/98/93
f 238/98/93 222/81/77 223/82/78 239/99/94
f 239/99/94 223/82/78 224/83/79 240/100/95
f 240/100/95 224/83/79 225/84/80 241/101/96
f 241/101/96 225/84/80 210/85/65 226/102/81
f 226/86/81 227/87/82 242/103/97
f 227/87/82 228/88/83 242/104/97
f 228/88/83 229/89/84 242/105/97
f 229/89/84 230/90/85 242/106/97
f 230/90/85 231/91/86 242/107/97
f 231/91/86 232/92/87 242/108/97
f 232/92/87 233/93/88 242/109/97
f 233/93/88 234/94/89 242/110/97
f 234/94/89 235/95/90 242/111/97
f 235/95/90 236/96/91 242/112/97
f 236/96/91 237/97/92 242/113/97
f 237/97/92 238/98/93 242/114/97
f 238/98/93 239/99/94 242/115/97
f 239/99/94 240/100/95 242/116/97
f 240/100/95 241/101/96 242/117/97
f 241/101/96 226/102/81 242/118/97
f 161/31/31 145/119/98 130/120/99 146/33/2
f 161/31/31 160/29/29 144/121/100 145/119/98
f 159/27/27 143/122/101 144/121/100 160/29/29
f 159/27/27 158/25/25 142/123/102 143/122/101
f 158/25/25 157/23/23 141/124/103 142/123/102
f 156/21/21 140/125/104 141/124/103 157/23/23
f 156/21/21 155/19/19 139/126/105 140/125/104
f 155/19/19 154/17/17 138/127/106 139/126/105
f 153/15/15 137/128/107 138/127/106 154/17/17
f 152/13/13 136/129/108 137/128/107 153/15/15
f 152/13/13 151/11/11 135/130/109 136/129/108
f 150/9/9 134/131/110 135/130/109 151/11/11
f 149/7/7 133/132/111 134/131/110 150/9/9
f 149/7/7 148/5/5 132/133/112 133/132/111
f 147/3/3 131/134/113 132/133/112 148/5/5
f 146/2/2 130/135/99 131/134/113 147/3/3
