# OBJ written from C:\Users\Brad\Desktop\_2\nut.obj
# Units	meters

g nut
v -3.20107 1.20897 0.0538462
v -3.56822 1.20897 0.0538462
v -3.58203 1.20769 0.0538462
v -3.5953 1.2044 0.0538462
v -3.60784 1.19923 0.0538462
v -3.61945 1.19229 0.0538462
v -3.62995 1.18369 0.0538462
v -3.63913 1.17356 0.0538462
v -3.6468 1.16201 0.0538462
v -3.83061 0.843287 0.0538462
v -3.83653 0.830825 0.0538462
v -3.84049 0.817801 0.0538462
v -3.84246 0.804439 0.0538462
v -3.84246 0.790966 0.0538462
v -3.84049 0.777604 0.0538462
v -3.83653 0.76458 0.0538462
v -3.83061 0.752118 0.0538462
v -3.6468 0.435234 0.0538462
v -3.63899 0.424018 0.0538462
v -3.6297 0.414249 0.0538462
v -3.61915 0.406039 0.0538462
v -3.60753 0.3995 0.0538462
v -3.59503 0.394743 0.0538462
v -3.58186 0.391882 0.0538462
v -3.56822 0.391028 0.0538462
v -3.20107 0.391028 0.0538462
v -3.18743 0.391859 0.0538462
v -3.17426 0.394701 0.0538462
v -3.16176 0.399441 0.0538462
v -3.15014 0.405968 0.0538462
v -3.13958 0.414168 0.0538462
v -3.1303 0.42393 0.0538462
v -3.12249 0.435142 0.0538462
v -2.93868 0.752394 0.0538462
v -2.93272 0.764741 0.0538462
v -2.92875 0.77766 0.0538462
v -2.92677 0.790922 0.0538462
v -2.92677 0.804299 0.0538462
v -2.92875 0.817561 0.0538462
v -2.93272 0.83048 0.0538462
v -2.93868 0.842827 0.0538462
v -3.12249 1.1621 0.0538462
v -3.13016 1.17364 0.0538462
v -3.13935 1.18375 0.0538462
v -3.14985 1.19233 0.0538462
v -3.16146 1.19926 0.0538462
v -3.174 1.20442 0.0538462
v -3.18727 1.2077 0.0538462
v -3.20107 1.20897 0.207692
v -3.56822 1.20897 0.207692
v -3.58203 1.20769 0.207692
v -3.5953 1.2044 0.207692
v -3.60784 1.19923 0.207692
v -3.61945 1.19229 0.207692
v -3.62995 1.18369 0.207692
v -3.63913 1.17356 0.207692
v -3.6468 1.16201 0.207692
v -3.83061 0.843287 0.207692
v -3.83653 0.830825 0.207692
v -3.84049 0.817801 0.207692
v -3.84246 0.804439 0.207692
v -3.84246 0.790966 0.207692
v -3.84049 0.777604 0.207692
v -3.83653 0.76458 0.207692
v -3.83061 0.752118 0.207692
v -3.6468 0.435234 0.207692
v -3.63899 0.424018 0.207692
v -3.6297 0.414249 0.207692
v -3.61915 0.406039 0.207692
v -3.60753 0.3995 0.207692
v -3.59503 0.394743 0.207692
v -3.58186 0.391882 0.207692
v -3.56822 0.391028 0.207692
v -3.20107 0.391028 0.207692
v -3.18743 0.391859 0.207692
v -3.17426 0.394701 0.207692
v -3.16176 0.399441 0.207692
v -3.15014 0.405968 0.207692
v -3.13958 0.414168 0.207692
v -3.1303 0.42393 0.207692
v -3.12249 0.435142 0.207692
v -2.93868 0.752394 0.207692
v -2.93272 0.764741 0.207692
v -2.92875 0.77766 0.207692
v -2.92677 0.790922 0.207692
v -2.92677 0.804299 0.207692
v -2.92875 0.817561 0.207692
v -2.93272 0.83048 0.207692
v -2.93868 0.842827 0.207692
v -3.12249 1.1621 0.207692
v -3.13016 1.17364 0.207692
v -3.13935 1.18375 0.207692
v -3.14985 1.19233 0.207692
v -3.16146 1.19926 0.207692
v -3.174 1.20442 0.207692
v -3.18727 1.2077 0.207692
v -3.57635 0.752147 0.207692
v -3.53834 0.674233 0.207692
v -3.47137 0.620559 0.207692
v -3.38487 0.600569 0.207692
v -3.38469 0.600569 0.207692
v -3.29826 0.620616 0.207692
v -3.23136 0.674295 0.207692
v -3.19339 0.752175 0.207692
v -3.38487 0.993917 0.207692
v -3.47137 0.973927 0.207692
v -3.53834 0.920253 0.207692
v -3.57635 0.842339 0.207692
v -3.19339 0.842338 0.207692
v -3.23141 0.920253 0.207692
v -3.29838 0.973927 0.207692
v -3.57635 0.752147 0.0538462
v -3.53834 0.674233 0.0538462
v -3.47137 0.620559 0.0538462
v -3.38487 0.600569 0.0538462
v -3.38469 0.600569 0.0538462
v -3.29826 0.620616 0.0538462
v -3.23136 0.674295 0.0538462
v -3.19339 0.752175 0.0538462
v -3.38487 0.993917 0.0538462
v -3.47137 0.973927 0.0538462
v -3.53834 0.920253 0.0538462
v -3.57635 0.842339 0.0538462
v -3.19339 0.842338 0.0538462
v -3.23141 0.920253 0.0538462
v -3.29838 0.973927 0.0538462
vn -0.256911 1.51686 0
vn -0.479606 1.46179 0
vn -0.689833 1.37513 0
vn -0.884394 1.25885 0
vn -1.06029 1.11474 0
vn -1.21426 0.944694 0
vn -1.30784 0.810204 0
vn -1.53432 0.112838 0
vn -1.53432 -0.112838 0
vn -1.50115 -0.336785 0
vn -1.43476 -0.555268 0
vn -1.36119 -0.716947 0
vn -1.29768 -0.826364 0
vn -1.19223 -0.972337 0
vn -1.03289 -1.14018 0
vn -0.851867 -1.28109 0
vn -0.65261 -1.39318 0
vn -0.438198 -1.47474 0
vn -0.212004 -1.52378 0
vn 0.209683 -1.52411 0
vn 0.436332 -1.47529 0
vn 0.651204 -1.39384 0
vn 0.850895 -1.28173 0
vn 1.03229 -1.14072 0
vn 1.192 -0.972627 0
vn 1.29786 -0.826084 0
vn 1.43224 -0.561733 0
vn 1.50024 -0.34079 0
vn 1.53422 -0.114196 0
vn 1.53422 0.114196 0
vn 1.50024 0.34079 0
vn 1.43224 0.561732 0
vn 1.36041 0.718441 0
vn 1.21326 0.945978 0
vn 1.0592 1.11578 0
vn 0.883263 1.25965 0
vn 0.688716 1.37569 0
vn 0.47852 1.46215 0
vn 0.255911 1.51703 0
vn 0.0708398 1.53683 0
vn 0.174342 1.52855 0
vn -0.174951 1.52848 0
vn -1.50115 0.336785 0
vn 1.49901 0.346165 0
vn 1.20152 0.960837 0
vn -1.43476 0.55527 0
vn 1.20152 -0.960839 0
vn 1.49901 -0.346168 0
vn 0 0 1.53846
vn -1.36209 0.715241 0
vn 0.671071 1.38439 0
vn -0.671988 1.38394 0
vn -0.0480929 -1.53771 0
vn -1.20191 0.960354 0
vn -1.49907 0.345906 0
vn 0.0468197 -1.53775 0
vn -1.499 -0.34622 0
vn -1.20152 -0.96084 0
vn 1.35942 -0.720312 0
vn -0.67107 -1.38439 0
vn 7.05876e-007 -1.53846 0
vn 1.3077 0.81043 0
vn 0.671072 -1.38439 0
vn -0.0713066 1.53681 0
vt 0 0
vt 0 1
vt 1 1
vt 1 0
vt 0.613793 1
vt 0.613793 0
vt 0.496552 0
vt 0.496552 1
vt 1 0.559052
vt 1 0.449103
vt 1 0.344926
usemtl Default
f 3/1/1 4/2/2 52/3/2 51/4/1
f 4/1/2 5/2/3 53/3/3 52/4/2
f 5/1/3 6/2/4 54/3/4 53/4/3
f 6/1/4 7/2/5 55/3/5 54/4/4
f 7/1/5 8/2/6 56/3/6 55/4/5
f 8/1/6 9/2/7 57/3/7 56/4/6
f 13/1/8 14/2/9 62/3/9 61/4/8
f 14/1/9 15/2/10 63/3/10 62/4/9
f 15/1/10 16/2/11 64/3/11 63/4/10
f 16/1/11 17/2/12 65/3/12 64/4/11
f 17/1/12 18/2/13 66/3/13 65/4/12
f 18/1/13 19/2/14 67/3/14 66/4/13
f 19/1/14 20/2/15 68/3/15 67/4/14
f 20/1/15 21/2/16 69/3/16 68/4/15
f 21/1/16 22/2/17 70/3/17 69/4/16
f 22/1/17 23/2/18 71/3/18 70/4/17
f 23/1/18 24/2/19 72/3/19 71/4/18
f 27/1/20 28/2/21 76/3/21 75/4/20
f 28/1/21 29/2/22 77/3/22 76/4/21
f 29/1/22 30/2/23 78/3/23 77/4/22
f 30/1/23 31/2/24 79/3/24 78/4/23
f 31/1/24 32/2/25 80/3/25 79/4/24
f 32/1/25 33/2/26 81/3/26 80/4/25
f 35/1/27 36/2/28 84/3/28 83/4/27
f 36/1/28 37/2/29 85/3/29 84/4/28
f 37/1/29 38/2/30 86/3/30 85/4/29
f 38/1/30 39/2/31 87/3/31 86/4/30
f 39/1/31 40/2/32 88/3/32 87/4/31
f 40/1/32 41/2/33 89/3/33 88/4/32
f 43/1/34 44/2/35 92/3/35 91/4/34
f 44/1/35 45/2/36 93/3/36 92/4/35
f 45/1/36 46/2/37 94/3/37 93/4/36
f 46/1/37 47/2/38 95/3/38 94/4/37
f 47/1/38 48/2/39 96/3/39 95/4/38
f 48/1/39 1/2/40 49/3/40 96/4/39
f 100/5/41 101/6/42 116/7/42 115/8/41
f 60/4/43 12/1/43 13/2/8 61/3/8
f 97/5/44 98/6/45 113/7/45 112/8/44
f 60/3/43 59/4/46 11/1/46 12/2/43
f 122/8/47 107/5/47 108/6/48 123/7/48
f 123/8/48 108/5/48 97/6/44 112/7/44
f 97/3/49 108/3/49 58/3/49
f 10/2/50 58/3/50 57/4/7 9/1/7
f 10/1/50 11/2/46 59/3/46 58/4/50
f 58/3/49 98/3/49 97/3/49
f 113/8/45 98/5/45 99/6/51 114/7/51
f 99/5/51 100/6/41 115/7/41 114/8/51
f 117/7/52 116/8/42 101/5/42 102/6/52
f 73/3/53 72/4/19 24/1/19 25/2/53
f 98/3/49 58/3/49 59/3/49 60/3/49 61/3/49 62/3/49 63/3/49 64/3/49 65/3/49 66/3/49 67/3/49 68/3/49 69/3/49 70/3/49 71/3/49 72/3/49 73/3/49
f 73/3/49 102/3/49 101/3/49 100/3/49
f 100/3/49 99/3/49 73/3/49
f 98/3/49 73/3/49 99/3/49
f 117/8/52 102/5/52 103/6/54 118/7/54
f 103/5/54 104/6/55 119/7/55 118/8/54
f 26/2/56 74/3/56 73/4/53 25/1/53
f 26/1/56 27/2/20 75/3/20 74/4/56
f 102/3/49 73/3/49 74/3/49
f 74/3/49 104/9/49 103/3/49
f 102/3/49 74/3/49 103/3/49
f 119/8/55 104/5/55 109/6/57 124/7/57
f 109/5/57 110/6/58 125/7/58 124/8/57
f 82/3/59 81/4/26 33/1/26 34/2/59
f 82/3/49 109/10/49 104/9/49
f 104/9/49 74/3/49 75/3/49 76/3/49 77/3/49 78/3/49 79/3/49 80/3/49 81/3/49 82/3/49
f 83/3/27 82/4/59 34/1/59 35/2/27
f 82/3/49 110/3/49 109/10/49
f 125/8/58 110/5/58 111/6/60 126/7/60
f 111/5/60 105/6/61 120/7/61 126/8/60
f 90/3/62 89/4/33 41/1/33 42/2/62
f 90/3/49 111/3/49 110/3/49
f 110/3/49 82/3/49 83/3/49 84/3/49 85/3/49 86/3/49 87/3/49 88/3/49 89/3/49 90/3/49
f 91/3/34 90/4/62 42/1/62 43/2/34
f 90/3/49 105/11/49 111/3/49
f 106/6/63 121/7/63 120/8/61 105/5/61
f 106/5/63 107/6/47 122/7/47 121/8/63
f 50/3/64 49/4/40 1/1/40 2/2/64
f 50/3/49 106/3/49 105/11/49
f 105/11/49 90/3/49 91/3/49 92/3/49 93/3/49 94/3/49 95/3/49 96/3/49 49/4/49 50/3/49
f 58/3/49 108/3/49 107/3/49
f 51/3/1 50/4/64 2/1/64 3/2/1
f 107/3/49 50/3/49 51/3/49 52/3/49 53/3/49 54/3/49 55/3/49 56/3/49 57/3/49 58/3/49
f 50/3/49 107/3/49 106/3/49
