# OBJ written from E:\projects\work\958 - GCL - Claw Game\tests\animation_003\source\models\ui\panel-a_bevelled_front_tailed.obj
# Units	meters

g panel-a_bevelled_front_tailed
v -5.79 -4.11 0
v -6.09 -3.81 0
v -5.90481 -4.08716 0
v -6.00213 -4.02213 0
v -6.06716 -3.9248 0
v -6.09 3.81 0
v -5.79 4.11 0
v -6.06716 3.9248 0
v -6.00213 4.02213 0
v -5.90481 4.08716 0
v 5.79 4.11 0
v 6.09 3.81 0
v 5.90481 4.08716 0
v 6.00213 4.02213 0
v 6.06716 3.9248 0
v 6.09 -3.81 0
v 5.79 -4.11 0
v 6.06716 -3.9248 0
v 6.00213 -4.02213 0
v 5.90481 -4.08716 0
v -6.08075 -3.8565 0
v 1.03431 -4.84301 1.86265e-009
v 1.22234 -4.61256 1.86265e-009
v 1.39657 -4.21961 1.86265e-009
v 1.72 -4.34 1.86265e-009
v 1.34 -4.74 1.86265e-009
v 1.3465 -4.387 1.86265e-009
v 1.56 -4.56 1.86265e-009
v 1.3896 -4.11 0
v 1.87285 -4.11 0
v 1.03431 -4.84301 1.86265e-009
v 1.34 -4.74 1.86265e-009
vn 0 0 1
vn 0 5.66446e-009 1
vn 0 8.49669e-009 1
vn 0 1 0
vt 1 0.0246305
vt 0 0.0246305
vt 0.00912409 0.0184729
vt 0.990876 0.0184729
vt 0.0182482 0.0123153
vt 0.981752 0.0123153
vt 0.0273723 0.00615764
vt 0.967199 0.00249384
vt 0.972628 0.00615764
vt 0.0364964 0
vt 0.963504 0
vt 0 0.975369
vt 1 0.975369
vt 0.990876 0.981527
vt 0.00912409 0.981527
vt 0.981752 0.987685
vt 0.0182482 0.987685
vt 0.972628 0.993842
vt 0.0273723 0.993842
vt 0.963504 1
vt 0.0364964 1
vt 0.674578 0.325422
vt 0.667086 0
vt 1 0
vt 1 0.614089
vt 0.1341 0
vt 0.209963 0.790037
vt 1 0.635765
vt 0.400593 0
vt 0.44227 0.55773
vt 0 0
vt 1 1
vt 0 1
usemtl panel_045front
f 1/1/1 7/2/1 10/3/1 3/4/1
f 3/4/1 10/3/1 9/5/1 4/6/1
f 4/6/1 9/5/1 8/7/1 21/8/1 5/9/1
f 8/7/1 6/10/1 2/11/1 21/8/1
f 11/12/1 17/13/1 20/14/1 13/15/1
f 13/15/1 20/14/1 19/16/1 14/17/1
f 14/17/1 19/16/1 18/18/1 15/19/1
f 15/19/1 18/18/1 16/20/1 12/21/1
f 26/22/1 23/23/1 22/24/1
f 29/25/2 24/26/3 25/27/3 30/28/2
f 25/27/3 24/26/3 27/29/1 28/30/1
f 28/30/1 27/29/1 23/23/1 26/22/1
f 29/25/2 11/12/1 7/2/1 1/1/1
f 11/12/1 30/28/2 17/13/1
f 11/12/1 29/25/2 30/28/2
f 22/31/4 31/24/4 32/32/4 26/33/4
