# OBJ written from C:\Users\Brad\Desktop\_2\panel-b_front_tailed.obj
# Units	meters

g panel-b_front_tailed
v -5.78 -2.72 0
v -6.12 -2.38 0
v -5.91011 -2.69412 0
v -6.02042 -2.62042 0
v -6.09412 -2.51011 0
v -6.12 2.38 0
v -5.78 2.72 0
v -6.09412 2.51011 0
v -6.02042 2.62042 0
v -5.91011 2.69412 0
v 5.78 2.72 0
v 6.12 2.38 0
v 5.91011 2.69412 0
v 6.02042 2.62042 0
v 6.09412 2.51011 0
v 6.12 -2.38 0
v 5.78 -2.72 0
v 6.09412 -2.51011 0
v 6.02042 -2.62042 0
v 5.91011 -2.69412 0
v 2.16813 -3.87722 2.86561e-009
v 2.43198 -3.50338 2.86561e-009
v 2.63209 -2.9997 2.86561e-009
v 2.93956 -3.03782 2.86561e-009
v 2.50791 -3.58442 2.86561e-009
v 2.55505 -3.25722 2.86561e-009
v 2.73797 -3.33716 2.86561e-009
v 2.6588 -2.72 0
v 3.08016 -2.72 0
vn 0 0 1
vn 0 3.4151e-009 1
vn 0 5.12265e-009 1
vt 0.953125 0.00694444
vt 0.046875 0.00694444
vt 0.0625 0
vt 0.9375 0
vt 0.03125 0.0138889
vt 0.96875 0.0138889
vt 0.015625 0.0208333
vt 0.984375 0.0208333
vt 0 0.0277778
vt 1 0.0277778
vt 0.015625 0.979167
vt 0.984375 0.979167
vt 0.96875 0.986111
vt 0.03125 0.986111
vt 0.953125 0.993056
vt 0.046875 0.993056
vt 0.9375 1
vt 0.0625 1
vt 0.674578 0.325422
vt 0.667086 0
vt 1 0
vt 1 0.717222
vt 0.1341 0
vt 0.209963 0.790037
vt 1 0.751647
vt 0.400593 0
vt 0.44227 0.55773
vt 0 0.972222
vt 1 0.972222
usemtl panel_045front
f 5/1/1 8/2/1 6/3/1 2/4/1
f 9/5/1 8/2/1 5/1/1 4/6/1
f 10/7/1 9/5/1 4/6/1 3/8/1
f 7/9/1 10/7/1 3/8/1 1/10/1
f 13/11/1 20/12/1 19/13/1 14/14/1
f 14/14/1 19/13/1 18/15/1 15/16/1
f 15/16/1 18/15/1 16/17/1 12/18/1
f 25/19/1 22/20/1 21/21/1
f 28/22/2 23/23/3 24/24/3 29/25/2
f 24/24/3 23/23/3 26/26/1 27/27/1
f 27/27/1 26/26/1 22/20/1 25/19/1
f 11/28/1 17/29/1 20/12/1 13/11/1
f 29/25/2 17/29/1 11/28/1
f 29/25/2 11/28/1 28/22/2
f 11/28/1 7/9/1 1/10/1 28/22/2
