# OBJ written from C:\Users\Brad\Desktop\_2\panel-b_back.obj
# Units	meters

g panel-b_back
v -6.0401 -3.0024 -0.6
v -6.3954 -2.6471 -0.6
v -6.17607 -2.97535 -0.6
v -6.29133 -2.89834 -0.6
v -6.36835 -2.78307 -0.6
v -6.3954 2.6471 -0.6
v -6.36835 2.78307 -0.6
v -6.29133 2.89834 -0.6
v -6.17607 2.97535 -0.6
v 6.0401 3.0024 -0.6
v 6.3954 2.6471 -0.6
v 6.17607 2.97535 -0.6
v 6.29133 2.89834 -0.6
v 6.36835 2.78307 -0.6
v 6.3954 -2.6471 -0.6
v 6.0401 -3.0024 -0.6
v 6.36835 -2.78307 -0.6
v 6.29133 -2.89834 -0.6
v 6.17607 -2.97535 -0.6
v -5.9797 3.0024 -0.6
vn 0 0 1.045
vt 1 0.0277778
vt 1 0.972222
vt 0 0.972222
vt 0 0.0325
vt 0.985208 0.979167
vt 0.0147923 0.979167
vt 0.970415 0.986111
vt 0.0295847 0.986111
vt 0.955623 0.993056
vt 0.044377 0.993056
vt 0.940831 1
vt 0.0591693 1
vt 0.0147923 0.0208333
vt 0.985208 0.0208333
vt 0.0295847 0.0138889
vt 0.970415 0.0138889
vt 0.044377 0.00694444
vt 0.955623 0.00694444
vt 0.0591693 0
vt 0.940831 0
usemtl Default
f 1/1/1 16/2/1 10/3/1 20/4/1
f 10/3/1 16/2/1 19/5/1 12/6/1
f 12/6/1 19/5/1 18/7/1 13/8/1
f 13/8/1 18/7/1 17/9/1 14/10/1
f 14/10/1 17/9/1 15/11/1 11/12/1
f 20/4/1 9/13/1 3/14/1 1/1/1
f 3/14/1 9/13/1 8/15/1 4/16/1
f 4/16/1 8/15/1 7/17/1 5/18/1
f 5/18/1 7/17/1 6/19/1 2/20/1
