# OBJ written from C:\Users\Brad\Desktop\_2\score-combined.obj
# Units	meters

g score-combined
v -3.20107 1.22436 0
v -3.56822 1.22436 0
v -3.6468 1.17739 0
v -3.83061 0.858671 0
v -3.83061 0.767503 0
v -3.6468 0.450618 0
v -3.56822 0.406413 0
v -3.20107 0.406413 0
v -3.12249 0.450526 0
v -2.93868 0.767778 0
v -2.93868 0.858212 0
v -3.12249 1.17749 0
v -3.20107 1.22436 0.05
v -3.56822 1.22436 0.05
v -3.6468 1.17739 0.05
v -3.83061 0.858671 0.05
v -3.83061 0.767503 0.05
v -3.6468 0.450618 0.05
v -3.56822 0.406413 0.05
v -3.20107 0.406413 0.05
v -3.12249 0.450526 0.05
v -2.93868 0.767778 0.05
v -2.93868 0.858212 0.05
v -3.12249 1.17749 0.05
v -3.57635 0.767532 0.05
v -3.53834 0.689618 0.05
v -3.47137 0.635944 0.05
v -3.29826 0.636 0.05
v -3.23136 0.68968 0.05
v -3.19339 0.76756 0.05
v -3.38487 1.0093 0.05
v -3.47137 0.989312 0.05
v -3.53834 0.935637 0.05
v -3.57635 0.857723 0.05
v -3.19339 0.857723 0.05
v -3.23141 0.935637 0.05
v -3.29838 0.989312 0.05
v -3.57635 0.767532 0
v -3.53834 0.689618 0
v -3.47137 0.635944 0
v -3.29826 0.636 0
v -3.23136 0.68968 0
v -3.19339 0.76756 0
v -3.38487 1.0093 0
v -3.47137 0.989312 0
v -3.53834 0.935637 0
v -3.57635 0.857723 0
v -3.19339 0.857723 0
v -3.23141 0.935637 0
v -3.29838 0.989312 0
v -3.38478 0.615953 0.05
v -3.38478 0.615953 0
v -3.61365 1.21114 0.05
v -3.61365 1.21114 0
v -3.84246 0.813087 0.05
v -3.84246 0.813087 0
v -3.61334 0.418154 0.05
v -3.61334 0.418154 0
v -3.15595 0.418089 0.05
v -3.15595 0.418089 0
v -2.92677 0.812995 0.05
v -2.92677 0.812995 0
v -3.15566 1.21118 0.05
v -3.15566 1.21118 0
v -0.831538 -2.07308 0
v -0.865385 -2.03923 0
v -0.865385 2.13154 0
v -0.831538 2.16538 0
v -0.768462 2.16538 0
v -0.734615 2.13154 0
v -0.734615 -2.03923 0
v -0.768462 -2.07308 0
v -0.865385 -2.03923 0.05
v -0.831538 -2.07308 0.05
v -0.865385 2.13154 0.05
v -0.831538 2.16538 0.05
v -0.734615 2.13154 0.05
v -0.768462 2.16538 0.05
v -0.768462 -2.07308 0.05
v -0.734615 -2.03923 0.05
v -0.855471 2.15547 0.05
v -0.855471 2.15547 0
v -0.855471 -2.06316 0
v -0.855471 -2.06316 0.05
v -0.744529 2.15547 0.05
v -0.744529 2.15547 0
v -0.744529 -2.06316 0.05
v -0.744529 -2.06316 0
v -0.8 0.0461538 0.05
v 2.41817 0.674854 0
v 2.54781 0.650785 0
v 2.55651 0.616987 0
v 2.43043 0.513149 0
v 2.39902 0.527483 0
v 2.39546 0.65539 0
v 2.76923 0.367483 0
v 2.70836 0.371813 0
v 2.64954 0.38453 0
v 2.59352 0.405226 0
v 2.54106 0.433493 0
v 2.49293 0.468922 0
v 2.44988 0.511104 0
v 2.5444 0.595398 0
v 2.57472 0.56569 0
v 2.60861 0.540738 0
v 2.64554 0.520831 0
v 2.68497 0.506256 0
v 2.72638 0.4973 0
v 2.76923 0.49425 0
v 2.8381 0.502221 0
v 2.90136 0.524918 0
v 2.9572 0.560519 0
v 3.0038 0.607202 0
v 3.03934 0.663144 0
v 3.06199 0.726524 0
v 3.06995 0.795518 0
v 3.06199 0.864512 0
v 3.03934 0.927891 0
v 3.0038 0.983833 0
v 2.9572 1.03052 0
v 2.90136 1.06612 0
v 2.8381 1.08881 0
v 2.76923 1.09678 0
v 2.70036 1.08881 0
v 2.6371 1.06612 0
v 2.58126 1.03052 0
v 2.53466 0.983833 0
v 2.49912 0.927891 0
v 2.47647 0.864512 0
v 2.46851 0.795518 0
v 2.46208 0.767644 0
v 2.44481 0.746059 0
v 2.41975 0.733808 0
v 2.39074 0.733808 0
v 2.36567 0.746059 0
v 2.3484 0.767644 0
v 2.34197 0.795518 0
v 2.35328 0.893543 0
v 2.38547 0.983591 0
v 2.43596 1.06307 0
v 2.50216 1.1294 0
v 2.5815 1.17998 0
v 2.67138 1.21223 0
v 2.86708 1.21223 0
v 2.95696 1.17998 0
v 3.0363 1.1294 0
v 3.1025 1.06307 0
v 3.15299 0.983591 0
v 3.18518 0.893543 0
v 3.19649 0.795518 0
v 3.18518 0.697493 0
v 3.15299 0.607444 0
v 3.1025 0.527963 0
v 3.0363 0.461637 0
v 2.95696 0.411055 0
v 2.86708 0.378807 0
v 2.87379 1.27659 0
v 2.87064 1.26296 0
v 2.85645 1.24875 0
v 2.6855 1.24875 0
v 2.67131 1.26296 0
v 2.66816 1.27659 0
v 2.66816 1.29383 0
v 2.67131 1.30746 0
v 2.6855 1.32167 0
v 2.6991 1.32482 0
v 2.84285 1.32482 0
v 2.85645 1.32167 0
v 2.87064 1.30746 0
v 2.87379 1.29383 0
v 2.83206 0.795518 0
v 2.82567 0.767838 0
v 2.80852 0.746404 0
v 2.78363 0.73424 0
v 2.75482 0.73424 0
v 2.72993 0.746404 0
v 2.71279 0.767838 0
v 2.7064 0.795518 0
v 2.71279 0.823197 0
v 2.72993 0.844631 0
v 2.75482 0.856796 0
v 2.93626 0.958407 0
v 2.94903 0.944137 0
v 2.41817 0.674854 0.05
v 2.54781 0.650785 0.05
v 2.55651 0.616987 0.05
v 2.43043 0.513149 0.05
v 2.39902 0.527483 0.05
v 2.39546 0.65539 0.05
v 2.76923 0.367483 0.05
v 2.70836 0.371813 0.05
v 2.64954 0.38453 0.05
v 2.59352 0.405227 0.05
v 2.54106 0.433493 0.05
v 2.49293 0.468922 0.05
v 2.44988 0.511104 0.05
v 2.5444 0.595398 0.05
v 2.57472 0.56569 0.05
v 2.60861 0.540738 0.05
v 2.64554 0.520831 0.05
v 2.68497 0.506256 0.05
v 2.72638 0.4973 0.05
v 2.76923 0.49425 0.05
v 2.8381 0.502221 0.05
v 2.90136 0.524918 0.05
v 2.9572 0.560519 0.05
v 3.0038 0.607202 0.05
v 3.03934 0.663144 0.05
v 3.06199 0.726524 0.05
v 3.06995 0.795518 0.05
v 3.06199 0.864512 0.05
v 3.03934 0.927891 0.05
v 3.0038 0.983833 0.05
v 2.9572 1.03052 0.05
v 2.90136 1.06612 0.05
v 2.8381 1.08881 0.05
v 2.76923 1.09678 0.05
v 2.70036 1.08881 0.05
v 2.6371 1.06612 0.05
v 2.58126 1.03052 0.05
v 2.53466 0.983833 0.05
v 2.49912 0.927891 0.05
v 2.47647 0.864512 0.05
v 2.46851 0.795518 0.05
v 2.46208 0.767644 0.05
v 2.44481 0.746059 0.05
v 2.41975 0.733808 0.05
v 2.39074 0.733808 0.05
v 2.36567 0.746059 0.05
v 2.3484 0.767644 0.05
v 2.34197 0.795518 0.05
v 2.35328 0.893543 0.05
v 2.38547 0.983591 0.05
v 2.43596 1.06307 0.05
v 2.50216 1.1294 0.05
v 2.5815 1.17998 0.05
v 2.67138 1.21223 0.05
v 2.86708 1.21223 0.05
v 2.95696 1.17998 0.05
v 3.0363 1.1294 0.05
v 3.1025 1.06307 0.05
v 3.15299 0.983591 0.05
v 3.18518 0.893543 0.05
v 3.19649 0.795518 0.05
v 3.18518 0.697493 0.05
v 3.15299 0.607445 0.05
v 3.1025 0.527963 0.05
v 3.0363 0.461637 0.05
v 2.95696 0.411055 0.05
v 2.86708 0.378807 0.05
v 2.87379 1.27659 0.05
v 2.87064 1.26296 0.05
v 2.85645 1.24875 0.05
v 2.6855 1.24875 0.05
v 2.67131 1.26296 0.05
v 2.66816 1.27659 0.05
v 2.66816 1.29383 0.05
v 2.67131 1.30746 0.05
v 2.6855 1.32167 0.05
v 2.6991 1.32482 0.05
v 2.84285 1.32482 0.05
v 2.85645 1.32167 0.05
v 2.87064 1.30746 0.05
v 2.87379 1.29383 0.05
v 2.83206 0.795518 0.05
v 2.82567 0.767838 0.05
v 2.80852 0.746404 0.05
v 2.78363 0.73424 0.05
v 2.75482 0.73424 0.05
v 2.72993 0.746404 0.05
v 2.71279 0.767838 0.05
v 2.7064 0.795518 0.05
v 2.71279 0.823197 0.05
v 2.72993 0.844631 0.05
v 2.75482 0.856796 0.05
v 2.93626 0.958407 0.05
v 2.94903 0.944137 0.05
v 2.77838 0.857402 0.05
v 2.77838 0.857403 0
v 2.71541 1.21732 0.05
v 2.71541 1.21732 0
v 2.81815 1.21789 0.05
v 2.81815 1.21789 0
v 2.81841 1.2456 0.05
v 2.81841 1.2456 0
v 2.71581 1.2456 0
v 2.71581 1.2456 0.05
v 2.44132 0.522265 0.05
v 2.44132 0.522265 0
v 2.5389 0.602576 0
v 2.5389 0.602576 0.05
v 2.40227 0.670443 0.05
v 2.40227 0.670443 0
v 2.41035 0.510701 0.05
v 2.41035 0.510701 0
v 2.56269 0.636608 0.05
v 2.56269 0.636608 0
v 2.94858 0.956598 0.05
v 2.94858 0.956598 0
v 2.76192 0.790022 0.05
v 2.46137 0.601822 0.05
v 2.77062 1.28316 0.05
vn -0.141089 0.989997 0
vn -0.513017 0.858379 0
vn 0 0 1
vn 0.780989 -0.624545 0
vn 0.974357 -0.225009 0
vn 0.974357 0.225007 0
vn 0.78099 0.624544 0
vn 0.436091 0.899902 0
vn -0.436687 0.899613 0
vn -0.78124 0.62423 0
vn -0.974396 0.224839 0
vn 0.126293 -0.991993 0
vn -0.126951 -0.991909 0
vn -0.974349 -0.225043 0
vn -0.780988 -0.624546 0
vn -0.436196 -0.899852 0
vn 2.98232e-007 -1 0
vn 0.436197 -0.899851 0
vn 0.140734 0.990047 0
vn -0.000398316 1 0
vn -0.924902 -0.380206 0
vn -1 -3.07936e-007 0
vn -0.925378 0.379046 0
vn -0.788114 -0.615529 0
vn -0.490309 -0.871549 0
vn 0.788132 -0.615506 0
vn 0.489537 -0.871982 0
vn 0.9244 -0.381425 0
vn 0.924924 0.380153 0
vn 1 0 0
vn 0.796117 0.605143 0
vn -0.796193 0.605043 0
vn 0.512281 0.858818 0
vn -0.195089 -0.980786 0
vn 0.195088 -0.980786 0
vn 0.980785 -0.19509 0
vn 0.980785 0.19509 0
vn 0.195088 0.980786 0
vn -0.195089 0.980786 0
vn -0.980785 0.19509 0
vn -0.980785 -0.19509 0
vn -0.92388 0.382683 0
vn -0.38268 0.923881 0
vn -0.92388 -0.382683 0
vn -0.38268 -0.923881 0
vn 0.38268 0.923881 0
vn 0.92388 0.382683 0
vn 0.92388 -0.382683 0
vn 0.38268 -0.923881 0
vn -0.0435256 0.999052 0
vn 0.454936 0.890524 9.00499e-007
vn -0.952058 -0.305919 0
vn -0.980358 0.197227 0
vn 0.64801 0.761632 -3.08995e-006
vn 0.53502 0.84484 -1.41707e-006
vn 0.973881 -0.22706 0
vn 0.985454 -0.169944 0
vn 0.225364 -0.974275 0
vn -0.225366 -0.974274 1.07463e-006
vn 0.993579 0.113144 -4.73775e-006
vn 0.874868 0.484361 -2.41649e-006
vn 0.113528 0.993535 0
vn 0.485492 0.874241 0
vn -0.113528 0.993535 0
vn -0.485481 0.874247 3.51083e-006
vn -0.99358 -0.113132 -2.69727e-007
vn -0.99358 0.113136 0
vn -0.874866 0.484365 3.51034e-006
vn -0.874874 -0.48435 -2.78765e-007
vn 0.99358 -0.113131 -5.00748e-006
vn -0.625165 0.780493 -5.48819e-007
vn -0.237887 0.971293 -5.48056e-007
vn -0.900129 0.435624 -4.90281e-006
vn -1 -6.52228e-006 -9.53673e-006
vn -0.900128 -0.435627 -4.62794e-006
vn -0.625167 -0.780491 0
vn -0.225358 -0.974276 0
vn 0.225352 -0.974277 0
vn 0.625162 -0.780495 0
vn 0.900129 -0.435623 1.37423e-007
vn 0.901844 -0.432061 1.373e-007
vn -0.293074 0.95609 2.37617e-006
vn -0.538894 0.842374 4.57802e-006
vn 0.785793 -0.61849 0
vn 0.642083 -0.766635 0
vn 0.39793 -0.917416 0
vn 0.828078 -0.560613 0
vn 0.633353 -0.773863 0
vn 0.874877 -0.484346 -2.69528e-006
vn 0.999329 0.0366176 0
vn 0.145358 0.989379 0
vn -0.900138 -0.435605 0
vn -0.625188 -0.780474 1.07302e-006
vn 0.625181 -0.78048 0
vn 0.900133 -0.435615 0
vn -0.998435 -0.0559325 0
vn 0.89843 -0.439117 1.38183e-006
vn -0.973881 0.227059 -4.03895e-007
vn 0.780579 -0.625058 1.38152e-006
vn -0.780581 0.625054 0
vn -0.898431 0.439114 -4.0376e-007
vn 0.626412 -0.779492 0
vn 0.440379 -0.897812 0
vn -0.626415 0.77949 0
vn 0.227827 -0.973702 0
vn -0.440379 0.897812 1.62031e-006
vn 1.1888e-006 -1 0
vn -0.227826 0.973702 3.36473e-006
vn -0.999904 0.0138712 3.30714e-008
vn -0.11497 0.993369 3.46482e-006
vn 0.999957 -0.00929348 -2.21574e-008
vn -0.227823 -0.973703 0
vn -0.440372 -0.897815 0
vn 0.227826 0.973702 0
vn 0.11497 0.993369 0
vn -0.626407 -0.779496 1.69754e-006
vn 0.440376 0.897813 0
vn -0.780576 -0.625061 1.69753e-006
vn 0.62641 0.779494 0
vn -0.898428 -0.43912 -4.03765e-007
vn 0.780576 0.62506 -6.43035e-007
vn -0.97388 -0.227063 -4.03899e-007
vn 0.898429 0.439119 1.61586e-006
vn -1 -9.74994e-008 -6.87348e-008
vn 0.97388 0.227063 2.19106e-006
vn -0.97388 0.227063 -6.87304e-008
vn 1 3.07498e-007 2.31545e-006
vn -0.898429 0.439119 0
vn 0.97388 -0.227062 2.78793e-006
vn -0.780577 0.62506 -8.47226e-007
vn 0.898429 -0.439118 4.03762e-007
vn -0.626408 0.779495 4.42169e-007
vn 0.780577 -0.62506 0
vn -0.440373 0.897815 1.60631e-007
vn 0.626409 -0.779494 0
vn -0.227823 0.973702 -1.12948e-006
vn 0.440376 -0.897813 0
vn 0.227825 -0.973702 0
vn -0.0220867 0.999756 0
vn 0.0221035 -0.999756 0
vn 0.141551 0.989931 0
vn -0.141491 -0.98994 0
vn 0.279736 0.960077 0
vn -0.279637 -0.960106 8.40748e-007
vn 0.411608 0.911361 0
vn -0.411491 -0.911414 8.40729e-007
vn -0.534901 -0.844915 0
vn -0.647908 -0.761718 0
vn 0.748589 0.663034 -1.6729e-006
vn 0.793527 0.608536 0
vn -0.911088 0.412211 0
vn -0.267355 0.963598 0
vn 0.121009 -0.992651 0
vn -0.828717 -0.559668 0
vn 0.689669 0.724125 1.72645e-006
vn 0.953747 -0.300611 0
vn -0.793493 -0.608579 0
vn -0.74853 -0.663101 0
vn 0.707753 -0.70646 0
vn 0.0825312 -0.996588 -2.37605e-006
vn -0.103391 -0.994641 -2.37141e-006
vn -0.430404 -0.902636 -1.25831e-006
vt 1 0.258824
vt 1 0.741176
vt 0.992015 1
vt 0.00798548 1
vt 0 0.741176
vt 0 0.258824
vt 0.00798548 0
vt 0.992015 0
vt 0.00399274 0.129412
vt 0.996007 0.129412
vt 0.00399274 0.870588
vt 0.996007 0.870588
vt 0.980144 0.442119
usemtl Default
f 14//1 2//1 54//2 53//2
f 26//3 55//3 17//3
f 26//3 57//3 19//3
f 30//3 59//3 21//3
f 36//3 61//3 23//3
f 46//4 33//4 34//5 47//5
f 47//5 34//5 25//6 38//6
f 25//3 34//3 16//3
f 39//7 26//7 27//8 40//8
f 41//9 28//9 29//10 42//10
f 29//10 30//11 43//11 42//10
f 8//12 20//12 19//13 7//13
f 28//3 19//3 20//3
f 28//3 20//3 29//3
f 43//11 30//11 35//14 48//14
f 35//14 36//15 49//15 48//14
f 49//15 36//15 37//16 50//16
f 37//16 31//17 44//17 50//16
f 32//18 45//18 44//17 31//17
f 32//18 33//4 46//4 45//18
f 14//1 13//19 1//19 2//1
f 27//8 51//20 52//20 40//8
f 41//9 52//20 51//20 28//9
f 19//3 28//3 51//3
f 51//3 27//3 19//3
f 26//3 16//3 55//3
f 5//21 17//21 55//22 56//22
f 16//23 4//23 56//22 55//22
f 17//21 5//21 6//24 18//24
f 7//13 19//13 57//25 58//25
f 17//3 18//3 26//3
f 26//3 18//3 57//3
f 38//6 25//6 26//7 39//7
f 25//3 16//3 26//3
f 26//3 19//3 27//3
f 6//24 58//25 57//25 18//24
f 9//26 21//26 59//27 60//27
f 29//3 20//3 30//3
f 30//3 20//3 59//3
f 20//12 8//12 60//27 59//27
f 10//28 22//28 21//26 9//26
f 22//3 35//3 30//3
f 22//3 30//3 21//3
f 11//29 23//29 61//30 62//30
f 35//3 22//3 36//3
f 36//3 22//3 61//3
f 22//28 10//28 62//30 61//30
f 12//31 24//31 23//29 11//29
f 24//3 37//3 36//3
f 24//3 36//3 23//3
f 14//3 31//3 13//3
f 31//3 14//3 32//3
f 3//32 15//32 53//2 54//2
f 33//3 53//3 15//3
f 33//3 14//3 53//3
f 24//3 31//3 37//3
f 31//3 24//3 63//3
f 24//31 12//31 64//33 63//33
f 32//3 14//3 33//3
f 1//19 13//19 63//33 64//33
f 31//3 63//3 13//3
f 3//32 4//23 16//23 15//32
f 16//3 34//3 33//3
f 16//3 33//3 15//3
f 74/1/34 65/1/34 72/2/35 79/2/35
f 80/3/36 71/3/36 70/4/37 77/4/37
f 78/5/38 69/5/38 68/6/39 76/6/39
f 75/7/40 67/7/40 66/8/41 73/8/41
f 67/7/40 75/7/40 81/9/42 82/9/42
f 82/9/43 81/9/43 76/6/39 68/6/39
f 73/8/41 66/8/41 83/10/44 84/10/44
f 84/10/45 83/10/45 65/1/34 74/1/34
f 69/5/38 78/5/38 85/11/46 86/11/46
f 86/11/47 85/11/47 77/4/37 70/4/37
f 71/3/36 80/3/36 87/12/48 88/12/48
f 88/12/49 87/12/49 79/2/35 72/2/35
f 74/1/3 79/2/3 89/13/3
f 79/2/3 87/12/3 89/13/3
f 87/12/3 80/3/3 89/13/3
f 80/3/3 77/4/3 89/13/3
f 77/4/3 85/11/3 89/13/3
f 85/11/3 78/5/3 89/13/3
f 78/5/3 76/6/3 89/13/3
f 76/6/3 81/9/3 89/13/3
f 81/9/3 75/7/3 89/13/3
f 75/7/3 73/8/3 89/13/3
f 73/8/3 84/10/3 89/13/3
f 84/10/3 74/1/3 89/13/3
f 90//50 184//50 185//51 91//51
f 301//3 296//3 185//3
f 301//3 186//3 296//3
f 301//3 294//3 187//3
f 301//3 188//3 294//3
f 94//52 188//52 189//53 95//53
f 301//3 292//3 189//3
f 301//3 184//3 292//3
f 104//54 198//54 199//55 105//55
f 129//56 223//56 224//57 130//57
f 133//58 227//58 228//59 134//59
f 264//60 170//60 169//61 263//61
f 302//3 263//3 262//3
f 167//62 261//62 262//63 168//63
f 260//64 166//64 165//65 259//65
f 302//3 259//3 258//3
f 162//66 256//66 257//67 163//67
f 163//67 257//67 258//68 164//68
f 256//66 162//66 161//69 255//69
f 302//3 253//3 252//3
f 166//64 260//64 261//62 167//62
f 302//3 284//3 253//3
f 302//3 254//3 287//3
f 302//3 255//3 254//3
f 170//60 264//60 251//70 157//70
f 180//71 274//71 275//72 181//72
f 179//73 273//73 274//71 180//71
f 178//74 272//74 273//73 179//73
f 272//74 178//74 177//75 271//75
f 176//76 270//76 271//75 177//75
f 175//77 269//77 270//76 176//76
f 174//78 268//78 269//77 175//77
f 173//79 267//79 268//78 174//78
f 172//80 266//80 267//79 173//79
f 171//81 265//81 266//80 172//80
f 300//3 298//3 276//3
f 300//3 277//3 298//3
f 181//72 275//72 278//82 279//82
f 278//82 276//83 182//83 279//82
f 277//84 265//81 171//81 183//84
f 288//85 187//86 93//86 289//85
f 186//87 291//88 290//88 92//87
f 157//70 251//70 252//89 158//89
f 277//90 183//90 299//90 298//90
f 182//91 276//91 298//91 299//91
f 275//3 274//3 300//3
f 274//3 273//3 300//3
f 273//3 272//3 300//3
f 272//3 271//3 300//3
f 271//3 270//3 300//3
f 270//3 269//3 300//3
f 269//3 268//3 300//3
f 268//3 267//3 300//3
f 267//3 266//3 300//3
f 266//3 265//3 300//3
f 265//3 277//3 300//3
f 276//3 278//3 300//3
f 278//3 275//3 300//3
f 136//92 135//93 229//93 230//92
f 135//93 134//59 228//59 229//93
f 133//58 132//94 226//94 227//58
f 229//3 228//3 227//3 226//3
f 132//94 131//95 225//95 226//94
f 225//3 230//3 229//3 226//3
f 131//95 130//57 224//57 225//95
f 136//92 230//92 231//96 137//96
f 231//3 230//3 225//3 224//3
f 129//56 128//97 222//97 223//56
f 232//98 138//98 137//96 231//96
f 232//3 231//3 224//3 223//3
f 128//97 127//99 221//99 222//97
f 140//100 139//101 233//101 234//100
f 233//101 139//101 138//98 232//98
f 233//3 232//3 223//3 222//3
f 127//99 126//102 220//102 221//99
f 234//3 233//3 222//3 221//3
f 126//102 125//103 219//103 220//102
f 235//104 141//104 140//100 234//100
f 235//3 234//3 221//3 220//3
f 125//103 124//105 218//105 219//103
f 236//106 142//106 141//104 235//104
f 236//3 235//3 220//3 219//3
f 124//105 123//107 217//107 218//105
f 237//108 143//108 142//106 236//106
f 236//3 219//3 218//3 237//3
f 287//109 286//109 281//109 280//109
f 280//110 281//110 143//108 237//108
f 217//3 280//3 237//3 218//3
f 285//111 284//111 282//111 283//111
f 280//3 282//3 284//3 287//3
f 217//107 123//107 122//112 216//112
f 282//3 280//3 217//3
f 122//112 121//113 215//113 216//112
f 144//114 283//115 282//115 238//114
f 217//3 216//3 238//3 282//3
f 121//113 120//116 214//116 215//113
f 239//117 145//117 144//114 238//114
f 238//3 216//3 215//3 239//3
f 120//116 119//118 213//118 214//116
f 240//119 146//119 145//117 239//117
f 239//3 215//3 214//3 240//3
f 119//118 118//120 212//120 213//118
f 241//121 147//121 146//119 240//119
f 240//3 214//3 213//3 241//3
f 118//120 117//122 211//122 212//120
f 242//123 148//123 147//121 241//121
f 241//3 213//3 212//3 242//3
f 117//122 116//124 210//124 211//122
f 243//125 149//125 148//123 242//123
f 243//3 242//3 212//3 211//3
f 116//124 115//126 209//126 210//124
f 244//127 150//127 149//125 243//125
f 244//3 243//3 211//3 210//3
f 115//126 114//128 208//128 209//126
f 245//129 151//129 150//127 244//127
f 244//3 210//3 209//3 245//3
f 114//128 113//130 207//130 208//128
f 246//131 152//131 151//129 245//129
f 245//3 209//3 208//3 246//3
f 113//130 112//132 206//132 207//130
f 247//133 153//133 152//131 246//131
f 247//3 246//3 208//3 207//3
f 112//132 111//134 205//134 206//132
f 248//135 154//135 153//133 247//133
f 248//3 247//3 207//3 206//3
f 111//134 110//136 204//136 205//134
f 249//137 155//137 154//135 248//135
f 249//3 248//3 206//3 205//3
f 250//138 156//138 155//137 249//137
f 250//3 249//3 205//3 204//3
f 204//136 110//136 109//139 203//139
f 190//140 96//140 156//138 250//138
f 190//3 250//3 204//3 203//3
f 109//139 108//141 202//141 203//139
f 191//142 97//142 96//140 190//140
f 191//3 190//3 203//3 202//3
f 108//141 107//143 201//143 202//141
f 192//144 98//144 97//142 191//142
f 192//3 191//3 202//3 201//3
f 107//143 106//145 200//145 201//143
f 193//146 99//146 98//144 192//144
f 193//3 192//3 201//3 200//3
f 106//145 105//55 199//55 200//145
f 194//147 100//147 99//146 193//146
f 194//3 193//3 200//3 199//3
f 195//148 101//148 100//147 194//147
f 195//3 194//3 199//3 198//3
f 197//149 103//149 290//150 291//150
f 185//3 184//3 301//3
f 95//53 189//53 292//151 293//151
f 184//50 90//50 293//152 292//152
f 189//3 188//3 301//3
f 93//86 187//86 294//153 295//153
f 188//52 94//52 295//154 294//154
f 187//3 288//3 301//3
f 288//3 291//3 301//3
f 291//3 186//3 301//3
f 91//51 185//51 296//155 297//155
f 186//87 92//87 297//156 296//156
f 198//54 104//54 103//149 197//149
f 289//157 102//158 196//158 288//157
f 195//148 196//158 102//158 101//148
f 196//3 195//3 198//3 197//3
f 288//3 196//3 197//3 291//3
f 264//3 263//3 302//3
f 169//61 168//63 262//63 263//61
f 262//3 261//3 302//3
f 261//3 260//3 302//3
f 260//3 259//3 302//3
f 259//65 165//65 164//68 258//68
f 258//3 257//3 302//3
f 257//3 256//3 302//3
f 256//3 255//3 302//3
f 253//159 159//159 158//89 252//89
f 285//160 159//160 253//160 284//160
f 287//3 284//3 302//3
f 287//161 254//162 160//162 286//161
f 161//69 160//162 254//162 255//69
f 252//3 251//3 302//3
f 251//3 264//3 302//3
