# OBJ written from C:\Users\Brad\Desktop\_2\sound-off.obj
# Units	meters

g sound-off
v 0.538427 -0.304573 0
v 0.529071 -0.30141 0
v -0.434059 0.317738 0
v -0.440413 0.324257 0
v -0.443199 0.332581 0
v -0.442129 0.341377 0
v -0.437088 0.349118 0
v -0.429447 0.353693 0
v -0.420661 0.354581 0
v -0.412079 0.351496 0
v 0.551052 -0.267653 0
v 0.557406 -0.274172 0
v 0.560192 -0.282496 0
v 0.559122 -0.291291 0
v 0.557051 -0.295449 0
v 0.548302 -0.302894 0
v 0.538427 -0.304573 0.0769231
v 0.529071 -0.30141 0.0769231
v -0.434059 0.317738 0.0769231
v -0.440413 0.324257 0.0769231
v -0.443199 0.332581 0.0769231
v -0.442129 0.341377 0.0769231
v -0.437088 0.349118 0.0769231
v -0.429447 0.353693 0.0769231
v -0.420661 0.354581 0.0769231
v -0.412079 0.351496 0.0769231
v 0.551052 -0.267653 0.0769231
v 0.557406 -0.274172 0.0769231
v 0.560192 -0.282496 0.0769231
v 0.559122 -0.291291 0.0769231
v 0.557051 -0.295449 0.0769231
v 0.548302 -0.302894 0.0769231
vn -0.433776 -0.901021 0
vn -0.0787409 -0.996895 0
vn 0 0 1
vn 0.422972 -0.906143 0
vn 0.78756 -0.616238 0
vn 0.957779 -0.287504 0
vn -0.632502 -0.774558 0
vn -0.994906 -0.100803 0
vn -0.939664 0.342098 0
vn -0.314664 0.949203 0
vn -0.693668 0.720295 0
vn -0.853679 -0.5208 0
vn 0.121925 0.992539 0
vn 0.442341 0.896847 0
vn 0.632488 0.77457 0
vn 0.853666 0.520821 0
vn 0.994906 0.100808 0
vt 1 1
vt 0 1
vt 0 0
vt 1 0
usemtl Default
f 18/1/1 2/2/1 1/3/2 17/4/2
f 24/1/3 23/1/3 22/1/3 21/1/3
f 32/1/4 16/2/4 15/3/5 31/4/5
f 14/3/6 30/4/6 31/1/5 15/2/5
f 32/1/3 31/1/3 30/1/3 29/1/3
f 16/3/4 32/4/4 17/1/2 1/2/2
f 3/2/7 2/3/1 18/4/1 19/1/7
f 5/3/8 21/4/8 22/1/9 6/2/9
f 8/2/10 7/3/11 23/4/11 24/1/10
f 20/1/3 25/1/3 24/1/3 21/1/3
f 4/3/12 20/4/12 21/1/8 5/2/8
f 9/2/13 8/3/10 24/4/10 25/1/13
f 19/1/3 26/1/3 25/1/3 20/1/3
f 3/3/7 19/4/7 20/1/12 4/2/12
f 10/2/14 9/3/13 25/4/13 26/1/14
f 6/3/9 22/4/9 23/1/11 7/2/11
f 11/2/15 10/3/14 26/4/14 27/1/15
f 26/1/3 19/1/3 18/1/3 27/1/3
f 11/3/15 27/4/15 28/1/16 12/2/16
f 18/1/3 17/1/3 28/1/3 27/1/3
f 12/3/16 28/4/16 29/1/17 13/2/17
f 28/1/3 17/1/3 32/1/3 29/1/3
f 30/1/6 14/2/6 13/3/17 29/4/17
